<?xml version="1.0" encoding="utf-8" standalone="no"?>
<!DOCTYPE svg PUBLIC "-//W3C//DTD SVG 1.1//EN"
  "http://www.w3.org/Graphics/SVG/1.1/DTD/svg11.dtd">
<!-- Created with matplotlib (https://matplotlib.org/) -->
<svg height="354.656298pt" version="1.1" viewBox="0 0 360.612875 354.656298" width="360.612875pt" xmlns="http://www.w3.org/2000/svg" xmlns:xlink="http://www.w3.org/1999/xlink">
 <defs>
  <style type="text/css">
*{stroke-linecap:butt;stroke-linejoin:round;}
  </style>
 </defs>
 <g id="figure_1">
  <g id="patch_1">
   <path d="M 0 354.656298 
L 360.612875 354.656298 
L 360.612875 0 
L 0 0 
z
" style="fill:#ffffff;stroke:#ffffff;stroke-linejoin:miter;"/>
  </g>
  <g id="axes_1">
   <g id="patch_2">
    <path d="M 41.22975 103.471548 
L 180.72975 103.471548 
L 180.72975 11.431548 
L 41.22975 11.431548 
z
" style="fill:#ffffff;"/>
   </g>
   <g id="matplotlib.axis_1">
    <g id="xtick_1"/>
    <g id="xtick_2"/>
    <g id="xtick_3"/>
    <g id="xtick_4"/>
    <g id="xtick_5"/>
    <g id="xtick_6"/>
    <g id="xtick_7"/>
    <g id="xtick_8"/>
    <g id="xtick_9"/>
    <g id="xtick_10"/>
    <g id="xtick_11"/>
    <g id="xtick_12"/>
    <g id="xtick_13"/>
    <g id="xtick_14"/>
    <g id="xtick_15"/>
   </g>
   <g id="matplotlib.axis_2">
    <g id="ytick_1">
     <g id="line2d_1">
      <path clip-path="url(#p092cdce64c)" d="M 41.22975 103.145227 
L 180.72975 103.145227 
" style="fill:none;stroke:#d3d3d3;stroke-opacity:0.5;stroke-width:0.8;"/>
     </g>
     <g id="line2d_2">
      <path d="M 41.22975 103.145227 
" style="fill:none;stroke:#000000;stroke-width:1.5;"/>
      <defs>
       <path d="M 0 0 
L -3 0 
" id="m934e7d4734" style="stroke:#000000;"/>
      </defs>
      <g>
       <use style="stroke:#000000;" x="41.22975" xlink:href="#m934e7d4734" y="103.145227"/>
      </g>
     </g>
     <g id="text_1">
      <!-- 0 -->
      <defs>
       <path d="M 31.78125 66.40625 
Q 24.171875 66.40625 20.328125 58.90625 
Q 16.5 51.421875 16.5 36.375 
Q 16.5 21.390625 20.328125 13.890625 
Q 24.171875 6.390625 31.78125 6.390625 
Q 39.453125 6.390625 43.28125 13.890625 
Q 47.125 21.390625 47.125 36.375 
Q 47.125 51.421875 43.28125 58.90625 
Q 39.453125 66.40625 31.78125 66.40625 
z
M 31.78125 74.21875 
Q 44.046875 74.21875 50.515625 64.515625 
Q 56.984375 54.828125 56.984375 36.375 
Q 56.984375 17.96875 50.515625 8.265625 
Q 44.046875 -1.421875 31.78125 -1.421875 
Q 19.53125 -1.421875 13.0625 8.265625 
Q 6.59375 17.96875 6.59375 36.375 
Q 6.59375 54.828125 13.0625 64.515625 
Q 19.53125 74.21875 31.78125 74.21875 
z
" id="DejaVuSans-48"/>
      </defs>
      <g transform="translate(29.72175 105.794227)scale(0.096 -0.096)">
       <use xlink:href="#DejaVuSans-48"/>
      </g>
     </g>
    </g>
    <g id="ytick_2">
     <g id="line2d_3">
      <path clip-path="url(#p092cdce64c)" d="M 41.22975 84.885282 
L 180.72975 84.885282 
" style="fill:none;stroke:#d3d3d3;stroke-opacity:0.5;stroke-width:0.8;"/>
     </g>
     <g id="line2d_4">
      <path d="M 41.22975 84.885282 
" style="fill:none;stroke:#000000;stroke-width:1.5;"/>
      <g>
       <use style="stroke:#000000;" x="41.22975" xlink:href="#m934e7d4734" y="84.885282"/>
      </g>
     </g>
     <g id="text_2">
      <!-- 5 -->
      <defs>
       <path d="M 10.796875 72.90625 
L 49.515625 72.90625 
L 49.515625 64.59375 
L 19.828125 64.59375 
L 19.828125 46.734375 
Q 21.96875 47.46875 24.109375 47.828125 
Q 26.265625 48.1875 28.421875 48.1875 
Q 40.625 48.1875 47.75 41.5 
Q 54.890625 34.8125 54.890625 23.390625 
Q 54.890625 11.625 47.5625 5.09375 
Q 40.234375 -1.421875 26.90625 -1.421875 
Q 22.3125 -1.421875 17.546875 -0.640625 
Q 12.796875 0.140625 7.71875 1.703125 
L 7.71875 11.625 
Q 12.109375 9.234375 16.796875 8.0625 
Q 21.484375 6.890625 26.703125 6.890625 
Q 35.15625 6.890625 40.078125 11.328125 
Q 45.015625 15.765625 45.015625 23.390625 
Q 45.015625 31 40.078125 35.4375 
Q 35.15625 39.890625 26.703125 39.890625 
Q 22.75 39.890625 18.8125 39.015625 
Q 14.890625 38.140625 10.796875 36.28125 
z
" id="DejaVuSans-53"/>
      </defs>
      <g transform="translate(29.72175 87.534282)scale(0.096 -0.096)">
       <use xlink:href="#DejaVuSans-53"/>
      </g>
     </g>
    </g>
    <g id="ytick_3">
     <g id="line2d_5">
      <path clip-path="url(#p092cdce64c)" d="M 41.22975 66.625336 
L 180.72975 66.625336 
" style="fill:none;stroke:#d3d3d3;stroke-opacity:0.5;stroke-width:0.8;"/>
     </g>
     <g id="line2d_6">
      <path d="M 41.22975 66.625336 
" style="fill:none;stroke:#000000;stroke-width:1.5;"/>
      <g>
       <use style="stroke:#000000;" x="41.22975" xlink:href="#m934e7d4734" y="66.625336"/>
      </g>
     </g>
     <g id="text_3">
      <!-- 10 -->
      <defs>
       <path d="M 12.40625 8.296875 
L 28.515625 8.296875 
L 28.515625 63.921875 
L 10.984375 60.40625 
L 10.984375 69.390625 
L 28.421875 72.90625 
L 38.28125 72.90625 
L 38.28125 8.296875 
L 54.390625 8.296875 
L 54.390625 0 
L 12.40625 0 
z
" id="DejaVuSans-49"/>
      </defs>
      <g transform="translate(23.61375 69.274336)scale(0.096 -0.096)">
       <use xlink:href="#DejaVuSans-49"/>
       <use x="63.623047" xlink:href="#DejaVuSans-48"/>
      </g>
     </g>
    </g>
    <g id="ytick_4">
     <g id="line2d_7">
      <path clip-path="url(#p092cdce64c)" d="M 41.22975 48.365391 
L 180.72975 48.365391 
" style="fill:none;stroke:#d3d3d3;stroke-opacity:0.5;stroke-width:0.8;"/>
     </g>
     <g id="line2d_8">
      <path d="M 41.22975 48.365391 
" style="fill:none;stroke:#000000;stroke-width:1.5;"/>
      <g>
       <use style="stroke:#000000;" x="41.22975" xlink:href="#m934e7d4734" y="48.365391"/>
      </g>
     </g>
     <g id="text_4">
      <!-- 15 -->
      <g transform="translate(23.61375 51.014391)scale(0.096 -0.096)">
       <use xlink:href="#DejaVuSans-49"/>
       <use x="63.623047" xlink:href="#DejaVuSans-53"/>
      </g>
     </g>
    </g>
    <g id="ytick_5">
     <g id="line2d_9">
      <path clip-path="url(#p092cdce64c)" d="M 41.22975 30.105445 
L 180.72975 30.105445 
" style="fill:none;stroke:#d3d3d3;stroke-opacity:0.5;stroke-width:0.8;"/>
     </g>
     <g id="line2d_10">
      <path d="M 41.22975 30.105445 
" style="fill:none;stroke:#000000;stroke-width:1.5;"/>
      <g>
       <use style="stroke:#000000;" x="41.22975" xlink:href="#m934e7d4734" y="30.105445"/>
      </g>
     </g>
     <g id="text_5">
      <!-- 20 -->
      <defs>
       <path d="M 19.1875 8.296875 
L 53.609375 8.296875 
L 53.609375 0 
L 7.328125 0 
L 7.328125 8.296875 
Q 12.9375 14.109375 22.625 23.890625 
Q 32.328125 33.6875 34.8125 36.53125 
Q 39.546875 41.84375 41.421875 45.53125 
Q 43.3125 49.21875 43.3125 52.78125 
Q 43.3125 58.59375 39.234375 62.25 
Q 35.15625 65.921875 28.609375 65.921875 
Q 23.96875 65.921875 18.8125 64.3125 
Q 13.671875 62.703125 7.8125 59.421875 
L 7.8125 69.390625 
Q 13.765625 71.78125 18.9375 73 
Q 24.125 74.21875 28.421875 74.21875 
Q 39.75 74.21875 46.484375 68.546875 
Q 53.21875 62.890625 53.21875 53.421875 
Q 53.21875 48.921875 51.53125 44.890625 
Q 49.859375 40.875 45.40625 35.40625 
Q 44.1875 33.984375 37.640625 27.21875 
Q 31.109375 20.453125 19.1875 8.296875 
z
" id="DejaVuSans-50"/>
      </defs>
      <g transform="translate(23.61375 32.754445)scale(0.096 -0.096)">
       <use xlink:href="#DejaVuSans-50"/>
       <use x="63.623047" xlink:href="#DejaVuSans-48"/>
      </g>
     </g>
    </g>
    <g id="ytick_6">
     <g id="line2d_11">
      <path clip-path="url(#p092cdce64c)" d="M 41.22975 11.8455 
L 180.72975 11.8455 
" style="fill:none;stroke:#d3d3d3;stroke-opacity:0.5;stroke-width:0.8;"/>
     </g>
     <g id="line2d_12">
      <path d="M 41.22975 11.8455 
" style="fill:none;stroke:#000000;stroke-width:1.5;"/>
      <g>
       <use style="stroke:#000000;" x="41.22975" xlink:href="#m934e7d4734" y="11.8455"/>
      </g>
     </g>
     <g id="text_6">
      <!-- 25 -->
      <g transform="translate(23.61375 14.4945)scale(0.096 -0.096)">
       <use xlink:href="#DejaVuSans-50"/>
       <use x="63.623047" xlink:href="#DejaVuSans-53"/>
      </g>
     </g>
    </g>
    <g id="ytick_7">
     <g id="line2d_13">
      <path d="M 41.22975 94.015254 
" style="fill:none;stroke:#000000;stroke-width:1.5;"/>
      <defs>
       <path d="M 0 0 
L -1.5 0 
" id="m7446a8ad37" style="stroke:#000000;"/>
      </defs>
      <g>
       <use style="stroke:#000000;" x="41.22975" xlink:href="#m7446a8ad37" y="94.015254"/>
      </g>
     </g>
    </g>
    <g id="ytick_8">
     <g id="line2d_14">
      <path d="M 41.22975 75.755309 
" style="fill:none;stroke:#000000;stroke-width:1.5;"/>
      <g>
       <use style="stroke:#000000;" x="41.22975" xlink:href="#m7446a8ad37" y="75.755309"/>
      </g>
     </g>
    </g>
    <g id="ytick_9">
     <g id="line2d_15">
      <path d="M 41.22975 57.495363 
" style="fill:none;stroke:#000000;stroke-width:1.5;"/>
      <g>
       <use style="stroke:#000000;" x="41.22975" xlink:href="#m7446a8ad37" y="57.495363"/>
      </g>
     </g>
    </g>
    <g id="ytick_10">
     <g id="line2d_16">
      <path d="M 41.22975 39.235418 
" style="fill:none;stroke:#000000;stroke-width:1.5;"/>
      <g>
       <use style="stroke:#000000;" x="41.22975" xlink:href="#m7446a8ad37" y="39.235418"/>
      </g>
     </g>
    </g>
    <g id="ytick_11">
     <g id="line2d_17">
      <path d="M 41.22975 20.975473 
" style="fill:none;stroke:#000000;stroke-width:1.5;"/>
      <g>
       <use style="stroke:#000000;" x="41.22975" xlink:href="#m7446a8ad37" y="20.975473"/>
      </g>
     </g>
    </g>
    <g id="text_7">
     <!-- PERMANOVA pseudo-F -->
     <defs>
      <path d="M 19.671875 64.796875 
L 19.671875 37.40625 
L 32.078125 37.40625 
Q 38.96875 37.40625 42.71875 40.96875 
Q 46.484375 44.53125 46.484375 51.125 
Q 46.484375 57.671875 42.71875 61.234375 
Q 38.96875 64.796875 32.078125 64.796875 
z
M 9.8125 72.90625 
L 32.078125 72.90625 
Q 44.34375 72.90625 50.609375 67.359375 
Q 56.890625 61.8125 56.890625 51.125 
Q 56.890625 40.328125 50.609375 34.8125 
Q 44.34375 29.296875 32.078125 29.296875 
L 19.671875 29.296875 
L 19.671875 0 
L 9.8125 0 
z
" id="DejaVuSans-80"/>
      <path d="M 9.8125 72.90625 
L 55.90625 72.90625 
L 55.90625 64.59375 
L 19.671875 64.59375 
L 19.671875 43.015625 
L 54.390625 43.015625 
L 54.390625 34.71875 
L 19.671875 34.71875 
L 19.671875 8.296875 
L 56.78125 8.296875 
L 56.78125 0 
L 9.8125 0 
z
" id="DejaVuSans-69"/>
      <path d="M 44.390625 34.1875 
Q 47.5625 33.109375 50.5625 29.59375 
Q 53.5625 26.078125 56.59375 19.921875 
L 66.609375 0 
L 56 0 
L 46.6875 18.703125 
Q 43.0625 26.03125 39.671875 28.421875 
Q 36.28125 30.8125 30.421875 30.8125 
L 19.671875 30.8125 
L 19.671875 0 
L 9.8125 0 
L 9.8125 72.90625 
L 32.078125 72.90625 
Q 44.578125 72.90625 50.734375 67.671875 
Q 56.890625 62.453125 56.890625 51.90625 
Q 56.890625 45.015625 53.6875 40.46875 
Q 50.484375 35.9375 44.390625 34.1875 
z
M 19.671875 64.796875 
L 19.671875 38.921875 
L 32.078125 38.921875 
Q 39.203125 38.921875 42.84375 42.21875 
Q 46.484375 45.515625 46.484375 51.90625 
Q 46.484375 58.296875 42.84375 61.546875 
Q 39.203125 64.796875 32.078125 64.796875 
z
" id="DejaVuSans-82"/>
      <path d="M 9.8125 72.90625 
L 24.515625 72.90625 
L 43.109375 23.296875 
L 61.8125 72.90625 
L 76.515625 72.90625 
L 76.515625 0 
L 66.890625 0 
L 66.890625 64.015625 
L 48.09375 14.015625 
L 38.1875 14.015625 
L 19.390625 64.015625 
L 19.390625 0 
L 9.8125 0 
z
" id="DejaVuSans-77"/>
      <path d="M 34.1875 63.1875 
L 20.796875 26.90625 
L 47.609375 26.90625 
z
M 28.609375 72.90625 
L 39.796875 72.90625 
L 67.578125 0 
L 57.328125 0 
L 50.6875 18.703125 
L 17.828125 18.703125 
L 11.1875 0 
L 0.78125 0 
z
" id="DejaVuSans-65"/>
      <path d="M 9.8125 72.90625 
L 23.09375 72.90625 
L 55.421875 11.921875 
L 55.421875 72.90625 
L 64.984375 72.90625 
L 64.984375 0 
L 51.703125 0 
L 19.390625 60.984375 
L 19.390625 0 
L 9.8125 0 
z
" id="DejaVuSans-78"/>
      <path d="M 39.40625 66.21875 
Q 28.65625 66.21875 22.328125 58.203125 
Q 16.015625 50.203125 16.015625 36.375 
Q 16.015625 22.609375 22.328125 14.59375 
Q 28.65625 6.59375 39.40625 6.59375 
Q 50.140625 6.59375 56.421875 14.59375 
Q 62.703125 22.609375 62.703125 36.375 
Q 62.703125 50.203125 56.421875 58.203125 
Q 50.140625 66.21875 39.40625 66.21875 
z
M 39.40625 74.21875 
Q 54.734375 74.21875 63.90625 63.9375 
Q 73.09375 53.65625 73.09375 36.375 
Q 73.09375 19.140625 63.90625 8.859375 
Q 54.734375 -1.421875 39.40625 -1.421875 
Q 24.03125 -1.421875 14.8125 8.828125 
Q 5.609375 19.09375 5.609375 36.375 
Q 5.609375 53.65625 14.8125 63.9375 
Q 24.03125 74.21875 39.40625 74.21875 
z
" id="DejaVuSans-79"/>
      <path d="M 28.609375 0 
L 0.78125 72.90625 
L 11.078125 72.90625 
L 34.1875 11.53125 
L 57.328125 72.90625 
L 67.578125 72.90625 
L 39.796875 0 
z
" id="DejaVuSans-86"/>
      <path id="DejaVuSans-32"/>
      <path d="M 18.109375 8.203125 
L 18.109375 -20.796875 
L 9.078125 -20.796875 
L 9.078125 54.6875 
L 18.109375 54.6875 
L 18.109375 46.390625 
Q 20.953125 51.265625 25.265625 53.625 
Q 29.59375 56 35.59375 56 
Q 45.5625 56 51.78125 48.09375 
Q 58.015625 40.1875 58.015625 27.296875 
Q 58.015625 14.40625 51.78125 6.484375 
Q 45.5625 -1.421875 35.59375 -1.421875 
Q 29.59375 -1.421875 25.265625 0.953125 
Q 20.953125 3.328125 18.109375 8.203125 
z
M 48.6875 27.296875 
Q 48.6875 37.203125 44.609375 42.84375 
Q 40.53125 48.484375 33.40625 48.484375 
Q 26.265625 48.484375 22.1875 42.84375 
Q 18.109375 37.203125 18.109375 27.296875 
Q 18.109375 17.390625 22.1875 11.75 
Q 26.265625 6.109375 33.40625 6.109375 
Q 40.53125 6.109375 44.609375 11.75 
Q 48.6875 17.390625 48.6875 27.296875 
z
" id="DejaVuSans-112"/>
      <path d="M 44.28125 53.078125 
L 44.28125 44.578125 
Q 40.484375 46.53125 36.375 47.5 
Q 32.28125 48.484375 27.875 48.484375 
Q 21.1875 48.484375 17.84375 46.4375 
Q 14.5 44.390625 14.5 40.28125 
Q 14.5 37.15625 16.890625 35.375 
Q 19.28125 33.59375 26.515625 31.984375 
L 29.59375 31.296875 
Q 39.15625 29.25 43.1875 25.515625 
Q 47.21875 21.78125 47.21875 15.09375 
Q 47.21875 7.46875 41.1875 3.015625 
Q 35.15625 -1.421875 24.609375 -1.421875 
Q 20.21875 -1.421875 15.453125 -0.5625 
Q 10.6875 0.296875 5.421875 2 
L 5.421875 11.28125 
Q 10.40625 8.6875 15.234375 7.390625 
Q 20.0625 6.109375 24.8125 6.109375 
Q 31.15625 6.109375 34.5625 8.28125 
Q 37.984375 10.453125 37.984375 14.40625 
Q 37.984375 18.0625 35.515625 20.015625 
Q 33.0625 21.96875 24.703125 23.78125 
L 21.578125 24.515625 
Q 13.234375 26.265625 9.515625 29.90625 
Q 5.8125 33.546875 5.8125 39.890625 
Q 5.8125 47.609375 11.28125 51.796875 
Q 16.75 56 26.8125 56 
Q 31.78125 56 36.171875 55.265625 
Q 40.578125 54.546875 44.28125 53.078125 
z
" id="DejaVuSans-115"/>
      <path d="M 56.203125 29.59375 
L 56.203125 25.203125 
L 14.890625 25.203125 
Q 15.484375 15.921875 20.484375 11.0625 
Q 25.484375 6.203125 34.421875 6.203125 
Q 39.59375 6.203125 44.453125 7.46875 
Q 49.3125 8.734375 54.109375 11.28125 
L 54.109375 2.78125 
Q 49.265625 0.734375 44.1875 -0.34375 
Q 39.109375 -1.421875 33.890625 -1.421875 
Q 20.796875 -1.421875 13.15625 6.1875 
Q 5.515625 13.8125 5.515625 26.8125 
Q 5.515625 40.234375 12.765625 48.109375 
Q 20.015625 56 32.328125 56 
Q 43.359375 56 49.78125 48.890625 
Q 56.203125 41.796875 56.203125 29.59375 
z
M 47.21875 32.234375 
Q 47.125 39.59375 43.09375 43.984375 
Q 39.0625 48.390625 32.421875 48.390625 
Q 24.90625 48.390625 20.390625 44.140625 
Q 15.875 39.890625 15.1875 32.171875 
z
" id="DejaVuSans-101"/>
      <path d="M 8.5 21.578125 
L 8.5 54.6875 
L 17.484375 54.6875 
L 17.484375 21.921875 
Q 17.484375 14.15625 20.5 10.265625 
Q 23.53125 6.390625 29.59375 6.390625 
Q 36.859375 6.390625 41.078125 11.03125 
Q 45.3125 15.671875 45.3125 23.6875 
L 45.3125 54.6875 
L 54.296875 54.6875 
L 54.296875 0 
L 45.3125 0 
L 45.3125 8.40625 
Q 42.046875 3.421875 37.71875 1 
Q 33.40625 -1.421875 27.6875 -1.421875 
Q 18.265625 -1.421875 13.375 4.4375 
Q 8.5 10.296875 8.5 21.578125 
z
M 31.109375 56 
z
" id="DejaVuSans-117"/>
      <path d="M 45.40625 46.390625 
L 45.40625 75.984375 
L 54.390625 75.984375 
L 54.390625 0 
L 45.40625 0 
L 45.40625 8.203125 
Q 42.578125 3.328125 38.25 0.953125 
Q 33.9375 -1.421875 27.875 -1.421875 
Q 17.96875 -1.421875 11.734375 6.484375 
Q 5.515625 14.40625 5.515625 27.296875 
Q 5.515625 40.1875 11.734375 48.09375 
Q 17.96875 56 27.875 56 
Q 33.9375 56 38.25 53.625 
Q 42.578125 51.265625 45.40625 46.390625 
z
M 14.796875 27.296875 
Q 14.796875 17.390625 18.875 11.75 
Q 22.953125 6.109375 30.078125 6.109375 
Q 37.203125 6.109375 41.296875 11.75 
Q 45.40625 17.390625 45.40625 27.296875 
Q 45.40625 37.203125 41.296875 42.84375 
Q 37.203125 48.484375 30.078125 48.484375 
Q 22.953125 48.484375 18.875 42.84375 
Q 14.796875 37.203125 14.796875 27.296875 
z
" id="DejaVuSans-100"/>
      <path d="M 30.609375 48.390625 
Q 23.390625 48.390625 19.1875 42.75 
Q 14.984375 37.109375 14.984375 27.296875 
Q 14.984375 17.484375 19.15625 11.84375 
Q 23.34375 6.203125 30.609375 6.203125 
Q 37.796875 6.203125 41.984375 11.859375 
Q 46.1875 17.53125 46.1875 27.296875 
Q 46.1875 37.015625 41.984375 42.703125 
Q 37.796875 48.390625 30.609375 48.390625 
z
M 30.609375 56 
Q 42.328125 56 49.015625 48.375 
Q 55.71875 40.765625 55.71875 27.296875 
Q 55.71875 13.875 49.015625 6.21875 
Q 42.328125 -1.421875 30.609375 -1.421875 
Q 18.84375 -1.421875 12.171875 6.21875 
Q 5.515625 13.875 5.515625 27.296875 
Q 5.515625 40.765625 12.171875 48.375 
Q 18.84375 56 30.609375 56 
z
" id="DejaVuSans-111"/>
      <path d="M 4.890625 31.390625 
L 31.203125 31.390625 
L 31.203125 23.390625 
L 4.890625 23.390625 
z
" id="DejaVuSans-45"/>
      <path d="M 9.8125 72.90625 
L 51.703125 72.90625 
L 51.703125 64.59375 
L 19.671875 64.59375 
L 19.671875 43.109375 
L 48.578125 43.109375 
L 48.578125 34.8125 
L 19.671875 34.8125 
L 19.671875 0 
L 9.8125 0 
z
" id="DejaVuSans-70"/>
     </defs>
     <g transform="translate(16.318125 229.617798)rotate(-90)scale(0.12 -0.12)">
      <use xlink:href="#DejaVuSans-80"/>
      <use x="60.302734" xlink:href="#DejaVuSans-69"/>
      <use x="123.486328" xlink:href="#DejaVuSans-82"/>
      <use x="192.96875" xlink:href="#DejaVuSans-77"/>
      <use x="279.248047" xlink:href="#DejaVuSans-65"/>
      <use x="347.65625" xlink:href="#DejaVuSans-78"/>
      <use x="422.460938" xlink:href="#DejaVuSans-79"/>
      <use x="501.15625" xlink:href="#DejaVuSans-86"/>
      <use x="569.470703" xlink:href="#DejaVuSans-65"/>
      <use x="637.878906" xlink:href="#DejaVuSans-32"/>
      <use x="669.666016" xlink:href="#DejaVuSans-112"/>
      <use x="733.142578" xlink:href="#DejaVuSans-115"/>
      <use x="785.242188" xlink:href="#DejaVuSans-101"/>
      <use x="846.765625" xlink:href="#DejaVuSans-117"/>
      <use x="910.144531" xlink:href="#DejaVuSans-100"/>
      <use x="973.621094" xlink:href="#DejaVuSans-111"/>
      <use x="1034.818359" xlink:href="#DejaVuSans-45"/>
      <use x="1070.902344" xlink:href="#DejaVuSans-70"/>
     </g>
    </g>
   </g>
   <g id="line2d_18">
    <path clip-path="url(#p092cdce64c)" d="M 47.570659 89.790023 
L 65.687542 54.478168 
L 83.804425 23.920233 
L 101.921308 36.216076 
L 120.038192 52.688631 
L 138.155075 26.838623 
L 156.271958 21.46705 
L 174.388841 15.615184 
" style="fill:none;stroke:#67a9cf;stroke-width:2.658681;"/>
   </g>
   <g id="line2d_19">
    <path clip-path="url(#p092cdce64c)" d="M 83.804425 63.446875 
L 101.921308 98.797671 
L 120.038192 86.41052 
L 138.155075 98.195545 
L 156.271958 90.414903 
L 174.388841 85.481865 
" style="fill:none;stroke:#ef8a62;stroke-width:2.658681;"/>
   </g>
   <g id="PathCollection_1">
    <path clip-path="url(#p092cdce64c)" d="M 47.570659 84.915775 
L 46.476322 88.283798 
L 42.934974 88.283798 
L 45.799985 90.36535 
L 44.705648 93.733373 
L 47.570659 91.651821 
L 50.43567 93.733373 
L 49.341333 90.36535 
L 52.206344 88.283798 
L 48.664996 88.283798 
z
" style="fill:#67a9cf;fill-opacity:0.698039;stroke:#000000;stroke-opacity:0.698039;stroke-width:0.886227;"/>
    <path clip-path="url(#p092cdce64c)" d="M 65.687542 49.60392 
L 64.593205 52.971943 
L 61.051857 52.971943 
L 63.916868 55.053495 
L 62.822531 58.421518 
L 65.687542 56.339966 
L 68.552553 58.421518 
L 67.458216 55.053495 
L 70.323228 52.971943 
L 66.781879 52.971943 
z
" style="fill:#67a9cf;fill-opacity:0.698039;stroke:#000000;stroke-opacity:0.698039;stroke-width:0.886227;"/>
    <path clip-path="url(#p092cdce64c)" d="M 83.804425 19.045985 
L 82.710088 22.414008 
L 79.16874 22.414008 
L 82.033751 24.49556 
L 80.939414 27.863583 
L 83.804425 25.78203 
L 86.669436 27.863583 
L 85.5751 24.49556 
L 88.440111 22.414008 
L 84.898762 22.414008 
z
" style="fill:#67a9cf;fill-opacity:0.698039;stroke:#000000;stroke-opacity:0.698039;stroke-width:0.886227;"/>
    <path clip-path="url(#p092cdce64c)" d="M 101.921308 31.341828 
L 100.826972 34.709851 
L 97.285623 34.709851 
L 100.150634 36.791403 
L 99.056297 40.159426 
L 101.921308 38.077873 
L 104.78632 40.159426 
L 103.691983 36.791403 
L 106.556994 34.709851 
L 103.015645 34.709851 
z
" style="fill:#67a9cf;fill-opacity:0.698039;stroke:#000000;stroke-opacity:0.698039;stroke-width:0.886227;"/>
    <path clip-path="url(#p092cdce64c)" d="M 120.038192 47.814383 
L 118.943855 51.182405 
L 115.402506 51.182405 
L 118.267517 53.263958 
L 117.17318 56.63198 
L 120.038192 54.550428 
L 122.903203 56.63198 
L 121.808866 53.263958 
L 124.673877 51.182405 
L 121.132528 51.182405 
z
" style="fill:#67a9cf;fill-opacity:0.698039;stroke:#000000;stroke-opacity:0.698039;stroke-width:0.886227;"/>
    <path clip-path="url(#p092cdce64c)" d="M 138.155075 21.964375 
L 137.060738 25.332397 
L 133.519389 25.332397 
L 136.3844 27.41395 
L 135.290064 30.781972 
L 138.155075 28.70042 
L 141.020086 30.781972 
L 139.925749 27.41395 
L 142.79076 25.332397 
L 139.249412 25.332397 
z
" style="fill:#67a9cf;fill-opacity:0.698039;stroke:#000000;stroke-opacity:0.698039;stroke-width:0.886227;"/>
    <path clip-path="url(#p092cdce64c)" d="M 156.271958 16.592802 
L 155.177621 19.960825 
L 151.636272 19.960825 
L 154.501284 22.042377 
L 153.406947 25.4104 
L 156.271958 23.328847 
L 159.136969 25.4104 
L 158.042632 22.042377 
L 160.907643 19.960825 
L 157.366295 19.960825 
z
" style="fill:#67a9cf;fill-opacity:0.698039;stroke:#000000;stroke-opacity:0.698039;stroke-width:0.886227;"/>
    <path clip-path="url(#p092cdce64c)" d="M 174.388841 10.740936 
L 173.294504 14.108959 
L 169.753156 14.108959 
L 172.618167 16.190511 
L 171.52383 19.558534 
L 174.388841 17.476981 
L 177.253852 19.558534 
L 176.159515 16.190511 
L 179.024526 14.108959 
L 175.483178 14.108959 
z
" style="fill:#67a9cf;fill-opacity:0.698039;stroke:#000000;stroke-opacity:0.698039;stroke-width:0.886227;"/>
    <path clip-path="url(#p092cdce64c)" d="M 83.804425 58.572627 
L 82.710088 61.940649 
L 79.16874 61.940649 
L 82.033751 64.022202 
L 80.939414 67.390224 
L 83.804425 65.308672 
L 86.669436 67.390224 
L 85.5751 64.022202 
L 88.440111 61.940649 
L 84.898762 61.940649 
z
" style="fill:#ef8a62;fill-opacity:0.698039;stroke:#000000;stroke-opacity:0.698039;stroke-width:0.886227;"/>
    <path clip-path="url(#p092cdce64c)" d="M 120.038192 81.536272 
L 118.943855 84.904294 
L 115.402506 84.904294 
L 118.267517 86.985847 
L 117.17318 90.353869 
L 120.038192 88.272317 
L 122.903203 90.353869 
L 121.808866 86.985847 
L 124.673877 84.904294 
L 121.132528 84.904294 
z
" style="fill:#ef8a62;fill-opacity:0.698039;stroke:#000000;stroke-opacity:0.698039;stroke-width:0.886227;"/>
    <path clip-path="url(#p092cdce64c)" d="M 156.271958 85.540655 
L 155.177621 88.908677 
L 151.636272 88.908677 
L 154.501284 90.99023 
L 153.406947 94.358252 
L 156.271958 92.2767 
L 159.136969 94.358252 
L 158.042632 90.99023 
L 160.907643 88.908677 
L 157.366295 88.908677 
z
" style="fill:#ef8a62;fill-opacity:0.698039;stroke:#000000;stroke-opacity:0.698039;stroke-width:0.886227;"/>
    <path clip-path="url(#p092cdce64c)" d="M 174.388841 80.607617 
L 173.294504 83.97564 
L 169.753156 83.97564 
L 172.618167 86.057192 
L 171.52383 89.425215 
L 174.388841 87.343662 
L 177.253852 89.425215 
L 176.159515 86.057192 
L 179.024526 83.97564 
L 175.483178 83.97564 
z
" style="fill:#ef8a62;fill-opacity:0.698039;stroke:#000000;stroke-opacity:0.698039;stroke-width:0.886227;"/>
   </g>
   <g id="PathCollection_2">
    <path clip-path="url(#p092cdce64c)" d="M 101.921308 101.899465 
C 102.743914 101.899465 103.532938 101.57264 104.114608 100.990971 
C 104.696278 100.409301 105.023103 99.620276 105.023103 98.797671 
C 105.023103 97.975065 104.696278 97.186041 104.114608 96.604371 
C 103.532938 96.022701 102.743914 95.695877 101.921308 95.695877 
C 101.098703 95.695877 100.309679 96.022701 99.728009 96.604371 
C 99.146339 97.186041 98.819514 97.975065 98.819514 98.797671 
C 98.819514 99.620276 99.146339 100.409301 99.728009 100.990971 
C 100.309679 101.57264 101.098703 101.899465 101.921308 101.899465 
z
" style="fill:#ef8a62;fill-opacity:0.698039;stroke:#000000;stroke-opacity:0.698039;stroke-width:0.886227;"/>
    <path clip-path="url(#p092cdce64c)" d="M 138.155075 101.297339 
C 138.97768 101.297339 139.766705 100.970515 140.348374 100.388845 
C 140.930044 99.807175 141.256869 99.018151 141.256869 98.195545 
C 141.256869 97.37294 140.930044 96.583915 140.348374 96.002245 
C 139.766705 95.420576 138.97768 95.093751 138.155075 95.093751 
C 137.332469 95.093751 136.543445 95.420576 135.961775 96.002245 
C 135.380105 96.583915 135.05328 97.37294 135.05328 98.195545 
C 135.05328 99.018151 135.380105 99.807175 135.961775 100.388845 
C 136.543445 100.970515 137.332469 101.297339 138.155075 101.297339 
z
" style="fill:#ef8a62;fill-opacity:0.698039;stroke:#000000;stroke-opacity:0.698039;stroke-width:0.886227;"/>
   </g>
   <g id="patch_3">
    <path d="M 180.72975 103.471548 
L 196.32975 103.471548 
L 196.32975 11.431548 
L 180.72975 11.431548 
z
" style="fill:none;stroke:#000000;stroke-linejoin:miter;"/>
   </g>
   <g id="patch_4">
    <path d="M 41.22975 103.471548 
L 41.22975 11.431548 
" style="fill:none;stroke:#000000;stroke-linecap:square;stroke-linejoin:miter;"/>
   </g>
   <g id="patch_5">
    <path d="M 41.22975 103.471548 
L 180.72975 103.471548 
" style="fill:none;stroke:#000000;stroke-linecap:square;stroke-linejoin:miter;"/>
   </g>
   <g id="PathCollection_3">
    <defs>
     <path d="M -0 1.879971 
L 1.127983 0 
L 0 -1.879971 
L -1.127983 -0 
z
" id="m02d9c3e861" style="stroke:#000000;stroke-width:0.886227;"/>
    </defs>
    <g clip-path="url(#p092cdce64c)">
     <use style="stroke:#000000;stroke-width:0.886227;" x="174.388841" xlink:href="#m02d9c3e861" y="74.525898"/>
    </g>
   </g>
   <g id="text_8">
    <!-- LP-Vaginal -->
    <defs>
     <path d="M 9.8125 72.90625 
L 19.671875 72.90625 
L 19.671875 8.296875 
L 55.171875 8.296875 
L 55.171875 0 
L 9.8125 0 
z
" id="DejaVuSans-76"/>
     <path d="M 34.28125 27.484375 
Q 23.390625 27.484375 19.1875 25 
Q 14.984375 22.515625 14.984375 16.5 
Q 14.984375 11.71875 18.140625 8.90625 
Q 21.296875 6.109375 26.703125 6.109375 
Q 34.1875 6.109375 38.703125 11.40625 
Q 43.21875 16.703125 43.21875 25.484375 
L 43.21875 27.484375 
z
M 52.203125 31.203125 
L 52.203125 0 
L 43.21875 0 
L 43.21875 8.296875 
Q 40.140625 3.328125 35.546875 0.953125 
Q 30.953125 -1.421875 24.3125 -1.421875 
Q 15.921875 -1.421875 10.953125 3.296875 
Q 6 8.015625 6 15.921875 
Q 6 25.140625 12.171875 29.828125 
Q 18.359375 34.515625 30.609375 34.515625 
L 43.21875 34.515625 
L 43.21875 35.40625 
Q 43.21875 41.609375 39.140625 45 
Q 35.0625 48.390625 27.6875 48.390625 
Q 23 48.390625 18.546875 47.265625 
Q 14.109375 46.140625 10.015625 43.890625 
L 10.015625 52.203125 
Q 14.9375 54.109375 19.578125 55.046875 
Q 24.21875 56 28.609375 56 
Q 40.484375 56 46.34375 49.84375 
Q 52.203125 43.703125 52.203125 31.203125 
z
" id="DejaVuSans-97"/>
     <path d="M 45.40625 27.984375 
Q 45.40625 37.75 41.375 43.109375 
Q 37.359375 48.484375 30.078125 48.484375 
Q 22.859375 48.484375 18.828125 43.109375 
Q 14.796875 37.75 14.796875 27.984375 
Q 14.796875 18.265625 18.828125 12.890625 
Q 22.859375 7.515625 30.078125 7.515625 
Q 37.359375 7.515625 41.375 12.890625 
Q 45.40625 18.265625 45.40625 27.984375 
z
M 54.390625 6.78125 
Q 54.390625 -7.171875 48.1875 -13.984375 
Q 42 -20.796875 29.203125 -20.796875 
Q 24.46875 -20.796875 20.265625 -20.09375 
Q 16.0625 -19.390625 12.109375 -17.921875 
L 12.109375 -9.1875 
Q 16.0625 -11.328125 19.921875 -12.34375 
Q 23.78125 -13.375 27.78125 -13.375 
Q 36.625 -13.375 41.015625 -8.765625 
Q 45.40625 -4.15625 45.40625 5.171875 
L 45.40625 9.625 
Q 42.625 4.78125 38.28125 2.390625 
Q 33.9375 0 27.875 0 
Q 17.828125 0 11.671875 7.65625 
Q 5.515625 15.328125 5.515625 27.984375 
Q 5.515625 40.671875 11.671875 48.328125 
Q 17.828125 56 27.875 56 
Q 33.9375 56 38.28125 53.609375 
Q 42.625 51.21875 45.40625 46.390625 
L 45.40625 54.6875 
L 54.390625 54.6875 
z
" id="DejaVuSans-103"/>
     <path d="M 9.421875 54.6875 
L 18.40625 54.6875 
L 18.40625 0 
L 9.421875 0 
z
M 9.421875 75.984375 
L 18.40625 75.984375 
L 18.40625 64.59375 
L 9.421875 64.59375 
z
" id="DejaVuSans-105"/>
     <path d="M 54.890625 33.015625 
L 54.890625 0 
L 45.90625 0 
L 45.90625 32.71875 
Q 45.90625 40.484375 42.875 44.328125 
Q 39.84375 48.1875 33.796875 48.1875 
Q 26.515625 48.1875 22.3125 43.546875 
Q 18.109375 38.921875 18.109375 30.90625 
L 18.109375 0 
L 9.078125 0 
L 9.078125 54.6875 
L 18.109375 54.6875 
L 18.109375 46.1875 
Q 21.34375 51.125 25.703125 53.5625 
Q 30.078125 56 35.796875 56 
Q 45.21875 56 50.046875 50.171875 
Q 54.890625 44.34375 54.890625 33.015625 
z
" id="DejaVuSans-110"/>
     <path d="M 9.421875 75.984375 
L 18.40625 75.984375 
L 18.40625 0 
L 9.421875 0 
z
" id="DejaVuSans-108"/>
    </defs>
    <g style="fill:#1a1a1a;" transform="translate(185.88075 32.238798)rotate(-270)scale(0.096 -0.096)">
     <use xlink:href="#DejaVuSans-76"/>
     <use x="55.712891" xlink:href="#DejaVuSans-80"/>
     <use x="115.984375" xlink:href="#DejaVuSans-45"/>
     <use x="151.990234" xlink:href="#DejaVuSans-86"/>
     <use x="220.289062" xlink:href="#DejaVuSans-97"/>
     <use x="281.568359" xlink:href="#DejaVuSans-103"/>
     <use x="345.044922" xlink:href="#DejaVuSans-105"/>
     <use x="372.828125" xlink:href="#DejaVuSans-110"/>
     <use x="436.207031" xlink:href="#DejaVuSans-97"/>
     <use x="497.486328" xlink:href="#DejaVuSans-108"/>
    </g>
   </g>
   <g id="patch_6">
    <path d="M 203.52975 243.209505 
L 353.412875 243.209505 
L 353.412875 80.613591 
L 203.52975 80.613591 
z
" style="fill:#ffffff;"/>
   </g>
   <g id="text_9">
    <!-- Antibiotic Exposure -->
    <defs>
     <path d="M 18.3125 70.21875 
L 18.3125 54.6875 
L 36.8125 54.6875 
L 36.8125 47.703125 
L 18.3125 47.703125 
L 18.3125 18.015625 
Q 18.3125 11.328125 20.140625 9.421875 
Q 21.96875 7.515625 27.59375 7.515625 
L 36.8125 7.515625 
L 36.8125 0 
L 27.59375 0 
Q 17.1875 0 13.234375 3.875 
Q 9.28125 7.765625 9.28125 18.015625 
L 9.28125 47.703125 
L 2.6875 47.703125 
L 2.6875 54.6875 
L 9.28125 54.6875 
L 9.28125 70.21875 
z
" id="DejaVuSans-116"/>
     <path d="M 48.6875 27.296875 
Q 48.6875 37.203125 44.609375 42.84375 
Q 40.53125 48.484375 33.40625 48.484375 
Q 26.265625 48.484375 22.1875 42.84375 
Q 18.109375 37.203125 18.109375 27.296875 
Q 18.109375 17.390625 22.1875 11.75 
Q 26.265625 6.109375 33.40625 6.109375 
Q 40.53125 6.109375 44.609375 11.75 
Q 48.6875 17.390625 48.6875 27.296875 
z
M 18.109375 46.390625 
Q 20.953125 51.265625 25.265625 53.625 
Q 29.59375 56 35.59375 56 
Q 45.5625 56 51.78125 48.09375 
Q 58.015625 40.1875 58.015625 27.296875 
Q 58.015625 14.40625 51.78125 6.484375 
Q 45.5625 -1.421875 35.59375 -1.421875 
Q 29.59375 -1.421875 25.265625 0.953125 
Q 20.953125 3.328125 18.109375 8.203125 
L 18.109375 0 
L 9.078125 0 
L 9.078125 75.984375 
L 18.109375 75.984375 
z
" id="DejaVuSans-98"/>
     <path d="M 48.78125 52.59375 
L 48.78125 44.1875 
Q 44.96875 46.296875 41.140625 47.34375 
Q 37.3125 48.390625 33.40625 48.390625 
Q 24.65625 48.390625 19.8125 42.84375 
Q 14.984375 37.3125 14.984375 27.296875 
Q 14.984375 17.28125 19.8125 11.734375 
Q 24.65625 6.203125 33.40625 6.203125 
Q 37.3125 6.203125 41.140625 7.25 
Q 44.96875 8.296875 48.78125 10.40625 
L 48.78125 2.09375 
Q 45.015625 0.34375 40.984375 -0.53125 
Q 36.96875 -1.421875 32.421875 -1.421875 
Q 20.0625 -1.421875 12.78125 6.34375 
Q 5.515625 14.109375 5.515625 27.296875 
Q 5.515625 40.671875 12.859375 48.328125 
Q 20.21875 56 33.015625 56 
Q 37.15625 56 41.109375 55.140625 
Q 45.0625 54.296875 48.78125 52.59375 
z
" id="DejaVuSans-99"/>
     <path d="M 54.890625 54.6875 
L 35.109375 28.078125 
L 55.90625 0 
L 45.3125 0 
L 29.390625 21.484375 
L 13.484375 0 
L 2.875 0 
L 24.125 28.609375 
L 4.6875 54.6875 
L 15.28125 54.6875 
L 29.78125 35.203125 
L 44.28125 54.6875 
z
" id="DejaVuSans-120"/>
     <path d="M 41.109375 46.296875 
Q 39.59375 47.171875 37.8125 47.578125 
Q 36.03125 48 33.890625 48 
Q 26.265625 48 22.1875 43.046875 
Q 18.109375 38.09375 18.109375 28.8125 
L 18.109375 0 
L 9.078125 0 
L 9.078125 54.6875 
L 18.109375 54.6875 
L 18.109375 46.1875 
Q 20.953125 51.171875 25.484375 53.578125 
Q 30.03125 56 36.53125 56 
Q 37.453125 56 38.578125 55.875 
Q 39.703125 55.765625 41.0625 55.515625 
z
" id="DejaVuSans-114"/>
    </defs>
    <g transform="translate(215.92975 110.793935)scale(0.12 -0.12)">
     <use xlink:href="#DejaVuSans-65"/>
     <use x="68.408203" xlink:href="#DejaVuSans-110"/>
     <use x="131.787109" xlink:href="#DejaVuSans-116"/>
     <use x="170.996094" xlink:href="#DejaVuSans-105"/>
     <use x="198.779297" xlink:href="#DejaVuSans-98"/>
     <use x="262.255859" xlink:href="#DejaVuSans-105"/>
     <use x="290.039062" xlink:href="#DejaVuSans-111"/>
     <use x="351.220703" xlink:href="#DejaVuSans-116"/>
     <use x="390.429688" xlink:href="#DejaVuSans-105"/>
     <use x="418.212891" xlink:href="#DejaVuSans-99"/>
     <use x="473.193359" xlink:href="#DejaVuSans-32"/>
     <use x="504.980469" xlink:href="#DejaVuSans-69"/>
     <use x="568.164062" xlink:href="#DejaVuSans-120"/>
     <use x="627.34375" xlink:href="#DejaVuSans-112"/>
     <use x="690.820312" xlink:href="#DejaVuSans-111"/>
     <use x="752.001953" xlink:href="#DejaVuSans-115"/>
     <use x="804.101562" xlink:href="#DejaVuSans-117"/>
     <use x="867.480469" xlink:href="#DejaVuSans-114"/>
     <use x="908.5625" xlink:href="#DejaVuSans-101"/>
    </g>
    <!--  -->
    <g transform="translate(215.92975 121.495872)scale(0.12 -0.12)"/>
   </g>
   <g id="patch_7">
    <path clip-path="url(#pf9bed92cd7)" d="M 215.92975 137.409279 
L 233.20975 137.409279 
L 233.20975 120.129279 
L 215.92975 120.129279 
z
" style="fill:none;"/>
   </g>
   <g id="line2d_20">
    <path clip-path="url(#pf9bed92cd7)" d="M 215.92975 128.769279 
L 233.20975 128.769279 
" style="fill:none;stroke:#67a9cf;stroke-width:3.544908;"/>
   </g>
   <g id="text_10">
    <!-- No Abx -->
    <g transform="translate(236.20975 131.418279)scale(0.096 -0.096)">
     <use xlink:href="#DejaVuSans-78"/>
     <use x="74.804688" xlink:href="#DejaVuSans-111"/>
     <use x="135.986328" xlink:href="#DejaVuSans-32"/>
     <use x="167.773438" xlink:href="#DejaVuSans-65"/>
     <use x="236.181641" xlink:href="#DejaVuSans-98"/>
     <use x="299.658203" xlink:href="#DejaVuSans-120"/>
    </g>
   </g>
   <g id="patch_8">
    <path clip-path="url(#p8b4fe3b0c9)" d="M 215.92975 156.689279 
L 233.20975 156.689279 
L 233.20975 139.409279 
L 215.92975 139.409279 
z
" style="fill:none;"/>
   </g>
   <g id="line2d_21">
    <path clip-path="url(#p8b4fe3b0c9)" d="M 215.92975 148.049279 
L 233.20975 148.049279 
" style="fill:none;stroke:#ef8a62;stroke-width:3.544908;"/>
   </g>
   <g id="text_11">
    <!-- Infant Abx+ -->
    <defs>
     <path d="M 9.8125 72.90625 
L 19.671875 72.90625 
L 19.671875 0 
L 9.8125 0 
z
" id="DejaVuSans-73"/>
     <path d="M 37.109375 75.984375 
L 37.109375 68.5 
L 28.515625 68.5 
Q 23.6875 68.5 21.796875 66.546875 
Q 19.921875 64.59375 19.921875 59.515625 
L 19.921875 54.6875 
L 34.71875 54.6875 
L 34.71875 47.703125 
L 19.921875 47.703125 
L 19.921875 0 
L 10.890625 0 
L 10.890625 47.703125 
L 2.296875 47.703125 
L 2.296875 54.6875 
L 10.890625 54.6875 
L 10.890625 58.5 
Q 10.890625 67.625 15.140625 71.796875 
Q 19.390625 75.984375 28.609375 75.984375 
z
" id="DejaVuSans-102"/>
     <path d="M 46 62.703125 
L 46 35.5 
L 73.1875 35.5 
L 73.1875 27.203125 
L 46 27.203125 
L 46 0 
L 37.796875 0 
L 37.796875 27.203125 
L 10.59375 27.203125 
L 10.59375 35.5 
L 37.796875 35.5 
L 37.796875 62.703125 
z
" id="DejaVuSans-43"/>
    </defs>
    <g transform="translate(236.20975 150.698279)scale(0.096 -0.096)">
     <use xlink:href="#DejaVuSans-73"/>
     <use x="29.492188" xlink:href="#DejaVuSans-110"/>
     <use x="92.871094" xlink:href="#DejaVuSans-102"/>
     <use x="128.076172" xlink:href="#DejaVuSans-97"/>
     <use x="189.355469" xlink:href="#DejaVuSans-110"/>
     <use x="252.734375" xlink:href="#DejaVuSans-116"/>
     <use x="291.943359" xlink:href="#DejaVuSans-32"/>
     <use x="323.730469" xlink:href="#DejaVuSans-65"/>
     <use x="392.138672" xlink:href="#DejaVuSans-98"/>
     <use x="455.615234" xlink:href="#DejaVuSans-120"/>
     <use x="514.794922" xlink:href="#DejaVuSans-43"/>
    </g>
   </g>
   <g id="text_12">
    <!-- PERMANOVA p-value -->
    <defs>
     <path d="M 2.984375 54.6875 
L 12.5 54.6875 
L 29.59375 8.796875 
L 46.6875 54.6875 
L 56.203125 54.6875 
L 35.6875 0 
L 23.484375 0 
z
" id="DejaVuSans-118"/>
    </defs>
    <g transform="translate(215.92975 184.469622)scale(0.12 -0.12)">
     <use xlink:href="#DejaVuSans-80"/>
     <use x="60.302734" xlink:href="#DejaVuSans-69"/>
     <use x="123.486328" xlink:href="#DejaVuSans-82"/>
     <use x="192.96875" xlink:href="#DejaVuSans-77"/>
     <use x="279.248047" xlink:href="#DejaVuSans-65"/>
     <use x="347.65625" xlink:href="#DejaVuSans-78"/>
     <use x="422.460938" xlink:href="#DejaVuSans-79"/>
     <use x="501.15625" xlink:href="#DejaVuSans-86"/>
     <use x="569.470703" xlink:href="#DejaVuSans-65"/>
     <use x="637.878906" xlink:href="#DejaVuSans-32"/>
     <use x="669.666016" xlink:href="#DejaVuSans-112"/>
     <use x="733.142578" xlink:href="#DejaVuSans-45"/>
     <use x="769.195312" xlink:href="#DejaVuSans-118"/>
     <use x="828.375" xlink:href="#DejaVuSans-97"/>
     <use x="889.654297" xlink:href="#DejaVuSans-108"/>
     <use x="917.4375" xlink:href="#DejaVuSans-117"/>
     <use x="980.816406" xlink:href="#DejaVuSans-101"/>
    </g>
    <!--  -->
    <g transform="translate(215.92975 195.17156)scale(0.12 -0.12)"/>
   </g>
   <g id="patch_9">
    <path clip-path="url(#p80083ce219)" d="M 215.92975 211.307235 
L 233.432019 211.307235 
L 233.432019 193.804966 
L 215.92975 193.804966 
z
" style="fill:none;"/>
   </g>
   <g id="line2d_22">
    <path clip-path="url(#p80083ce219)" d="M 224.680885 202.556101 
" style="fill:none;stroke:#1f77b4;stroke-linecap:square;stroke-opacity:0.7;stroke-width:1.5;"/>
    <defs>
     <path d="M 0 -3.988021 
L -0.895367 -1.232366 
L -3.792834 -1.232366 
L -1.448733 0.470722 
L -2.3441 3.226377 
L -0 1.523288 
L 2.3441 3.226377 
L 1.448733 0.470722 
L 3.792834 -1.232366 
L 0.895367 -1.232366 
z
" id="m30a88362c1" style="stroke:#000000;stroke-linejoin:bevel;stroke-opacity:0.7;stroke-width:0.886227;"/>
    </defs>
    <g clip-path="url(#p80083ce219)">
     <use style="fill-opacity:0.7;stroke:#000000;stroke-linejoin:bevel;stroke-opacity:0.7;stroke-width:0.886227;" x="224.680885" xlink:href="#m30a88362c1" y="202.556101"/>
    </g>
   </g>
   <g id="text_13">
    <!-- p&lt;0.05 -->
    <defs>
     <path d="M 73.1875 49.21875 
L 22.796875 31.296875 
L 73.1875 13.484375 
L 73.1875 4.59375 
L 10.59375 27.296875 
L 10.59375 35.40625 
L 73.1875 58.109375 
z
" id="DejaVuSans-60"/>
     <path d="M 10.6875 12.40625 
L 21 12.40625 
L 21 0 
L 10.6875 0 
z
" id="DejaVuSans-46"/>
    </defs>
    <g transform="translate(236.432019 205.205101)scale(0.096 -0.096)">
     <use xlink:href="#DejaVuSans-112"/>
     <use x="63.476562" xlink:href="#DejaVuSans-60"/>
     <use x="147.265625" xlink:href="#DejaVuSans-48"/>
     <use x="210.888672" xlink:href="#DejaVuSans-46"/>
     <use x="242.675781" xlink:href="#DejaVuSans-48"/>
     <use x="306.298828" xlink:href="#DejaVuSans-53"/>
    </g>
   </g>
   <g id="patch_10">
    <path clip-path="url(#pf00d012796)" d="M 215.92975 230.809505 
L 233.432019 230.809505 
L 233.432019 213.307235 
L 215.92975 213.307235 
z
" style="fill:none;"/>
   </g>
   <g id="line2d_23">
    <path clip-path="url(#pf00d012796)" d="M 224.680885 222.05837 
" style="fill:none;stroke:#1f77b4;stroke-linecap:square;stroke-opacity:0.7;stroke-width:1.5;"/>
    <defs>
     <path d="M 0 3.988021 
C 1.057636 3.988021 2.072096 3.567818 2.819957 2.819957 
C 3.567818 2.072096 3.988021 1.057636 3.988021 0 
C 3.988021 -1.057636 3.567818 -2.072096 2.819957 -2.819957 
C 2.072096 -3.567818 1.057636 -3.988021 0 -3.988021 
C -1.057636 -3.988021 -2.072096 -3.567818 -2.819957 -2.819957 
C -3.567818 -2.072096 -3.988021 -1.057636 -3.988021 0 
C -3.988021 1.057636 -3.567818 2.072096 -2.819957 2.819957 
C -2.072096 3.567818 -1.057636 3.988021 0 3.988021 
z
" id="me91f94dace" style="stroke:#000000;stroke-opacity:0.7;stroke-width:0.886227;"/>
    </defs>
    <g clip-path="url(#pf00d012796)">
     <use style="fill-opacity:0.7;stroke:#000000;stroke-opacity:0.7;stroke-width:0.886227;" x="224.680885" xlink:href="#me91f94dace" y="222.05837"/>
    </g>
   </g>
   <g id="text_14">
    <!-- p&gt;0.05 -->
    <defs>
     <path d="M 10.59375 49.21875 
L 10.59375 58.109375 
L 73.1875 35.40625 
L 73.1875 27.296875 
L 10.59375 4.59375 
L 10.59375 13.484375 
L 60.890625 31.296875 
z
" id="DejaVuSans-62"/>
    </defs>
    <g transform="translate(236.432019 224.70737)scale(0.096 -0.096)">
     <use xlink:href="#DejaVuSans-112"/>
     <use x="63.476562" xlink:href="#DejaVuSans-62"/>
     <use x="147.265625" xlink:href="#DejaVuSans-48"/>
     <use x="210.888672" xlink:href="#DejaVuSans-46"/>
     <use x="242.675781" xlink:href="#DejaVuSans-48"/>
     <use x="306.298828" xlink:href="#DejaVuSans-53"/>
    </g>
   </g>
  </g>
  <g id="axes_2">
   <g id="patch_11">
    <path d="M 41.22975 209.911548 
L 180.72975 209.911548 
L 180.72975 117.871548 
L 41.22975 117.871548 
z
" style="fill:#ffffff;"/>
   </g>
   <g id="matplotlib.axis_3">
    <g id="xtick_16"/>
    <g id="xtick_17"/>
    <g id="xtick_18"/>
    <g id="xtick_19"/>
    <g id="xtick_20"/>
    <g id="xtick_21"/>
    <g id="xtick_22"/>
    <g id="xtick_23"/>
    <g id="xtick_24"/>
    <g id="xtick_25"/>
    <g id="xtick_26"/>
    <g id="xtick_27"/>
    <g id="xtick_28"/>
    <g id="xtick_29"/>
    <g id="xtick_30"/>
   </g>
   <g id="matplotlib.axis_4">
    <g id="ytick_12">
     <g id="line2d_24">
      <path clip-path="url(#pb2c8f0166f)" d="M 41.22975 209.585227 
L 180.72975 209.585227 
" style="fill:none;stroke:#d3d3d3;stroke-linecap:square;stroke-opacity:0.5;stroke-width:0.8;"/>
     </g>
     <g id="line2d_25">
      <path d="M 41.22975 209.585227 
" style="fill:none;stroke:#000000;stroke-linecap:square;stroke-width:1.5;"/>
      <g>
       <use style="stroke:#000000;" x="41.22975" xlink:href="#m934e7d4734" y="209.585227"/>
      </g>
     </g>
     <g id="text_15">
      <!-- 0 -->
      <g transform="translate(29.72175 212.234227)scale(0.096 -0.096)">
       <use xlink:href="#DejaVuSans-48"/>
      </g>
     </g>
    </g>
    <g id="ytick_13">
     <g id="line2d_26">
      <path clip-path="url(#pb2c8f0166f)" d="M 41.22975 191.325282 
L 180.72975 191.325282 
" style="fill:none;stroke:#d3d3d3;stroke-linecap:square;stroke-opacity:0.5;stroke-width:0.8;"/>
     </g>
     <g id="line2d_27">
      <path d="M 41.22975 191.325282 
" style="fill:none;stroke:#000000;stroke-linecap:square;stroke-width:1.5;"/>
      <g>
       <use style="stroke:#000000;" x="41.22975" xlink:href="#m934e7d4734" y="191.325282"/>
      </g>
     </g>
     <g id="text_16">
      <!-- 5 -->
      <g transform="translate(29.72175 193.974282)scale(0.096 -0.096)">
       <use xlink:href="#DejaVuSans-53"/>
      </g>
     </g>
    </g>
    <g id="ytick_14">
     <g id="line2d_28">
      <path clip-path="url(#pb2c8f0166f)" d="M 41.22975 173.065336 
L 180.72975 173.065336 
" style="fill:none;stroke:#d3d3d3;stroke-linecap:square;stroke-opacity:0.5;stroke-width:0.8;"/>
     </g>
     <g id="line2d_29">
      <path d="M 41.22975 173.065336 
" style="fill:none;stroke:#000000;stroke-linecap:square;stroke-width:1.5;"/>
      <g>
       <use style="stroke:#000000;" x="41.22975" xlink:href="#m934e7d4734" y="173.065336"/>
      </g>
     </g>
     <g id="text_17">
      <!-- 10 -->
      <g transform="translate(23.61375 175.714336)scale(0.096 -0.096)">
       <use xlink:href="#DejaVuSans-49"/>
       <use x="63.623047" xlink:href="#DejaVuSans-48"/>
      </g>
     </g>
    </g>
    <g id="ytick_15">
     <g id="line2d_30">
      <path clip-path="url(#pb2c8f0166f)" d="M 41.22975 154.805391 
L 180.72975 154.805391 
" style="fill:none;stroke:#d3d3d3;stroke-linecap:square;stroke-opacity:0.5;stroke-width:0.8;"/>
     </g>
     <g id="line2d_31">
      <path d="M 41.22975 154.805391 
" style="fill:none;stroke:#000000;stroke-linecap:square;stroke-width:1.5;"/>
      <g>
       <use style="stroke:#000000;" x="41.22975" xlink:href="#m934e7d4734" y="154.805391"/>
      </g>
     </g>
     <g id="text_18">
      <!-- 15 -->
      <g transform="translate(23.61375 157.454391)scale(0.096 -0.096)">
       <use xlink:href="#DejaVuSans-49"/>
       <use x="63.623047" xlink:href="#DejaVuSans-53"/>
      </g>
     </g>
    </g>
    <g id="ytick_16">
     <g id="line2d_32">
      <path clip-path="url(#pb2c8f0166f)" d="M 41.22975 136.545445 
L 180.72975 136.545445 
" style="fill:none;stroke:#d3d3d3;stroke-linecap:square;stroke-opacity:0.5;stroke-width:0.8;"/>
     </g>
     <g id="line2d_33">
      <path d="M 41.22975 136.545445 
" style="fill:none;stroke:#000000;stroke-linecap:square;stroke-width:1.5;"/>
      <g>
       <use style="stroke:#000000;" x="41.22975" xlink:href="#m934e7d4734" y="136.545445"/>
      </g>
     </g>
     <g id="text_19">
      <!-- 20 -->
      <g transform="translate(23.61375 139.194445)scale(0.096 -0.096)">
       <use xlink:href="#DejaVuSans-50"/>
       <use x="63.623047" xlink:href="#DejaVuSans-48"/>
      </g>
     </g>
    </g>
    <g id="ytick_17">
     <g id="line2d_34">
      <path clip-path="url(#pb2c8f0166f)" d="M 41.22975 118.2855 
L 180.72975 118.2855 
" style="fill:none;stroke:#d3d3d3;stroke-linecap:square;stroke-opacity:0.5;stroke-width:0.8;"/>
     </g>
     <g id="line2d_35">
      <path d="M 41.22975 118.2855 
" style="fill:none;stroke:#000000;stroke-linecap:square;stroke-width:1.5;"/>
      <g>
       <use style="stroke:#000000;" x="41.22975" xlink:href="#m934e7d4734" y="118.2855"/>
      </g>
     </g>
     <g id="text_20">
      <!-- 25 -->
      <g transform="translate(23.61375 120.9345)scale(0.096 -0.096)">
       <use xlink:href="#DejaVuSans-50"/>
       <use x="63.623047" xlink:href="#DejaVuSans-53"/>
      </g>
     </g>
    </g>
    <g id="ytick_18">
     <g id="line2d_36">
      <path d="M 41.22975 200.455254 
" style="fill:none;stroke:#000000;stroke-linecap:square;stroke-width:1.5;"/>
      <g>
       <use style="stroke:#000000;" x="41.22975" xlink:href="#m7446a8ad37" y="200.455254"/>
      </g>
     </g>
    </g>
    <g id="ytick_19">
     <g id="line2d_37">
      <path d="M 41.22975 182.195309 
" style="fill:none;stroke:#000000;stroke-linecap:square;stroke-width:1.5;"/>
      <g>
       <use style="stroke:#000000;" x="41.22975" xlink:href="#m7446a8ad37" y="182.195309"/>
      </g>
     </g>
    </g>
    <g id="ytick_20">
     <g id="line2d_38">
      <path d="M 41.22975 163.935363 
" style="fill:none;stroke:#000000;stroke-linecap:square;stroke-width:1.5;"/>
      <g>
       <use style="stroke:#000000;" x="41.22975" xlink:href="#m7446a8ad37" y="163.935363"/>
      </g>
     </g>
    </g>
    <g id="ytick_21">
     <g id="line2d_39">
      <path d="M 41.22975 145.675418 
" style="fill:none;stroke:#000000;stroke-linecap:square;stroke-width:1.5;"/>
      <g>
       <use style="stroke:#000000;" x="41.22975" xlink:href="#m7446a8ad37" y="145.675418"/>
      </g>
     </g>
    </g>
    <g id="ytick_22">
     <g id="line2d_40">
      <path d="M 41.22975 127.415473 
" style="fill:none;stroke:#000000;stroke-linecap:square;stroke-width:1.5;"/>
      <g>
       <use style="stroke:#000000;" x="41.22975" xlink:href="#m7446a8ad37" y="127.415473"/>
      </g>
     </g>
    </g>
   </g>
   <g id="line2d_41">
    <path clip-path="url(#pb2c8f0166f)" d="M 47.570659 195.517803 
L 65.687542 192.195039 
L 83.804425 176.391001 
L 101.921308 160.684443 
L 120.038192 156.9513 
L 138.155075 175.335866 
L 156.271958 173.683554 
L 174.388841 177.219319 
" style="fill:none;stroke:#67a9cf;stroke-width:2.658681;"/>
   </g>
   <g id="line2d_42">
    <path clip-path="url(#pb2c8f0166f)" d="M 120.038192 202.306186 
L 138.155075 205.601908 
L 174.388841 202.927546 
" style="fill:none;stroke:#ef8a62;stroke-width:2.658681;"/>
   </g>
   <g id="PathCollection_4">
    <path clip-path="url(#pb2c8f0166f)" d="M 47.570659 190.643555 
L 46.476322 194.011578 
L 42.934974 194.011578 
L 45.799985 196.09313 
L 44.705648 199.461153 
L 47.570659 197.3796 
L 50.43567 199.461153 
L 49.341333 196.09313 
L 52.206344 194.011578 
L 48.664996 194.011578 
z
" style="fill:#67a9cf;fill-opacity:0.698039;stroke:#000000;stroke-opacity:0.698039;stroke-width:0.886227;"/>
    <path clip-path="url(#pb2c8f0166f)" d="M 65.687542 187.320791 
L 64.593205 190.688814 
L 61.051857 190.688814 
L 63.916868 192.770366 
L 62.822531 196.138389 
L 65.687542 194.056836 
L 68.552553 196.138389 
L 67.458216 192.770366 
L 70.323228 190.688814 
L 66.781879 190.688814 
z
" style="fill:#67a9cf;fill-opacity:0.698039;stroke:#000000;stroke-opacity:0.698039;stroke-width:0.886227;"/>
    <path clip-path="url(#pb2c8f0166f)" d="M 83.804425 171.516752 
L 82.710088 174.884775 
L 79.16874 174.884775 
L 82.033751 176.966328 
L 80.939414 180.33435 
L 83.804425 178.252798 
L 86.669436 180.33435 
L 85.5751 176.966328 
L 88.440111 174.884775 
L 84.898762 174.884775 
z
" style="fill:#67a9cf;fill-opacity:0.698039;stroke:#000000;stroke-opacity:0.698039;stroke-width:0.886227;"/>
    <path clip-path="url(#pb2c8f0166f)" d="M 101.921308 155.810195 
L 100.826972 159.178217 
L 97.285623 159.178217 
L 100.150634 161.25977 
L 99.056297 164.627792 
L 101.921308 162.54624 
L 104.78632 164.627792 
L 103.691983 161.25977 
L 106.556994 159.178217 
L 103.015645 159.178217 
z
" style="fill:#67a9cf;fill-opacity:0.698039;stroke:#000000;stroke-opacity:0.698039;stroke-width:0.886227;"/>
    <path clip-path="url(#pb2c8f0166f)" d="M 120.038192 152.077052 
L 118.943855 155.445074 
L 115.402506 155.445074 
L 118.267517 157.526627 
L 117.17318 160.894649 
L 120.038192 158.813097 
L 122.903203 160.894649 
L 121.808866 157.526627 
L 124.673877 155.445074 
L 121.132528 155.445074 
z
" style="fill:#67a9cf;fill-opacity:0.698039;stroke:#000000;stroke-opacity:0.698039;stroke-width:0.886227;"/>
    <path clip-path="url(#pb2c8f0166f)" d="M 138.155075 170.461618 
L 137.060738 173.829641 
L 133.519389 173.829641 
L 136.3844 175.911193 
L 135.290064 179.279216 
L 138.155075 177.197663 
L 141.020086 179.279216 
L 139.925749 175.911193 
L 142.79076 173.829641 
L 139.249412 173.829641 
z
" style="fill:#67a9cf;fill-opacity:0.698039;stroke:#000000;stroke-opacity:0.698039;stroke-width:0.886227;"/>
    <path clip-path="url(#pb2c8f0166f)" d="M 156.271958 168.809306 
L 155.177621 172.177329 
L 151.636272 172.177329 
L 154.501284 174.258881 
L 153.406947 177.626904 
L 156.271958 175.545352 
L 159.136969 177.626904 
L 158.042632 174.258881 
L 160.907643 172.177329 
L 157.366295 172.177329 
z
" style="fill:#67a9cf;fill-opacity:0.698039;stroke:#000000;stroke-opacity:0.698039;stroke-width:0.886227;"/>
    <path clip-path="url(#pb2c8f0166f)" d="M 174.388841 172.345071 
L 173.294504 175.713094 
L 169.753156 175.713094 
L 172.618167 177.794646 
L 171.52383 181.162669 
L 174.388841 179.081116 
L 177.253852 181.162669 
L 176.159515 177.794646 
L 179.024526 175.713094 
L 175.483178 175.713094 
z
" style="fill:#67a9cf;fill-opacity:0.698039;stroke:#000000;stroke-opacity:0.698039;stroke-width:0.886227;"/>
   </g>
   <g id="PathCollection_5">
    <path clip-path="url(#pb2c8f0166f)" d="M 120.038192 205.40798 
C 120.860797 205.40798 121.649821 205.081156 122.231491 204.499486 
C 122.813161 203.917816 123.139986 203.128792 123.139986 202.306186 
C 123.139986 201.483581 122.813161 200.694556 122.231491 200.112886 
C 121.649821 199.531216 120.860797 199.204392 120.038192 199.204392 
C 119.215586 199.204392 118.426562 199.531216 117.844892 200.112886 
C 117.263222 200.694556 116.936397 201.483581 116.936397 202.306186 
C 116.936397 203.128792 117.263222 203.917816 117.844892 204.499486 
C 118.426562 205.081156 119.215586 205.40798 120.038192 205.40798 
z
" style="fill:#ef8a62;fill-opacity:0.698039;stroke:#000000;stroke-opacity:0.698039;stroke-width:0.886227;"/>
    <path clip-path="url(#pb2c8f0166f)" d="M 138.155075 208.703703 
C 138.97768 208.703703 139.766705 208.376878 140.348374 207.795208 
C 140.930044 207.213538 141.256869 206.424514 141.256869 205.601908 
C 141.256869 204.779303 140.930044 203.990279 140.348374 203.408609 
C 139.766705 202.826939 138.97768 202.500114 138.155075 202.500114 
C 137.332469 202.500114 136.543445 202.826939 135.961775 203.408609 
C 135.380105 203.990279 135.05328 204.779303 135.05328 205.601908 
C 135.05328 206.424514 135.380105 207.213538 135.961775 207.795208 
C 136.543445 208.376878 137.332469 208.703703 138.155075 208.703703 
z
" style="fill:#ef8a62;fill-opacity:0.698039;stroke:#000000;stroke-opacity:0.698039;stroke-width:0.886227;"/>
    <path clip-path="url(#pb2c8f0166f)" d="M 174.388841 206.02934 
C 175.211446 206.02934 176.000471 205.702516 176.582141 205.120846 
C 177.163811 204.539176 177.490635 203.750152 177.490635 202.927546 
C 177.490635 202.104941 177.163811 201.315916 176.582141 200.734246 
C 176.000471 200.152577 175.211446 199.825752 174.388841 199.825752 
C 173.566235 199.825752 172.777211 200.152577 172.195541 200.734246 
C 171.613871 201.315916 171.287047 202.104941 171.287047 202.927546 
C 171.287047 203.750152 171.613871 204.539176 172.195541 205.120846 
C 172.777211 205.702516 173.566235 206.02934 174.388841 206.02934 
z
" style="fill:#ef8a62;fill-opacity:0.698039;stroke:#000000;stroke-opacity:0.698039;stroke-width:0.886227;"/>
   </g>
   <g id="patch_12">
    <path d="M 180.72975 209.911548 
L 196.32975 209.911548 
L 196.32975 117.871548 
L 180.72975 117.871548 
z
" style="fill:none;stroke:#000000;stroke-linejoin:miter;"/>
   </g>
   <g id="patch_13">
    <path d="M 41.22975 209.911548 
L 41.22975 117.871548 
" style="fill:none;stroke:#000000;stroke-linecap:square;stroke-linejoin:miter;"/>
   </g>
   <g id="patch_14">
    <path d="M 41.22975 209.911548 
L 180.72975 209.911548 
" style="fill:none;stroke:#000000;stroke-linecap:square;stroke-linejoin:miter;"/>
   </g>
   <g id="PathCollection_6">
    <path clip-path="url(#pb2c8f0166f)" d="M 83.804425 167.315005 
L 84.932408 165.435033 
L 83.804425 163.555062 
L 82.676443 165.435033 
z
" style="stroke:#000000;stroke-width:0.886227;"/>
    <path clip-path="url(#pb2c8f0166f)" d="M 120.038192 147.875304 
L 121.166174 145.995333 
L 120.038192 144.115361 
L 118.910209 145.995333 
z
" style="stroke:#000000;stroke-width:0.886227;"/>
    <path clip-path="url(#pb2c8f0166f)" d="M 138.155075 166.25987 
L 139.283057 164.379899 
L 138.155075 162.499928 
L 137.027092 164.379899 
z
" style="stroke:#000000;stroke-width:0.886227;"/>
    <path clip-path="url(#pb2c8f0166f)" d="M 156.271958 164.607558 
L 157.399941 162.727587 
L 156.271958 160.847616 
L 155.143975 162.727587 
z
" style="stroke:#000000;stroke-width:0.886227;"/>
    <path clip-path="url(#pb2c8f0166f)" d="M 174.388841 168.143323 
L 175.516824 166.263352 
L 174.388841 164.383381 
L 173.260858 166.263352 
z
" style="stroke:#000000;stroke-width:0.886227;"/>
   </g>
   <g id="text_21">
    <!-- LP-C-section -->
    <defs>
     <path d="M 64.40625 67.28125 
L 64.40625 56.890625 
Q 59.421875 61.53125 53.78125 63.8125 
Q 48.140625 66.109375 41.796875 66.109375 
Q 29.296875 66.109375 22.65625 58.46875 
Q 16.015625 50.828125 16.015625 36.375 
Q 16.015625 21.96875 22.65625 14.328125 
Q 29.296875 6.6875 41.796875 6.6875 
Q 48.140625 6.6875 53.78125 8.984375 
Q 59.421875 11.28125 64.40625 15.921875 
L 64.40625 5.609375 
Q 59.234375 2.09375 53.4375 0.328125 
Q 47.65625 -1.421875 41.21875 -1.421875 
Q 24.65625 -1.421875 15.125 8.703125 
Q 5.609375 18.84375 5.609375 36.375 
Q 5.609375 53.953125 15.125 64.078125 
Q 24.65625 74.21875 41.21875 74.21875 
Q 47.75 74.21875 53.53125 72.484375 
Q 59.328125 70.75 64.40625 67.28125 
z
" id="DejaVuSans-67"/>
    </defs>
    <g style="fill:#1a1a1a;" transform="translate(185.88075 134.221548)rotate(-270)scale(0.096 -0.096)">
     <use xlink:href="#DejaVuSans-76"/>
     <use x="55.712891" xlink:href="#DejaVuSans-80"/>
     <use x="115.984375" xlink:href="#DejaVuSans-45"/>
     <use x="152.068359" xlink:href="#DejaVuSans-67"/>
     <use x="221.892578" xlink:href="#DejaVuSans-45"/>
     <use x="257.976562" xlink:href="#DejaVuSans-115"/>
     <use x="310.076172" xlink:href="#DejaVuSans-101"/>
     <use x="371.599609" xlink:href="#DejaVuSans-99"/>
     <use x="426.580078" xlink:href="#DejaVuSans-116"/>
     <use x="465.789062" xlink:href="#DejaVuSans-105"/>
     <use x="493.572266" xlink:href="#DejaVuSans-111"/>
     <use x="554.753906" xlink:href="#DejaVuSans-110"/>
    </g>
   </g>
  </g>
  <g id="axes_3">
   <g id="patch_15">
    <path d="M 41.22975 316.351548 
L 180.72975 316.351548 
L 180.72975 224.311548 
L 41.22975 224.311548 
z
" style="fill:#ffffff;"/>
   </g>
   <g id="matplotlib.axis_5">
    <g id="xtick_31">
     <g id="line2d_43">
      <path d="M 47.570659 316.351548 
" style="fill:none;stroke:#000000;stroke-linecap:square;stroke-width:1.5;"/>
      <defs>
       <path d="M 0 0 
L 0 3 
" id="mebfaa6ca21" style="stroke:#000000;"/>
      </defs>
      <g>
       <use style="stroke:#000000;" x="47.570659" xlink:href="#mebfaa6ca21" y="316.351548"/>
      </g>
     </g>
     <g id="text_22">
      <!-- 0 -->
      <g transform="translate(44.516659 329.046048)scale(0.096 -0.096)">
       <use xlink:href="#DejaVuSans-48"/>
      </g>
     </g>
    </g>
    <g id="xtick_32">
     <g id="line2d_44">
      <path d="M 65.687542 316.351548 
" style="fill:none;stroke:#000000;stroke-linecap:square;stroke-width:1.5;"/>
      <g>
       <use style="stroke:#000000;" x="65.687542" xlink:href="#mebfaa6ca21" y="316.351548"/>
      </g>
     </g>
     <g id="text_23">
      <!-- 1 -->
      <g transform="translate(62.633542 329.046048)scale(0.096 -0.096)">
       <use xlink:href="#DejaVuSans-49"/>
      </g>
     </g>
    </g>
    <g id="xtick_33">
     <g id="line2d_45">
      <path d="M 83.804425 316.351548 
" style="fill:none;stroke:#000000;stroke-linecap:square;stroke-width:1.5;"/>
      <g>
       <use style="stroke:#000000;" x="83.804425" xlink:href="#mebfaa6ca21" y="316.351548"/>
      </g>
     </g>
     <g id="text_24">
      <!-- 2 -->
      <g transform="translate(80.750425 329.046048)scale(0.096 -0.096)">
       <use xlink:href="#DejaVuSans-50"/>
      </g>
     </g>
    </g>
    <g id="xtick_34">
     <g id="line2d_46">
      <path d="M 101.921308 316.351548 
" style="fill:none;stroke:#000000;stroke-linecap:square;stroke-width:1.5;"/>
      <g>
       <use style="stroke:#000000;" x="101.921308" xlink:href="#mebfaa6ca21" y="316.351548"/>
      </g>
     </g>
     <g id="text_25">
      <!-- 3 -->
      <defs>
       <path d="M 40.578125 39.3125 
Q 47.65625 37.796875 51.625 33 
Q 55.609375 28.21875 55.609375 21.1875 
Q 55.609375 10.40625 48.1875 4.484375 
Q 40.765625 -1.421875 27.09375 -1.421875 
Q 22.515625 -1.421875 17.65625 -0.515625 
Q 12.796875 0.390625 7.625 2.203125 
L 7.625 11.71875 
Q 11.71875 9.328125 16.59375 8.109375 
Q 21.484375 6.890625 26.8125 6.890625 
Q 36.078125 6.890625 40.9375 10.546875 
Q 45.796875 14.203125 45.796875 21.1875 
Q 45.796875 27.640625 41.28125 31.265625 
Q 36.765625 34.90625 28.71875 34.90625 
L 20.21875 34.90625 
L 20.21875 43.015625 
L 29.109375 43.015625 
Q 36.375 43.015625 40.234375 45.921875 
Q 44.09375 48.828125 44.09375 54.296875 
Q 44.09375 59.90625 40.109375 62.90625 
Q 36.140625 65.921875 28.71875 65.921875 
Q 24.65625 65.921875 20.015625 65.03125 
Q 15.375 64.15625 9.8125 62.3125 
L 9.8125 71.09375 
Q 15.4375 72.65625 20.34375 73.4375 
Q 25.25 74.21875 29.59375 74.21875 
Q 40.828125 74.21875 47.359375 69.109375 
Q 53.90625 64.015625 53.90625 55.328125 
Q 53.90625 49.265625 50.4375 45.09375 
Q 46.96875 40.921875 40.578125 39.3125 
z
" id="DejaVuSans-51"/>
      </defs>
      <g transform="translate(98.867308 329.046048)scale(0.096 -0.096)">
       <use xlink:href="#DejaVuSans-51"/>
      </g>
     </g>
    </g>
    <g id="xtick_35">
     <g id="line2d_47">
      <path d="M 120.038192 316.351548 
" style="fill:none;stroke:#000000;stroke-linecap:square;stroke-width:1.5;"/>
      <g>
       <use style="stroke:#000000;" x="120.038192" xlink:href="#mebfaa6ca21" y="316.351548"/>
      </g>
     </g>
     <g id="text_26">
      <!-- 4 -->
      <defs>
       <path d="M 37.796875 64.3125 
L 12.890625 25.390625 
L 37.796875 25.390625 
z
M 35.203125 72.90625 
L 47.609375 72.90625 
L 47.609375 25.390625 
L 58.015625 25.390625 
L 58.015625 17.1875 
L 47.609375 17.1875 
L 47.609375 0 
L 37.796875 0 
L 37.796875 17.1875 
L 4.890625 17.1875 
L 4.890625 26.703125 
z
" id="DejaVuSans-52"/>
      </defs>
      <g transform="translate(116.984192 329.046048)scale(0.096 -0.096)">
       <use xlink:href="#DejaVuSans-52"/>
      </g>
     </g>
    </g>
    <g id="xtick_36">
     <g id="line2d_48">
      <path d="M 138.155075 316.351548 
" style="fill:none;stroke:#000000;stroke-linecap:square;stroke-width:1.5;"/>
      <g>
       <use style="stroke:#000000;" x="138.155075" xlink:href="#mebfaa6ca21" y="316.351548"/>
      </g>
     </g>
     <g id="text_27">
      <!-- 5 -->
      <g transform="translate(135.101075 329.046048)scale(0.096 -0.096)">
       <use xlink:href="#DejaVuSans-53"/>
      </g>
     </g>
    </g>
    <g id="xtick_37">
     <g id="line2d_49">
      <path d="M 156.271958 316.351548 
" style="fill:none;stroke:#000000;stroke-linecap:square;stroke-width:1.5;"/>
      <g>
       <use style="stroke:#000000;" x="156.271958" xlink:href="#mebfaa6ca21" y="316.351548"/>
      </g>
     </g>
     <g id="text_28">
      <!-- 6 -->
      <defs>
       <path d="M 33.015625 40.375 
Q 26.375 40.375 22.484375 35.828125 
Q 18.609375 31.296875 18.609375 23.390625 
Q 18.609375 15.53125 22.484375 10.953125 
Q 26.375 6.390625 33.015625 6.390625 
Q 39.65625 6.390625 43.53125 10.953125 
Q 47.40625 15.53125 47.40625 23.390625 
Q 47.40625 31.296875 43.53125 35.828125 
Q 39.65625 40.375 33.015625 40.375 
z
M 52.59375 71.296875 
L 52.59375 62.3125 
Q 48.875 64.0625 45.09375 64.984375 
Q 41.3125 65.921875 37.59375 65.921875 
Q 27.828125 65.921875 22.671875 59.328125 
Q 17.53125 52.734375 16.796875 39.40625 
Q 19.671875 43.65625 24.015625 45.921875 
Q 28.375 48.1875 33.59375 48.1875 
Q 44.578125 48.1875 50.953125 41.515625 
Q 57.328125 34.859375 57.328125 23.390625 
Q 57.328125 12.15625 50.6875 5.359375 
Q 44.046875 -1.421875 33.015625 -1.421875 
Q 20.359375 -1.421875 13.671875 8.265625 
Q 6.984375 17.96875 6.984375 36.375 
Q 6.984375 53.65625 15.1875 63.9375 
Q 23.390625 74.21875 37.203125 74.21875 
Q 40.921875 74.21875 44.703125 73.484375 
Q 48.484375 72.75 52.59375 71.296875 
z
" id="DejaVuSans-54"/>
      </defs>
      <g transform="translate(153.217958 329.046048)scale(0.096 -0.096)">
       <use xlink:href="#DejaVuSans-54"/>
      </g>
     </g>
    </g>
    <g id="xtick_38">
     <g id="line2d_50">
      <path d="M 174.388841 316.351548 
" style="fill:none;stroke:#000000;stroke-linecap:square;stroke-width:1.5;"/>
      <g>
       <use style="stroke:#000000;" x="174.388841" xlink:href="#mebfaa6ca21" y="316.351548"/>
      </g>
     </g>
     <g id="text_29">
      <!-- 7 -->
      <defs>
       <path d="M 8.203125 72.90625 
L 55.078125 72.90625 
L 55.078125 68.703125 
L 28.609375 0 
L 18.3125 0 
L 43.21875 64.59375 
L 8.203125 64.59375 
z
" id="DejaVuSans-55"/>
      </defs>
      <g transform="translate(171.334841 329.046048)scale(0.096 -0.096)">
       <use xlink:href="#DejaVuSans-55"/>
      </g>
     </g>
    </g>
    <g id="xtick_39"/>
    <g id="xtick_40"/>
    <g id="xtick_41"/>
    <g id="xtick_42"/>
    <g id="xtick_43"/>
    <g id="xtick_44"/>
    <g id="xtick_45"/>
    <g id="text_30">
     <!-- Age (days) -->
     <defs>
      <path d="M 31 75.875 
Q 24.46875 64.65625 21.28125 53.65625 
Q 18.109375 42.671875 18.109375 31.390625 
Q 18.109375 20.125 21.3125 9.0625 
Q 24.515625 -2 31 -13.1875 
L 23.1875 -13.1875 
Q 15.875 -1.703125 12.234375 9.375 
Q 8.59375 20.453125 8.59375 31.390625 
Q 8.59375 42.28125 12.203125 53.3125 
Q 15.828125 64.359375 23.1875 75.875 
z
" id="DejaVuSans-40"/>
      <path d="M 32.171875 -5.078125 
Q 28.375 -14.84375 24.75 -17.8125 
Q 21.140625 -20.796875 15.09375 -20.796875 
L 7.90625 -20.796875 
L 7.90625 -13.28125 
L 13.1875 -13.28125 
Q 16.890625 -13.28125 18.9375 -11.515625 
Q 21 -9.765625 23.484375 -3.21875 
L 25.09375 0.875 
L 2.984375 54.6875 
L 12.5 54.6875 
L 29.59375 11.921875 
L 46.6875 54.6875 
L 56.203125 54.6875 
z
" id="DejaVuSans-121"/>
      <path d="M 8.015625 75.875 
L 15.828125 75.875 
Q 23.140625 64.359375 26.78125 53.3125 
Q 30.421875 42.28125 30.421875 31.390625 
Q 30.421875 20.453125 26.78125 9.375 
Q 23.140625 -1.703125 15.828125 -13.1875 
L 8.015625 -13.1875 
Q 14.5 -2 17.703125 9.0625 
Q 20.90625 20.125 20.90625 31.390625 
Q 20.90625 42.671875 17.703125 53.65625 
Q 14.5 64.65625 8.015625 75.875 
z
" id="DejaVuSans-41"/>
     </defs>
     <g transform="translate(76.372875 344.960673)scale(0.12 -0.12)">
      <use xlink:href="#DejaVuSans-65"/>
      <use x="68.408203" xlink:href="#DejaVuSans-103"/>
      <use x="131.884766" xlink:href="#DejaVuSans-101"/>
      <use x="193.408203" xlink:href="#DejaVuSans-32"/>
      <use x="225.195312" xlink:href="#DejaVuSans-40"/>
      <use x="264.208984" xlink:href="#DejaVuSans-100"/>
      <use x="327.685547" xlink:href="#DejaVuSans-97"/>
      <use x="388.964844" xlink:href="#DejaVuSans-121"/>
      <use x="448.144531" xlink:href="#DejaVuSans-115"/>
      <use x="500.244141" xlink:href="#DejaVuSans-41"/>
     </g>
    </g>
   </g>
   <g id="matplotlib.axis_6">
    <g id="ytick_23">
     <g id="line2d_51">
      <path clip-path="url(#p17970f1819)" d="M 41.22975 316.025227 
L 180.72975 316.025227 
" style="fill:none;stroke:#d3d3d3;stroke-linecap:square;stroke-opacity:0.5;stroke-width:0.8;"/>
     </g>
     <g id="line2d_52">
      <path d="M 41.22975 316.025227 
" style="fill:none;stroke:#000000;stroke-linecap:square;stroke-width:1.5;"/>
      <g>
       <use style="stroke:#000000;" x="41.22975" xlink:href="#m934e7d4734" y="316.025227"/>
      </g>
     </g>
     <g id="text_31">
      <!-- 0 -->
      <g transform="translate(29.72175 318.674227)scale(0.096 -0.096)">
       <use xlink:href="#DejaVuSans-48"/>
      </g>
     </g>
    </g>
    <g id="ytick_24">
     <g id="line2d_53">
      <path clip-path="url(#p17970f1819)" d="M 41.22975 297.765282 
L 180.72975 297.765282 
" style="fill:none;stroke:#d3d3d3;stroke-linecap:square;stroke-opacity:0.5;stroke-width:0.8;"/>
     </g>
     <g id="line2d_54">
      <path d="M 41.22975 297.765282 
" style="fill:none;stroke:#000000;stroke-linecap:square;stroke-width:1.5;"/>
      <g>
       <use style="stroke:#000000;" x="41.22975" xlink:href="#m934e7d4734" y="297.765282"/>
      </g>
     </g>
     <g id="text_32">
      <!-- 5 -->
      <g transform="translate(29.72175 300.414282)scale(0.096 -0.096)">
       <use xlink:href="#DejaVuSans-53"/>
      </g>
     </g>
    </g>
    <g id="ytick_25">
     <g id="line2d_55">
      <path clip-path="url(#p17970f1819)" d="M 41.22975 279.505336 
L 180.72975 279.505336 
" style="fill:none;stroke:#d3d3d3;stroke-linecap:square;stroke-opacity:0.5;stroke-width:0.8;"/>
     </g>
     <g id="line2d_56">
      <path d="M 41.22975 279.505336 
" style="fill:none;stroke:#000000;stroke-linecap:square;stroke-width:1.5;"/>
      <g>
       <use style="stroke:#000000;" x="41.22975" xlink:href="#m934e7d4734" y="279.505336"/>
      </g>
     </g>
     <g id="text_33">
      <!-- 10 -->
      <g transform="translate(23.61375 282.154336)scale(0.096 -0.096)">
       <use xlink:href="#DejaVuSans-49"/>
       <use x="63.623047" xlink:href="#DejaVuSans-48"/>
      </g>
     </g>
    </g>
    <g id="ytick_26">
     <g id="line2d_57">
      <path clip-path="url(#p17970f1819)" d="M 41.22975 261.245391 
L 180.72975 261.245391 
" style="fill:none;stroke:#d3d3d3;stroke-linecap:square;stroke-opacity:0.5;stroke-width:0.8;"/>
     </g>
     <g id="line2d_58">
      <path d="M 41.22975 261.245391 
" style="fill:none;stroke:#000000;stroke-linecap:square;stroke-width:1.5;"/>
      <g>
       <use style="stroke:#000000;" x="41.22975" xlink:href="#m934e7d4734" y="261.245391"/>
      </g>
     </g>
     <g id="text_34">
      <!-- 15 -->
      <g transform="translate(23.61375 263.894391)scale(0.096 -0.096)">
       <use xlink:href="#DejaVuSans-49"/>
       <use x="63.623047" xlink:href="#DejaVuSans-53"/>
      </g>
     </g>
    </g>
    <g id="ytick_27">
     <g id="line2d_59">
      <path clip-path="url(#p17970f1819)" d="M 41.22975 242.985445 
L 180.72975 242.985445 
" style="fill:none;stroke:#d3d3d3;stroke-linecap:square;stroke-opacity:0.5;stroke-width:0.8;"/>
     </g>
     <g id="line2d_60">
      <path d="M 41.22975 242.985445 
" style="fill:none;stroke:#000000;stroke-linecap:square;stroke-width:1.5;"/>
      <g>
       <use style="stroke:#000000;" x="41.22975" xlink:href="#m934e7d4734" y="242.985445"/>
      </g>
     </g>
     <g id="text_35">
      <!-- 20 -->
      <g transform="translate(23.61375 245.634445)scale(0.096 -0.096)">
       <use xlink:href="#DejaVuSans-50"/>
       <use x="63.623047" xlink:href="#DejaVuSans-48"/>
      </g>
     </g>
    </g>
    <g id="ytick_28">
     <g id="line2d_61">
      <path clip-path="url(#p17970f1819)" d="M 41.22975 224.7255 
L 180.72975 224.7255 
" style="fill:none;stroke:#d3d3d3;stroke-linecap:square;stroke-opacity:0.5;stroke-width:0.8;"/>
     </g>
     <g id="line2d_62">
      <path d="M 41.22975 224.7255 
" style="fill:none;stroke:#000000;stroke-linecap:square;stroke-width:1.5;"/>
      <g>
       <use style="stroke:#000000;" x="41.22975" xlink:href="#m934e7d4734" y="224.7255"/>
      </g>
     </g>
     <g id="text_36">
      <!-- 25 -->
      <g transform="translate(23.61375 227.3745)scale(0.096 -0.096)">
       <use xlink:href="#DejaVuSans-50"/>
       <use x="63.623047" xlink:href="#DejaVuSans-53"/>
      </g>
     </g>
    </g>
    <g id="ytick_29">
     <g id="line2d_63">
      <path d="M 41.22975 306.895254 
" style="fill:none;stroke:#000000;stroke-linecap:square;stroke-width:1.5;"/>
      <g>
       <use style="stroke:#000000;" x="41.22975" xlink:href="#m7446a8ad37" y="306.895254"/>
      </g>
     </g>
    </g>
    <g id="ytick_30">
     <g id="line2d_64">
      <path d="M 41.22975 288.635309 
" style="fill:none;stroke:#000000;stroke-linecap:square;stroke-width:1.5;"/>
      <g>
       <use style="stroke:#000000;" x="41.22975" xlink:href="#m7446a8ad37" y="288.635309"/>
      </g>
     </g>
    </g>
    <g id="ytick_31">
     <g id="line2d_65">
      <path d="M 41.22975 270.375363 
" style="fill:none;stroke:#000000;stroke-linecap:square;stroke-width:1.5;"/>
      <g>
       <use style="stroke:#000000;" x="41.22975" xlink:href="#m7446a8ad37" y="270.375363"/>
      </g>
     </g>
    </g>
    <g id="ytick_32">
     <g id="line2d_66">
      <path d="M 41.22975 252.115418 
" style="fill:none;stroke:#000000;stroke-linecap:square;stroke-width:1.5;"/>
      <g>
       <use style="stroke:#000000;" x="41.22975" xlink:href="#m7446a8ad37" y="252.115418"/>
      </g>
     </g>
    </g>
    <g id="ytick_33">
     <g id="line2d_67">
      <path d="M 41.22975 233.855473 
" style="fill:none;stroke:#000000;stroke-linecap:square;stroke-width:1.5;"/>
      <g>
       <use style="stroke:#000000;" x="41.22975" xlink:href="#m7446a8ad37" y="233.855473"/>
      </g>
     </g>
    </g>
   </g>
   <g id="line2d_68">
    <path clip-path="url(#p17970f1819)" d="M 65.687542 312.167912 
L 83.804425 309.238327 
L 101.921308 304.238709 
L 120.038192 300.950519 
L 138.155075 304.213816 
L 156.271958 307.272284 
L 174.388841 311.672297 
" style="fill:none;stroke:#ef8a62;stroke-width:2.658681;"/>
   </g>
   <g id="PathCollection_7">
    <path clip-path="url(#p17970f1819)" d="M 101.921308 299.364461 
L 100.826972 302.732484 
L 97.285623 302.732484 
L 100.150634 304.814036 
L 99.056297 308.182059 
L 101.921308 306.100506 
L 104.78632 308.182059 
L 103.691983 304.814036 
L 106.556994 302.732484 
L 103.015645 302.732484 
z
" style="fill:#ef8a62;fill-opacity:0.698039;stroke:#000000;stroke-opacity:0.698039;stroke-width:0.886227;"/>
    <path clip-path="url(#p17970f1819)" d="M 120.038192 296.076271 
L 118.943855 299.444293 
L 115.402506 299.444293 
L 118.267517 301.525846 
L 117.17318 304.893868 
L 120.038192 302.812316 
L 122.903203 304.893868 
L 121.808866 301.525846 
L 124.673877 299.444293 
L 121.132528 299.444293 
z
" style="fill:#ef8a62;fill-opacity:0.698039;stroke:#000000;stroke-opacity:0.698039;stroke-width:0.886227;"/>
    <path clip-path="url(#p17970f1819)" d="M 138.155075 299.339568 
L 137.060738 302.70759 
L 133.519389 302.70759 
L 136.3844 304.789143 
L 135.290064 308.157165 
L 138.155075 306.075613 
L 141.020086 308.157165 
L 139.925749 304.789143 
L 142.79076 302.70759 
L 139.249412 302.70759 
z
" style="fill:#ef8a62;fill-opacity:0.698039;stroke:#000000;stroke-opacity:0.698039;stroke-width:0.886227;"/>
    <path clip-path="url(#p17970f1819)" d="M 156.271958 302.398036 
L 155.177621 305.766058 
L 151.636272 305.766058 
L 154.501284 307.847611 
L 153.406947 311.215633 
L 156.271958 309.134081 
L 159.136969 311.215633 
L 158.042632 307.847611 
L 160.907643 305.766058 
L 157.366295 305.766058 
z
" style="fill:#ef8a62;fill-opacity:0.698039;stroke:#000000;stroke-opacity:0.698039;stroke-width:0.886227;"/>
   </g>
   <g id="PathCollection_8">
    <path clip-path="url(#p17970f1819)" d="M 65.687542 315.269706 
C 66.510148 315.269706 67.299172 314.942881 67.880842 314.361211 
C 68.462512 313.779541 68.789336 312.990517 68.789336 312.167912 
C 68.789336 311.345306 68.462512 310.556282 67.880842 309.974612 
C 67.299172 309.392942 66.510148 309.066117 65.687542 309.066117 
C 64.864937 309.066117 64.075912 309.392942 63.494242 309.974612 
C 62.912573 310.556282 62.585748 311.345306 62.585748 312.167912 
C 62.585748 312.990517 62.912573 313.779541 63.494242 314.361211 
C 64.075912 314.942881 64.864937 315.269706 65.687542 315.269706 
z
" style="fill:#ef8a62;fill-opacity:0.698039;stroke:#000000;stroke-opacity:0.698039;stroke-width:0.886227;"/>
    <path clip-path="url(#p17970f1819)" d="M 83.804425 312.340121 
C 84.627031 312.340121 85.416055 312.013296 85.997725 311.431626 
C 86.579395 310.849956 86.90622 310.060932 86.90622 309.238327 
C 86.90622 308.415721 86.579395 307.626697 85.997725 307.045027 
C 85.416055 306.463357 84.627031 306.136532 83.804425 306.136532 
C 82.98182 306.136532 82.192795 306.463357 81.611126 307.045027 
C 81.029456 307.626697 80.702631 308.415721 80.702631 309.238327 
C 80.702631 310.060932 81.029456 310.849956 81.611126 311.431626 
C 82.192795 312.013296 82.98182 312.340121 83.804425 312.340121 
z
" style="fill:#ef8a62;fill-opacity:0.698039;stroke:#000000;stroke-opacity:0.698039;stroke-width:0.886227;"/>
    <path clip-path="url(#p17970f1819)" d="M 174.388841 314.774091 
C 175.211446 314.774091 176.000471 314.447267 176.582141 313.865597 
C 177.163811 313.283927 177.490635 312.494902 177.490635 311.672297 
C 177.490635 310.849692 177.163811 310.060667 176.582141 309.478997 
C 176.000471 308.897327 175.211446 308.570503 174.388841 308.570503 
C 173.566235 308.570503 172.777211 308.897327 172.195541 309.478997 
C 171.613871 310.060667 171.287047 310.849692 171.287047 311.672297 
C 171.287047 312.494902 171.613871 313.283927 172.195541 313.865597 
C 172.777211 314.447267 173.566235 314.774091 174.388841 314.774091 
z
" style="fill:#ef8a62;fill-opacity:0.698039;stroke:#000000;stroke-opacity:0.698039;stroke-width:0.886227;"/>
   </g>
   <g id="patch_16">
    <path d="M 180.72975 316.351548 
L 196.32975 316.351548 
L 196.32975 224.311548 
L 180.72975 224.311548 
z
" style="fill:none;stroke:#000000;stroke-linejoin:miter;"/>
   </g>
   <g id="patch_17">
    <path d="M 41.22975 316.351548 
L 41.22975 224.311548 
" style="fill:none;stroke:#000000;stroke-linecap:square;stroke-linejoin:miter;"/>
   </g>
   <g id="patch_18">
    <path d="M 41.22975 316.351548 
L 180.72975 316.351548 
" style="fill:none;stroke:#000000;stroke-linecap:square;stroke-linejoin:miter;"/>
   </g>
   <g id="PathCollection_9">
    <g clip-path="url(#p17970f1819)">
     <use style="stroke:#000000;stroke-width:0.886227;" x="120.038192" xlink:href="#m02d9c3e861" y="289.994551"/>
    </g>
   </g>
   <g id="text_37">
    <!-- VLBW-C-section -->
    <defs>
     <path d="M 19.671875 34.8125 
L 19.671875 8.109375 
L 35.5 8.109375 
Q 43.453125 8.109375 47.28125 11.40625 
Q 51.125 14.703125 51.125 21.484375 
Q 51.125 28.328125 47.28125 31.5625 
Q 43.453125 34.8125 35.5 34.8125 
z
M 19.671875 64.796875 
L 19.671875 42.828125 
L 34.28125 42.828125 
Q 41.5 42.828125 45.03125 45.53125 
Q 48.578125 48.25 48.578125 53.8125 
Q 48.578125 59.328125 45.03125 62.0625 
Q 41.5 64.796875 34.28125 64.796875 
z
M 9.8125 72.90625 
L 35.015625 72.90625 
Q 46.296875 72.90625 52.390625 68.21875 
Q 58.5 63.53125 58.5 54.890625 
Q 58.5 48.1875 55.375 44.234375 
Q 52.25 40.28125 46.1875 39.3125 
Q 53.46875 37.75 57.5 32.78125 
Q 61.53125 27.828125 61.53125 20.40625 
Q 61.53125 10.640625 54.890625 5.3125 
Q 48.25 0 35.984375 0 
L 9.8125 0 
z
" id="DejaVuSans-66"/>
     <path d="M 3.328125 72.90625 
L 13.28125 72.90625 
L 28.609375 11.28125 
L 43.890625 72.90625 
L 54.984375 72.90625 
L 70.3125 11.28125 
L 85.59375 72.90625 
L 95.609375 72.90625 
L 77.296875 0 
L 64.890625 0 
L 49.515625 63.28125 
L 33.984375 0 
L 21.578125 0 
z
" id="DejaVuSans-87"/>
    </defs>
    <g style="fill:#1a1a1a;" transform="translate(185.88075 232.236798)rotate(-270)scale(0.096 -0.096)">
     <use xlink:href="#DejaVuSans-86"/>
     <use x="68.408203" xlink:href="#DejaVuSans-76"/>
     <use x="124.121094" xlink:href="#DejaVuSans-66"/>
     <use x="192.677734" xlink:href="#DejaVuSans-87"/>
     <use x="291.492188" xlink:href="#DejaVuSans-45"/>
     <use x="327.576172" xlink:href="#DejaVuSans-67"/>
     <use x="397.400391" xlink:href="#DejaVuSans-45"/>
     <use x="433.484375" xlink:href="#DejaVuSans-115"/>
     <use x="485.583984" xlink:href="#DejaVuSans-101"/>
     <use x="547.107422" xlink:href="#DejaVuSans-99"/>
     <use x="602.087891" xlink:href="#DejaVuSans-116"/>
     <use x="641.296875" xlink:href="#DejaVuSans-105"/>
     <use x="669.080078" xlink:href="#DejaVuSans-111"/>
     <use x="730.261719" xlink:href="#DejaVuSans-110"/>
    </g>
   </g>
  </g>
 </g>
 <defs>
  <clipPath id="p092cdce64c">
   <rect height="92.04" width="139.5" x="41.22975" y="11.431548"/>
  </clipPath>
  <clipPath id="pf9bed92cd7">
   <path d="M 215.92975 137.409279 
L 215.92975 120.129279 
L 233.20975 120.129279 
L 233.20975 137.409279 
"/>
  </clipPath>
  <clipPath id="p8b4fe3b0c9">
   <path d="M 215.92975 156.689279 
L 215.92975 139.409279 
L 233.20975 139.409279 
L 233.20975 156.689279 
"/>
  </clipPath>
  <clipPath id="p80083ce219">
   <path d="M 215.92975 211.307235 
L 215.92975 193.804966 
L 233.432019 193.804966 
L 233.432019 211.307235 
"/>
  </clipPath>
  <clipPath id="pf00d012796">
   <path d="M 215.92975 230.809505 
L 215.92975 213.307235 
L 233.432019 213.307235 
L 233.432019 230.809505 
"/>
  </clipPath>
  <clipPath id="pb2c8f0166f">
   <rect height="92.04" width="139.5" x="41.22975" y="117.871548"/>
  </clipPath>
  <clipPath id="p17970f1819">
   <rect height="92.04" width="139.5" x="41.22975" y="224.311548"/>
  </clipPath>
 </defs>
</svg>
