<?xml version="1.0" encoding="utf-8" standalone="no"?>
<!DOCTYPE svg PUBLIC "-//W3C//DTD SVG 1.1//EN"
  "http://www.w3.org/Graphics/SVG/1.1/DTD/svg11.dtd">
<!-- Created with matplotlib (https://matplotlib.org/) -->
<svg height="342.124062pt" version="1.1" viewBox="0 0 597.5875 342.124062" width="597.5875pt" xmlns="http://www.w3.org/2000/svg" xmlns:xlink="http://www.w3.org/1999/xlink">
 <defs>
  <style type="text/css">
*{stroke-linecap:butt;stroke-linejoin:round;}
  </style>
 </defs>
 <g id="figure_1">
  <g id="patch_1">
   <path d="M 0 342.124062 
L 597.5875 342.124062 
L 597.5875 0 
L 0 0 
z
" style="fill:#ffffff;stroke:#ffffff;stroke-linejoin:miter;"/>
  </g>
  <g id="axes_1">
   <g id="patch_2">
    <path d="M 35.37625 116.24 
L 162.21625 116.24 
L 162.21625 27.2 
L 35.37625 27.2 
z
" style="fill:#ffffff;"/>
   </g>
   <g id="matplotlib.axis_1">
    <g id="xtick_1"/>
    <g id="xtick_2"/>
    <g id="xtick_3"/>
    <g id="xtick_4"/>
    <g id="xtick_5"/>
    <g id="xtick_6"/>
    <g id="xtick_7"/>
    <g id="xtick_8"/>
    <g id="xtick_9"/>
    <g id="xtick_10"/>
    <g id="xtick_11"/>
    <g id="xtick_12"/>
    <g id="xtick_13"/>
    <g id="xtick_14"/>
    <g id="xtick_15"/>
   </g>
   <g id="matplotlib.axis_2">
    <g id="ytick_1">
     <g id="line2d_1">
      <path clip-path="url(#p2cd8f2bb53)" d="M 35.37625 112.769611 
L 162.21625 112.769611 
" style="fill:none;stroke:#d3d3d3;stroke-opacity:0.5;stroke-width:0.8;"/>
     </g>
     <g id="line2d_2">
      <path d="M 35.37625 112.769611 
" style="fill:none;stroke:#000000;stroke-width:1.5;"/>
      <defs>
       <path d="M 0 0 
L -3 0 
" id="m4c929eac02" style="stroke:#000000;"/>
      </defs>
      <g>
       <use style="stroke:#000000;" x="35.37625" xlink:href="#m4c929eac02" y="112.769611"/>
      </g>
     </g>
     <g id="text_1">
      <!-- 0 -->
      <defs>
       <path d="M 31.78125 66.40625 
Q 24.171875 66.40625 20.328125 58.90625 
Q 16.5 51.421875 16.5 36.375 
Q 16.5 21.390625 20.328125 13.890625 
Q 24.171875 6.390625 31.78125 6.390625 
Q 39.453125 6.390625 43.28125 13.890625 
Q 47.125 21.390625 47.125 36.375 
Q 47.125 51.421875 43.28125 58.90625 
Q 39.453125 66.40625 31.78125 66.40625 
z
M 31.78125 74.21875 
Q 44.046875 74.21875 50.515625 64.515625 
Q 56.984375 54.828125 56.984375 36.375 
Q 56.984375 17.96875 50.515625 8.265625 
Q 44.046875 -1.421875 31.78125 -1.421875 
Q 19.53125 -1.421875 13.0625 8.265625 
Q 6.59375 17.96875 6.59375 36.375 
Q 6.59375 54.828125 13.0625 64.515625 
Q 19.53125 74.21875 31.78125 74.21875 
z
" id="DejaVuSans-48"/>
      </defs>
      <g style="fill:#4d4d4d;" transform="translate(23.61375 115.528986)scale(0.1 -0.1)">
       <use xlink:href="#DejaVuSans-48"/>
      </g>
     </g>
    </g>
    <g id="ytick_2">
     <g id="line2d_3">
      <path clip-path="url(#p2cd8f2bb53)" d="M 35.37625 91.037021 
L 162.21625 91.037021 
" style="fill:none;stroke:#d3d3d3;stroke-opacity:0.5;stroke-width:0.8;"/>
     </g>
     <g id="line2d_4">
      <path d="M 35.37625 91.037021 
" style="fill:none;stroke:#000000;stroke-width:1.5;"/>
      <g>
       <use style="stroke:#000000;" x="35.37625" xlink:href="#m4c929eac02" y="91.037021"/>
      </g>
     </g>
     <g id="text_2">
      <!-- 2 -->
      <defs>
       <path d="M 19.1875 8.296875 
L 53.609375 8.296875 
L 53.609375 0 
L 7.328125 0 
L 7.328125 8.296875 
Q 12.9375 14.109375 22.625 23.890625 
Q 32.328125 33.6875 34.8125 36.53125 
Q 39.546875 41.84375 41.421875 45.53125 
Q 43.3125 49.21875 43.3125 52.78125 
Q 43.3125 58.59375 39.234375 62.25 
Q 35.15625 65.921875 28.609375 65.921875 
Q 23.96875 65.921875 18.8125 64.3125 
Q 13.671875 62.703125 7.8125 59.421875 
L 7.8125 69.390625 
Q 13.765625 71.78125 18.9375 73 
Q 24.125 74.21875 28.421875 74.21875 
Q 39.75 74.21875 46.484375 68.546875 
Q 53.21875 62.890625 53.21875 53.421875 
Q 53.21875 48.921875 51.53125 44.890625 
Q 49.859375 40.875 45.40625 35.40625 
Q 44.1875 33.984375 37.640625 27.21875 
Q 31.109375 20.453125 19.1875 8.296875 
z
" id="DejaVuSans-50"/>
      </defs>
      <g style="fill:#4d4d4d;" transform="translate(23.61375 93.796396)scale(0.1 -0.1)">
       <use xlink:href="#DejaVuSans-50"/>
      </g>
     </g>
    </g>
    <g id="ytick_3">
     <g id="line2d_5">
      <path clip-path="url(#p2cd8f2bb53)" d="M 35.37625 69.30443 
L 162.21625 69.30443 
" style="fill:none;stroke:#d3d3d3;stroke-opacity:0.5;stroke-width:0.8;"/>
     </g>
     <g id="line2d_6">
      <path d="M 35.37625 69.30443 
" style="fill:none;stroke:#000000;stroke-width:1.5;"/>
      <g>
       <use style="stroke:#000000;" x="35.37625" xlink:href="#m4c929eac02" y="69.30443"/>
      </g>
     </g>
     <g id="text_3">
      <!-- 4 -->
      <defs>
       <path d="M 37.796875 64.3125 
L 12.890625 25.390625 
L 37.796875 25.390625 
z
M 35.203125 72.90625 
L 47.609375 72.90625 
L 47.609375 25.390625 
L 58.015625 25.390625 
L 58.015625 17.1875 
L 47.609375 17.1875 
L 47.609375 0 
L 37.796875 0 
L 37.796875 17.1875 
L 4.890625 17.1875 
L 4.890625 26.703125 
z
" id="DejaVuSans-52"/>
      </defs>
      <g style="fill:#4d4d4d;" transform="translate(23.61375 72.063805)scale(0.1 -0.1)">
       <use xlink:href="#DejaVuSans-52"/>
      </g>
     </g>
    </g>
    <g id="ytick_4">
     <g id="line2d_7">
      <path clip-path="url(#p2cd8f2bb53)" d="M 35.37625 47.57184 
L 162.21625 47.57184 
" style="fill:none;stroke:#d3d3d3;stroke-opacity:0.5;stroke-width:0.8;"/>
     </g>
     <g id="line2d_8">
      <path d="M 35.37625 47.57184 
" style="fill:none;stroke:#000000;stroke-width:1.5;"/>
      <g>
       <use style="stroke:#000000;" x="35.37625" xlink:href="#m4c929eac02" y="47.57184"/>
      </g>
     </g>
     <g id="text_4">
      <!-- 6 -->
      <defs>
       <path d="M 33.015625 40.375 
Q 26.375 40.375 22.484375 35.828125 
Q 18.609375 31.296875 18.609375 23.390625 
Q 18.609375 15.53125 22.484375 10.953125 
Q 26.375 6.390625 33.015625 6.390625 
Q 39.65625 6.390625 43.53125 10.953125 
Q 47.40625 15.53125 47.40625 23.390625 
Q 47.40625 31.296875 43.53125 35.828125 
Q 39.65625 40.375 33.015625 40.375 
z
M 52.59375 71.296875 
L 52.59375 62.3125 
Q 48.875 64.0625 45.09375 64.984375 
Q 41.3125 65.921875 37.59375 65.921875 
Q 27.828125 65.921875 22.671875 59.328125 
Q 17.53125 52.734375 16.796875 39.40625 
Q 19.671875 43.65625 24.015625 45.921875 
Q 28.375 48.1875 33.59375 48.1875 
Q 44.578125 48.1875 50.953125 41.515625 
Q 57.328125 34.859375 57.328125 23.390625 
Q 57.328125 12.15625 50.6875 5.359375 
Q 44.046875 -1.421875 33.015625 -1.421875 
Q 20.359375 -1.421875 13.671875 8.265625 
Q 6.984375 17.96875 6.984375 36.375 
Q 6.984375 53.65625 15.1875 63.9375 
Q 23.390625 74.21875 37.203125 74.21875 
Q 40.921875 74.21875 44.703125 73.484375 
Q 48.484375 72.75 52.59375 71.296875 
z
" id="DejaVuSans-54"/>
      </defs>
      <g style="fill:#4d4d4d;" transform="translate(23.61375 50.331215)scale(0.1 -0.1)">
       <use xlink:href="#DejaVuSans-54"/>
      </g>
     </g>
    </g>
    <g id="ytick_5">
     <g id="line2d_9">
      <path d="M 35.37625 101.903316 
" style="fill:none;stroke:#000000;stroke-width:1.5;"/>
      <defs>
       <path d="M 0 0 
L -1.5 0 
" id="m9c93c578e3" style="stroke:#000000;"/>
      </defs>
      <g>
       <use style="stroke:#000000;" x="35.37625" xlink:href="#m9c93c578e3" y="101.903316"/>
      </g>
     </g>
    </g>
    <g id="ytick_6">
     <g id="line2d_10">
      <path d="M 35.37625 80.170726 
" style="fill:none;stroke:#000000;stroke-width:1.5;"/>
      <g>
       <use style="stroke:#000000;" x="35.37625" xlink:href="#m9c93c578e3" y="80.170726"/>
      </g>
     </g>
    </g>
    <g id="ytick_7">
     <g id="line2d_11">
      <path d="M 35.37625 58.438135 
" style="fill:none;stroke:#000000;stroke-width:1.5;"/>
      <g>
       <use style="stroke:#000000;" x="35.37625" xlink:href="#m9c93c578e3" y="58.438135"/>
      </g>
     </g>
    </g>
    <g id="ytick_8">
     <g id="line2d_12">
      <path d="M 35.37625 36.705545 
" style="fill:none;stroke:#000000;stroke-width:1.5;"/>
      <g>
       <use style="stroke:#000000;" x="35.37625" xlink:href="#m9c93c578e3" y="36.705545"/>
      </g>
     </g>
    </g>
    <g id="text_5">
     <!-- Shannon diversity -->
     <defs>
      <path d="M 53.515625 70.515625 
L 53.515625 60.890625 
Q 47.90625 63.578125 42.921875 64.890625 
Q 37.9375 66.21875 33.296875 66.21875 
Q 25.25 66.21875 20.875 63.09375 
Q 16.5 59.96875 16.5 54.203125 
Q 16.5 49.359375 19.40625 46.890625 
Q 22.3125 44.4375 30.421875 42.921875 
L 36.375 41.703125 
Q 47.40625 39.59375 52.65625 34.296875 
Q 57.90625 29 57.90625 20.125 
Q 57.90625 9.515625 50.796875 4.046875 
Q 43.703125 -1.421875 29.984375 -1.421875 
Q 24.8125 -1.421875 18.96875 -0.25 
Q 13.140625 0.921875 6.890625 3.21875 
L 6.890625 13.375 
Q 12.890625 10.015625 18.65625 8.296875 
Q 24.421875 6.59375 29.984375 6.59375 
Q 38.421875 6.59375 43.015625 9.90625 
Q 47.609375 13.234375 47.609375 19.390625 
Q 47.609375 24.75 44.3125 27.78125 
Q 41.015625 30.8125 33.5 32.328125 
L 27.484375 33.5 
Q 16.453125 35.6875 11.515625 40.375 
Q 6.59375 45.0625 6.59375 53.421875 
Q 6.59375 63.09375 13.40625 68.65625 
Q 20.21875 74.21875 32.171875 74.21875 
Q 37.3125 74.21875 42.625 73.28125 
Q 47.953125 72.359375 53.515625 70.515625 
z
" id="DejaVuSans-83"/>
      <path d="M 54.890625 33.015625 
L 54.890625 0 
L 45.90625 0 
L 45.90625 32.71875 
Q 45.90625 40.484375 42.875 44.328125 
Q 39.84375 48.1875 33.796875 48.1875 
Q 26.515625 48.1875 22.3125 43.546875 
Q 18.109375 38.921875 18.109375 30.90625 
L 18.109375 0 
L 9.078125 0 
L 9.078125 75.984375 
L 18.109375 75.984375 
L 18.109375 46.1875 
Q 21.34375 51.125 25.703125 53.5625 
Q 30.078125 56 35.796875 56 
Q 45.21875 56 50.046875 50.171875 
Q 54.890625 44.34375 54.890625 33.015625 
z
" id="DejaVuSans-104"/>
      <path d="M 34.28125 27.484375 
Q 23.390625 27.484375 19.1875 25 
Q 14.984375 22.515625 14.984375 16.5 
Q 14.984375 11.71875 18.140625 8.90625 
Q 21.296875 6.109375 26.703125 6.109375 
Q 34.1875 6.109375 38.703125 11.40625 
Q 43.21875 16.703125 43.21875 25.484375 
L 43.21875 27.484375 
z
M 52.203125 31.203125 
L 52.203125 0 
L 43.21875 0 
L 43.21875 8.296875 
Q 40.140625 3.328125 35.546875 0.953125 
Q 30.953125 -1.421875 24.3125 -1.421875 
Q 15.921875 -1.421875 10.953125 3.296875 
Q 6 8.015625 6 15.921875 
Q 6 25.140625 12.171875 29.828125 
Q 18.359375 34.515625 30.609375 34.515625 
L 43.21875 34.515625 
L 43.21875 35.40625 
Q 43.21875 41.609375 39.140625 45 
Q 35.0625 48.390625 27.6875 48.390625 
Q 23 48.390625 18.546875 47.265625 
Q 14.109375 46.140625 10.015625 43.890625 
L 10.015625 52.203125 
Q 14.9375 54.109375 19.578125 55.046875 
Q 24.21875 56 28.609375 56 
Q 40.484375 56 46.34375 49.84375 
Q 52.203125 43.703125 52.203125 31.203125 
z
" id="DejaVuSans-97"/>
      <path d="M 54.890625 33.015625 
L 54.890625 0 
L 45.90625 0 
L 45.90625 32.71875 
Q 45.90625 40.484375 42.875 44.328125 
Q 39.84375 48.1875 33.796875 48.1875 
Q 26.515625 48.1875 22.3125 43.546875 
Q 18.109375 38.921875 18.109375 30.90625 
L 18.109375 0 
L 9.078125 0 
L 9.078125 54.6875 
L 18.109375 54.6875 
L 18.109375 46.1875 
Q 21.34375 51.125 25.703125 53.5625 
Q 30.078125 56 35.796875 56 
Q 45.21875 56 50.046875 50.171875 
Q 54.890625 44.34375 54.890625 33.015625 
z
" id="DejaVuSans-110"/>
      <path d="M 30.609375 48.390625 
Q 23.390625 48.390625 19.1875 42.75 
Q 14.984375 37.109375 14.984375 27.296875 
Q 14.984375 17.484375 19.15625 11.84375 
Q 23.34375 6.203125 30.609375 6.203125 
Q 37.796875 6.203125 41.984375 11.859375 
Q 46.1875 17.53125 46.1875 27.296875 
Q 46.1875 37.015625 41.984375 42.703125 
Q 37.796875 48.390625 30.609375 48.390625 
z
M 30.609375 56 
Q 42.328125 56 49.015625 48.375 
Q 55.71875 40.765625 55.71875 27.296875 
Q 55.71875 13.875 49.015625 6.21875 
Q 42.328125 -1.421875 30.609375 -1.421875 
Q 18.84375 -1.421875 12.171875 6.21875 
Q 5.515625 13.875 5.515625 27.296875 
Q 5.515625 40.765625 12.171875 48.375 
Q 18.84375 56 30.609375 56 
z
" id="DejaVuSans-111"/>
      <path id="DejaVuSans-32"/>
      <path d="M 45.40625 46.390625 
L 45.40625 75.984375 
L 54.390625 75.984375 
L 54.390625 0 
L 45.40625 0 
L 45.40625 8.203125 
Q 42.578125 3.328125 38.25 0.953125 
Q 33.9375 -1.421875 27.875 -1.421875 
Q 17.96875 -1.421875 11.734375 6.484375 
Q 5.515625 14.40625 5.515625 27.296875 
Q 5.515625 40.1875 11.734375 48.09375 
Q 17.96875 56 27.875 56 
Q 33.9375 56 38.25 53.625 
Q 42.578125 51.265625 45.40625 46.390625 
z
M 14.796875 27.296875 
Q 14.796875 17.390625 18.875 11.75 
Q 22.953125 6.109375 30.078125 6.109375 
Q 37.203125 6.109375 41.296875 11.75 
Q 45.40625 17.390625 45.40625 27.296875 
Q 45.40625 37.203125 41.296875 42.84375 
Q 37.203125 48.484375 30.078125 48.484375 
Q 22.953125 48.484375 18.875 42.84375 
Q 14.796875 37.203125 14.796875 27.296875 
z
" id="DejaVuSans-100"/>
      <path d="M 9.421875 54.6875 
L 18.40625 54.6875 
L 18.40625 0 
L 9.421875 0 
z
M 9.421875 75.984375 
L 18.40625 75.984375 
L 18.40625 64.59375 
L 9.421875 64.59375 
z
" id="DejaVuSans-105"/>
      <path d="M 2.984375 54.6875 
L 12.5 54.6875 
L 29.59375 8.796875 
L 46.6875 54.6875 
L 56.203125 54.6875 
L 35.6875 0 
L 23.484375 0 
z
" id="DejaVuSans-118"/>
      <path d="M 56.203125 29.59375 
L 56.203125 25.203125 
L 14.890625 25.203125 
Q 15.484375 15.921875 20.484375 11.0625 
Q 25.484375 6.203125 34.421875 6.203125 
Q 39.59375 6.203125 44.453125 7.46875 
Q 49.3125 8.734375 54.109375 11.28125 
L 54.109375 2.78125 
Q 49.265625 0.734375 44.1875 -0.34375 
Q 39.109375 -1.421875 33.890625 -1.421875 
Q 20.796875 -1.421875 13.15625 6.1875 
Q 5.515625 13.8125 5.515625 26.8125 
Q 5.515625 40.234375 12.765625 48.109375 
Q 20.015625 56 32.328125 56 
Q 43.359375 56 49.78125 48.890625 
Q 56.203125 41.796875 56.203125 29.59375 
z
M 47.21875 32.234375 
Q 47.125 39.59375 43.09375 43.984375 
Q 39.0625 48.390625 32.421875 48.390625 
Q 24.90625 48.390625 20.390625 44.140625 
Q 15.875 39.890625 15.1875 32.171875 
z
" id="DejaVuSans-101"/>
      <path d="M 41.109375 46.296875 
Q 39.59375 47.171875 37.8125 47.578125 
Q 36.03125 48 33.890625 48 
Q 26.265625 48 22.1875 43.046875 
Q 18.109375 38.09375 18.109375 28.8125 
L 18.109375 0 
L 9.078125 0 
L 9.078125 54.6875 
L 18.109375 54.6875 
L 18.109375 46.1875 
Q 20.953125 51.171875 25.484375 53.578125 
Q 30.03125 56 36.53125 56 
Q 37.453125 56 38.578125 55.875 
Q 39.703125 55.765625 41.0625 55.515625 
z
" id="DejaVuSans-114"/>
      <path d="M 44.28125 53.078125 
L 44.28125 44.578125 
Q 40.484375 46.53125 36.375 47.5 
Q 32.28125 48.484375 27.875 48.484375 
Q 21.1875 48.484375 17.84375 46.4375 
Q 14.5 44.390625 14.5 40.28125 
Q 14.5 37.15625 16.890625 35.375 
Q 19.28125 33.59375 26.515625 31.984375 
L 29.59375 31.296875 
Q 39.15625 29.25 43.1875 25.515625 
Q 47.21875 21.78125 47.21875 15.09375 
Q 47.21875 7.46875 41.1875 3.015625 
Q 35.15625 -1.421875 24.609375 -1.421875 
Q 20.21875 -1.421875 15.453125 -0.5625 
Q 10.6875 0.296875 5.421875 2 
L 5.421875 11.28125 
Q 10.40625 8.6875 15.234375 7.390625 
Q 20.0625 6.109375 24.8125 6.109375 
Q 31.15625 6.109375 34.5625 8.28125 
Q 37.984375 10.453125 37.984375 14.40625 
Q 37.984375 18.0625 35.515625 20.015625 
Q 33.0625 21.96875 24.703125 23.78125 
L 21.578125 24.515625 
Q 13.234375 26.265625 9.515625 29.90625 
Q 5.8125 33.546875 5.8125 39.890625 
Q 5.8125 47.609375 11.28125 51.796875 
Q 16.75 56 26.8125 56 
Q 31.78125 56 36.171875 55.265625 
Q 40.578125 54.546875 44.28125 53.078125 
z
" id="DejaVuSans-115"/>
      <path d="M 18.3125 70.21875 
L 18.3125 54.6875 
L 36.8125 54.6875 
L 36.8125 47.703125 
L 18.3125 47.703125 
L 18.3125 18.015625 
Q 18.3125 11.328125 20.140625 9.421875 
Q 21.96875 7.515625 27.59375 7.515625 
L 36.8125 7.515625 
L 36.8125 0 
L 27.59375 0 
Q 17.1875 0 13.234375 3.875 
Q 9.28125 7.765625 9.28125 18.015625 
L 9.28125 47.703125 
L 2.6875 47.703125 
L 2.6875 54.6875 
L 9.28125 54.6875 
L 9.28125 70.21875 
z
" id="DejaVuSans-116"/>
      <path d="M 32.171875 -5.078125 
Q 28.375 -14.84375 24.75 -17.8125 
Q 21.140625 -20.796875 15.09375 -20.796875 
L 7.90625 -20.796875 
L 7.90625 -13.28125 
L 13.1875 -13.28125 
Q 16.890625 -13.28125 18.9375 -11.515625 
Q 21 -9.765625 23.484375 -3.21875 
L 25.09375 0.875 
L 2.984375 54.6875 
L 12.5 54.6875 
L 29.59375 11.921875 
L 46.6875 54.6875 
L 56.203125 54.6875 
z
" id="DejaVuSans-121"/>
     </defs>
     <g transform="translate(16.318125 218.155625)rotate(-90)scale(0.12 -0.12)">
      <use xlink:href="#DejaVuSans-83"/>
      <use x="63.476562" xlink:href="#DejaVuSans-104"/>
      <use x="126.855469" xlink:href="#DejaVuSans-97"/>
      <use x="188.134766" xlink:href="#DejaVuSans-110"/>
      <use x="251.513672" xlink:href="#DejaVuSans-110"/>
      <use x="314.892578" xlink:href="#DejaVuSans-111"/>
      <use x="376.074219" xlink:href="#DejaVuSans-110"/>
      <use x="439.453125" xlink:href="#DejaVuSans-32"/>
      <use x="471.240234" xlink:href="#DejaVuSans-100"/>
      <use x="534.716797" xlink:href="#DejaVuSans-105"/>
      <use x="562.5" xlink:href="#DejaVuSans-118"/>
      <use x="621.679688" xlink:href="#DejaVuSans-101"/>
      <use x="683.203125" xlink:href="#DejaVuSans-114"/>
      <use x="724.316406" xlink:href="#DejaVuSans-115"/>
      <use x="776.416016" xlink:href="#DejaVuSans-105"/>
      <use x="804.199219" xlink:href="#DejaVuSans-116"/>
      <use x="843.408203" xlink:href="#DejaVuSans-121"/>
     </g>
    </g>
   </g>
   <g id="line2d_13">
    <path clip-path="url(#p2cd8f2bb53)" d="M 41.141705 65.65761 
L 57.614432 85.808613 
L 74.087159 102.044246 
L 90.559886 99.925084 
L 107.032614 100.055926 
L 123.505341 98.927262 
L 139.978068 98.284017 
L 156.450795 97.787657 
" style="fill:none;stroke:#b2df8a;stroke-width:2.658681;"/>
   </g>
   <g id="line2d_14">
    <path clip-path="url(#p2cd8f2bb53)" d="M 74.087159 87.195219 
L 90.559886 89.84303 
L 107.032614 96.610678 
L 123.505341 104.344039 
L 139.978068 104.886957 
L 156.450795 103.588501 
" style="fill:none;stroke:#67a9cf;stroke-width:2.658681;"/>
   </g>
   <g id="line2d_15">
    <path clip-path="url(#p2cd8f2bb53)" d="M 41.141705 79.66586 
L 57.614432 77.348978 
L 74.087159 107.257073 
L 90.559886 98.34613 
L 107.032614 106.506623 
L 123.505341 82.345255 
L 139.978068 103.362256 
L 156.450795 101.711565 
" style="fill:none;stroke:#ef8a62;stroke-width:2.658681;"/>
   </g>
   <g id="PolyCollection_1">
    <path clip-path="url(#p2cd8f2bb53)" d="M 41.141705 52.50469 
L 41.141705 78.810531 
L 57.614432 99.369752 
L 74.087159 105.049441 
L 90.559886 100.763057 
L 107.032614 102.502861 
L 123.505341 101.848656 
L 139.978068 102.349145 
L 156.450795 100.647754 
L 156.450795 94.92756 
L 156.450795 94.92756 
L 139.978068 94.218889 
L 123.505341 96.005868 
L 107.032614 97.608991 
L 90.559886 99.087111 
L 74.087159 99.039052 
L 57.614432 72.247474 
L 41.141705 52.50469 
z
" style="fill:#b2df8a;fill-opacity:0.298039;"/>
   </g>
   <g id="PolyCollection_2">
    <path clip-path="url(#p2cd8f2bb53)" d="M 74.087159 73.434447 
L 74.087159 100.95599 
L 90.559886 105.194769 
L 107.032614 103.054255 
L 123.505341 108.002367 
L 139.978068 108.341219 
L 156.450795 107.191292 
L 156.450795 99.98571 
L 156.450795 99.98571 
L 139.978068 101.432695 
L 123.505341 100.685712 
L 107.032614 90.167101 
L 90.559886 74.491291 
L 74.087159 73.434447 
z
" style="fill:#67a9cf;fill-opacity:0.298039;"/>
   </g>
   <g id="PolyCollection_3">
    <path clip-path="url(#p2cd8f2bb53)" d="M 41.141705 68.654141 
L 41.141705 90.677579 
L 57.614432 92.871082 
L 74.087159 110.07609 
L 90.559886 101.992415 
L 107.032614 110.22978 
L 123.505341 99.920837 
L 139.978068 108.680511 
L 156.450795 102.6029 
L 156.450795 100.820231 
L 156.450795 100.820231 
L 139.978068 98.044 
L 123.505341 64.769674 
L 107.032614 102.783466 
L 90.559886 94.699845 
L 74.087159 104.438055 
L 57.614432 61.826874 
L 41.141705 68.654141 
z
" style="fill:#ef8a62;fill-opacity:0.298039;"/>
   </g>
   <g id="patch_3">
    <path d="M 35.37625 27.2 
L 162.21625 27.2 
L 162.21625 7.2 
L 35.37625 7.2 
z
" style="fill:none;stroke:#000000;stroke-linejoin:miter;"/>
   </g>
   <g id="patch_4">
    <path d="M 35.37625 116.24 
L 35.37625 27.2 
" style="fill:none;stroke:#000000;stroke-linecap:square;stroke-linejoin:miter;"/>
   </g>
   <g id="patch_5">
    <path d="M 35.37625 116.24 
L 162.21625 116.24 
" style="fill:none;stroke:#000000;stroke-linecap:square;stroke-linejoin:miter;"/>
   </g>
   <g id="text_6">
    <!-- Stool -->
    <defs>
     <path d="M 9.421875 75.984375 
L 18.40625 75.984375 
L 18.40625 0 
L 9.421875 0 
z
" id="DejaVuSans-108"/>
    </defs>
    <g style="fill:#1a1a1a;" transform="translate(81.097188 21.063125)scale(0.14 -0.14)">
     <use xlink:href="#DejaVuSans-83"/>
     <use x="63.476562" xlink:href="#DejaVuSans-116"/>
     <use x="102.685547" xlink:href="#DejaVuSans-111"/>
     <use x="163.867188" xlink:href="#DejaVuSans-111"/>
     <use x="225.048828" xlink:href="#DejaVuSans-108"/>
    </g>
   </g>
   <g id="patch_6">
    <path d="M 449.17625 217.877844 
L 590.3875 217.877844 
L 590.3875 110.122156 
L 449.17625 110.122156 
z
" style="fill:#ffffff;"/>
   </g>
   <g id="text_7">
    <!-- Antibiotic Exposure -->
    <defs>
     <path d="M 34.1875 63.1875 
L 20.796875 26.90625 
L 47.609375 26.90625 
z
M 28.609375 72.90625 
L 39.796875 72.90625 
L 67.578125 0 
L 57.328125 0 
L 50.6875 18.703125 
L 17.828125 18.703125 
L 11.1875 0 
L 0.78125 0 
z
" id="DejaVuSans-65"/>
     <path d="M 48.6875 27.296875 
Q 48.6875 37.203125 44.609375 42.84375 
Q 40.53125 48.484375 33.40625 48.484375 
Q 26.265625 48.484375 22.1875 42.84375 
Q 18.109375 37.203125 18.109375 27.296875 
Q 18.109375 17.390625 22.1875 11.75 
Q 26.265625 6.109375 33.40625 6.109375 
Q 40.53125 6.109375 44.609375 11.75 
Q 48.6875 17.390625 48.6875 27.296875 
z
M 18.109375 46.390625 
Q 20.953125 51.265625 25.265625 53.625 
Q 29.59375 56 35.59375 56 
Q 45.5625 56 51.78125 48.09375 
Q 58.015625 40.1875 58.015625 27.296875 
Q 58.015625 14.40625 51.78125 6.484375 
Q 45.5625 -1.421875 35.59375 -1.421875 
Q 29.59375 -1.421875 25.265625 0.953125 
Q 20.953125 3.328125 18.109375 8.203125 
L 18.109375 0 
L 9.078125 0 
L 9.078125 75.984375 
L 18.109375 75.984375 
z
" id="DejaVuSans-98"/>
     <path d="M 48.78125 52.59375 
L 48.78125 44.1875 
Q 44.96875 46.296875 41.140625 47.34375 
Q 37.3125 48.390625 33.40625 48.390625 
Q 24.65625 48.390625 19.8125 42.84375 
Q 14.984375 37.3125 14.984375 27.296875 
Q 14.984375 17.28125 19.8125 11.734375 
Q 24.65625 6.203125 33.40625 6.203125 
Q 37.3125 6.203125 41.140625 7.25 
Q 44.96875 8.296875 48.78125 10.40625 
L 48.78125 2.09375 
Q 45.015625 0.34375 40.984375 -0.53125 
Q 36.96875 -1.421875 32.421875 -1.421875 
Q 20.0625 -1.421875 12.78125 6.34375 
Q 5.515625 14.109375 5.515625 27.296875 
Q 5.515625 40.671875 12.859375 48.328125 
Q 20.21875 56 33.015625 56 
Q 37.15625 56 41.109375 55.140625 
Q 45.0625 54.296875 48.78125 52.59375 
z
" id="DejaVuSans-99"/>
     <path d="M 9.8125 72.90625 
L 55.90625 72.90625 
L 55.90625 64.59375 
L 19.671875 64.59375 
L 19.671875 43.015625 
L 54.390625 43.015625 
L 54.390625 34.71875 
L 19.671875 34.71875 
L 19.671875 8.296875 
L 56.78125 8.296875 
L 56.78125 0 
L 9.8125 0 
z
" id="DejaVuSans-69"/>
     <path d="M 54.890625 54.6875 
L 35.109375 28.078125 
L 55.90625 0 
L 45.3125 0 
L 29.390625 21.484375 
L 13.484375 0 
L 2.875 0 
L 24.125 28.609375 
L 4.6875 54.6875 
L 15.28125 54.6875 
L 29.78125 35.203125 
L 44.28125 54.6875 
z
" id="DejaVuSans-120"/>
     <path d="M 18.109375 8.203125 
L 18.109375 -20.796875 
L 9.078125 -20.796875 
L 9.078125 54.6875 
L 18.109375 54.6875 
L 18.109375 46.390625 
Q 20.953125 51.265625 25.265625 53.625 
Q 29.59375 56 35.59375 56 
Q 45.5625 56 51.78125 48.09375 
Q 58.015625 40.1875 58.015625 27.296875 
Q 58.015625 14.40625 51.78125 6.484375 
Q 45.5625 -1.421875 35.59375 -1.421875 
Q 29.59375 -1.421875 25.265625 0.953125 
Q 20.953125 3.328125 18.109375 8.203125 
z
M 48.6875 27.296875 
Q 48.6875 37.203125 44.609375 42.84375 
Q 40.53125 48.484375 33.40625 48.484375 
Q 26.265625 48.484375 22.1875 42.84375 
Q 18.109375 37.203125 18.109375 27.296875 
Q 18.109375 17.390625 22.1875 11.75 
Q 26.265625 6.109375 33.40625 6.109375 
Q 40.53125 6.109375 44.609375 11.75 
Q 48.6875 17.390625 48.6875 27.296875 
z
" id="DejaVuSans-112"/>
     <path d="M 8.5 21.578125 
L 8.5 54.6875 
L 17.484375 54.6875 
L 17.484375 21.921875 
Q 17.484375 14.15625 20.5 10.265625 
Q 23.53125 6.390625 29.59375 6.390625 
Q 36.859375 6.390625 41.078125 11.03125 
Q 45.3125 15.671875 45.3125 23.6875 
L 45.3125 54.6875 
L 54.296875 54.6875 
L 54.296875 0 
L 45.3125 0 
L 45.3125 8.40625 
Q 42.046875 3.421875 37.71875 1 
Q 33.40625 -1.421875 27.6875 -1.421875 
Q 18.265625 -1.421875 13.375 4.4375 
Q 8.5 10.296875 8.5 21.578125 
z
M 31.109375 56 
z
" id="DejaVuSans-117"/>
    </defs>
    <g transform="translate(461.57625 140.3025)scale(0.12 -0.12)">
     <use xlink:href="#DejaVuSans-65"/>
     <use x="68.408203" xlink:href="#DejaVuSans-110"/>
     <use x="131.787109" xlink:href="#DejaVuSans-116"/>
     <use x="170.996094" xlink:href="#DejaVuSans-105"/>
     <use x="198.779297" xlink:href="#DejaVuSans-98"/>
     <use x="262.255859" xlink:href="#DejaVuSans-105"/>
     <use x="290.039062" xlink:href="#DejaVuSans-111"/>
     <use x="351.220703" xlink:href="#DejaVuSans-116"/>
     <use x="390.429688" xlink:href="#DejaVuSans-105"/>
     <use x="418.212891" xlink:href="#DejaVuSans-99"/>
     <use x="473.193359" xlink:href="#DejaVuSans-32"/>
     <use x="504.980469" xlink:href="#DejaVuSans-69"/>
     <use x="568.164062" xlink:href="#DejaVuSans-120"/>
     <use x="627.34375" xlink:href="#DejaVuSans-112"/>
     <use x="690.820312" xlink:href="#DejaVuSans-111"/>
     <use x="752.001953" xlink:href="#DejaVuSans-115"/>
     <use x="804.101562" xlink:href="#DejaVuSans-117"/>
     <use x="867.480469" xlink:href="#DejaVuSans-114"/>
     <use x="908.5625" xlink:href="#DejaVuSans-101"/>
    </g>
    <!--  -->
    <g transform="translate(461.57625 151.004437)scale(0.12 -0.12)"/>
   </g>
   <g id="patch_7">
    <path clip-path="url(#pad32a78ba6)" d="M 461.57625 166.917844 
L 478.85625 166.917844 
L 478.85625 149.637844 
L 461.57625 149.637844 
z
" style="fill:none;"/>
   </g>
   <g id="line2d_16">
    <path clip-path="url(#pad32a78ba6)" d="M 461.57625 158.277844 
L 478.85625 158.277844 
" style="fill:none;stroke:#b2df8a;stroke-width:2.658681;"/>
   </g>
   <g id="text_8">
    <!-- No Abx -->
    <defs>
     <path d="M 9.8125 72.90625 
L 23.09375 72.90625 
L 55.421875 11.921875 
L 55.421875 72.90625 
L 64.984375 72.90625 
L 64.984375 0 
L 51.703125 0 
L 19.390625 60.984375 
L 19.390625 0 
L 9.8125 0 
z
" id="DejaVuSans-78"/>
    </defs>
    <g transform="translate(481.85625 160.926844)scale(0.096 -0.096)">
     <use xlink:href="#DejaVuSans-78"/>
     <use x="74.804688" xlink:href="#DejaVuSans-111"/>
     <use x="135.986328" xlink:href="#DejaVuSans-32"/>
     <use x="167.773438" xlink:href="#DejaVuSans-65"/>
     <use x="236.181641" xlink:href="#DejaVuSans-98"/>
     <use x="299.658203" xlink:href="#DejaVuSans-120"/>
    </g>
   </g>
   <g id="patch_8">
    <path clip-path="url(#p9f05fa4c8a)" d="M 461.57625 186.197844 
L 478.85625 186.197844 
L 478.85625 168.917844 
L 461.57625 168.917844 
z
" style="fill:none;"/>
   </g>
   <g id="line2d_17">
    <path clip-path="url(#p9f05fa4c8a)" d="M 461.57625 177.557844 
L 478.85625 177.557844 
" style="fill:none;stroke:#67a9cf;stroke-width:2.658681;"/>
   </g>
   <g id="text_9">
    <!-- Infant Abx+ -->
    <defs>
     <path d="M 9.8125 72.90625 
L 19.671875 72.90625 
L 19.671875 0 
L 9.8125 0 
z
" id="DejaVuSans-73"/>
     <path d="M 37.109375 75.984375 
L 37.109375 68.5 
L 28.515625 68.5 
Q 23.6875 68.5 21.796875 66.546875 
Q 19.921875 64.59375 19.921875 59.515625 
L 19.921875 54.6875 
L 34.71875 54.6875 
L 34.71875 47.703125 
L 19.921875 47.703125 
L 19.921875 0 
L 10.890625 0 
L 10.890625 47.703125 
L 2.296875 47.703125 
L 2.296875 54.6875 
L 10.890625 54.6875 
L 10.890625 58.5 
Q 10.890625 67.625 15.140625 71.796875 
Q 19.390625 75.984375 28.609375 75.984375 
z
" id="DejaVuSans-102"/>
     <path d="M 46 62.703125 
L 46 35.5 
L 73.1875 35.5 
L 73.1875 27.203125 
L 46 27.203125 
L 46 0 
L 37.796875 0 
L 37.796875 27.203125 
L 10.59375 27.203125 
L 10.59375 35.5 
L 37.796875 35.5 
L 37.796875 62.703125 
z
" id="DejaVuSans-43"/>
    </defs>
    <g transform="translate(481.85625 180.206844)scale(0.096 -0.096)">
     <use xlink:href="#DejaVuSans-73"/>
     <use x="29.492188" xlink:href="#DejaVuSans-110"/>
     <use x="92.871094" xlink:href="#DejaVuSans-102"/>
     <use x="128.076172" xlink:href="#DejaVuSans-97"/>
     <use x="189.355469" xlink:href="#DejaVuSans-110"/>
     <use x="252.734375" xlink:href="#DejaVuSans-116"/>
     <use x="291.943359" xlink:href="#DejaVuSans-32"/>
     <use x="323.730469" xlink:href="#DejaVuSans-65"/>
     <use x="392.138672" xlink:href="#DejaVuSans-98"/>
     <use x="455.615234" xlink:href="#DejaVuSans-120"/>
     <use x="514.794922" xlink:href="#DejaVuSans-43"/>
    </g>
   </g>
   <g id="patch_9">
    <path clip-path="url(#p52b6083cf7)" d="M 461.57625 205.477844 
L 478.85625 205.477844 
L 478.85625 188.197844 
L 461.57625 188.197844 
z
" style="fill:none;"/>
   </g>
   <g id="line2d_18">
    <path clip-path="url(#p52b6083cf7)" d="M 461.57625 196.837844 
L 478.85625 196.837844 
" style="fill:none;stroke:#ef8a62;stroke-width:2.658681;"/>
   </g>
   <g id="text_10">
    <!-- Maternal Abx+ -->
    <defs>
     <path d="M 9.8125 72.90625 
L 24.515625 72.90625 
L 43.109375 23.296875 
L 61.8125 72.90625 
L 76.515625 72.90625 
L 76.515625 0 
L 66.890625 0 
L 66.890625 64.015625 
L 48.09375 14.015625 
L 38.1875 14.015625 
L 19.390625 64.015625 
L 19.390625 0 
L 9.8125 0 
z
" id="DejaVuSans-77"/>
    </defs>
    <g transform="translate(481.85625 199.486844)scale(0.096 -0.096)">
     <use xlink:href="#DejaVuSans-77"/>
     <use x="86.279297" xlink:href="#DejaVuSans-97"/>
     <use x="147.558594" xlink:href="#DejaVuSans-116"/>
     <use x="186.767578" xlink:href="#DejaVuSans-101"/>
     <use x="248.291016" xlink:href="#DejaVuSans-114"/>
     <use x="289.388672" xlink:href="#DejaVuSans-110"/>
     <use x="352.767578" xlink:href="#DejaVuSans-97"/>
     <use x="414.046875" xlink:href="#DejaVuSans-108"/>
     <use x="441.830078" xlink:href="#DejaVuSans-32"/>
     <use x="473.617188" xlink:href="#DejaVuSans-65"/>
     <use x="542.025391" xlink:href="#DejaVuSans-98"/>
     <use x="605.501953" xlink:href="#DejaVuSans-120"/>
     <use x="664.681641" xlink:href="#DejaVuSans-43"/>
    </g>
   </g>
  </g>
  <g id="axes_2">
   <g id="patch_10">
    <path d="M 167.25625 116.24 
L 294.09625 116.24 
L 294.09625 27.2 
L 167.25625 27.2 
z
" style="fill:#ffffff;"/>
   </g>
   <g id="matplotlib.axis_3">
    <g id="xtick_16"/>
    <g id="xtick_17"/>
    <g id="xtick_18"/>
    <g id="xtick_19"/>
    <g id="xtick_20"/>
    <g id="xtick_21"/>
    <g id="xtick_22"/>
    <g id="xtick_23"/>
    <g id="xtick_24"/>
    <g id="xtick_25"/>
    <g id="xtick_26"/>
    <g id="xtick_27"/>
    <g id="xtick_28"/>
    <g id="xtick_29"/>
    <g id="xtick_30"/>
   </g>
   <g id="matplotlib.axis_4">
    <g id="ytick_9">
     <g id="line2d_19">
      <path clip-path="url(#p845ded2f33)" d="M 167.25625 112.769611 
L 294.09625 112.769611 
" style="fill:none;stroke:#d3d3d3;stroke-linecap:square;stroke-opacity:0.5;stroke-width:0.8;"/>
     </g>
    </g>
    <g id="ytick_10">
     <g id="line2d_20">
      <path clip-path="url(#p845ded2f33)" d="M 167.25625 91.037021 
L 294.09625 91.037021 
" style="fill:none;stroke:#d3d3d3;stroke-linecap:square;stroke-opacity:0.5;stroke-width:0.8;"/>
     </g>
    </g>
    <g id="ytick_11">
     <g id="line2d_21">
      <path clip-path="url(#p845ded2f33)" d="M 167.25625 69.30443 
L 294.09625 69.30443 
" style="fill:none;stroke:#d3d3d3;stroke-linecap:square;stroke-opacity:0.5;stroke-width:0.8;"/>
     </g>
    </g>
    <g id="ytick_12">
     <g id="line2d_22">
      <path clip-path="url(#p845ded2f33)" d="M 167.25625 47.57184 
L 294.09625 47.57184 
" style="fill:none;stroke:#d3d3d3;stroke-linecap:square;stroke-opacity:0.5;stroke-width:0.8;"/>
     </g>
    </g>
    <g id="ytick_13">
     <g id="line2d_23">
      <path d="M 167.25625 101.903316 
" style="fill:none;stroke:#000000;stroke-linecap:square;stroke-width:1.5;"/>
      <g>
       <use style="stroke:#000000;" x="167.25625" xlink:href="#m9c93c578e3" y="101.903316"/>
      </g>
     </g>
    </g>
    <g id="ytick_14">
     <g id="line2d_24">
      <path d="M 167.25625 80.170726 
" style="fill:none;stroke:#000000;stroke-linecap:square;stroke-width:1.5;"/>
      <g>
       <use style="stroke:#000000;" x="167.25625" xlink:href="#m9c93c578e3" y="80.170726"/>
      </g>
     </g>
    </g>
    <g id="ytick_15">
     <g id="line2d_25">
      <path d="M 167.25625 58.438135 
" style="fill:none;stroke:#000000;stroke-linecap:square;stroke-width:1.5;"/>
      <g>
       <use style="stroke:#000000;" x="167.25625" xlink:href="#m9c93c578e3" y="58.438135"/>
      </g>
     </g>
    </g>
    <g id="ytick_16">
     <g id="line2d_26">
      <path d="M 167.25625 36.705545 
" style="fill:none;stroke:#000000;stroke-linecap:square;stroke-width:1.5;"/>
      <g>
       <use style="stroke:#000000;" x="167.25625" xlink:href="#m9c93c578e3" y="36.705545"/>
      </g>
     </g>
    </g>
   </g>
   <g id="line2d_27">
    <path clip-path="url(#p845ded2f33)" d="M 173.021705 64.272635 
L 189.494432 73.263206 
L 205.967159 104.500101 
L 222.439886 104.596488 
L 238.912614 103.652434 
L 255.385341 103.981112 
L 271.858068 103.56281 
L 288.330795 103.196299 
" style="fill:none;stroke:#b2df8a;stroke-width:2.658681;"/>
   </g>
   <g id="line2d_28">
    <path clip-path="url(#p845ded2f33)" d="M 189.494432 66.0526 
L 205.967159 57.97727 
L 222.439886 74.088331 
L 238.912614 103.271755 
L 255.385341 97.710862 
L 271.858068 100.044141 
L 288.330795 96.685192 
" style="fill:none;stroke:#67a9cf;stroke-width:2.658681;"/>
   </g>
   <g id="line2d_29">
    <path clip-path="url(#p845ded2f33)" d="M 173.021705 64.512535 
L 189.494432 83.73661 
L 205.967159 95.508899 
L 222.439886 106.167093 
L 238.912614 88.988502 
L 255.385341 98.192385 
L 271.858068 102.042369 
L 288.330795 97.555925 
" style="fill:none;stroke:#ef8a62;stroke-width:2.658681;"/>
   </g>
   <g id="PolyCollection_4">
    <path clip-path="url(#p845ded2f33)" d="M 173.021705 55.929736 
L 173.021705 72.615534 
L 189.494432 86.61667 
L 205.967159 106.957097 
L 222.439886 107.877251 
L 238.912614 106.787297 
L 255.385341 106.99243 
L 271.858068 106.595757 
L 288.330795 106.472121 
L 288.330795 99.920478 
L 288.330795 99.920478 
L 271.858068 100.529863 
L 255.385341 100.969793 
L 238.912614 100.517572 
L 222.439886 101.315725 
L 205.967159 102.043104 
L 189.494432 59.909741 
L 173.021705 55.929736 
z
" style="fill:#b2df8a;fill-opacity:0.298039;"/>
   </g>
   <g id="PolyCollection_5">
    <path clip-path="url(#p845ded2f33)" d="M 189.494432 53.647213 
L 189.494432 78.457986 
L 205.967159 63.673723 
L 222.439886 89.944301 
L 238.912614 108.680982 
L 255.385341 108.786127 
L 271.858068 103.843112 
L 288.330795 97.872159 
L 288.330795 95.498226 
L 288.330795 95.498226 
L 271.858068 96.245169 
L 255.385341 86.635597 
L 238.912614 97.862528 
L 222.439886 58.232361 
L 205.967159 52.280818 
L 189.494432 53.647213 
z
" style="fill:#67a9cf;fill-opacity:0.298039;"/>
   </g>
   <g id="PolyCollection_6">
    <path clip-path="url(#p845ded2f33)" d="M 173.021705 57.334432 
L 173.021705 71.690637 
L 189.494432 88.516219 
L 205.967159 101.473416 
L 222.439886 109.624455 
L 238.912614 100.972512 
L 255.385341 100.276444 
L 271.858068 107.540457 
L 288.330795 98.869955 
L 288.330795 96.241894 
L 288.330795 96.241894 
L 271.858068 96.544281 
L 255.385341 96.108325 
L 238.912614 77.004492 
L 222.439886 102.709732 
L 205.967159 89.544383 
L 189.494432 78.957001 
L 173.021705 57.334432 
z
" style="fill:#ef8a62;fill-opacity:0.298039;"/>
   </g>
   <g id="patch_11">
    <path d="M 167.25625 27.2 
L 294.09625 27.2 
L 294.09625 7.2 
L 167.25625 7.2 
z
" style="fill:none;stroke:#000000;stroke-linejoin:miter;"/>
   </g>
   <g id="patch_12">
    <path d="M 167.25625 116.24 
L 167.25625 27.2 
" style="fill:none;stroke:#000000;stroke-linecap:square;stroke-linejoin:miter;"/>
   </g>
   <g id="patch_13">
    <path d="M 167.25625 116.24 
L 294.09625 116.24 
" style="fill:none;stroke:#000000;stroke-linecap:square;stroke-linejoin:miter;"/>
   </g>
   <g id="text_11">
    <!-- Oral -->
    <defs>
     <path d="M 39.40625 66.21875 
Q 28.65625 66.21875 22.328125 58.203125 
Q 16.015625 50.203125 16.015625 36.375 
Q 16.015625 22.609375 22.328125 14.59375 
Q 28.65625 6.59375 39.40625 6.59375 
Q 50.140625 6.59375 56.421875 14.59375 
Q 62.703125 22.609375 62.703125 36.375 
Q 62.703125 50.203125 56.421875 58.203125 
Q 50.140625 66.21875 39.40625 66.21875 
z
M 39.40625 74.21875 
Q 54.734375 74.21875 63.90625 63.9375 
Q 73.09375 53.65625 73.09375 36.375 
Q 73.09375 19.140625 63.90625 8.859375 
Q 54.734375 -1.421875 39.40625 -1.421875 
Q 24.03125 -1.421875 14.8125 8.828125 
Q 5.609375 19.09375 5.609375 36.375 
Q 5.609375 53.65625 14.8125 63.9375 
Q 24.03125 74.21875 39.40625 74.21875 
z
" id="DejaVuSans-79"/>
    </defs>
    <g style="fill:#1a1a1a;" transform="translate(216.053906 21.063125)scale(0.14 -0.14)">
     <use xlink:href="#DejaVuSans-79"/>
     <use x="78.710938" xlink:href="#DejaVuSans-114"/>
     <use x="119.824219" xlink:href="#DejaVuSans-97"/>
     <use x="181.103516" xlink:href="#DejaVuSans-108"/>
    </g>
   </g>
  </g>
  <g id="axes_3">
   <g id="patch_14">
    <path d="M 299.13625 116.24 
L 425.97625 116.24 
L 425.97625 27.2 
L 299.13625 27.2 
z
" style="fill:#ffffff;"/>
   </g>
   <g id="matplotlib.axis_5">
    <g id="xtick_31"/>
    <g id="xtick_32"/>
    <g id="xtick_33"/>
    <g id="xtick_34"/>
    <g id="xtick_35"/>
    <g id="xtick_36"/>
    <g id="xtick_37"/>
    <g id="xtick_38"/>
    <g id="xtick_39"/>
    <g id="xtick_40"/>
    <g id="xtick_41"/>
    <g id="xtick_42"/>
    <g id="xtick_43"/>
    <g id="xtick_44"/>
    <g id="xtick_45"/>
   </g>
   <g id="matplotlib.axis_6">
    <g id="ytick_17">
     <g id="line2d_30">
      <path clip-path="url(#p81adad8785)" d="M 299.13625 112.769611 
L 425.97625 112.769611 
" style="fill:none;stroke:#d3d3d3;stroke-linecap:square;stroke-opacity:0.5;stroke-width:0.8;"/>
     </g>
    </g>
    <g id="ytick_18">
     <g id="line2d_31">
      <path clip-path="url(#p81adad8785)" d="M 299.13625 91.037021 
L 425.97625 91.037021 
" style="fill:none;stroke:#d3d3d3;stroke-linecap:square;stroke-opacity:0.5;stroke-width:0.8;"/>
     </g>
    </g>
    <g id="ytick_19">
     <g id="line2d_32">
      <path clip-path="url(#p81adad8785)" d="M 299.13625 69.30443 
L 425.97625 69.30443 
" style="fill:none;stroke:#d3d3d3;stroke-linecap:square;stroke-opacity:0.5;stroke-width:0.8;"/>
     </g>
    </g>
    <g id="ytick_20">
     <g id="line2d_33">
      <path clip-path="url(#p81adad8785)" d="M 299.13625 47.57184 
L 425.97625 47.57184 
" style="fill:none;stroke:#d3d3d3;stroke-linecap:square;stroke-opacity:0.5;stroke-width:0.8;"/>
     </g>
    </g>
    <g id="ytick_21">
     <g id="line2d_34">
      <path d="M 299.13625 101.903316 
" style="fill:none;stroke:#000000;stroke-linecap:square;stroke-width:1.5;"/>
      <g>
       <use style="stroke:#000000;" x="299.13625" xlink:href="#m9c93c578e3" y="101.903316"/>
      </g>
     </g>
    </g>
    <g id="ytick_22">
     <g id="line2d_35">
      <path d="M 299.13625 80.170726 
" style="fill:none;stroke:#000000;stroke-linecap:square;stroke-width:1.5;"/>
      <g>
       <use style="stroke:#000000;" x="299.13625" xlink:href="#m9c93c578e3" y="80.170726"/>
      </g>
     </g>
    </g>
    <g id="ytick_23">
     <g id="line2d_36">
      <path d="M 299.13625 58.438135 
" style="fill:none;stroke:#000000;stroke-linecap:square;stroke-width:1.5;"/>
      <g>
       <use style="stroke:#000000;" x="299.13625" xlink:href="#m9c93c578e3" y="58.438135"/>
      </g>
     </g>
    </g>
    <g id="ytick_24">
     <g id="line2d_37">
      <path d="M 299.13625 36.705545 
" style="fill:none;stroke:#000000;stroke-linecap:square;stroke-width:1.5;"/>
      <g>
       <use style="stroke:#000000;" x="299.13625" xlink:href="#m9c93c578e3" y="36.705545"/>
      </g>
     </g>
    </g>
   </g>
   <g id="line2d_38">
    <path clip-path="url(#p81adad8785)" d="M 304.901705 64.71478 
L 321.374432 73.767289 
L 337.847159 93.762469 
L 354.319886 100.406934 
L 370.792614 97.123721 
L 387.265341 97.639094 
L 403.738068 94.162404 
L 420.210795 93.403449 
" style="fill:none;stroke:#b2df8a;stroke-width:2.658681;"/>
   </g>
   <g id="line2d_39">
    <path clip-path="url(#p81adad8785)" d="M 321.374432 74.387087 
L 337.847159 70.105925 
L 354.319886 95.175275 
L 370.792614 100.515642 
L 387.265341 94.489746 
L 403.738068 100.360768 
L 420.210795 93.209904 
" style="fill:none;stroke:#67a9cf;stroke-width:2.658681;"/>
   </g>
   <g id="line2d_40">
    <path clip-path="url(#p81adad8785)" d="M 304.901705 62.043398 
L 321.374432 75.600274 
L 337.847159 87.056775 
L 354.319886 92.616241 
L 370.792614 96.581207 
L 387.265341 110.186809 
L 403.738068 106.515481 
L 420.210795 99.55988 
" style="fill:none;stroke:#ef8a62;stroke-width:2.658681;"/>
   </g>
   <g id="PolyCollection_7">
    <path clip-path="url(#p81adad8785)" d="M 304.901705 58.948365 
L 304.901705 70.481196 
L 321.374432 79.361488 
L 337.847159 98.682719 
L 354.319886 102.784166 
L 370.792614 100.228078 
L 387.265341 100.134687 
L 403.738068 96.905315 
L 420.210795 96.182044 
L 420.210795 90.624855 
L 420.210795 90.624855 
L 403.738068 91.419492 
L 387.265341 95.143501 
L 370.792614 94.019364 
L 354.319886 98.029702 
L 337.847159 88.842218 
L 321.374432 68.17309 
L 304.901705 58.948365 
z
" style="fill:#b2df8a;fill-opacity:0.298039;"/>
   </g>
   <g id="PolyCollection_8">
    <path clip-path="url(#p81adad8785)" d="M 321.374432 67.16348 
L 321.374432 81.610694 
L 337.847159 77.740063 
L 354.319886 103.289215 
L 370.792614 103.693942 
L 387.265341 102.560547 
L 403.738068 101.547592 
L 420.210795 99.846232 
L 420.210795 86.573577 
L 420.210795 86.573577 
L 403.738068 99.173944 
L 387.265341 86.418945 
L 370.792614 97.337343 
L 354.319886 87.061335 
L 337.847159 62.471787 
L 321.374432 67.16348 
z
" style="fill:#67a9cf;fill-opacity:0.298039;"/>
   </g>
   <g id="PolyCollection_9">
    <path clip-path="url(#p81adad8785)" d="M 304.901705 60.842061 
L 304.901705 63.244736 
L 321.374432 84.452033 
L 337.847159 93.69615 
L 354.319886 101.24921 
L 370.792614 102.189362 
L 387.265341 111.469223 
L 403.738068 106.670423 
L 420.210795 109.055563 
L 420.210795 90.064197 
L 420.210795 90.064197 
L 403.738068 106.360538 
L 387.265341 108.904394 
L 370.792614 90.973053 
L 354.319886 83.983273 
L 337.847159 80.4174 
L 321.374432 66.748514 
L 304.901705 60.842061 
z
" style="fill:#ef8a62;fill-opacity:0.298039;"/>
   </g>
   <g id="patch_15">
    <path d="M 299.13625 27.2 
L 425.97625 27.2 
L 425.97625 7.2 
L 299.13625 7.2 
z
" style="fill:none;stroke:#000000;stroke-linejoin:miter;"/>
   </g>
   <g id="patch_16">
    <path d="M 425.97625 116.24 
L 441.97625 116.24 
L 441.97625 27.2 
L 425.97625 27.2 
z
" style="fill:none;stroke:#000000;stroke-linejoin:miter;"/>
   </g>
   <g id="patch_17">
    <path d="M 299.13625 116.24 
L 299.13625 27.2 
" style="fill:none;stroke:#000000;stroke-linecap:square;stroke-linejoin:miter;"/>
   </g>
   <g id="patch_18">
    <path d="M 299.13625 116.24 
L 425.97625 116.24 
" style="fill:none;stroke:#000000;stroke-linecap:square;stroke-linejoin:miter;"/>
   </g>
   <g id="text_12">
    <!-- Skin -->
    <defs>
     <path d="M 9.078125 75.984375 
L 18.109375 75.984375 
L 18.109375 31.109375 
L 44.921875 54.6875 
L 56.390625 54.6875 
L 27.390625 29.109375 
L 57.625 0 
L 45.90625 0 
L 18.109375 26.703125 
L 18.109375 0 
L 9.078125 0 
z
" id="DejaVuSans-107"/>
    </defs>
    <g style="fill:#1a1a1a;" transform="translate(347.677969 21.063125)scale(0.14 -0.14)">
     <use xlink:href="#DejaVuSans-83"/>
     <use x="63.476562" xlink:href="#DejaVuSans-107"/>
     <use x="121.386719" xlink:href="#DejaVuSans-105"/>
     <use x="149.169922" xlink:href="#DejaVuSans-110"/>
    </g>
   </g>
   <g id="text_13">
    <!-- LP-Vaginal -->
    <defs>
     <path d="M 9.8125 72.90625 
L 19.671875 72.90625 
L 19.671875 8.296875 
L 55.171875 8.296875 
L 55.171875 0 
L 9.8125 0 
z
" id="DejaVuSans-76"/>
     <path d="M 19.671875 64.796875 
L 19.671875 37.40625 
L 32.078125 37.40625 
Q 38.96875 37.40625 42.71875 40.96875 
Q 46.484375 44.53125 46.484375 51.125 
Q 46.484375 57.671875 42.71875 61.234375 
Q 38.96875 64.796875 32.078125 64.796875 
z
M 9.8125 72.90625 
L 32.078125 72.90625 
Q 44.34375 72.90625 50.609375 67.359375 
Q 56.890625 61.8125 56.890625 51.125 
Q 56.890625 40.328125 50.609375 34.8125 
Q 44.34375 29.296875 32.078125 29.296875 
L 19.671875 29.296875 
L 19.671875 0 
L 9.8125 0 
z
" id="DejaVuSans-80"/>
     <path d="M 4.890625 31.390625 
L 31.203125 31.390625 
L 31.203125 23.390625 
L 4.890625 23.390625 
z
" id="DejaVuSans-45"/>
     <path d="M 28.609375 0 
L 0.78125 72.90625 
L 11.078125 72.90625 
L 34.1875 11.53125 
L 57.328125 72.90625 
L 67.578125 72.90625 
L 39.796875 0 
z
" id="DejaVuSans-86"/>
     <path d="M 45.40625 27.984375 
Q 45.40625 37.75 41.375 43.109375 
Q 37.359375 48.484375 30.078125 48.484375 
Q 22.859375 48.484375 18.828125 43.109375 
Q 14.796875 37.75 14.796875 27.984375 
Q 14.796875 18.265625 18.828125 12.890625 
Q 22.859375 7.515625 30.078125 7.515625 
Q 37.359375 7.515625 41.375 12.890625 
Q 45.40625 18.265625 45.40625 27.984375 
z
M 54.390625 6.78125 
Q 54.390625 -7.171875 48.1875 -13.984375 
Q 42 -20.796875 29.203125 -20.796875 
Q 24.46875 -20.796875 20.265625 -20.09375 
Q 16.0625 -19.390625 12.109375 -17.921875 
L 12.109375 -9.1875 
Q 16.0625 -11.328125 19.921875 -12.34375 
Q 23.78125 -13.375 27.78125 -13.375 
Q 36.625 -13.375 41.015625 -8.765625 
Q 45.40625 -4.15625 45.40625 5.171875 
L 45.40625 9.625 
Q 42.625 4.78125 38.28125 2.390625 
Q 33.9375 0 27.875 0 
Q 17.828125 0 11.671875 7.65625 
Q 5.515625 15.328125 5.515625 27.984375 
Q 5.515625 40.671875 11.671875 48.328125 
Q 17.828125 56 27.875 56 
Q 33.9375 56 38.28125 53.609375 
Q 42.625 51.21875 45.40625 46.390625 
L 45.40625 54.6875 
L 54.390625 54.6875 
z
" id="DejaVuSans-103"/>
    </defs>
    <g style="fill:#1a1a1a;" transform="translate(431.216875 45.456719)rotate(-270)scale(0.1 -0.1)">
     <use xlink:href="#DejaVuSans-76"/>
     <use x="55.712891" xlink:href="#DejaVuSans-80"/>
     <use x="115.984375" xlink:href="#DejaVuSans-45"/>
     <use x="151.990234" xlink:href="#DejaVuSans-86"/>
     <use x="220.289062" xlink:href="#DejaVuSans-97"/>
     <use x="281.568359" xlink:href="#DejaVuSans-103"/>
     <use x="345.044922" xlink:href="#DejaVuSans-105"/>
     <use x="372.828125" xlink:href="#DejaVuSans-110"/>
     <use x="436.207031" xlink:href="#DejaVuSans-97"/>
     <use x="497.486328" xlink:href="#DejaVuSans-108"/>
    </g>
   </g>
  </g>
  <g id="axes_4">
   <g id="patch_19">
    <path d="M 35.37625 210.32 
L 162.21625 210.32 
L 162.21625 121.28 
L 35.37625 121.28 
z
" style="fill:#ffffff;"/>
   </g>
   <g id="matplotlib.axis_7">
    <g id="xtick_46"/>
    <g id="xtick_47"/>
    <g id="xtick_48"/>
    <g id="xtick_49"/>
    <g id="xtick_50"/>
    <g id="xtick_51"/>
    <g id="xtick_52"/>
    <g id="xtick_53"/>
    <g id="xtick_54"/>
    <g id="xtick_55"/>
    <g id="xtick_56"/>
    <g id="xtick_57"/>
    <g id="xtick_58"/>
    <g id="xtick_59"/>
    <g id="xtick_60"/>
   </g>
   <g id="matplotlib.axis_8">
    <g id="ytick_25">
     <g id="line2d_41">
      <path clip-path="url(#p702d335abf)" d="M 35.37625 206.849611 
L 162.21625 206.849611 
" style="fill:none;stroke:#d3d3d3;stroke-linecap:square;stroke-opacity:0.5;stroke-width:0.8;"/>
     </g>
     <g id="line2d_42">
      <path d="M 35.37625 206.849611 
" style="fill:none;stroke:#000000;stroke-linecap:square;stroke-width:1.5;"/>
      <g>
       <use style="stroke:#000000;" x="35.37625" xlink:href="#m4c929eac02" y="206.849611"/>
      </g>
     </g>
     <g id="text_14">
      <!-- 0 -->
      <g style="fill:#4d4d4d;" transform="translate(23.61375 209.608986)scale(0.1 -0.1)">
       <use xlink:href="#DejaVuSans-48"/>
      </g>
     </g>
    </g>
    <g id="ytick_26">
     <g id="line2d_43">
      <path clip-path="url(#p702d335abf)" d="M 35.37625 185.117021 
L 162.21625 185.117021 
" style="fill:none;stroke:#d3d3d3;stroke-linecap:square;stroke-opacity:0.5;stroke-width:0.8;"/>
     </g>
     <g id="line2d_44">
      <path d="M 35.37625 185.117021 
" style="fill:none;stroke:#000000;stroke-linecap:square;stroke-width:1.5;"/>
      <g>
       <use style="stroke:#000000;" x="35.37625" xlink:href="#m4c929eac02" y="185.117021"/>
      </g>
     </g>
     <g id="text_15">
      <!-- 2 -->
      <g style="fill:#4d4d4d;" transform="translate(23.61375 187.876396)scale(0.1 -0.1)">
       <use xlink:href="#DejaVuSans-50"/>
      </g>
     </g>
    </g>
    <g id="ytick_27">
     <g id="line2d_45">
      <path clip-path="url(#p702d335abf)" d="M 35.37625 163.38443 
L 162.21625 163.38443 
" style="fill:none;stroke:#d3d3d3;stroke-linecap:square;stroke-opacity:0.5;stroke-width:0.8;"/>
     </g>
     <g id="line2d_46">
      <path d="M 35.37625 163.38443 
" style="fill:none;stroke:#000000;stroke-linecap:square;stroke-width:1.5;"/>
      <g>
       <use style="stroke:#000000;" x="35.37625" xlink:href="#m4c929eac02" y="163.38443"/>
      </g>
     </g>
     <g id="text_16">
      <!-- 4 -->
      <g style="fill:#4d4d4d;" transform="translate(23.61375 166.143805)scale(0.1 -0.1)">
       <use xlink:href="#DejaVuSans-52"/>
      </g>
     </g>
    </g>
    <g id="ytick_28">
     <g id="line2d_47">
      <path clip-path="url(#p702d335abf)" d="M 35.37625 141.65184 
L 162.21625 141.65184 
" style="fill:none;stroke:#d3d3d3;stroke-linecap:square;stroke-opacity:0.5;stroke-width:0.8;"/>
     </g>
     <g id="line2d_48">
      <path d="M 35.37625 141.65184 
" style="fill:none;stroke:#000000;stroke-linecap:square;stroke-width:1.5;"/>
      <g>
       <use style="stroke:#000000;" x="35.37625" xlink:href="#m4c929eac02" y="141.65184"/>
      </g>
     </g>
     <g id="text_17">
      <!-- 6 -->
      <g style="fill:#4d4d4d;" transform="translate(23.61375 144.411215)scale(0.1 -0.1)">
       <use xlink:href="#DejaVuSans-54"/>
      </g>
     </g>
    </g>
    <g id="ytick_29">
     <g id="line2d_49">
      <path d="M 35.37625 195.983316 
" style="fill:none;stroke:#000000;stroke-linecap:square;stroke-width:1.5;"/>
      <g>
       <use style="stroke:#000000;" x="35.37625" xlink:href="#m9c93c578e3" y="195.983316"/>
      </g>
     </g>
    </g>
    <g id="ytick_30">
     <g id="line2d_50">
      <path d="M 35.37625 174.250726 
" style="fill:none;stroke:#000000;stroke-linecap:square;stroke-width:1.5;"/>
      <g>
       <use style="stroke:#000000;" x="35.37625" xlink:href="#m9c93c578e3" y="174.250726"/>
      </g>
     </g>
    </g>
    <g id="ytick_31">
     <g id="line2d_51">
      <path d="M 35.37625 152.518135 
" style="fill:none;stroke:#000000;stroke-linecap:square;stroke-width:1.5;"/>
      <g>
       <use style="stroke:#000000;" x="35.37625" xlink:href="#m9c93c578e3" y="152.518135"/>
      </g>
     </g>
    </g>
    <g id="ytick_32">
     <g id="line2d_52">
      <path d="M 35.37625 130.785545 
" style="fill:none;stroke:#000000;stroke-linecap:square;stroke-width:1.5;"/>
      <g>
       <use style="stroke:#000000;" x="35.37625" xlink:href="#m9c93c578e3" y="130.785545"/>
      </g>
     </g>
    </g>
   </g>
   <g id="line2d_53">
    <path clip-path="url(#p702d335abf)" d="M 57.614432 188.282441 
L 90.559886 199.493006 
L 107.032614 198.348253 
L 123.505341 197.163652 
L 139.978068 160.961381 
L 156.450795 199.706784 
" style="fill:none;stroke:#67a9cf;stroke-width:2.658681;"/>
   </g>
   <g id="line2d_54">
    <path clip-path="url(#p702d335abf)" d="M 41.141705 158.546449 
L 57.614432 169.075008 
L 74.087159 170.480503 
L 90.559886 182.361321 
L 107.032614 198.971865 
L 123.505341 195.683221 
L 139.978068 195.082282 
L 156.450795 194.102709 
" style="fill:none;stroke:#ef8a62;stroke-width:2.658681;"/>
   </g>
   <g id="PolyCollection_10">
    <path clip-path="url(#p702d335abf)" d="M 57.614432 186.338122 
L 57.614432 190.22676 
L 90.559886 202.683505 
L 107.032614 200.999187 
L 123.505341 199.798035 
L 139.978068 196.595489 
L 156.450795 205.447474 
L 156.450795 193.966093 
L 156.450795 193.966093 
L 139.978068 125.327273 
L 123.505341 194.529269 
L 107.032614 195.697318 
L 90.559886 196.302507 
L 57.614432 186.338122 
z
" style="fill:#67a9cf;fill-opacity:0.298039;"/>
   </g>
   <g id="PolyCollection_11">
    <path clip-path="url(#p702d335abf)" d="M 41.141705 146.838821 
L 41.141705 170.254077 
L 57.614432 176.233019 
L 74.087159 181.051353 
L 90.559886 190.924413 
L 107.032614 200.364585 
L 123.505341 197.427956 
L 139.978068 197.068376 
L 156.450795 196.119027 
L 156.450795 192.086391 
L 156.450795 192.086391 
L 139.978068 193.096188 
L 123.505341 193.938486 
L 107.032614 197.579146 
L 90.559886 173.79823 
L 74.087159 159.909653 
L 57.614432 161.916997 
L 41.141705 146.838821 
z
" style="fill:#ef8a62;fill-opacity:0.298039;"/>
   </g>
   <g id="patch_20">
    <path d="M 35.37625 210.32 
L 35.37625 121.28 
" style="fill:none;stroke:#000000;stroke-linecap:square;stroke-linejoin:miter;"/>
   </g>
   <g id="patch_21">
    <path d="M 35.37625 210.32 
L 162.21625 210.32 
" style="fill:none;stroke:#000000;stroke-linecap:square;stroke-linejoin:miter;"/>
   </g>
  </g>
  <g id="axes_5">
   <g id="patch_22">
    <path d="M 167.25625 210.32 
L 294.09625 210.32 
L 294.09625 121.28 
L 167.25625 121.28 
z
" style="fill:#ffffff;"/>
   </g>
   <g id="matplotlib.axis_9">
    <g id="xtick_61"/>
    <g id="xtick_62"/>
    <g id="xtick_63"/>
    <g id="xtick_64"/>
    <g id="xtick_65"/>
    <g id="xtick_66"/>
    <g id="xtick_67"/>
    <g id="xtick_68"/>
    <g id="xtick_69"/>
    <g id="xtick_70"/>
    <g id="xtick_71"/>
    <g id="xtick_72"/>
    <g id="xtick_73"/>
    <g id="xtick_74"/>
    <g id="xtick_75"/>
   </g>
   <g id="matplotlib.axis_10">
    <g id="ytick_33">
     <g id="line2d_55">
      <path clip-path="url(#p699f3f5d50)" d="M 167.25625 206.849611 
L 294.09625 206.849611 
" style="fill:none;stroke:#d3d3d3;stroke-linecap:square;stroke-opacity:0.5;stroke-width:0.8;"/>
     </g>
    </g>
    <g id="ytick_34">
     <g id="line2d_56">
      <path clip-path="url(#p699f3f5d50)" d="M 167.25625 185.117021 
L 294.09625 185.117021 
" style="fill:none;stroke:#d3d3d3;stroke-linecap:square;stroke-opacity:0.5;stroke-width:0.8;"/>
     </g>
    </g>
    <g id="ytick_35">
     <g id="line2d_57">
      <path clip-path="url(#p699f3f5d50)" d="M 167.25625 163.38443 
L 294.09625 163.38443 
" style="fill:none;stroke:#d3d3d3;stroke-linecap:square;stroke-opacity:0.5;stroke-width:0.8;"/>
     </g>
    </g>
    <g id="ytick_36">
     <g id="line2d_58">
      <path clip-path="url(#p699f3f5d50)" d="M 167.25625 141.65184 
L 294.09625 141.65184 
" style="fill:none;stroke:#d3d3d3;stroke-linecap:square;stroke-opacity:0.5;stroke-width:0.8;"/>
     </g>
    </g>
    <g id="ytick_37">
     <g id="line2d_59">
      <path d="M 167.25625 195.983316 
" style="fill:none;stroke:#000000;stroke-linecap:square;stroke-width:1.5;"/>
      <g>
       <use style="stroke:#000000;" x="167.25625" xlink:href="#m9c93c578e3" y="195.983316"/>
      </g>
     </g>
    </g>
    <g id="ytick_38">
     <g id="line2d_60">
      <path d="M 167.25625 174.250726 
" style="fill:none;stroke:#000000;stroke-linecap:square;stroke-width:1.5;"/>
      <g>
       <use style="stroke:#000000;" x="167.25625" xlink:href="#m9c93c578e3" y="174.250726"/>
      </g>
     </g>
    </g>
    <g id="ytick_39">
     <g id="line2d_61">
      <path d="M 167.25625 152.518135 
" style="fill:none;stroke:#000000;stroke-linecap:square;stroke-width:1.5;"/>
      <g>
       <use style="stroke:#000000;" x="167.25625" xlink:href="#m9c93c578e3" y="152.518135"/>
      </g>
     </g>
    </g>
    <g id="ytick_40">
     <g id="line2d_62">
      <path d="M 167.25625 130.785545 
" style="fill:none;stroke:#000000;stroke-linecap:square;stroke-width:1.5;"/>
      <g>
       <use style="stroke:#000000;" x="167.25625" xlink:href="#m9c93c578e3" y="130.785545"/>
      </g>
     </g>
    </g>
   </g>
   <g id="line2d_63">
    <path clip-path="url(#p699f3f5d50)" d="M 189.494432 173.510105 
L 222.439886 174.718018 
L 238.912614 196.342921 
L 255.385341 195.342629 
L 271.858068 195.489286 
L 288.330795 199.649045 
" style="fill:none;stroke:#67a9cf;stroke-width:2.658681;"/>
   </g>
   <g id="line2d_64">
    <path clip-path="url(#p699f3f5d50)" d="M 173.021705 171.767714 
L 189.494432 182.526741 
L 205.967159 191.269472 
L 222.439886 199.135726 
L 238.912614 193.273914 
L 255.385341 198.334167 
L 271.858068 195.053761 
L 288.330795 195.034782 
" style="fill:none;stroke:#ef8a62;stroke-width:2.658681;"/>
   </g>
   <g id="PolyCollection_12">
    <path clip-path="url(#p699f3f5d50)" d="M 189.494432 157.395083 
L 189.494432 189.625127 
L 222.439886 188.141749 
L 238.912614 199.631827 
L 255.385341 199.3157 
L 271.858068 200.97661 
L 288.330795 202.77641 
L 288.330795 196.521681 
L 288.330795 196.521681 
L 271.858068 190.001963 
L 255.385341 191.369558 
L 238.912614 193.054015 
L 222.439886 161.294286 
L 189.494432 157.395083 
z
" style="fill:#67a9cf;fill-opacity:0.298039;"/>
   </g>
   <g id="PolyCollection_13">
    <path clip-path="url(#p699f3f5d50)" d="M 173.021705 162.694262 
L 173.021705 180.841167 
L 189.494432 188.803236 
L 205.967159 195.818194 
L 222.439886 200.77509 
L 238.912614 196.02559 
L 255.385341 200.151245 
L 271.858068 197.245505 
L 288.330795 197.252835 
L 288.330795 192.816729 
L 288.330795 192.816729 
L 271.858068 192.862017 
L 255.385341 196.517089 
L 238.912614 190.522237 
L 222.439886 197.496361 
L 205.967159 186.72075 
L 189.494432 176.250246 
L 173.021705 162.694262 
z
" style="fill:#ef8a62;fill-opacity:0.298039;"/>
   </g>
   <g id="patch_23">
    <path d="M 167.25625 210.32 
L 167.25625 121.28 
" style="fill:none;stroke:#000000;stroke-linecap:square;stroke-linejoin:miter;"/>
   </g>
   <g id="patch_24">
    <path d="M 167.25625 210.32 
L 294.09625 210.32 
" style="fill:none;stroke:#000000;stroke-linecap:square;stroke-linejoin:miter;"/>
   </g>
  </g>
  <g id="axes_6">
   <g id="patch_25">
    <path d="M 299.13625 210.32 
L 425.97625 210.32 
L 425.97625 121.28 
L 299.13625 121.28 
z
" style="fill:#ffffff;"/>
   </g>
   <g id="matplotlib.axis_11">
    <g id="xtick_76"/>
    <g id="xtick_77"/>
    <g id="xtick_78"/>
    <g id="xtick_79"/>
    <g id="xtick_80"/>
    <g id="xtick_81"/>
    <g id="xtick_82"/>
    <g id="xtick_83"/>
    <g id="xtick_84"/>
    <g id="xtick_85"/>
    <g id="xtick_86"/>
    <g id="xtick_87"/>
    <g id="xtick_88"/>
    <g id="xtick_89"/>
    <g id="xtick_90"/>
   </g>
   <g id="matplotlib.axis_12">
    <g id="ytick_41">
     <g id="line2d_65">
      <path clip-path="url(#pfab165e271)" d="M 299.13625 206.849611 
L 425.97625 206.849611 
" style="fill:none;stroke:#d3d3d3;stroke-linecap:square;stroke-opacity:0.5;stroke-width:0.8;"/>
     </g>
    </g>
    <g id="ytick_42">
     <g id="line2d_66">
      <path clip-path="url(#pfab165e271)" d="M 299.13625 185.117021 
L 425.97625 185.117021 
" style="fill:none;stroke:#d3d3d3;stroke-linecap:square;stroke-opacity:0.5;stroke-width:0.8;"/>
     </g>
    </g>
    <g id="ytick_43">
     <g id="line2d_67">
      <path clip-path="url(#pfab165e271)" d="M 299.13625 163.38443 
L 425.97625 163.38443 
" style="fill:none;stroke:#d3d3d3;stroke-linecap:square;stroke-opacity:0.5;stroke-width:0.8;"/>
     </g>
    </g>
    <g id="ytick_44">
     <g id="line2d_68">
      <path clip-path="url(#pfab165e271)" d="M 299.13625 141.65184 
L 425.97625 141.65184 
" style="fill:none;stroke:#d3d3d3;stroke-linecap:square;stroke-opacity:0.5;stroke-width:0.8;"/>
     </g>
    </g>
    <g id="ytick_45">
     <g id="line2d_69">
      <path d="M 299.13625 195.983316 
" style="fill:none;stroke:#000000;stroke-linecap:square;stroke-width:1.5;"/>
      <g>
       <use style="stroke:#000000;" x="299.13625" xlink:href="#m9c93c578e3" y="195.983316"/>
      </g>
     </g>
    </g>
    <g id="ytick_46">
     <g id="line2d_70">
      <path d="M 299.13625 174.250726 
" style="fill:none;stroke:#000000;stroke-linecap:square;stroke-width:1.5;"/>
      <g>
       <use style="stroke:#000000;" x="299.13625" xlink:href="#m9c93c578e3" y="174.250726"/>
      </g>
     </g>
    </g>
    <g id="ytick_47">
     <g id="line2d_71">
      <path d="M 299.13625 152.518135 
" style="fill:none;stroke:#000000;stroke-linecap:square;stroke-width:1.5;"/>
      <g>
       <use style="stroke:#000000;" x="299.13625" xlink:href="#m9c93c578e3" y="152.518135"/>
      </g>
     </g>
    </g>
    <g id="ytick_48">
     <g id="line2d_72">
      <path d="M 299.13625 130.785545 
" style="fill:none;stroke:#000000;stroke-linecap:square;stroke-width:1.5;"/>
      <g>
       <use style="stroke:#000000;" x="299.13625" xlink:href="#m9c93c578e3" y="130.785545"/>
      </g>
     </g>
    </g>
   </g>
   <g id="line2d_73">
    <path clip-path="url(#pfab165e271)" d="M 337.847159 182.29326 
L 354.319886 180.041974 
L 370.792614 202.090198 
L 387.265341 197.142406 
L 403.738068 202.703775 
L 420.210795 197.445393 
" style="fill:none;stroke:#67a9cf;stroke-width:2.658681;"/>
   </g>
   <g id="line2d_74">
    <path clip-path="url(#pfab165e271)" d="M 304.901705 176.180245 
L 321.374432 171.110375 
L 337.847159 180.222139 
L 354.319886 188.144296 
L 370.792614 190.211898 
L 387.265341 197.466717 
L 403.738068 189.108441 
L 420.210795 193.843302 
" style="fill:none;stroke:#ef8a62;stroke-width:2.658681;"/>
   </g>
   <g id="PolyCollection_14">
    <path clip-path="url(#pfab165e271)" d="M 337.847159 168.033159 
L 337.847159 196.553361 
L 354.319886 206.272727 
L 370.792614 204.53678 
L 387.265341 200.473939 
L 403.738068 205.86451 
L 420.210795 200.771901 
L 420.210795 194.118885 
L 420.210795 194.118885 
L 403.738068 199.543039 
L 387.265341 193.810872 
L 370.792614 199.643616 
L 354.319886 153.811221 
L 337.847159 168.033159 
z
" style="fill:#67a9cf;fill-opacity:0.298039;"/>
   </g>
   <g id="PolyCollection_15">
    <path clip-path="url(#pfab165e271)" d="M 304.901705 172.097172 
L 304.901705 180.263318 
L 321.374432 181.566586 
L 337.847159 186.3748 
L 354.319886 194.115717 
L 370.792614 194.411524 
L 387.265341 199.145099 
L 403.738068 192.848812 
L 420.210795 196.222812 
L 420.210795 191.463792 
L 420.210795 191.463792 
L 403.738068 185.36807 
L 387.265341 195.788336 
L 370.792614 186.012273 
L 354.319886 182.172874 
L 337.847159 174.069477 
L 321.374432 160.654164 
L 304.901705 172.097172 
z
" style="fill:#ef8a62;fill-opacity:0.298039;"/>
   </g>
   <g id="patch_26">
    <path d="M 425.97625 210.32 
L 441.97625 210.32 
L 441.97625 121.28 
L 425.97625 121.28 
z
" style="fill:none;stroke:#000000;stroke-linejoin:miter;"/>
   </g>
   <g id="patch_27">
    <path d="M 299.13625 210.32 
L 299.13625 121.28 
" style="fill:none;stroke:#000000;stroke-linecap:square;stroke-linejoin:miter;"/>
   </g>
   <g id="patch_28">
    <path d="M 299.13625 210.32 
L 425.97625 210.32 
" style="fill:none;stroke:#000000;stroke-linecap:square;stroke-linejoin:miter;"/>
   </g>
   <g id="text_18">
    <!-- LP-C-section -->
    <defs>
     <path d="M 64.40625 67.28125 
L 64.40625 56.890625 
Q 59.421875 61.53125 53.78125 63.8125 
Q 48.140625 66.109375 41.796875 66.109375 
Q 29.296875 66.109375 22.65625 58.46875 
Q 16.015625 50.828125 16.015625 36.375 
Q 16.015625 21.96875 22.65625 14.328125 
Q 29.296875 6.6875 41.796875 6.6875 
Q 48.140625 6.6875 53.78125 8.984375 
Q 59.421875 11.28125 64.40625 15.921875 
L 64.40625 5.609375 
Q 59.234375 2.09375 53.4375 0.328125 
Q 47.65625 -1.421875 41.21875 -1.421875 
Q 24.65625 -1.421875 15.125 8.703125 
Q 5.609375 18.84375 5.609375 36.375 
Q 5.609375 53.953125 15.125 64.078125 
Q 24.65625 74.21875 41.21875 74.21875 
Q 47.75 74.21875 53.53125 72.484375 
Q 59.328125 70.75 64.40625 67.28125 
z
" id="DejaVuSans-67"/>
    </defs>
    <g style="fill:#1a1a1a;" transform="translate(431.216875 134.89375)rotate(-270)scale(0.1 -0.1)">
     <use xlink:href="#DejaVuSans-76"/>
     <use x="55.712891" xlink:href="#DejaVuSans-80"/>
     <use x="115.984375" xlink:href="#DejaVuSans-45"/>
     <use x="152.068359" xlink:href="#DejaVuSans-67"/>
     <use x="221.892578" xlink:href="#DejaVuSans-45"/>
     <use x="257.976562" xlink:href="#DejaVuSans-115"/>
     <use x="310.076172" xlink:href="#DejaVuSans-101"/>
     <use x="371.599609" xlink:href="#DejaVuSans-99"/>
     <use x="426.580078" xlink:href="#DejaVuSans-116"/>
     <use x="465.789062" xlink:href="#DejaVuSans-105"/>
     <use x="493.572266" xlink:href="#DejaVuSans-111"/>
     <use x="554.753906" xlink:href="#DejaVuSans-110"/>
    </g>
   </g>
  </g>
  <g id="axes_7">
   <g id="patch_29">
    <path d="M 35.37625 304.4 
L 162.21625 304.4 
L 162.21625 215.36 
L 35.37625 215.36 
z
" style="fill:#ffffff;"/>
   </g>
   <g id="matplotlib.axis_13">
    <g id="xtick_91">
     <g id="line2d_75">
      <path d="M 41.141705 304.4 
" style="fill:none;stroke:#000000;stroke-linecap:square;stroke-width:1.5;"/>
      <defs>
       <path d="M 0 0 
L 0 3 
" id="m2713dda2f5" style="stroke:#000000;"/>
      </defs>
      <g>
       <use style="stroke:#000000;" x="41.141705" xlink:href="#m2713dda2f5" y="304.4"/>
      </g>
     </g>
     <g id="text_19">
      <!-- 0 -->
      <g style="fill:#4d4d4d;" transform="translate(38.27858 316.638594)scale(0.09 -0.09)">
       <use xlink:href="#DejaVuSans-48"/>
      </g>
     </g>
    </g>
    <g id="xtick_92">
     <g id="line2d_76">
      <path d="M 57.614432 304.4 
" style="fill:none;stroke:#000000;stroke-linecap:square;stroke-width:1.5;"/>
      <g>
       <use style="stroke:#000000;" x="57.614432" xlink:href="#m2713dda2f5" y="304.4"/>
      </g>
     </g>
     <g id="text_20">
      <!-- 1 -->
      <defs>
       <path d="M 12.40625 8.296875 
L 28.515625 8.296875 
L 28.515625 63.921875 
L 10.984375 60.40625 
L 10.984375 69.390625 
L 28.421875 72.90625 
L 38.28125 72.90625 
L 38.28125 8.296875 
L 54.390625 8.296875 
L 54.390625 0 
L 12.40625 0 
z
" id="DejaVuSans-49"/>
      </defs>
      <g style="fill:#4d4d4d;" transform="translate(54.751307 316.638594)scale(0.09 -0.09)">
       <use xlink:href="#DejaVuSans-49"/>
      </g>
     </g>
    </g>
    <g id="xtick_93">
     <g id="line2d_77">
      <path d="M 74.087159 304.4 
" style="fill:none;stroke:#000000;stroke-linecap:square;stroke-width:1.5;"/>
      <g>
       <use style="stroke:#000000;" x="74.087159" xlink:href="#m2713dda2f5" y="304.4"/>
      </g>
     </g>
     <g id="text_21">
      <!-- 2 -->
      <g style="fill:#4d4d4d;" transform="translate(71.224034 316.638594)scale(0.09 -0.09)">
       <use xlink:href="#DejaVuSans-50"/>
      </g>
     </g>
    </g>
    <g id="xtick_94">
     <g id="line2d_78">
      <path d="M 90.559886 304.4 
" style="fill:none;stroke:#000000;stroke-linecap:square;stroke-width:1.5;"/>
      <g>
       <use style="stroke:#000000;" x="90.559886" xlink:href="#m2713dda2f5" y="304.4"/>
      </g>
     </g>
     <g id="text_22">
      <!-- 3 -->
      <defs>
       <path d="M 40.578125 39.3125 
Q 47.65625 37.796875 51.625 33 
Q 55.609375 28.21875 55.609375 21.1875 
Q 55.609375 10.40625 48.1875 4.484375 
Q 40.765625 -1.421875 27.09375 -1.421875 
Q 22.515625 -1.421875 17.65625 -0.515625 
Q 12.796875 0.390625 7.625 2.203125 
L 7.625 11.71875 
Q 11.71875 9.328125 16.59375 8.109375 
Q 21.484375 6.890625 26.8125 6.890625 
Q 36.078125 6.890625 40.9375 10.546875 
Q 45.796875 14.203125 45.796875 21.1875 
Q 45.796875 27.640625 41.28125 31.265625 
Q 36.765625 34.90625 28.71875 34.90625 
L 20.21875 34.90625 
L 20.21875 43.015625 
L 29.109375 43.015625 
Q 36.375 43.015625 40.234375 45.921875 
Q 44.09375 48.828125 44.09375 54.296875 
Q 44.09375 59.90625 40.109375 62.90625 
Q 36.140625 65.921875 28.71875 65.921875 
Q 24.65625 65.921875 20.015625 65.03125 
Q 15.375 64.15625 9.8125 62.3125 
L 9.8125 71.09375 
Q 15.4375 72.65625 20.34375 73.4375 
Q 25.25 74.21875 29.59375 74.21875 
Q 40.828125 74.21875 47.359375 69.109375 
Q 53.90625 64.015625 53.90625 55.328125 
Q 53.90625 49.265625 50.4375 45.09375 
Q 46.96875 40.921875 40.578125 39.3125 
z
" id="DejaVuSans-51"/>
      </defs>
      <g style="fill:#4d4d4d;" transform="translate(87.696761 316.638594)scale(0.09 -0.09)">
       <use xlink:href="#DejaVuSans-51"/>
      </g>
     </g>
    </g>
    <g id="xtick_95">
     <g id="line2d_79">
      <path d="M 107.032614 304.4 
" style="fill:none;stroke:#000000;stroke-linecap:square;stroke-width:1.5;"/>
      <g>
       <use style="stroke:#000000;" x="107.032614" xlink:href="#m2713dda2f5" y="304.4"/>
      </g>
     </g>
     <g id="text_23">
      <!-- 4 -->
      <g style="fill:#4d4d4d;" transform="translate(104.169489 316.638594)scale(0.09 -0.09)">
       <use xlink:href="#DejaVuSans-52"/>
      </g>
     </g>
    </g>
    <g id="xtick_96">
     <g id="line2d_80">
      <path d="M 123.505341 304.4 
" style="fill:none;stroke:#000000;stroke-linecap:square;stroke-width:1.5;"/>
      <g>
       <use style="stroke:#000000;" x="123.505341" xlink:href="#m2713dda2f5" y="304.4"/>
      </g>
     </g>
     <g id="text_24">
      <!-- 5 -->
      <defs>
       <path d="M 10.796875 72.90625 
L 49.515625 72.90625 
L 49.515625 64.59375 
L 19.828125 64.59375 
L 19.828125 46.734375 
Q 21.96875 47.46875 24.109375 47.828125 
Q 26.265625 48.1875 28.421875 48.1875 
Q 40.625 48.1875 47.75 41.5 
Q 54.890625 34.8125 54.890625 23.390625 
Q 54.890625 11.625 47.5625 5.09375 
Q 40.234375 -1.421875 26.90625 -1.421875 
Q 22.3125 -1.421875 17.546875 -0.640625 
Q 12.796875 0.140625 7.71875 1.703125 
L 7.71875 11.625 
Q 12.109375 9.234375 16.796875 8.0625 
Q 21.484375 6.890625 26.703125 6.890625 
Q 35.15625 6.890625 40.078125 11.328125 
Q 45.015625 15.765625 45.015625 23.390625 
Q 45.015625 31 40.078125 35.4375 
Q 35.15625 39.890625 26.703125 39.890625 
Q 22.75 39.890625 18.8125 39.015625 
Q 14.890625 38.140625 10.796875 36.28125 
z
" id="DejaVuSans-53"/>
      </defs>
      <g style="fill:#4d4d4d;" transform="translate(120.642216 316.638594)scale(0.09 -0.09)">
       <use xlink:href="#DejaVuSans-53"/>
      </g>
     </g>
    </g>
    <g id="xtick_97">
     <g id="line2d_81">
      <path d="M 139.978068 304.4 
" style="fill:none;stroke:#000000;stroke-linecap:square;stroke-width:1.5;"/>
      <g>
       <use style="stroke:#000000;" x="139.978068" xlink:href="#m2713dda2f5" y="304.4"/>
      </g>
     </g>
     <g id="text_25">
      <!-- 6 -->
      <g style="fill:#4d4d4d;" transform="translate(137.114943 316.638594)scale(0.09 -0.09)">
       <use xlink:href="#DejaVuSans-54"/>
      </g>
     </g>
    </g>
    <g id="xtick_98">
     <g id="line2d_82">
      <path d="M 156.450795 304.4 
" style="fill:none;stroke:#000000;stroke-linecap:square;stroke-width:1.5;"/>
      <g>
       <use style="stroke:#000000;" x="156.450795" xlink:href="#m2713dda2f5" y="304.4"/>
      </g>
     </g>
     <g id="text_26">
      <!-- 7 -->
      <defs>
       <path d="M 8.203125 72.90625 
L 55.078125 72.90625 
L 55.078125 68.703125 
L 28.609375 0 
L 18.3125 0 
L 43.21875 64.59375 
L 8.203125 64.59375 
z
" id="DejaVuSans-55"/>
      </defs>
      <g style="fill:#4d4d4d;" transform="translate(153.58767 316.638594)scale(0.09 -0.09)">
       <use xlink:href="#DejaVuSans-55"/>
      </g>
     </g>
    </g>
    <g id="xtick_99"/>
    <g id="xtick_100"/>
    <g id="xtick_101"/>
    <g id="xtick_102"/>
    <g id="xtick_103"/>
    <g id="xtick_104"/>
    <g id="xtick_105"/>
   </g>
   <g id="matplotlib.axis_14">
    <g id="ytick_49">
     <g id="line2d_83">
      <path clip-path="url(#p737c07382e)" d="M 35.37625 300.929611 
L 162.21625 300.929611 
" style="fill:none;stroke:#d3d3d3;stroke-linecap:square;stroke-opacity:0.5;stroke-width:0.8;"/>
     </g>
     <g id="line2d_84">
      <path d="M 35.37625 300.929611 
" style="fill:none;stroke:#000000;stroke-linecap:square;stroke-width:1.5;"/>
      <g>
       <use style="stroke:#000000;" x="35.37625" xlink:href="#m4c929eac02" y="300.929611"/>
      </g>
     </g>
     <g id="text_27">
      <!-- 0 -->
      <g style="fill:#4d4d4d;" transform="translate(23.61375 303.688986)scale(0.1 -0.1)">
       <use xlink:href="#DejaVuSans-48"/>
      </g>
     </g>
    </g>
    <g id="ytick_50">
     <g id="line2d_85">
      <path clip-path="url(#p737c07382e)" d="M 35.37625 279.197021 
L 162.21625 279.197021 
" style="fill:none;stroke:#d3d3d3;stroke-linecap:square;stroke-opacity:0.5;stroke-width:0.8;"/>
     </g>
     <g id="line2d_86">
      <path d="M 35.37625 279.197021 
" style="fill:none;stroke:#000000;stroke-linecap:square;stroke-width:1.5;"/>
      <g>
       <use style="stroke:#000000;" x="35.37625" xlink:href="#m4c929eac02" y="279.197021"/>
      </g>
     </g>
     <g id="text_28">
      <!-- 2 -->
      <g style="fill:#4d4d4d;" transform="translate(23.61375 281.956396)scale(0.1 -0.1)">
       <use xlink:href="#DejaVuSans-50"/>
      </g>
     </g>
    </g>
    <g id="ytick_51">
     <g id="line2d_87">
      <path clip-path="url(#p737c07382e)" d="M 35.37625 257.46443 
L 162.21625 257.46443 
" style="fill:none;stroke:#d3d3d3;stroke-linecap:square;stroke-opacity:0.5;stroke-width:0.8;"/>
     </g>
     <g id="line2d_88">
      <path d="M 35.37625 257.46443 
" style="fill:none;stroke:#000000;stroke-linecap:square;stroke-width:1.5;"/>
      <g>
       <use style="stroke:#000000;" x="35.37625" xlink:href="#m4c929eac02" y="257.46443"/>
      </g>
     </g>
     <g id="text_29">
      <!-- 4 -->
      <g style="fill:#4d4d4d;" transform="translate(23.61375 260.223805)scale(0.1 -0.1)">
       <use xlink:href="#DejaVuSans-52"/>
      </g>
     </g>
    </g>
    <g id="ytick_52">
     <g id="line2d_89">
      <path clip-path="url(#p737c07382e)" d="M 35.37625 235.73184 
L 162.21625 235.73184 
" style="fill:none;stroke:#d3d3d3;stroke-linecap:square;stroke-opacity:0.5;stroke-width:0.8;"/>
     </g>
     <g id="line2d_90">
      <path d="M 35.37625 235.73184 
" style="fill:none;stroke:#000000;stroke-linecap:square;stroke-width:1.5;"/>
      <g>
       <use style="stroke:#000000;" x="35.37625" xlink:href="#m4c929eac02" y="235.73184"/>
      </g>
     </g>
     <g id="text_30">
      <!-- 6 -->
      <g style="fill:#4d4d4d;" transform="translate(23.61375 238.491215)scale(0.1 -0.1)">
       <use xlink:href="#DejaVuSans-54"/>
      </g>
     </g>
    </g>
    <g id="ytick_53">
     <g id="line2d_91">
      <path d="M 35.37625 290.063316 
" style="fill:none;stroke:#000000;stroke-linecap:square;stroke-width:1.5;"/>
      <g>
       <use style="stroke:#000000;" x="35.37625" xlink:href="#m9c93c578e3" y="290.063316"/>
      </g>
     </g>
    </g>
    <g id="ytick_54">
     <g id="line2d_92">
      <path d="M 35.37625 268.330726 
" style="fill:none;stroke:#000000;stroke-linecap:square;stroke-width:1.5;"/>
      <g>
       <use style="stroke:#000000;" x="35.37625" xlink:href="#m9c93c578e3" y="268.330726"/>
      </g>
     </g>
    </g>
    <g id="ytick_55">
     <g id="line2d_93">
      <path d="M 35.37625 246.598135 
" style="fill:none;stroke:#000000;stroke-linecap:square;stroke-width:1.5;"/>
      <g>
       <use style="stroke:#000000;" x="35.37625" xlink:href="#m9c93c578e3" y="246.598135"/>
      </g>
     </g>
    </g>
    <g id="ytick_56">
     <g id="line2d_94">
      <path d="M 35.37625 224.865545 
" style="fill:none;stroke:#000000;stroke-linecap:square;stroke-width:1.5;"/>
      <g>
       <use style="stroke:#000000;" x="35.37625" xlink:href="#m9c93c578e3" y="224.865545"/>
      </g>
     </g>
    </g>
   </g>
   <g id="line2d_95">
    <path clip-path="url(#p737c07382e)" d="M 57.614432 261.662123 
L 74.087159 259.263659 
L 90.559886 252.284895 
L 107.032614 274.536877 
L 123.505341 283.678593 
L 139.978068 283.834006 
L 156.450795 294.493008 
" style="fill:none;stroke:#67a9cf;stroke-width:2.658681;"/>
   </g>
   <g id="PolyCollection_16">
    <path clip-path="url(#p737c07382e)" d="M 57.614432 255.413891 
L 57.614432 267.910356 
L 74.087159 266.330546 
L 90.559886 258.714269 
L 107.032614 280.737482 
L 123.505341 289.649156 
L 139.978068 289.247443 
L 156.450795 296.525004 
L 156.450795 292.461012 
L 156.450795 292.461012 
L 139.978068 278.42057 
L 123.505341 277.70803 
L 107.032614 268.336272 
L 90.559886 245.855521 
L 74.087159 252.196773 
L 57.614432 255.413891 
z
" style="fill:#67a9cf;fill-opacity:0.298039;"/>
   </g>
   <g id="patch_30">
    <path d="M 35.37625 304.4 
L 35.37625 215.36 
" style="fill:none;stroke:#000000;stroke-linecap:square;stroke-linejoin:miter;"/>
   </g>
   <g id="patch_31">
    <path d="M 35.37625 304.4 
L 162.21625 304.4 
" style="fill:none;stroke:#000000;stroke-linecap:square;stroke-linejoin:miter;"/>
   </g>
  </g>
  <g id="axes_8">
   <g id="patch_32">
    <path d="M 167.25625 304.4 
L 294.09625 304.4 
L 294.09625 215.36 
L 167.25625 215.36 
z
" style="fill:#ffffff;"/>
   </g>
   <g id="matplotlib.axis_15">
    <g id="xtick_106">
     <g id="line2d_96">
      <path d="M 173.021705 304.4 
" style="fill:none;stroke:#000000;stroke-linecap:square;stroke-width:1.5;"/>
      <g>
       <use style="stroke:#000000;" x="173.021705" xlink:href="#m2713dda2f5" y="304.4"/>
      </g>
     </g>
     <g id="text_31">
      <!-- 0 -->
      <g style="fill:#4d4d4d;" transform="translate(170.15858 316.638594)scale(0.09 -0.09)">
       <use xlink:href="#DejaVuSans-48"/>
      </g>
     </g>
    </g>
    <g id="xtick_107">
     <g id="line2d_97">
      <path d="M 189.494432 304.4 
" style="fill:none;stroke:#000000;stroke-linecap:square;stroke-width:1.5;"/>
      <g>
       <use style="stroke:#000000;" x="189.494432" xlink:href="#m2713dda2f5" y="304.4"/>
      </g>
     </g>
     <g id="text_32">
      <!-- 1 -->
      <g style="fill:#4d4d4d;" transform="translate(186.631307 316.638594)scale(0.09 -0.09)">
       <use xlink:href="#DejaVuSans-49"/>
      </g>
     </g>
    </g>
    <g id="xtick_108">
     <g id="line2d_98">
      <path d="M 205.967159 304.4 
" style="fill:none;stroke:#000000;stroke-linecap:square;stroke-width:1.5;"/>
      <g>
       <use style="stroke:#000000;" x="205.967159" xlink:href="#m2713dda2f5" y="304.4"/>
      </g>
     </g>
     <g id="text_33">
      <!-- 2 -->
      <g style="fill:#4d4d4d;" transform="translate(203.104034 316.638594)scale(0.09 -0.09)">
       <use xlink:href="#DejaVuSans-50"/>
      </g>
     </g>
    </g>
    <g id="xtick_109">
     <g id="line2d_99">
      <path d="M 222.439886 304.4 
" style="fill:none;stroke:#000000;stroke-linecap:square;stroke-width:1.5;"/>
      <g>
       <use style="stroke:#000000;" x="222.439886" xlink:href="#m2713dda2f5" y="304.4"/>
      </g>
     </g>
     <g id="text_34">
      <!-- 3 -->
      <g style="fill:#4d4d4d;" transform="translate(219.576761 316.638594)scale(0.09 -0.09)">
       <use xlink:href="#DejaVuSans-51"/>
      </g>
     </g>
    </g>
    <g id="xtick_110">
     <g id="line2d_100">
      <path d="M 238.912614 304.4 
" style="fill:none;stroke:#000000;stroke-linecap:square;stroke-width:1.5;"/>
      <g>
       <use style="stroke:#000000;" x="238.912614" xlink:href="#m2713dda2f5" y="304.4"/>
      </g>
     </g>
     <g id="text_35">
      <!-- 4 -->
      <g style="fill:#4d4d4d;" transform="translate(236.049489 316.638594)scale(0.09 -0.09)">
       <use xlink:href="#DejaVuSans-52"/>
      </g>
     </g>
    </g>
    <g id="xtick_111">
     <g id="line2d_101">
      <path d="M 255.385341 304.4 
" style="fill:none;stroke:#000000;stroke-linecap:square;stroke-width:1.5;"/>
      <g>
       <use style="stroke:#000000;" x="255.385341" xlink:href="#m2713dda2f5" y="304.4"/>
      </g>
     </g>
     <g id="text_36">
      <!-- 5 -->
      <g style="fill:#4d4d4d;" transform="translate(252.522216 316.638594)scale(0.09 -0.09)">
       <use xlink:href="#DejaVuSans-53"/>
      </g>
     </g>
    </g>
    <g id="xtick_112">
     <g id="line2d_102">
      <path d="M 271.858068 304.4 
" style="fill:none;stroke:#000000;stroke-linecap:square;stroke-width:1.5;"/>
      <g>
       <use style="stroke:#000000;" x="271.858068" xlink:href="#m2713dda2f5" y="304.4"/>
      </g>
     </g>
     <g id="text_37">
      <!-- 6 -->
      <g style="fill:#4d4d4d;" transform="translate(268.994943 316.638594)scale(0.09 -0.09)">
       <use xlink:href="#DejaVuSans-54"/>
      </g>
     </g>
    </g>
    <g id="xtick_113">
     <g id="line2d_103">
      <path d="M 288.330795 304.4 
" style="fill:none;stroke:#000000;stroke-linecap:square;stroke-width:1.5;"/>
      <g>
       <use style="stroke:#000000;" x="288.330795" xlink:href="#m2713dda2f5" y="304.4"/>
      </g>
     </g>
     <g id="text_38">
      <!-- 7 -->
      <g style="fill:#4d4d4d;" transform="translate(285.46767 316.638594)scale(0.09 -0.09)">
       <use xlink:href="#DejaVuSans-55"/>
      </g>
     </g>
    </g>
    <g id="xtick_114"/>
    <g id="xtick_115"/>
    <g id="xtick_116"/>
    <g id="xtick_117"/>
    <g id="xtick_118"/>
    <g id="xtick_119"/>
    <g id="xtick_120"/>
   </g>
   <g id="matplotlib.axis_16">
    <g id="ytick_57">
     <g id="line2d_104">
      <path clip-path="url(#p8a9d7f5920)" d="M 167.25625 300.929611 
L 294.09625 300.929611 
" style="fill:none;stroke:#d3d3d3;stroke-linecap:square;stroke-opacity:0.5;stroke-width:0.8;"/>
     </g>
    </g>
    <g id="ytick_58">
     <g id="line2d_105">
      <path clip-path="url(#p8a9d7f5920)" d="M 167.25625 279.197021 
L 294.09625 279.197021 
" style="fill:none;stroke:#d3d3d3;stroke-linecap:square;stroke-opacity:0.5;stroke-width:0.8;"/>
     </g>
    </g>
    <g id="ytick_59">
     <g id="line2d_106">
      <path clip-path="url(#p8a9d7f5920)" d="M 167.25625 257.46443 
L 294.09625 257.46443 
" style="fill:none;stroke:#d3d3d3;stroke-linecap:square;stroke-opacity:0.5;stroke-width:0.8;"/>
     </g>
    </g>
    <g id="ytick_60">
     <g id="line2d_107">
      <path clip-path="url(#p8a9d7f5920)" d="M 167.25625 235.73184 
L 294.09625 235.73184 
" style="fill:none;stroke:#d3d3d3;stroke-linecap:square;stroke-opacity:0.5;stroke-width:0.8;"/>
     </g>
    </g>
    <g id="ytick_61">
     <g id="line2d_108">
      <path d="M 167.25625 290.063316 
" style="fill:none;stroke:#000000;stroke-linecap:square;stroke-width:1.5;"/>
      <g>
       <use style="stroke:#000000;" x="167.25625" xlink:href="#m9c93c578e3" y="290.063316"/>
      </g>
     </g>
    </g>
    <g id="ytick_62">
     <g id="line2d_109">
      <path d="M 167.25625 268.330726 
" style="fill:none;stroke:#000000;stroke-linecap:square;stroke-width:1.5;"/>
      <g>
       <use style="stroke:#000000;" x="167.25625" xlink:href="#m9c93c578e3" y="268.330726"/>
      </g>
     </g>
    </g>
    <g id="ytick_63">
     <g id="line2d_110">
      <path d="M 167.25625 246.598135 
" style="fill:none;stroke:#000000;stroke-linecap:square;stroke-width:1.5;"/>
      <g>
       <use style="stroke:#000000;" x="167.25625" xlink:href="#m9c93c578e3" y="246.598135"/>
      </g>
     </g>
    </g>
    <g id="ytick_64">
     <g id="line2d_111">
      <path d="M 167.25625 224.865545 
" style="fill:none;stroke:#000000;stroke-linecap:square;stroke-width:1.5;"/>
      <g>
       <use style="stroke:#000000;" x="167.25625" xlink:href="#m9c93c578e3" y="224.865545"/>
      </g>
     </g>
    </g>
   </g>
   <g id="line2d_112">
    <path clip-path="url(#p8a9d7f5920)" d="M 189.494432 252.008072 
L 205.967159 252.489975 
L 222.439886 262.154344 
L 238.912614 270.099148 
L 255.385341 277.458467 
L 271.858068 285.349619 
L 288.330795 283.2459 
" style="fill:none;stroke:#67a9cf;stroke-width:2.658681;"/>
   </g>
   <g id="PolyCollection_17">
    <path clip-path="url(#p8a9d7f5920)" d="M 189.494432 244.929512 
L 189.494432 259.086632 
L 205.967159 259.589074 
L 222.439886 269.908905 
L 238.912614 277.821973 
L 255.385341 284.839294 
L 271.858068 289.885143 
L 288.330795 289.169319 
L 288.330795 277.322482 
L 288.330795 277.322482 
L 271.858068 280.814095 
L 255.385341 270.077639 
L 238.912614 262.376323 
L 222.439886 254.399783 
L 205.967159 245.390877 
L 189.494432 244.929512 
z
" style="fill:#67a9cf;fill-opacity:0.298039;"/>
   </g>
   <g id="patch_33">
    <path d="M 167.25625 304.4 
L 167.25625 215.36 
" style="fill:none;stroke:#000000;stroke-linecap:square;stroke-linejoin:miter;"/>
   </g>
   <g id="patch_34">
    <path d="M 167.25625 304.4 
L 294.09625 304.4 
" style="fill:none;stroke:#000000;stroke-linecap:square;stroke-linejoin:miter;"/>
   </g>
  </g>
  <g id="axes_9">
   <g id="patch_35">
    <path d="M 299.13625 304.4 
L 425.97625 304.4 
L 425.97625 215.36 
L 299.13625 215.36 
z
" style="fill:#ffffff;"/>
   </g>
   <g id="matplotlib.axis_17">
    <g id="xtick_121">
     <g id="line2d_113">
      <path d="M 304.901705 304.4 
" style="fill:none;stroke:#000000;stroke-linecap:square;stroke-width:1.5;"/>
      <g>
       <use style="stroke:#000000;" x="304.901705" xlink:href="#m2713dda2f5" y="304.4"/>
      </g>
     </g>
     <g id="text_39">
      <!-- 0 -->
      <g style="fill:#4d4d4d;" transform="translate(302.03858 316.638594)scale(0.09 -0.09)">
       <use xlink:href="#DejaVuSans-48"/>
      </g>
     </g>
    </g>
    <g id="xtick_122">
     <g id="line2d_114">
      <path d="M 321.374432 304.4 
" style="fill:none;stroke:#000000;stroke-linecap:square;stroke-width:1.5;"/>
      <g>
       <use style="stroke:#000000;" x="321.374432" xlink:href="#m2713dda2f5" y="304.4"/>
      </g>
     </g>
     <g id="text_40">
      <!-- 1 -->
      <g style="fill:#4d4d4d;" transform="translate(318.511307 316.638594)scale(0.09 -0.09)">
       <use xlink:href="#DejaVuSans-49"/>
      </g>
     </g>
    </g>
    <g id="xtick_123">
     <g id="line2d_115">
      <path d="M 337.847159 304.4 
" style="fill:none;stroke:#000000;stroke-linecap:square;stroke-width:1.5;"/>
      <g>
       <use style="stroke:#000000;" x="337.847159" xlink:href="#m2713dda2f5" y="304.4"/>
      </g>
     </g>
     <g id="text_41">
      <!-- 2 -->
      <g style="fill:#4d4d4d;" transform="translate(334.984034 316.638594)scale(0.09 -0.09)">
       <use xlink:href="#DejaVuSans-50"/>
      </g>
     </g>
    </g>
    <g id="xtick_124">
     <g id="line2d_116">
      <path d="M 354.319886 304.4 
" style="fill:none;stroke:#000000;stroke-linecap:square;stroke-width:1.5;"/>
      <g>
       <use style="stroke:#000000;" x="354.319886" xlink:href="#m2713dda2f5" y="304.4"/>
      </g>
     </g>
     <g id="text_42">
      <!-- 3 -->
      <g style="fill:#4d4d4d;" transform="translate(351.456761 316.638594)scale(0.09 -0.09)">
       <use xlink:href="#DejaVuSans-51"/>
      </g>
     </g>
    </g>
    <g id="xtick_125">
     <g id="line2d_117">
      <path d="M 370.792614 304.4 
" style="fill:none;stroke:#000000;stroke-linecap:square;stroke-width:1.5;"/>
      <g>
       <use style="stroke:#000000;" x="370.792614" xlink:href="#m2713dda2f5" y="304.4"/>
      </g>
     </g>
     <g id="text_43">
      <!-- 4 -->
      <g style="fill:#4d4d4d;" transform="translate(367.929489 316.638594)scale(0.09 -0.09)">
       <use xlink:href="#DejaVuSans-52"/>
      </g>
     </g>
    </g>
    <g id="xtick_126">
     <g id="line2d_118">
      <path d="M 387.265341 304.4 
" style="fill:none;stroke:#000000;stroke-linecap:square;stroke-width:1.5;"/>
      <g>
       <use style="stroke:#000000;" x="387.265341" xlink:href="#m2713dda2f5" y="304.4"/>
      </g>
     </g>
     <g id="text_44">
      <!-- 5 -->
      <g style="fill:#4d4d4d;" transform="translate(384.402216 316.638594)scale(0.09 -0.09)">
       <use xlink:href="#DejaVuSans-53"/>
      </g>
     </g>
    </g>
    <g id="xtick_127">
     <g id="line2d_119">
      <path d="M 403.738068 304.4 
" style="fill:none;stroke:#000000;stroke-linecap:square;stroke-width:1.5;"/>
      <g>
       <use style="stroke:#000000;" x="403.738068" xlink:href="#m2713dda2f5" y="304.4"/>
      </g>
     </g>
     <g id="text_45">
      <!-- 6 -->
      <g style="fill:#4d4d4d;" transform="translate(400.874943 316.638594)scale(0.09 -0.09)">
       <use xlink:href="#DejaVuSans-54"/>
      </g>
     </g>
    </g>
    <g id="xtick_128">
     <g id="line2d_120">
      <path d="M 420.210795 304.4 
" style="fill:none;stroke:#000000;stroke-linecap:square;stroke-width:1.5;"/>
      <g>
       <use style="stroke:#000000;" x="420.210795" xlink:href="#m2713dda2f5" y="304.4"/>
      </g>
     </g>
     <g id="text_46">
      <!-- 7 -->
      <g style="fill:#4d4d4d;" transform="translate(417.34767 316.638594)scale(0.09 -0.09)">
       <use xlink:href="#DejaVuSans-55"/>
      </g>
     </g>
    </g>
    <g id="xtick_129"/>
    <g id="xtick_130"/>
    <g id="xtick_131"/>
    <g id="xtick_132"/>
    <g id="xtick_133"/>
    <g id="xtick_134"/>
    <g id="xtick_135"/>
    <g id="text_47">
     <!-- Age (days) -->
     <defs>
      <path d="M 31 75.875 
Q 24.46875 64.65625 21.28125 53.65625 
Q 18.109375 42.671875 18.109375 31.390625 
Q 18.109375 20.125 21.3125 9.0625 
Q 24.515625 -2 31 -13.1875 
L 23.1875 -13.1875 
Q 15.875 -1.703125 12.234375 9.375 
Q 8.59375 20.453125 8.59375 31.390625 
Q 8.59375 42.28125 12.203125 53.3125 
Q 15.828125 64.359375 23.1875 75.875 
z
" id="DejaVuSans-40"/>
      <path d="M 8.015625 75.875 
L 15.828125 75.875 
Q 23.140625 64.359375 26.78125 53.3125 
Q 30.421875 42.28125 30.421875 31.390625 
Q 30.421875 20.453125 26.78125 9.375 
Q 23.140625 -1.703125 15.828125 -13.1875 
L 8.015625 -13.1875 
Q 14.5 -2 17.703125 9.0625 
Q 20.90625 20.125 20.90625 31.390625 
Q 20.90625 42.671875 17.703125 53.65625 
Q 14.5 64.65625 8.015625 75.875 
z
" id="DejaVuSans-41"/>
     </defs>
     <g transform="translate(192.019375 332.428437)scale(0.12 -0.12)">
      <use xlink:href="#DejaVuSans-65"/>
      <use x="68.408203" xlink:href="#DejaVuSans-103"/>
      <use x="131.884766" xlink:href="#DejaVuSans-101"/>
      <use x="193.408203" xlink:href="#DejaVuSans-32"/>
      <use x="225.195312" xlink:href="#DejaVuSans-40"/>
      <use x="264.208984" xlink:href="#DejaVuSans-100"/>
      <use x="327.685547" xlink:href="#DejaVuSans-97"/>
      <use x="388.964844" xlink:href="#DejaVuSans-121"/>
      <use x="448.144531" xlink:href="#DejaVuSans-115"/>
      <use x="500.244141" xlink:href="#DejaVuSans-41"/>
     </g>
    </g>
   </g>
   <g id="matplotlib.axis_18">
    <g id="ytick_65">
     <g id="line2d_121">
      <path clip-path="url(#p61cbe84a69)" d="M 299.13625 300.929611 
L 425.97625 300.929611 
" style="fill:none;stroke:#d3d3d3;stroke-linecap:square;stroke-opacity:0.5;stroke-width:0.8;"/>
     </g>
    </g>
    <g id="ytick_66">
     <g id="line2d_122">
      <path clip-path="url(#p61cbe84a69)" d="M 299.13625 279.197021 
L 425.97625 279.197021 
" style="fill:none;stroke:#d3d3d3;stroke-linecap:square;stroke-opacity:0.5;stroke-width:0.8;"/>
     </g>
    </g>
    <g id="ytick_67">
     <g id="line2d_123">
      <path clip-path="url(#p61cbe84a69)" d="M 299.13625 257.46443 
L 425.97625 257.46443 
" style="fill:none;stroke:#d3d3d3;stroke-linecap:square;stroke-opacity:0.5;stroke-width:0.8;"/>
     </g>
    </g>
    <g id="ytick_68">
     <g id="line2d_124">
      <path clip-path="url(#p61cbe84a69)" d="M 299.13625 235.73184 
L 425.97625 235.73184 
" style="fill:none;stroke:#d3d3d3;stroke-linecap:square;stroke-opacity:0.5;stroke-width:0.8;"/>
     </g>
    </g>
    <g id="ytick_69">
     <g id="line2d_125">
      <path d="M 299.13625 290.063316 
" style="fill:none;stroke:#000000;stroke-linecap:square;stroke-width:1.5;"/>
      <g>
       <use style="stroke:#000000;" x="299.13625" xlink:href="#m9c93c578e3" y="290.063316"/>
      </g>
     </g>
    </g>
    <g id="ytick_70">
     <g id="line2d_126">
      <path d="M 299.13625 268.330726 
" style="fill:none;stroke:#000000;stroke-linecap:square;stroke-width:1.5;"/>
      <g>
       <use style="stroke:#000000;" x="299.13625" xlink:href="#m9c93c578e3" y="268.330726"/>
      </g>
     </g>
    </g>
    <g id="ytick_71">
     <g id="line2d_127">
      <path d="M 299.13625 246.598135 
" style="fill:none;stroke:#000000;stroke-linecap:square;stroke-width:1.5;"/>
      <g>
       <use style="stroke:#000000;" x="299.13625" xlink:href="#m9c93c578e3" y="246.598135"/>
      </g>
     </g>
    </g>
    <g id="ytick_72">
     <g id="line2d_128">
      <path d="M 299.13625 224.865545 
" style="fill:none;stroke:#000000;stroke-linecap:square;stroke-width:1.5;"/>
      <g>
       <use style="stroke:#000000;" x="299.13625" xlink:href="#m9c93c578e3" y="224.865545"/>
      </g>
     </g>
    </g>
   </g>
   <g id="line2d_129">
    <path clip-path="url(#p61cbe84a69)" d="M 304.901705 270.445311 
L 321.374432 265.061103 
L 337.847159 267.182811 
L 354.319886 279.92017 
L 370.792614 289.120233 
L 387.265341 293.614622 
L 403.738068 290.475537 
L 420.210795 288.399526 
" style="fill:none;stroke:#67a9cf;stroke-width:2.658681;"/>
   </g>
   <g id="PolyCollection_18">
    <path clip-path="url(#p61cbe84a69)" d="M 304.901705 259.880987 
L 304.901705 281.009635 
L 321.374432 271.885617 
L 337.847159 274.049899 
L 354.319886 284.981505 
L 370.792614 291.943262 
L 387.265341 295.658279 
L 403.738068 293.699906 
L 420.210795 292.242789 
L 420.210795 284.556264 
L 420.210795 284.556264 
L 403.738068 287.251168 
L 387.265341 291.570965 
L 370.792614 286.297204 
L 354.319886 274.858835 
L 337.847159 260.315723 
L 321.374432 258.236589 
L 304.901705 259.880987 
z
" style="fill:#67a9cf;fill-opacity:0.298039;"/>
   </g>
   <g id="patch_36">
    <path d="M 425.97625 304.4 
L 441.97625 304.4 
L 441.97625 215.36 
L 425.97625 215.36 
z
" style="fill:none;stroke:#000000;stroke-linejoin:miter;"/>
   </g>
   <g id="patch_37">
    <path d="M 299.13625 304.4 
L 299.13625 215.36 
" style="fill:none;stroke:#000000;stroke-linecap:square;stroke-linejoin:miter;"/>
   </g>
   <g id="patch_38">
    <path d="M 299.13625 304.4 
L 425.97625 304.4 
" style="fill:none;stroke:#000000;stroke-linecap:square;stroke-linejoin:miter;"/>
   </g>
   <g id="text_48">
    <!-- VLBW-C-section -->
    <defs>
     <path d="M 19.671875 34.8125 
L 19.671875 8.109375 
L 35.5 8.109375 
Q 43.453125 8.109375 47.28125 11.40625 
Q 51.125 14.703125 51.125 21.484375 
Q 51.125 28.328125 47.28125 31.5625 
Q 43.453125 34.8125 35.5 34.8125 
z
M 19.671875 64.796875 
L 19.671875 42.828125 
L 34.28125 42.828125 
Q 41.5 42.828125 45.03125 45.53125 
Q 48.578125 48.25 48.578125 53.8125 
Q 48.578125 59.328125 45.03125 62.0625 
Q 41.5 64.796875 34.28125 64.796875 
z
M 9.8125 72.90625 
L 35.015625 72.90625 
Q 46.296875 72.90625 52.390625 68.21875 
Q 58.5 63.53125 58.5 54.890625 
Q 58.5 48.1875 55.375 44.234375 
Q 52.25 40.28125 46.1875 39.3125 
Q 53.46875 37.75 57.5 32.78125 
Q 61.53125 27.828125 61.53125 20.40625 
Q 61.53125 10.640625 54.890625 5.3125 
Q 48.25 0 35.984375 0 
L 9.8125 0 
z
" id="DejaVuSans-66"/>
     <path d="M 3.328125 72.90625 
L 13.28125 72.90625 
L 28.609375 11.28125 
L 43.890625 72.90625 
L 54.984375 72.90625 
L 70.3125 11.28125 
L 85.59375 72.90625 
L 95.609375 72.90625 
L 77.296875 0 
L 64.890625 0 
L 49.515625 63.28125 
L 33.984375 0 
L 21.578125 0 
z
" id="DejaVuSans-87"/>
    </defs>
    <g style="fill:#1a1a1a;" transform="translate(431.216875 220.197969)rotate(-270)scale(0.1 -0.1)">
     <use xlink:href="#DejaVuSans-86"/>
     <use x="68.408203" xlink:href="#DejaVuSans-76"/>
     <use x="124.121094" xlink:href="#DejaVuSans-66"/>
     <use x="192.677734" xlink:href="#DejaVuSans-87"/>
     <use x="291.492188" xlink:href="#DejaVuSans-45"/>
     <use x="327.576172" xlink:href="#DejaVuSans-67"/>
     <use x="397.400391" xlink:href="#DejaVuSans-45"/>
     <use x="433.484375" xlink:href="#DejaVuSans-115"/>
     <use x="485.583984" xlink:href="#DejaVuSans-101"/>
     <use x="547.107422" xlink:href="#DejaVuSans-99"/>
     <use x="602.087891" xlink:href="#DejaVuSans-116"/>
     <use x="641.296875" xlink:href="#DejaVuSans-105"/>
     <use x="669.080078" xlink:href="#DejaVuSans-111"/>
     <use x="730.261719" xlink:href="#DejaVuSans-110"/>
    </g>
   </g>
  </g>
 </g>
 <defs>
  <clipPath id="p2cd8f2bb53">
   <rect height="89.04" width="126.84" x="35.37625" y="27.2"/>
  </clipPath>
  <clipPath id="pad32a78ba6">
   <path d="M 461.57625 166.917844 
L 461.57625 149.637844 
L 478.85625 149.637844 
L 478.85625 166.917844 
"/>
  </clipPath>
  <clipPath id="p9f05fa4c8a">
   <path d="M 461.57625 186.197844 
L 461.57625 168.917844 
L 478.85625 168.917844 
L 478.85625 186.197844 
"/>
  </clipPath>
  <clipPath id="p52b6083cf7">
   <path d="M 461.57625 205.477844 
L 461.57625 188.197844 
L 478.85625 188.197844 
L 478.85625 205.477844 
"/>
  </clipPath>
  <clipPath id="p845ded2f33">
   <rect height="89.04" width="126.84" x="167.25625" y="27.2"/>
  </clipPath>
  <clipPath id="p81adad8785">
   <rect height="89.04" width="126.84" x="299.13625" y="27.2"/>
  </clipPath>
  <clipPath id="p702d335abf">
   <rect height="89.04" width="126.84" x="35.37625" y="121.28"/>
  </clipPath>
  <clipPath id="p699f3f5d50">
   <rect height="89.04" width="126.84" x="167.25625" y="121.28"/>
  </clipPath>
  <clipPath id="pfab165e271">
   <rect height="89.04" width="126.84" x="299.13625" y="121.28"/>
  </clipPath>
  <clipPath id="p737c07382e">
   <rect height="89.04" width="126.84" x="35.37625" y="215.36"/>
  </clipPath>
  <clipPath id="p8a9d7f5920">
   <rect height="89.04" width="126.84" x="167.25625" y="215.36"/>
  </clipPath>
  <clipPath id="p61cbe84a69">
   <rect height="89.04" width="126.84" x="299.13625" y="215.36"/>
  </clipPath>
 </defs>
</svg>
