<?xml version="1.0" encoding="utf-8" standalone="no"?>
<!DOCTYPE svg PUBLIC "-//W3C//DTD SVG 1.1//EN"
  "http://www.w3.org/Graphics/SVG/1.1/DTD/svg11.dtd">
<!-- Created with matplotlib (https://matplotlib.org/) -->
<svg height="350.42475pt" version="1.1" viewBox="0 0 351.941 350.42475" width="351.941pt" xmlns="http://www.w3.org/2000/svg" xmlns:xlink="http://www.w3.org/1999/xlink">
 <defs>
  <style type="text/css">
*{stroke-linecap:butt;stroke-linejoin:round;}
  </style>
 </defs>
 <g id="figure_1">
  <g id="patch_1">
   <path d="M 0 350.42475 
L 351.941 350.42475 
L 351.941 0 
L 0 0 
z
" style="fill:#ffffff;stroke:#ffffff;stroke-linejoin:miter;"/>
  </g>
  <g id="axes_1">
   <g id="patch_2">
    <path d="M 41.22975 105.48 
L 180.72975 105.48 
L 180.72975 7.2 
L 41.22975 7.2 
z
" style="fill:#ffffff;"/>
   </g>
   <g id="matplotlib.axis_1">
    <g id="xtick_1"/>
    <g id="xtick_2"/>
    <g id="xtick_3"/>
    <g id="xtick_4"/>
    <g id="xtick_5"/>
    <g id="xtick_6"/>
    <g id="xtick_7"/>
    <g id="xtick_8"/>
    <g id="xtick_9"/>
    <g id="xtick_10"/>
    <g id="xtick_11"/>
    <g id="xtick_12"/>
    <g id="xtick_13"/>
    <g id="xtick_14"/>
    <g id="xtick_15"/>
   </g>
   <g id="matplotlib.axis_2">
    <g id="ytick_1">
     <g id="line2d_1">
      <path clip-path="url(#pf7d52706d2)" d="M 41.22975 102.282771 
L 180.72975 102.282771 
" style="fill:none;stroke:#d3d3d3;stroke-opacity:0.5;stroke-width:0.8;"/>
     </g>
     <g id="line2d_2">
      <path d="M 41.22975 102.282771 
" style="fill:none;stroke:#000000;stroke-width:1.5;"/>
      <defs>
       <path d="M 0 0 
L -3 0 
" id="mdcd7f64375" style="stroke:#000000;"/>
      </defs>
      <g>
       <use style="stroke:#000000;" x="41.22975" xlink:href="#mdcd7f64375" y="102.282771"/>
      </g>
     </g>
     <g id="text_1">
      <!-- 0 -->
      <defs>
       <path d="M 31.78125 66.40625 
Q 24.171875 66.40625 20.328125 58.90625 
Q 16.5 51.421875 16.5 36.375 
Q 16.5 21.390625 20.328125 13.890625 
Q 24.171875 6.390625 31.78125 6.390625 
Q 39.453125 6.390625 43.28125 13.890625 
Q 47.125 21.390625 47.125 36.375 
Q 47.125 51.421875 43.28125 58.90625 
Q 39.453125 66.40625 31.78125 66.40625 
z
M 31.78125 74.21875 
Q 44.046875 74.21875 50.515625 64.515625 
Q 56.984375 54.828125 56.984375 36.375 
Q 56.984375 17.96875 50.515625 8.265625 
Q 44.046875 -1.421875 31.78125 -1.421875 
Q 19.53125 -1.421875 13.0625 8.265625 
Q 6.59375 17.96875 6.59375 36.375 
Q 6.59375 54.828125 13.0625 64.515625 
Q 19.53125 74.21875 31.78125 74.21875 
z
" id="DejaVuSans-48"/>
      </defs>
      <g style="fill:#4d4d4d;" transform="translate(29.72175 104.931771)scale(0.096 -0.096)">
       <use xlink:href="#DejaVuSans-48"/>
      </g>
     </g>
    </g>
    <g id="ytick_2">
     <g id="line2d_3">
      <path clip-path="url(#pf7d52706d2)" d="M 41.22975 77.823651 
L 180.72975 77.823651 
" style="fill:none;stroke:#d3d3d3;stroke-opacity:0.5;stroke-width:0.8;"/>
     </g>
     <g id="line2d_4">
      <path d="M 41.22975 77.823651 
" style="fill:none;stroke:#000000;stroke-width:1.5;"/>
      <g>
       <use style="stroke:#000000;" x="41.22975" xlink:href="#mdcd7f64375" y="77.823651"/>
      </g>
     </g>
     <g id="text_2">
      <!-- 5 -->
      <defs>
       <path d="M 10.796875 72.90625 
L 49.515625 72.90625 
L 49.515625 64.59375 
L 19.828125 64.59375 
L 19.828125 46.734375 
Q 21.96875 47.46875 24.109375 47.828125 
Q 26.265625 48.1875 28.421875 48.1875 
Q 40.625 48.1875 47.75 41.5 
Q 54.890625 34.8125 54.890625 23.390625 
Q 54.890625 11.625 47.5625 5.09375 
Q 40.234375 -1.421875 26.90625 -1.421875 
Q 22.3125 -1.421875 17.546875 -0.640625 
Q 12.796875 0.140625 7.71875 1.703125 
L 7.71875 11.625 
Q 12.109375 9.234375 16.796875 8.0625 
Q 21.484375 6.890625 26.703125 6.890625 
Q 35.15625 6.890625 40.078125 11.328125 
Q 45.015625 15.765625 45.015625 23.390625 
Q 45.015625 31 40.078125 35.4375 
Q 35.15625 39.890625 26.703125 39.890625 
Q 22.75 39.890625 18.8125 39.015625 
Q 14.890625 38.140625 10.796875 36.28125 
z
" id="DejaVuSans-53"/>
      </defs>
      <g style="fill:#4d4d4d;" transform="translate(29.72175 80.472651)scale(0.096 -0.096)">
       <use xlink:href="#DejaVuSans-53"/>
      </g>
     </g>
    </g>
    <g id="ytick_3">
     <g id="line2d_5">
      <path clip-path="url(#pf7d52706d2)" d="M 41.22975 53.364532 
L 180.72975 53.364532 
" style="fill:none;stroke:#d3d3d3;stroke-opacity:0.5;stroke-width:0.8;"/>
     </g>
     <g id="line2d_6">
      <path d="M 41.22975 53.364532 
" style="fill:none;stroke:#000000;stroke-width:1.5;"/>
      <g>
       <use style="stroke:#000000;" x="41.22975" xlink:href="#mdcd7f64375" y="53.364532"/>
      </g>
     </g>
     <g id="text_3">
      <!-- 10 -->
      <defs>
       <path d="M 12.40625 8.296875 
L 28.515625 8.296875 
L 28.515625 63.921875 
L 10.984375 60.40625 
L 10.984375 69.390625 
L 28.421875 72.90625 
L 38.28125 72.90625 
L 38.28125 8.296875 
L 54.390625 8.296875 
L 54.390625 0 
L 12.40625 0 
z
" id="DejaVuSans-49"/>
      </defs>
      <g style="fill:#4d4d4d;" transform="translate(23.61375 56.013532)scale(0.096 -0.096)">
       <use xlink:href="#DejaVuSans-49"/>
       <use x="63.623047" xlink:href="#DejaVuSans-48"/>
      </g>
     </g>
    </g>
    <g id="ytick_4">
     <g id="line2d_7">
      <path clip-path="url(#pf7d52706d2)" d="M 41.22975 28.905412 
L 180.72975 28.905412 
" style="fill:none;stroke:#d3d3d3;stroke-opacity:0.5;stroke-width:0.8;"/>
     </g>
     <g id="line2d_8">
      <path d="M 41.22975 28.905412 
" style="fill:none;stroke:#000000;stroke-width:1.5;"/>
      <g>
       <use style="stroke:#000000;" x="41.22975" xlink:href="#mdcd7f64375" y="28.905412"/>
      </g>
     </g>
     <g id="text_4">
      <!-- 15 -->
      <g style="fill:#4d4d4d;" transform="translate(23.61375 31.554412)scale(0.096 -0.096)">
       <use xlink:href="#DejaVuSans-49"/>
       <use x="63.623047" xlink:href="#DejaVuSans-53"/>
      </g>
     </g>
    </g>
    <g id="ytick_5">
     <g id="line2d_9">
      <path d="M 41.22975 90.053211 
" style="fill:none;stroke:#000000;stroke-width:1.5;"/>
      <defs>
       <path d="M 0 0 
L -1.5 0 
" id="m24a6fd0417" style="stroke:#000000;"/>
      </defs>
      <g>
       <use style="stroke:#000000;" x="41.22975" xlink:href="#m24a6fd0417" y="90.053211"/>
      </g>
     </g>
    </g>
    <g id="ytick_6">
     <g id="line2d_10">
      <path d="M 41.22975 65.594091 
" style="fill:none;stroke:#000000;stroke-width:1.5;"/>
      <g>
       <use style="stroke:#000000;" x="41.22975" xlink:href="#m24a6fd0417" y="65.594091"/>
      </g>
     </g>
    </g>
    <g id="ytick_7">
     <g id="line2d_11">
      <path d="M 41.22975 41.134972 
" style="fill:none;stroke:#000000;stroke-width:1.5;"/>
      <g>
       <use style="stroke:#000000;" x="41.22975" xlink:href="#m24a6fd0417" y="41.134972"/>
      </g>
     </g>
    </g>
    <g id="ytick_8">
     <g id="line2d_12">
      <path d="M 41.22975 16.675852 
" style="fill:none;stroke:#000000;stroke-width:1.5;"/>
      <g>
       <use style="stroke:#000000;" x="41.22975" xlink:href="#m24a6fd0417" y="16.675852"/>
      </g>
     </g>
    </g>
    <g id="text_5">
     <!-- PERMANOVA pseudo-F -->
     <defs>
      <path d="M 19.671875 64.796875 
L 19.671875 37.40625 
L 32.078125 37.40625 
Q 38.96875 37.40625 42.71875 40.96875 
Q 46.484375 44.53125 46.484375 51.125 
Q 46.484375 57.671875 42.71875 61.234375 
Q 38.96875 64.796875 32.078125 64.796875 
z
M 9.8125 72.90625 
L 32.078125 72.90625 
Q 44.34375 72.90625 50.609375 67.359375 
Q 56.890625 61.8125 56.890625 51.125 
Q 56.890625 40.328125 50.609375 34.8125 
Q 44.34375 29.296875 32.078125 29.296875 
L 19.671875 29.296875 
L 19.671875 0 
L 9.8125 0 
z
" id="DejaVuSans-80"/>
      <path d="M 9.8125 72.90625 
L 55.90625 72.90625 
L 55.90625 64.59375 
L 19.671875 64.59375 
L 19.671875 43.015625 
L 54.390625 43.015625 
L 54.390625 34.71875 
L 19.671875 34.71875 
L 19.671875 8.296875 
L 56.78125 8.296875 
L 56.78125 0 
L 9.8125 0 
z
" id="DejaVuSans-69"/>
      <path d="M 44.390625 34.1875 
Q 47.5625 33.109375 50.5625 29.59375 
Q 53.5625 26.078125 56.59375 19.921875 
L 66.609375 0 
L 56 0 
L 46.6875 18.703125 
Q 43.0625 26.03125 39.671875 28.421875 
Q 36.28125 30.8125 30.421875 30.8125 
L 19.671875 30.8125 
L 19.671875 0 
L 9.8125 0 
L 9.8125 72.90625 
L 32.078125 72.90625 
Q 44.578125 72.90625 50.734375 67.671875 
Q 56.890625 62.453125 56.890625 51.90625 
Q 56.890625 45.015625 53.6875 40.46875 
Q 50.484375 35.9375 44.390625 34.1875 
z
M 19.671875 64.796875 
L 19.671875 38.921875 
L 32.078125 38.921875 
Q 39.203125 38.921875 42.84375 42.21875 
Q 46.484375 45.515625 46.484375 51.90625 
Q 46.484375 58.296875 42.84375 61.546875 
Q 39.203125 64.796875 32.078125 64.796875 
z
" id="DejaVuSans-82"/>
      <path d="M 9.8125 72.90625 
L 24.515625 72.90625 
L 43.109375 23.296875 
L 61.8125 72.90625 
L 76.515625 72.90625 
L 76.515625 0 
L 66.890625 0 
L 66.890625 64.015625 
L 48.09375 14.015625 
L 38.1875 14.015625 
L 19.390625 64.015625 
L 19.390625 0 
L 9.8125 0 
z
" id="DejaVuSans-77"/>
      <path d="M 34.1875 63.1875 
L 20.796875 26.90625 
L 47.609375 26.90625 
z
M 28.609375 72.90625 
L 39.796875 72.90625 
L 67.578125 0 
L 57.328125 0 
L 50.6875 18.703125 
L 17.828125 18.703125 
L 11.1875 0 
L 0.78125 0 
z
" id="DejaVuSans-65"/>
      <path d="M 9.8125 72.90625 
L 23.09375 72.90625 
L 55.421875 11.921875 
L 55.421875 72.90625 
L 64.984375 72.90625 
L 64.984375 0 
L 51.703125 0 
L 19.390625 60.984375 
L 19.390625 0 
L 9.8125 0 
z
" id="DejaVuSans-78"/>
      <path d="M 39.40625 66.21875 
Q 28.65625 66.21875 22.328125 58.203125 
Q 16.015625 50.203125 16.015625 36.375 
Q 16.015625 22.609375 22.328125 14.59375 
Q 28.65625 6.59375 39.40625 6.59375 
Q 50.140625 6.59375 56.421875 14.59375 
Q 62.703125 22.609375 62.703125 36.375 
Q 62.703125 50.203125 56.421875 58.203125 
Q 50.140625 66.21875 39.40625 66.21875 
z
M 39.40625 74.21875 
Q 54.734375 74.21875 63.90625 63.9375 
Q 73.09375 53.65625 73.09375 36.375 
Q 73.09375 19.140625 63.90625 8.859375 
Q 54.734375 -1.421875 39.40625 -1.421875 
Q 24.03125 -1.421875 14.8125 8.828125 
Q 5.609375 19.09375 5.609375 36.375 
Q 5.609375 53.65625 14.8125 63.9375 
Q 24.03125 74.21875 39.40625 74.21875 
z
" id="DejaVuSans-79"/>
      <path d="M 28.609375 0 
L 0.78125 72.90625 
L 11.078125 72.90625 
L 34.1875 11.53125 
L 57.328125 72.90625 
L 67.578125 72.90625 
L 39.796875 0 
z
" id="DejaVuSans-86"/>
      <path id="DejaVuSans-32"/>
      <path d="M 18.109375 8.203125 
L 18.109375 -20.796875 
L 9.078125 -20.796875 
L 9.078125 54.6875 
L 18.109375 54.6875 
L 18.109375 46.390625 
Q 20.953125 51.265625 25.265625 53.625 
Q 29.59375 56 35.59375 56 
Q 45.5625 56 51.78125 48.09375 
Q 58.015625 40.1875 58.015625 27.296875 
Q 58.015625 14.40625 51.78125 6.484375 
Q 45.5625 -1.421875 35.59375 -1.421875 
Q 29.59375 -1.421875 25.265625 0.953125 
Q 20.953125 3.328125 18.109375 8.203125 
z
M 48.6875 27.296875 
Q 48.6875 37.203125 44.609375 42.84375 
Q 40.53125 48.484375 33.40625 48.484375 
Q 26.265625 48.484375 22.1875 42.84375 
Q 18.109375 37.203125 18.109375 27.296875 
Q 18.109375 17.390625 22.1875 11.75 
Q 26.265625 6.109375 33.40625 6.109375 
Q 40.53125 6.109375 44.609375 11.75 
Q 48.6875 17.390625 48.6875 27.296875 
z
" id="DejaVuSans-112"/>
      <path d="M 44.28125 53.078125 
L 44.28125 44.578125 
Q 40.484375 46.53125 36.375 47.5 
Q 32.28125 48.484375 27.875 48.484375 
Q 21.1875 48.484375 17.84375 46.4375 
Q 14.5 44.390625 14.5 40.28125 
Q 14.5 37.15625 16.890625 35.375 
Q 19.28125 33.59375 26.515625 31.984375 
L 29.59375 31.296875 
Q 39.15625 29.25 43.1875 25.515625 
Q 47.21875 21.78125 47.21875 15.09375 
Q 47.21875 7.46875 41.1875 3.015625 
Q 35.15625 -1.421875 24.609375 -1.421875 
Q 20.21875 -1.421875 15.453125 -0.5625 
Q 10.6875 0.296875 5.421875 2 
L 5.421875 11.28125 
Q 10.40625 8.6875 15.234375 7.390625 
Q 20.0625 6.109375 24.8125 6.109375 
Q 31.15625 6.109375 34.5625 8.28125 
Q 37.984375 10.453125 37.984375 14.40625 
Q 37.984375 18.0625 35.515625 20.015625 
Q 33.0625 21.96875 24.703125 23.78125 
L 21.578125 24.515625 
Q 13.234375 26.265625 9.515625 29.90625 
Q 5.8125 33.546875 5.8125 39.890625 
Q 5.8125 47.609375 11.28125 51.796875 
Q 16.75 56 26.8125 56 
Q 31.78125 56 36.171875 55.265625 
Q 40.578125 54.546875 44.28125 53.078125 
z
" id="DejaVuSans-115"/>
      <path d="M 56.203125 29.59375 
L 56.203125 25.203125 
L 14.890625 25.203125 
Q 15.484375 15.921875 20.484375 11.0625 
Q 25.484375 6.203125 34.421875 6.203125 
Q 39.59375 6.203125 44.453125 7.46875 
Q 49.3125 8.734375 54.109375 11.28125 
L 54.109375 2.78125 
Q 49.265625 0.734375 44.1875 -0.34375 
Q 39.109375 -1.421875 33.890625 -1.421875 
Q 20.796875 -1.421875 13.15625 6.1875 
Q 5.515625 13.8125 5.515625 26.8125 
Q 5.515625 40.234375 12.765625 48.109375 
Q 20.015625 56 32.328125 56 
Q 43.359375 56 49.78125 48.890625 
Q 56.203125 41.796875 56.203125 29.59375 
z
M 47.21875 32.234375 
Q 47.125 39.59375 43.09375 43.984375 
Q 39.0625 48.390625 32.421875 48.390625 
Q 24.90625 48.390625 20.390625 44.140625 
Q 15.875 39.890625 15.1875 32.171875 
z
" id="DejaVuSans-101"/>
      <path d="M 8.5 21.578125 
L 8.5 54.6875 
L 17.484375 54.6875 
L 17.484375 21.921875 
Q 17.484375 14.15625 20.5 10.265625 
Q 23.53125 6.390625 29.59375 6.390625 
Q 36.859375 6.390625 41.078125 11.03125 
Q 45.3125 15.671875 45.3125 23.6875 
L 45.3125 54.6875 
L 54.296875 54.6875 
L 54.296875 0 
L 45.3125 0 
L 45.3125 8.40625 
Q 42.046875 3.421875 37.71875 1 
Q 33.40625 -1.421875 27.6875 -1.421875 
Q 18.265625 -1.421875 13.375 4.4375 
Q 8.5 10.296875 8.5 21.578125 
z
M 31.109375 56 
z
" id="DejaVuSans-117"/>
      <path d="M 45.40625 46.390625 
L 45.40625 75.984375 
L 54.390625 75.984375 
L 54.390625 0 
L 45.40625 0 
L 45.40625 8.203125 
Q 42.578125 3.328125 38.25 0.953125 
Q 33.9375 -1.421875 27.875 -1.421875 
Q 17.96875 -1.421875 11.734375 6.484375 
Q 5.515625 14.40625 5.515625 27.296875 
Q 5.515625 40.1875 11.734375 48.09375 
Q 17.96875 56 27.875 56 
Q 33.9375 56 38.25 53.625 
Q 42.578125 51.265625 45.40625 46.390625 
z
M 14.796875 27.296875 
Q 14.796875 17.390625 18.875 11.75 
Q 22.953125 6.109375 30.078125 6.109375 
Q 37.203125 6.109375 41.296875 11.75 
Q 45.40625 17.390625 45.40625 27.296875 
Q 45.40625 37.203125 41.296875 42.84375 
Q 37.203125 48.484375 30.078125 48.484375 
Q 22.953125 48.484375 18.875 42.84375 
Q 14.796875 37.203125 14.796875 27.296875 
z
" id="DejaVuSans-100"/>
      <path d="M 30.609375 48.390625 
Q 23.390625 48.390625 19.1875 42.75 
Q 14.984375 37.109375 14.984375 27.296875 
Q 14.984375 17.484375 19.15625 11.84375 
Q 23.34375 6.203125 30.609375 6.203125 
Q 37.796875 6.203125 41.984375 11.859375 
Q 46.1875 17.53125 46.1875 27.296875 
Q 46.1875 37.015625 41.984375 42.703125 
Q 37.796875 48.390625 30.609375 48.390625 
z
M 30.609375 56 
Q 42.328125 56 49.015625 48.375 
Q 55.71875 40.765625 55.71875 27.296875 
Q 55.71875 13.875 49.015625 6.21875 
Q 42.328125 -1.421875 30.609375 -1.421875 
Q 18.84375 -1.421875 12.171875 6.21875 
Q 5.515625 13.875 5.515625 27.296875 
Q 5.515625 40.765625 12.171875 48.375 
Q 18.84375 56 30.609375 56 
z
" id="DejaVuSans-111"/>
      <path d="M 4.890625 31.390625 
L 31.203125 31.390625 
L 31.203125 23.390625 
L 4.890625 23.390625 
z
" id="DejaVuSans-45"/>
      <path d="M 9.8125 72.90625 
L 51.703125 72.90625 
L 51.703125 64.59375 
L 19.671875 64.59375 
L 19.671875 43.109375 
L 48.578125 43.109375 
L 48.578125 34.8125 
L 19.671875 34.8125 
L 19.671875 0 
L 9.8125 0 
z
" id="DejaVuSans-70"/>
     </defs>
     <g transform="translate(16.318125 225.38625)rotate(-90)scale(0.12 -0.12)">
      <use xlink:href="#DejaVuSans-80"/>
      <use x="60.302734" xlink:href="#DejaVuSans-69"/>
      <use x="123.486328" xlink:href="#DejaVuSans-82"/>
      <use x="192.96875" xlink:href="#DejaVuSans-77"/>
      <use x="279.248047" xlink:href="#DejaVuSans-65"/>
      <use x="347.65625" xlink:href="#DejaVuSans-78"/>
      <use x="422.460938" xlink:href="#DejaVuSans-79"/>
      <use x="501.15625" xlink:href="#DejaVuSans-86"/>
      <use x="569.470703" xlink:href="#DejaVuSans-65"/>
      <use x="637.878906" xlink:href="#DejaVuSans-32"/>
      <use x="669.666016" xlink:href="#DejaVuSans-112"/>
      <use x="733.142578" xlink:href="#DejaVuSans-115"/>
      <use x="785.242188" xlink:href="#DejaVuSans-101"/>
      <use x="846.765625" xlink:href="#DejaVuSans-117"/>
      <use x="910.144531" xlink:href="#DejaVuSans-100"/>
      <use x="973.621094" xlink:href="#DejaVuSans-111"/>
      <use x="1034.818359" xlink:href="#DejaVuSans-45"/>
      <use x="1070.902344" xlink:href="#DejaVuSans-70"/>
     </g>
    </g>
   </g>
   <g id="line2d_13">
    <path clip-path="url(#pf7d52706d2)" d="M 47.570659 49.992632 
L 65.687542 53.24483 
L 83.804425 70.806319 
L 101.921308 63.794225 
L 120.038192 61.430722 
L 138.155075 47.715338 
L 156.271958 51.35186 
L 174.388841 64.486131 
" style="fill:none;stroke:#67a9cf;stroke-width:2.658681;"/>
   </g>
   <g id="line2d_14">
    <path clip-path="url(#pf7d52706d2)" d="M 65.687542 66.385119 
L 83.804425 67.452116 
L 101.921308 30.247441 
L 120.038192 68.347695 
L 138.155075 76.143755 
L 156.271958 78.226496 
L 174.388841 74.71145 
" style="fill:none;stroke:#ef8a62;stroke-width:2.658681;"/>
   </g>
   <g id="PathCollection_1">
    <path clip-path="url(#pf7d52706d2)" d="M 47.570659 45.118384 
L 46.476322 48.486407 
L 42.934974 48.486407 
L 45.799985 50.567959 
L 44.705648 53.935982 
L 47.570659 51.854429 
L 50.43567 53.935982 
L 49.341333 50.567959 
L 52.206344 48.486407 
L 48.664996 48.486407 
z
" style="fill:#67a9cf;fill-opacity:0.698039;stroke:#000000;stroke-opacity:0.698039;stroke-width:0.886227;"/>
    <path clip-path="url(#pf7d52706d2)" d="M 65.687542 48.370582 
L 64.593205 51.738604 
L 61.051857 51.738604 
L 63.916868 53.820157 
L 62.822531 57.188179 
L 65.687542 55.106627 
L 68.552553 57.188179 
L 67.458216 53.820157 
L 70.323228 51.738604 
L 66.781879 51.738604 
z
" style="fill:#67a9cf;fill-opacity:0.698039;stroke:#000000;stroke-opacity:0.698039;stroke-width:0.886227;"/>
    <path clip-path="url(#pf7d52706d2)" d="M 83.804425 65.932071 
L 82.710088 69.300094 
L 79.16874 69.300094 
L 82.033751 71.381646 
L 80.939414 74.749669 
L 83.804425 72.668116 
L 86.669436 74.749669 
L 85.5751 71.381646 
L 88.440111 69.300094 
L 84.898762 69.300094 
z
" style="fill:#67a9cf;fill-opacity:0.698039;stroke:#000000;stroke-opacity:0.698039;stroke-width:0.886227;"/>
    <path clip-path="url(#pf7d52706d2)" d="M 101.921308 58.919977 
L 100.826972 62.288 
L 97.285623 62.288 
L 100.150634 64.369552 
L 99.056297 67.737575 
L 101.921308 65.656022 
L 104.78632 67.737575 
L 103.691983 64.369552 
L 106.556994 62.288 
L 103.015645 62.288 
z
" style="fill:#67a9cf;fill-opacity:0.698039;stroke:#000000;stroke-opacity:0.698039;stroke-width:0.886227;"/>
    <path clip-path="url(#pf7d52706d2)" d="M 120.038192 56.556474 
L 118.943855 59.924497 
L 115.402506 59.924497 
L 118.267517 62.006049 
L 117.17318 65.374072 
L 120.038192 63.292519 
L 122.903203 65.374072 
L 121.808866 62.006049 
L 124.673877 59.924497 
L 121.132528 59.924497 
z
" style="fill:#67a9cf;fill-opacity:0.698039;stroke:#000000;stroke-opacity:0.698039;stroke-width:0.886227;"/>
    <path clip-path="url(#pf7d52706d2)" d="M 138.155075 42.84109 
L 137.060738 46.209112 
L 133.519389 46.209112 
L 136.3844 48.290665 
L 135.290064 51.658687 
L 138.155075 49.577135 
L 141.020086 51.658687 
L 139.925749 48.290665 
L 142.79076 46.209112 
L 139.249412 46.209112 
z
" style="fill:#67a9cf;fill-opacity:0.698039;stroke:#000000;stroke-opacity:0.698039;stroke-width:0.886227;"/>
    <path clip-path="url(#pf7d52706d2)" d="M 156.271958 46.477611 
L 155.177621 49.845634 
L 151.636272 49.845634 
L 154.501284 51.927186 
L 153.406947 55.295209 
L 156.271958 53.213657 
L 159.136969 55.295209 
L 158.042632 51.927186 
L 160.907643 49.845634 
L 157.366295 49.845634 
z
" style="fill:#67a9cf;fill-opacity:0.698039;stroke:#000000;stroke-opacity:0.698039;stroke-width:0.886227;"/>
    <path clip-path="url(#pf7d52706d2)" d="M 174.388841 59.611883 
L 173.294504 62.979906 
L 169.753156 62.979906 
L 172.618167 65.061458 
L 171.52383 68.429481 
L 174.388841 66.347928 
L 177.253852 68.429481 
L 176.159515 65.061458 
L 179.024526 62.979906 
L 175.483178 62.979906 
z
" style="fill:#67a9cf;fill-opacity:0.698039;stroke:#000000;stroke-opacity:0.698039;stroke-width:0.886227;"/>
    <path clip-path="url(#pf7d52706d2)" d="M 65.687542 61.51087 
L 64.593205 64.878893 
L 61.051857 64.878893 
L 63.916868 66.960445 
L 62.822531 70.328468 
L 65.687542 68.246916 
L 68.552553 70.328468 
L 67.458216 66.960445 
L 70.323228 64.878893 
L 66.781879 64.878893 
z
" style="fill:#ef8a62;fill-opacity:0.698039;stroke:#000000;stroke-opacity:0.698039;stroke-width:0.886227;"/>
    <path clip-path="url(#pf7d52706d2)" d="M 83.804425 62.577868 
L 82.710088 65.945891 
L 79.16874 65.945891 
L 82.033751 68.027443 
L 80.939414 71.395466 
L 83.804425 69.313913 
L 86.669436 71.395466 
L 85.5751 68.027443 
L 88.440111 65.945891 
L 84.898762 65.945891 
z
" style="fill:#ef8a62;fill-opacity:0.698039;stroke:#000000;stroke-opacity:0.698039;stroke-width:0.886227;"/>
    <path clip-path="url(#pf7d52706d2)" d="M 101.921308 25.373193 
L 100.826972 28.741216 
L 97.285623 28.741216 
L 100.150634 30.822768 
L 99.056297 34.190791 
L 101.921308 32.109239 
L 104.78632 34.190791 
L 103.691983 30.822768 
L 106.556994 28.741216 
L 103.015645 28.741216 
z
" style="fill:#ef8a62;fill-opacity:0.698039;stroke:#000000;stroke-opacity:0.698039;stroke-width:0.886227;"/>
    <path clip-path="url(#pf7d52706d2)" d="M 120.038192 63.473447 
L 118.943855 66.84147 
L 115.402506 66.84147 
L 118.267517 68.923022 
L 117.17318 72.291045 
L 120.038192 70.209492 
L 122.903203 72.291045 
L 121.808866 68.923022 
L 124.673877 66.84147 
L 121.132528 66.84147 
z
" style="fill:#ef8a62;fill-opacity:0.698039;stroke:#000000;stroke-opacity:0.698039;stroke-width:0.886227;"/>
    <path clip-path="url(#pf7d52706d2)" d="M 138.155075 71.269507 
L 137.060738 74.63753 
L 133.519389 74.637529 
L 136.3844 76.719082 
L 135.290064 80.087105 
L 138.155075 78.005552 
L 141.020086 80.087105 
L 139.925749 76.719082 
L 142.79076 74.637529 
L 139.249412 74.63753 
z
" style="fill:#ef8a62;fill-opacity:0.698039;stroke:#000000;stroke-opacity:0.698039;stroke-width:0.886227;"/>
    <path clip-path="url(#pf7d52706d2)" d="M 156.271958 73.352248 
L 155.177621 76.720271 
L 151.636272 76.720271 
L 154.501284 78.801823 
L 153.406947 82.169846 
L 156.271958 80.088293 
L 159.136969 82.169846 
L 158.042632 78.801823 
L 160.907643 76.720271 
L 157.366295 76.720271 
z
" style="fill:#ef8a62;fill-opacity:0.698039;stroke:#000000;stroke-opacity:0.698039;stroke-width:0.886227;"/>
    <path clip-path="url(#pf7d52706d2)" d="M 174.388841 69.837202 
L 173.294504 73.205225 
L 169.753156 73.205225 
L 172.618167 75.286777 
L 171.52383 78.6548 
L 174.388841 76.573247 
L 177.253852 78.6548 
L 176.159515 75.286777 
L 179.024526 73.205225 
L 175.483178 73.205225 
z
" style="fill:#ef8a62;fill-opacity:0.698039;stroke:#000000;stroke-opacity:0.698039;stroke-width:0.886227;"/>
   </g>
   <g id="patch_3">
    <path d="M 180.72975 105.48 
L 196.32975 105.48 
L 196.32975 7.2 
L 180.72975 7.2 
z
" style="fill:none;stroke:#000000;stroke-linejoin:miter;"/>
   </g>
   <g id="patch_4">
    <path d="M 41.22975 105.48 
L 41.22975 7.2 
" style="fill:none;stroke:#000000;stroke-linecap:square;stroke-linejoin:miter;"/>
   </g>
   <g id="patch_5">
    <path d="M 41.22975 105.48 
L 180.72975 105.48 
" style="fill:none;stroke:#000000;stroke-linecap:square;stroke-linejoin:miter;"/>
   </g>
   <g id="text_6">
    <!-- LP-Vaginal -->
    <defs>
     <path d="M 9.8125 72.90625 
L 19.671875 72.90625 
L 19.671875 8.296875 
L 55.171875 8.296875 
L 55.171875 0 
L 9.8125 0 
z
" id="DejaVuSans-76"/>
     <path d="M 34.28125 27.484375 
Q 23.390625 27.484375 19.1875 25 
Q 14.984375 22.515625 14.984375 16.5 
Q 14.984375 11.71875 18.140625 8.90625 
Q 21.296875 6.109375 26.703125 6.109375 
Q 34.1875 6.109375 38.703125 11.40625 
Q 43.21875 16.703125 43.21875 25.484375 
L 43.21875 27.484375 
z
M 52.203125 31.203125 
L 52.203125 0 
L 43.21875 0 
L 43.21875 8.296875 
Q 40.140625 3.328125 35.546875 0.953125 
Q 30.953125 -1.421875 24.3125 -1.421875 
Q 15.921875 -1.421875 10.953125 3.296875 
Q 6 8.015625 6 15.921875 
Q 6 25.140625 12.171875 29.828125 
Q 18.359375 34.515625 30.609375 34.515625 
L 43.21875 34.515625 
L 43.21875 35.40625 
Q 43.21875 41.609375 39.140625 45 
Q 35.0625 48.390625 27.6875 48.390625 
Q 23 48.390625 18.546875 47.265625 
Q 14.109375 46.140625 10.015625 43.890625 
L 10.015625 52.203125 
Q 14.9375 54.109375 19.578125 55.046875 
Q 24.21875 56 28.609375 56 
Q 40.484375 56 46.34375 49.84375 
Q 52.203125 43.703125 52.203125 31.203125 
z
" id="DejaVuSans-97"/>
     <path d="M 45.40625 27.984375 
Q 45.40625 37.75 41.375 43.109375 
Q 37.359375 48.484375 30.078125 48.484375 
Q 22.859375 48.484375 18.828125 43.109375 
Q 14.796875 37.75 14.796875 27.984375 
Q 14.796875 18.265625 18.828125 12.890625 
Q 22.859375 7.515625 30.078125 7.515625 
Q 37.359375 7.515625 41.375 12.890625 
Q 45.40625 18.265625 45.40625 27.984375 
z
M 54.390625 6.78125 
Q 54.390625 -7.171875 48.1875 -13.984375 
Q 42 -20.796875 29.203125 -20.796875 
Q 24.46875 -20.796875 20.265625 -20.09375 
Q 16.0625 -19.390625 12.109375 -17.921875 
L 12.109375 -9.1875 
Q 16.0625 -11.328125 19.921875 -12.34375 
Q 23.78125 -13.375 27.78125 -13.375 
Q 36.625 -13.375 41.015625 -8.765625 
Q 45.40625 -4.15625 45.40625 5.171875 
L 45.40625 9.625 
Q 42.625 4.78125 38.28125 2.390625 
Q 33.9375 0 27.875 0 
Q 17.828125 0 11.671875 7.65625 
Q 5.515625 15.328125 5.515625 27.984375 
Q 5.515625 40.671875 11.671875 48.328125 
Q 17.828125 56 27.875 56 
Q 33.9375 56 38.28125 53.609375 
Q 42.625 51.21875 45.40625 46.390625 
L 45.40625 54.6875 
L 54.390625 54.6875 
z
" id="DejaVuSans-103"/>
     <path d="M 9.421875 54.6875 
L 18.40625 54.6875 
L 18.40625 0 
L 9.421875 0 
z
M 9.421875 75.984375 
L 18.40625 75.984375 
L 18.40625 64.59375 
L 9.421875 64.59375 
z
" id="DejaVuSans-105"/>
     <path d="M 54.890625 33.015625 
L 54.890625 0 
L 45.90625 0 
L 45.90625 32.71875 
Q 45.90625 40.484375 42.875 44.328125 
Q 39.84375 48.1875 33.796875 48.1875 
Q 26.515625 48.1875 22.3125 43.546875 
Q 18.109375 38.921875 18.109375 30.90625 
L 18.109375 0 
L 9.078125 0 
L 9.078125 54.6875 
L 18.109375 54.6875 
L 18.109375 46.1875 
Q 21.34375 51.125 25.703125 53.5625 
Q 30.078125 56 35.796875 56 
Q 45.21875 56 50.046875 50.171875 
Q 54.890625 44.34375 54.890625 33.015625 
z
" id="DejaVuSans-110"/>
     <path d="M 9.421875 75.984375 
L 18.40625 75.984375 
L 18.40625 0 
L 9.421875 0 
z
" id="DejaVuSans-108"/>
    </defs>
    <g style="fill:#1a1a1a;" transform="translate(185.88075 31.12725)rotate(-270)scale(0.096 -0.096)">
     <use xlink:href="#DejaVuSans-76"/>
     <use x="55.712891" xlink:href="#DejaVuSans-80"/>
     <use x="115.984375" xlink:href="#DejaVuSans-45"/>
     <use x="151.990234" xlink:href="#DejaVuSans-86"/>
     <use x="220.289062" xlink:href="#DejaVuSans-97"/>
     <use x="281.568359" xlink:href="#DejaVuSans-103"/>
     <use x="345.044922" xlink:href="#DejaVuSans-105"/>
     <use x="372.828125" xlink:href="#DejaVuSans-110"/>
     <use x="436.207031" xlink:href="#DejaVuSans-97"/>
     <use x="497.486328" xlink:href="#DejaVuSans-108"/>
    </g>
   </g>
   <g id="patch_6">
    <path d="M 203.52975 233.626988 
L 344.741 233.626988 
L 344.741 81.733012 
L 203.52975 81.733012 
z
" style="fill:#ffffff;"/>
   </g>
   <g id="text_7">
    <!-- Antibiotic Exposure -->
    <defs>
     <path d="M 18.3125 70.21875 
L 18.3125 54.6875 
L 36.8125 54.6875 
L 36.8125 47.703125 
L 18.3125 47.703125 
L 18.3125 18.015625 
Q 18.3125 11.328125 20.140625 9.421875 
Q 21.96875 7.515625 27.59375 7.515625 
L 36.8125 7.515625 
L 36.8125 0 
L 27.59375 0 
Q 17.1875 0 13.234375 3.875 
Q 9.28125 7.765625 9.28125 18.015625 
L 9.28125 47.703125 
L 2.6875 47.703125 
L 2.6875 54.6875 
L 9.28125 54.6875 
L 9.28125 70.21875 
z
" id="DejaVuSans-116"/>
     <path d="M 48.6875 27.296875 
Q 48.6875 37.203125 44.609375 42.84375 
Q 40.53125 48.484375 33.40625 48.484375 
Q 26.265625 48.484375 22.1875 42.84375 
Q 18.109375 37.203125 18.109375 27.296875 
Q 18.109375 17.390625 22.1875 11.75 
Q 26.265625 6.109375 33.40625 6.109375 
Q 40.53125 6.109375 44.609375 11.75 
Q 48.6875 17.390625 48.6875 27.296875 
z
M 18.109375 46.390625 
Q 20.953125 51.265625 25.265625 53.625 
Q 29.59375 56 35.59375 56 
Q 45.5625 56 51.78125 48.09375 
Q 58.015625 40.1875 58.015625 27.296875 
Q 58.015625 14.40625 51.78125 6.484375 
Q 45.5625 -1.421875 35.59375 -1.421875 
Q 29.59375 -1.421875 25.265625 0.953125 
Q 20.953125 3.328125 18.109375 8.203125 
L 18.109375 0 
L 9.078125 0 
L 9.078125 75.984375 
L 18.109375 75.984375 
z
" id="DejaVuSans-98"/>
     <path d="M 48.78125 52.59375 
L 48.78125 44.1875 
Q 44.96875 46.296875 41.140625 47.34375 
Q 37.3125 48.390625 33.40625 48.390625 
Q 24.65625 48.390625 19.8125 42.84375 
Q 14.984375 37.3125 14.984375 27.296875 
Q 14.984375 17.28125 19.8125 11.734375 
Q 24.65625 6.203125 33.40625 6.203125 
Q 37.3125 6.203125 41.140625 7.25 
Q 44.96875 8.296875 48.78125 10.40625 
L 48.78125 2.09375 
Q 45.015625 0.34375 40.984375 -0.53125 
Q 36.96875 -1.421875 32.421875 -1.421875 
Q 20.0625 -1.421875 12.78125 6.34375 
Q 5.515625 14.109375 5.515625 27.296875 
Q 5.515625 40.671875 12.859375 48.328125 
Q 20.21875 56 33.015625 56 
Q 37.15625 56 41.109375 55.140625 
Q 45.0625 54.296875 48.78125 52.59375 
z
" id="DejaVuSans-99"/>
     <path d="M 54.890625 54.6875 
L 35.109375 28.078125 
L 55.90625 0 
L 45.3125 0 
L 29.390625 21.484375 
L 13.484375 0 
L 2.875 0 
L 24.125 28.609375 
L 4.6875 54.6875 
L 15.28125 54.6875 
L 29.78125 35.203125 
L 44.28125 54.6875 
z
" id="DejaVuSans-120"/>
     <path d="M 41.109375 46.296875 
Q 39.59375 47.171875 37.8125 47.578125 
Q 36.03125 48 33.890625 48 
Q 26.265625 48 22.1875 43.046875 
Q 18.109375 38.09375 18.109375 28.8125 
L 18.109375 0 
L 9.078125 0 
L 9.078125 54.6875 
L 18.109375 54.6875 
L 18.109375 46.1875 
Q 20.953125 51.171875 25.484375 53.578125 
Q 30.03125 56 36.53125 56 
Q 37.453125 56 38.578125 55.875 
Q 39.703125 55.765625 41.0625 55.515625 
z
" id="DejaVuSans-114"/>
    </defs>
    <g transform="translate(215.92975 111.913356)scale(0.12 -0.12)">
     <use xlink:href="#DejaVuSans-65"/>
     <use x="68.408203" xlink:href="#DejaVuSans-110"/>
     <use x="131.787109" xlink:href="#DejaVuSans-116"/>
     <use x="170.996094" xlink:href="#DejaVuSans-105"/>
     <use x="198.779297" xlink:href="#DejaVuSans-98"/>
     <use x="262.255859" xlink:href="#DejaVuSans-105"/>
     <use x="290.039062" xlink:href="#DejaVuSans-111"/>
     <use x="351.220703" xlink:href="#DejaVuSans-116"/>
     <use x="390.429688" xlink:href="#DejaVuSans-105"/>
     <use x="418.212891" xlink:href="#DejaVuSans-99"/>
     <use x="473.193359" xlink:href="#DejaVuSans-32"/>
     <use x="504.980469" xlink:href="#DejaVuSans-69"/>
     <use x="568.164062" xlink:href="#DejaVuSans-120"/>
     <use x="627.34375" xlink:href="#DejaVuSans-112"/>
     <use x="690.820312" xlink:href="#DejaVuSans-111"/>
     <use x="752.001953" xlink:href="#DejaVuSans-115"/>
     <use x="804.101562" xlink:href="#DejaVuSans-117"/>
     <use x="867.480469" xlink:href="#DejaVuSans-114"/>
     <use x="908.5625" xlink:href="#DejaVuSans-101"/>
    </g>
    <!--  -->
    <g transform="translate(215.92975 122.615293)scale(0.12 -0.12)"/>
   </g>
   <g id="patch_7">
    <path clip-path="url(#p0df92e2901)" d="M 215.92975 138.528699 
L 233.20975 138.528699 
L 233.20975 121.248699 
L 215.92975 121.248699 
z
" style="fill:none;"/>
   </g>
   <g id="line2d_15">
    <path clip-path="url(#p0df92e2901)" d="M 215.92975 129.888699 
L 233.20975 129.888699 
" style="fill:none;stroke:#67a9cf;stroke-width:3.544908;"/>
   </g>
   <g id="text_8">
    <!-- No Abx -->
    <g transform="translate(236.20975 132.537699)scale(0.096 -0.096)">
     <use xlink:href="#DejaVuSans-78"/>
     <use x="74.804688" xlink:href="#DejaVuSans-111"/>
     <use x="135.986328" xlink:href="#DejaVuSans-32"/>
     <use x="167.773438" xlink:href="#DejaVuSans-65"/>
     <use x="236.181641" xlink:href="#DejaVuSans-98"/>
     <use x="299.658203" xlink:href="#DejaVuSans-120"/>
    </g>
   </g>
   <g id="patch_8">
    <path clip-path="url(#pd44c7913b3)" d="M 215.92975 157.808699 
L 233.20975 157.808699 
L 233.20975 140.528699 
L 215.92975 140.528699 
z
" style="fill:none;"/>
   </g>
   <g id="line2d_16">
    <path clip-path="url(#pd44c7913b3)" d="M 215.92975 149.168699 
L 233.20975 149.168699 
" style="fill:none;stroke:#ef8a62;stroke-width:3.544908;"/>
   </g>
   <g id="text_9">
    <!-- Infant Abx+ -->
    <defs>
     <path d="M 9.8125 72.90625 
L 19.671875 72.90625 
L 19.671875 0 
L 9.8125 0 
z
" id="DejaVuSans-73"/>
     <path d="M 37.109375 75.984375 
L 37.109375 68.5 
L 28.515625 68.5 
Q 23.6875 68.5 21.796875 66.546875 
Q 19.921875 64.59375 19.921875 59.515625 
L 19.921875 54.6875 
L 34.71875 54.6875 
L 34.71875 47.703125 
L 19.921875 47.703125 
L 19.921875 0 
L 10.890625 0 
L 10.890625 47.703125 
L 2.296875 47.703125 
L 2.296875 54.6875 
L 10.890625 54.6875 
L 10.890625 58.5 
Q 10.890625 67.625 15.140625 71.796875 
Q 19.390625 75.984375 28.609375 75.984375 
z
" id="DejaVuSans-102"/>
     <path d="M 46 62.703125 
L 46 35.5 
L 73.1875 35.5 
L 73.1875 27.203125 
L 46 27.203125 
L 46 0 
L 37.796875 0 
L 37.796875 27.203125 
L 10.59375 27.203125 
L 10.59375 35.5 
L 37.796875 35.5 
L 37.796875 62.703125 
z
" id="DejaVuSans-43"/>
    </defs>
    <g transform="translate(236.20975 151.817699)scale(0.096 -0.096)">
     <use xlink:href="#DejaVuSans-73"/>
     <use x="29.492188" xlink:href="#DejaVuSans-110"/>
     <use x="92.871094" xlink:href="#DejaVuSans-102"/>
     <use x="128.076172" xlink:href="#DejaVuSans-97"/>
     <use x="189.355469" xlink:href="#DejaVuSans-110"/>
     <use x="252.734375" xlink:href="#DejaVuSans-116"/>
     <use x="291.943359" xlink:href="#DejaVuSans-32"/>
     <use x="323.730469" xlink:href="#DejaVuSans-65"/>
     <use x="392.138672" xlink:href="#DejaVuSans-98"/>
     <use x="455.615234" xlink:href="#DejaVuSans-120"/>
     <use x="514.794922" xlink:href="#DejaVuSans-43"/>
    </g>
   </g>
   <g id="patch_9">
    <path clip-path="url(#p71ab2d4402)" d="M 215.92975 201.724719 
L 233.432019 201.724719 
L 233.432019 184.222449 
L 215.92975 184.222449 
z
" style="fill:none;"/>
   </g>
   <g id="line2d_17">
    <path clip-path="url(#p71ab2d4402)" d="M 224.680885 192.973584 
" style="fill:none;stroke:#1f77b4;stroke-linecap:square;stroke-opacity:0.7;stroke-width:1.5;"/>
    <defs>
     <path d="M 0 -3.988021 
L -0.895367 -1.232366 
L -3.792834 -1.232366 
L -1.448733 0.470722 
L -2.3441 3.226377 
L -0 1.523288 
L 2.3441 3.226377 
L 1.448733 0.470722 
L 3.792834 -1.232366 
L 0.895367 -1.232366 
z
" id="m22ebf87986" style="stroke:#000000;stroke-linejoin:bevel;stroke-opacity:0.7;stroke-width:0.886227;"/>
    </defs>
    <g clip-path="url(#p71ab2d4402)">
     <use style="fill-opacity:0.7;stroke:#000000;stroke-linejoin:bevel;stroke-opacity:0.7;stroke-width:0.886227;" x="224.680885" xlink:href="#m22ebf87986" y="192.973584"/>
    </g>
   </g>
   <g id="text_10">
    <!-- p&lt;0.05 -->
    <defs>
     <path d="M 73.1875 49.21875 
L 22.796875 31.296875 
L 73.1875 13.484375 
L 73.1875 4.59375 
L 10.59375 27.296875 
L 10.59375 35.40625 
L 73.1875 58.109375 
z
" id="DejaVuSans-60"/>
     <path d="M 10.6875 12.40625 
L 21 12.40625 
L 21 0 
L 10.6875 0 
z
" id="DejaVuSans-46"/>
    </defs>
    <g transform="translate(236.432019 195.622584)scale(0.096 -0.096)">
     <use xlink:href="#DejaVuSans-112"/>
     <use x="63.476562" xlink:href="#DejaVuSans-60"/>
     <use x="147.265625" xlink:href="#DejaVuSans-48"/>
     <use x="210.888672" xlink:href="#DejaVuSans-46"/>
     <use x="242.675781" xlink:href="#DejaVuSans-48"/>
     <use x="306.298828" xlink:href="#DejaVuSans-53"/>
    </g>
   </g>
   <g id="patch_10">
    <path clip-path="url(#p7ab7f0f263)" d="M 215.92975 221.226988 
L 233.432019 221.226988 
L 233.432019 203.724719 
L 215.92975 203.724719 
z
" style="fill:none;"/>
   </g>
   <g id="line2d_18">
    <path clip-path="url(#p7ab7f0f263)" d="M 224.680885 212.475853 
" style="fill:none;stroke:#1f77b4;stroke-linecap:square;stroke-opacity:0.7;stroke-width:1.5;"/>
    <defs>
     <path d="M 0 3.988021 
C 1.057636 3.988021 2.072096 3.567818 2.819957 2.819957 
C 3.567818 2.072096 3.988021 1.057636 3.988021 0 
C 3.988021 -1.057636 3.567818 -2.072096 2.819957 -2.819957 
C 2.072096 -3.567818 1.057636 -3.988021 0 -3.988021 
C -1.057636 -3.988021 -2.072096 -3.567818 -2.819957 -2.819957 
C -3.567818 -2.072096 -3.988021 -1.057636 -3.988021 0 
C -3.988021 1.057636 -3.567818 2.072096 -2.819957 2.819957 
C -2.072096 3.567818 -1.057636 3.988021 0 3.988021 
z
" id="m8a3ae39bad" style="stroke:#000000;stroke-opacity:0.7;stroke-width:0.886227;"/>
    </defs>
    <g clip-path="url(#p7ab7f0f263)">
     <use style="fill-opacity:0.7;stroke:#000000;stroke-opacity:0.7;stroke-width:0.886227;" x="224.680885" xlink:href="#m8a3ae39bad" y="212.475853"/>
    </g>
   </g>
   <g id="text_11">
    <!-- p&gt;0.05 -->
    <defs>
     <path d="M 10.59375 49.21875 
L 10.59375 58.109375 
L 73.1875 35.40625 
L 73.1875 27.296875 
L 10.59375 4.59375 
L 10.59375 13.484375 
L 60.890625 31.296875 
z
" id="DejaVuSans-62"/>
    </defs>
    <g transform="translate(236.432019 215.124853)scale(0.096 -0.096)">
     <use xlink:href="#DejaVuSans-112"/>
     <use x="63.476562" xlink:href="#DejaVuSans-62"/>
     <use x="147.265625" xlink:href="#DejaVuSans-48"/>
     <use x="210.888672" xlink:href="#DejaVuSans-46"/>
     <use x="242.675781" xlink:href="#DejaVuSans-48"/>
     <use x="306.298828" xlink:href="#DejaVuSans-53"/>
    </g>
   </g>
  </g>
  <g id="axes_2">
   <g id="patch_11">
    <path d="M 41.22975 208.8 
L 180.72975 208.8 
L 180.72975 110.52 
L 41.22975 110.52 
z
" style="fill:#ffffff;"/>
   </g>
   <g id="matplotlib.axis_3">
    <g id="xtick_16"/>
    <g id="xtick_17"/>
    <g id="xtick_18"/>
    <g id="xtick_19"/>
    <g id="xtick_20"/>
    <g id="xtick_21"/>
    <g id="xtick_22"/>
    <g id="xtick_23"/>
    <g id="xtick_24"/>
    <g id="xtick_25"/>
    <g id="xtick_26"/>
    <g id="xtick_27"/>
    <g id="xtick_28"/>
    <g id="xtick_29"/>
    <g id="xtick_30"/>
   </g>
   <g id="matplotlib.axis_4">
    <g id="ytick_9">
     <g id="line2d_19">
      <path clip-path="url(#p541d894293)" d="M 41.22975 205.602771 
L 180.72975 205.602771 
" style="fill:none;stroke:#d3d3d3;stroke-linecap:square;stroke-opacity:0.5;stroke-width:0.8;"/>
     </g>
     <g id="line2d_20">
      <path d="M 41.22975 205.602771 
" style="fill:none;stroke:#000000;stroke-linecap:square;stroke-width:1.5;"/>
      <g>
       <use style="stroke:#000000;" x="41.22975" xlink:href="#mdcd7f64375" y="205.602771"/>
      </g>
     </g>
     <g id="text_12">
      <!-- 0 -->
      <g style="fill:#4d4d4d;" transform="translate(29.72175 208.251771)scale(0.096 -0.096)">
       <use xlink:href="#DejaVuSans-48"/>
      </g>
     </g>
    </g>
    <g id="ytick_10">
     <g id="line2d_21">
      <path clip-path="url(#p541d894293)" d="M 41.22975 181.143651 
L 180.72975 181.143651 
" style="fill:none;stroke:#d3d3d3;stroke-linecap:square;stroke-opacity:0.5;stroke-width:0.8;"/>
     </g>
     <g id="line2d_22">
      <path d="M 41.22975 181.143651 
" style="fill:none;stroke:#000000;stroke-linecap:square;stroke-width:1.5;"/>
      <g>
       <use style="stroke:#000000;" x="41.22975" xlink:href="#mdcd7f64375" y="181.143651"/>
      </g>
     </g>
     <g id="text_13">
      <!-- 5 -->
      <g style="fill:#4d4d4d;" transform="translate(29.72175 183.792651)scale(0.096 -0.096)">
       <use xlink:href="#DejaVuSans-53"/>
      </g>
     </g>
    </g>
    <g id="ytick_11">
     <g id="line2d_23">
      <path clip-path="url(#p541d894293)" d="M 41.22975 156.684532 
L 180.72975 156.684532 
" style="fill:none;stroke:#d3d3d3;stroke-linecap:square;stroke-opacity:0.5;stroke-width:0.8;"/>
     </g>
     <g id="line2d_24">
      <path d="M 41.22975 156.684532 
" style="fill:none;stroke:#000000;stroke-linecap:square;stroke-width:1.5;"/>
      <g>
       <use style="stroke:#000000;" x="41.22975" xlink:href="#mdcd7f64375" y="156.684532"/>
      </g>
     </g>
     <g id="text_14">
      <!-- 10 -->
      <g style="fill:#4d4d4d;" transform="translate(23.61375 159.333532)scale(0.096 -0.096)">
       <use xlink:href="#DejaVuSans-49"/>
       <use x="63.623047" xlink:href="#DejaVuSans-48"/>
      </g>
     </g>
    </g>
    <g id="ytick_12">
     <g id="line2d_25">
      <path clip-path="url(#p541d894293)" d="M 41.22975 132.225412 
L 180.72975 132.225412 
" style="fill:none;stroke:#d3d3d3;stroke-linecap:square;stroke-opacity:0.5;stroke-width:0.8;"/>
     </g>
     <g id="line2d_26">
      <path d="M 41.22975 132.225412 
" style="fill:none;stroke:#000000;stroke-linecap:square;stroke-width:1.5;"/>
      <g>
       <use style="stroke:#000000;" x="41.22975" xlink:href="#mdcd7f64375" y="132.225412"/>
      </g>
     </g>
     <g id="text_15">
      <!-- 15 -->
      <g style="fill:#4d4d4d;" transform="translate(23.61375 134.874412)scale(0.096 -0.096)">
       <use xlink:href="#DejaVuSans-49"/>
       <use x="63.623047" xlink:href="#DejaVuSans-53"/>
      </g>
     </g>
    </g>
    <g id="ytick_13">
     <g id="line2d_27">
      <path d="M 41.22975 193.373211 
" style="fill:none;stroke:#000000;stroke-linecap:square;stroke-width:1.5;"/>
      <g>
       <use style="stroke:#000000;" x="41.22975" xlink:href="#m24a6fd0417" y="193.373211"/>
      </g>
     </g>
    </g>
    <g id="ytick_14">
     <g id="line2d_28">
      <path d="M 41.22975 168.914091 
" style="fill:none;stroke:#000000;stroke-linecap:square;stroke-width:1.5;"/>
      <g>
       <use style="stroke:#000000;" x="41.22975" xlink:href="#m24a6fd0417" y="168.914091"/>
      </g>
     </g>
    </g>
    <g id="ytick_15">
     <g id="line2d_29">
      <path d="M 41.22975 144.454972 
" style="fill:none;stroke:#000000;stroke-linecap:square;stroke-width:1.5;"/>
      <g>
       <use style="stroke:#000000;" x="41.22975" xlink:href="#m24a6fd0417" y="144.454972"/>
      </g>
     </g>
    </g>
    <g id="ytick_16">
     <g id="line2d_30">
      <path d="M 41.22975 119.995852 
" style="fill:none;stroke:#000000;stroke-linecap:square;stroke-width:1.5;"/>
      <g>
       <use style="stroke:#000000;" x="41.22975" xlink:href="#m24a6fd0417" y="119.995852"/>
      </g>
     </g>
    </g>
   </g>
   <g id="line2d_31">
    <path clip-path="url(#p541d894293)" d="M 47.570659 146.232903 
L 65.687542 154.166283 
L 83.804425 125.46454 
L 101.921308 136.63958 
L 120.038192 114.987273 
L 138.155075 159.59142 
L 156.271958 171.074234 
L 174.388841 172.128564 
" style="fill:none;stroke:#67a9cf;stroke-width:2.658681;"/>
   </g>
   <g id="line2d_32">
    <path clip-path="url(#p541d894293)" d="M 65.687542 189.541476 
L 83.804425 187.785728 
L 101.921308 181.569308 
L 120.038192 181.223688 
L 138.155075 171.452515 
L 156.271958 184.774492 
L 174.388841 171.781365 
" style="fill:none;stroke:#ef8a62;stroke-width:2.658681;"/>
   </g>
   <g id="PathCollection_2">
    <path clip-path="url(#p541d894293)" d="M 47.570659 141.358655 
L 46.476322 144.726678 
L 42.934974 144.726678 
L 45.799985 146.80823 
L 44.705648 150.176253 
L 47.570659 148.0947 
L 50.43567 150.176253 
L 49.341333 146.80823 
L 52.206344 144.726678 
L 48.664996 144.726678 
z
" style="fill:#67a9cf;fill-opacity:0.698039;stroke:#000000;stroke-opacity:0.698039;stroke-width:0.886227;"/>
    <path clip-path="url(#p541d894293)" d="M 65.687542 149.292035 
L 64.593205 152.660058 
L 61.051857 152.660058 
L 63.916868 154.74161 
L 62.822531 158.109633 
L 65.687542 156.02808 
L 68.552553 158.109633 
L 67.458216 154.74161 
L 70.323228 152.660058 
L 66.781879 152.660058 
z
" style="fill:#67a9cf;fill-opacity:0.698039;stroke:#000000;stroke-opacity:0.698039;stroke-width:0.886227;"/>
    <path clip-path="url(#p541d894293)" d="M 83.804425 120.590292 
L 82.710088 123.958315 
L 79.16874 123.958315 
L 82.033751 126.039867 
L 80.939414 129.40789 
L 83.804425 127.326337 
L 86.669436 129.40789 
L 85.5751 126.039867 
L 88.440111 123.958315 
L 84.898762 123.958315 
z
" style="fill:#67a9cf;fill-opacity:0.698039;stroke:#000000;stroke-opacity:0.698039;stroke-width:0.886227;"/>
    <path clip-path="url(#p541d894293)" d="M 101.921308 131.765332 
L 100.826972 135.133355 
L 97.285623 135.133355 
L 100.150634 137.214907 
L 99.056297 140.58293 
L 101.921308 138.501377 
L 104.78632 140.58293 
L 103.691983 137.214907 
L 106.556994 135.133355 
L 103.015645 135.133355 
z
" style="fill:#67a9cf;fill-opacity:0.698039;stroke:#000000;stroke-opacity:0.698039;stroke-width:0.886227;"/>
    <path clip-path="url(#p541d894293)" d="M 120.038192 110.113025 
L 118.943855 113.481047 
L 115.402506 113.481047 
L 118.267517 115.5626 
L 117.17318 118.930622 
L 120.038192 116.84907 
L 122.903203 118.930622 
L 121.808866 115.5626 
L 124.673877 113.481047 
L 121.132528 113.481047 
z
" style="fill:#67a9cf;fill-opacity:0.698039;stroke:#000000;stroke-opacity:0.698039;stroke-width:0.886227;"/>
    <path clip-path="url(#p541d894293)" d="M 138.155075 154.717172 
L 137.060738 158.085194 
L 133.519389 158.085194 
L 136.3844 160.166747 
L 135.290064 163.534769 
L 138.155075 161.453217 
L 141.020086 163.534769 
L 139.925749 160.166747 
L 142.79076 158.085194 
L 139.249412 158.085194 
z
" style="fill:#67a9cf;fill-opacity:0.698039;stroke:#000000;stroke-opacity:0.698039;stroke-width:0.886227;"/>
    <path clip-path="url(#p541d894293)" d="M 156.271958 166.199985 
L 155.177621 169.568008 
L 151.636272 169.568008 
L 154.501284 171.64956 
L 153.406947 175.017583 
L 156.271958 172.936031 
L 159.136969 175.017583 
L 158.042632 171.64956 
L 160.907643 169.568008 
L 157.366295 169.568008 
z
" style="fill:#67a9cf;fill-opacity:0.698039;stroke:#000000;stroke-opacity:0.698039;stroke-width:0.886227;"/>
    <path clip-path="url(#p541d894293)" d="M 174.388841 167.254316 
L 173.294504 170.622338 
L 169.753156 170.622338 
L 172.618167 172.703891 
L 171.52383 176.071913 
L 174.388841 173.990361 
L 177.253852 176.071913 
L 176.159515 172.703891 
L 179.024526 170.622338 
L 175.483178 170.622338 
z
" style="fill:#67a9cf;fill-opacity:0.698039;stroke:#000000;stroke-opacity:0.698039;stroke-width:0.886227;"/>
    <path clip-path="url(#p541d894293)" d="M 65.687542 184.667228 
L 64.593205 188.035251 
L 61.051857 188.035251 
L 63.916868 190.116803 
L 62.822531 193.484826 
L 65.687542 191.403273 
L 68.552553 193.484826 
L 67.458216 190.116803 
L 70.323228 188.035251 
L 66.781879 188.035251 
z
" style="fill:#ef8a62;fill-opacity:0.698039;stroke:#000000;stroke-opacity:0.698039;stroke-width:0.886227;"/>
    <path clip-path="url(#p541d894293)" d="M 83.804425 182.91148 
L 82.710088 186.279503 
L 79.16874 186.279503 
L 82.033751 188.361055 
L 80.939414 191.729078 
L 83.804425 189.647525 
L 86.669436 191.729078 
L 85.5751 188.361055 
L 88.440111 186.279503 
L 84.898762 186.279503 
z
" style="fill:#ef8a62;fill-opacity:0.698039;stroke:#000000;stroke-opacity:0.698039;stroke-width:0.886227;"/>
    <path clip-path="url(#p541d894293)" d="M 101.921308 176.69506 
L 100.826972 180.063082 
L 97.285623 180.063082 
L 100.150634 182.144635 
L 99.056297 185.512657 
L 101.921308 183.431105 
L 104.78632 185.512657 
L 103.691983 182.144635 
L 106.556994 180.063082 
L 103.015645 180.063082 
z
" style="fill:#ef8a62;fill-opacity:0.698039;stroke:#000000;stroke-opacity:0.698039;stroke-width:0.886227;"/>
    <path clip-path="url(#p541d894293)" d="M 120.038192 176.34944 
L 118.943855 179.717462 
L 115.402506 179.717462 
L 118.267517 181.799015 
L 117.17318 185.167037 
L 120.038192 183.085485 
L 122.903203 185.167037 
L 121.808866 181.799015 
L 124.673877 179.717462 
L 121.132528 179.717462 
z
" style="fill:#ef8a62;fill-opacity:0.698039;stroke:#000000;stroke-opacity:0.698039;stroke-width:0.886227;"/>
    <path clip-path="url(#p541d894293)" d="M 138.155075 166.578267 
L 137.060738 169.94629 
L 133.519389 169.94629 
L 136.3844 172.027842 
L 135.290064 175.395865 
L 138.155075 173.314312 
L 141.020086 175.395865 
L 139.925749 172.027842 
L 142.79076 169.94629 
L 139.249412 169.94629 
z
" style="fill:#ef8a62;fill-opacity:0.698039;stroke:#000000;stroke-opacity:0.698039;stroke-width:0.886227;"/>
    <path clip-path="url(#p541d894293)" d="M 156.271958 179.900244 
L 155.177621 183.268266 
L 151.636272 183.268266 
L 154.501284 185.349819 
L 153.406947 188.717841 
L 156.271958 186.636289 
L 159.136969 188.717841 
L 158.042632 185.349819 
L 160.907643 183.268266 
L 157.366295 183.268266 
z
" style="fill:#ef8a62;fill-opacity:0.698039;stroke:#000000;stroke-opacity:0.698039;stroke-width:0.886227;"/>
    <path clip-path="url(#p541d894293)" d="M 174.388841 166.907117 
L 173.294504 170.27514 
L 169.753156 170.27514 
L 172.618167 172.356692 
L 171.52383 175.724715 
L 174.388841 173.643162 
L 177.253852 175.724715 
L 176.159515 172.356692 
L 179.024526 170.27514 
L 175.483178 170.27514 
z
" style="fill:#ef8a62;fill-opacity:0.698039;stroke:#000000;stroke-opacity:0.698039;stroke-width:0.886227;"/>
   </g>
   <g id="patch_12">
    <path d="M 180.72975 208.8 
L 196.32975 208.8 
L 196.32975 110.52 
L 180.72975 110.52 
z
" style="fill:none;stroke:#000000;stroke-linejoin:miter;"/>
   </g>
   <g id="patch_13">
    <path d="M 41.22975 208.8 
L 41.22975 110.52 
" style="fill:none;stroke:#000000;stroke-linecap:square;stroke-linejoin:miter;"/>
   </g>
   <g id="patch_14">
    <path d="M 41.22975 208.8 
L 180.72975 208.8 
" style="fill:none;stroke:#000000;stroke-linecap:square;stroke-linejoin:miter;"/>
   </g>
   <g id="text_16">
    <!-- LP-C-section -->
    <defs>
     <path d="M 64.40625 67.28125 
L 64.40625 56.890625 
Q 59.421875 61.53125 53.78125 63.8125 
Q 48.140625 66.109375 41.796875 66.109375 
Q 29.296875 66.109375 22.65625 58.46875 
Q 16.015625 50.828125 16.015625 36.375 
Q 16.015625 21.96875 22.65625 14.328125 
Q 29.296875 6.6875 41.796875 6.6875 
Q 48.140625 6.6875 53.78125 8.984375 
Q 59.421875 11.28125 64.40625 15.921875 
L 64.40625 5.609375 
Q 59.234375 2.09375 53.4375 0.328125 
Q 47.65625 -1.421875 41.21875 -1.421875 
Q 24.65625 -1.421875 15.125 8.703125 
Q 5.609375 18.84375 5.609375 36.375 
Q 5.609375 53.953125 15.125 64.078125 
Q 24.65625 74.21875 41.21875 74.21875 
Q 47.75 74.21875 53.53125 72.484375 
Q 59.328125 70.75 64.40625 67.28125 
z
" id="DejaVuSans-67"/>
    </defs>
    <g style="fill:#1a1a1a;" transform="translate(185.88075 129.99)rotate(-270)scale(0.096 -0.096)">
     <use xlink:href="#DejaVuSans-76"/>
     <use x="55.712891" xlink:href="#DejaVuSans-80"/>
     <use x="115.984375" xlink:href="#DejaVuSans-45"/>
     <use x="152.068359" xlink:href="#DejaVuSans-67"/>
     <use x="221.892578" xlink:href="#DejaVuSans-45"/>
     <use x="257.976562" xlink:href="#DejaVuSans-115"/>
     <use x="310.076172" xlink:href="#DejaVuSans-101"/>
     <use x="371.599609" xlink:href="#DejaVuSans-99"/>
     <use x="426.580078" xlink:href="#DejaVuSans-116"/>
     <use x="465.789062" xlink:href="#DejaVuSans-105"/>
     <use x="493.572266" xlink:href="#DejaVuSans-111"/>
     <use x="554.753906" xlink:href="#DejaVuSans-110"/>
    </g>
   </g>
  </g>
  <g id="axes_3">
   <g id="patch_15">
    <path d="M 41.22975 312.12 
L 180.72975 312.12 
L 180.72975 213.84 
L 41.22975 213.84 
z
" style="fill:#ffffff;"/>
   </g>
   <g id="matplotlib.axis_5">
    <g id="xtick_31">
     <g id="line2d_33">
      <path d="M 47.570659 312.12 
" style="fill:none;stroke:#000000;stroke-linecap:square;stroke-width:1.5;"/>
      <defs>
       <path d="M 0 0 
L 0 3 
" id="m22ad8b7ac8" style="stroke:#000000;"/>
      </defs>
      <g>
       <use style="stroke:#000000;" x="47.570659" xlink:href="#m22ad8b7ac8" y="312.12"/>
      </g>
     </g>
     <g id="text_17">
      <!-- 0 -->
      <g style="fill:#4d4d4d;" transform="translate(44.516659 324.8145)scale(0.096 -0.096)">
       <use xlink:href="#DejaVuSans-48"/>
      </g>
     </g>
    </g>
    <g id="xtick_32">
     <g id="line2d_34">
      <path d="M 65.687542 312.12 
" style="fill:none;stroke:#000000;stroke-linecap:square;stroke-width:1.5;"/>
      <g>
       <use style="stroke:#000000;" x="65.687542" xlink:href="#m22ad8b7ac8" y="312.12"/>
      </g>
     </g>
     <g id="text_18">
      <!-- 1 -->
      <g style="fill:#4d4d4d;" transform="translate(62.633542 324.8145)scale(0.096 -0.096)">
       <use xlink:href="#DejaVuSans-49"/>
      </g>
     </g>
    </g>
    <g id="xtick_33">
     <g id="line2d_35">
      <path d="M 83.804425 312.12 
" style="fill:none;stroke:#000000;stroke-linecap:square;stroke-width:1.5;"/>
      <g>
       <use style="stroke:#000000;" x="83.804425" xlink:href="#m22ad8b7ac8" y="312.12"/>
      </g>
     </g>
     <g id="text_19">
      <!-- 2 -->
      <defs>
       <path d="M 19.1875 8.296875 
L 53.609375 8.296875 
L 53.609375 0 
L 7.328125 0 
L 7.328125 8.296875 
Q 12.9375 14.109375 22.625 23.890625 
Q 32.328125 33.6875 34.8125 36.53125 
Q 39.546875 41.84375 41.421875 45.53125 
Q 43.3125 49.21875 43.3125 52.78125 
Q 43.3125 58.59375 39.234375 62.25 
Q 35.15625 65.921875 28.609375 65.921875 
Q 23.96875 65.921875 18.8125 64.3125 
Q 13.671875 62.703125 7.8125 59.421875 
L 7.8125 69.390625 
Q 13.765625 71.78125 18.9375 73 
Q 24.125 74.21875 28.421875 74.21875 
Q 39.75 74.21875 46.484375 68.546875 
Q 53.21875 62.890625 53.21875 53.421875 
Q 53.21875 48.921875 51.53125 44.890625 
Q 49.859375 40.875 45.40625 35.40625 
Q 44.1875 33.984375 37.640625 27.21875 
Q 31.109375 20.453125 19.1875 8.296875 
z
" id="DejaVuSans-50"/>
      </defs>
      <g style="fill:#4d4d4d;" transform="translate(80.750425 324.8145)scale(0.096 -0.096)">
       <use xlink:href="#DejaVuSans-50"/>
      </g>
     </g>
    </g>
    <g id="xtick_34">
     <g id="line2d_36">
      <path d="M 101.921308 312.12 
" style="fill:none;stroke:#000000;stroke-linecap:square;stroke-width:1.5;"/>
      <g>
       <use style="stroke:#000000;" x="101.921308" xlink:href="#m22ad8b7ac8" y="312.12"/>
      </g>
     </g>
     <g id="text_20">
      <!-- 3 -->
      <defs>
       <path d="M 40.578125 39.3125 
Q 47.65625 37.796875 51.625 33 
Q 55.609375 28.21875 55.609375 21.1875 
Q 55.609375 10.40625 48.1875 4.484375 
Q 40.765625 -1.421875 27.09375 -1.421875 
Q 22.515625 -1.421875 17.65625 -0.515625 
Q 12.796875 0.390625 7.625 2.203125 
L 7.625 11.71875 
Q 11.71875 9.328125 16.59375 8.109375 
Q 21.484375 6.890625 26.8125 6.890625 
Q 36.078125 6.890625 40.9375 10.546875 
Q 45.796875 14.203125 45.796875 21.1875 
Q 45.796875 27.640625 41.28125 31.265625 
Q 36.765625 34.90625 28.71875 34.90625 
L 20.21875 34.90625 
L 20.21875 43.015625 
L 29.109375 43.015625 
Q 36.375 43.015625 40.234375 45.921875 
Q 44.09375 48.828125 44.09375 54.296875 
Q 44.09375 59.90625 40.109375 62.90625 
Q 36.140625 65.921875 28.71875 65.921875 
Q 24.65625 65.921875 20.015625 65.03125 
Q 15.375 64.15625 9.8125 62.3125 
L 9.8125 71.09375 
Q 15.4375 72.65625 20.34375 73.4375 
Q 25.25 74.21875 29.59375 74.21875 
Q 40.828125 74.21875 47.359375 69.109375 
Q 53.90625 64.015625 53.90625 55.328125 
Q 53.90625 49.265625 50.4375 45.09375 
Q 46.96875 40.921875 40.578125 39.3125 
z
" id="DejaVuSans-51"/>
      </defs>
      <g style="fill:#4d4d4d;" transform="translate(98.867308 324.8145)scale(0.096 -0.096)">
       <use xlink:href="#DejaVuSans-51"/>
      </g>
     </g>
    </g>
    <g id="xtick_35">
     <g id="line2d_37">
      <path d="M 120.038192 312.12 
" style="fill:none;stroke:#000000;stroke-linecap:square;stroke-width:1.5;"/>
      <g>
       <use style="stroke:#000000;" x="120.038192" xlink:href="#m22ad8b7ac8" y="312.12"/>
      </g>
     </g>
     <g id="text_21">
      <!-- 4 -->
      <defs>
       <path d="M 37.796875 64.3125 
L 12.890625 25.390625 
L 37.796875 25.390625 
z
M 35.203125 72.90625 
L 47.609375 72.90625 
L 47.609375 25.390625 
L 58.015625 25.390625 
L 58.015625 17.1875 
L 47.609375 17.1875 
L 47.609375 0 
L 37.796875 0 
L 37.796875 17.1875 
L 4.890625 17.1875 
L 4.890625 26.703125 
z
" id="DejaVuSans-52"/>
      </defs>
      <g style="fill:#4d4d4d;" transform="translate(116.984192 324.8145)scale(0.096 -0.096)">
       <use xlink:href="#DejaVuSans-52"/>
      </g>
     </g>
    </g>
    <g id="xtick_36">
     <g id="line2d_38">
      <path d="M 138.155075 312.12 
" style="fill:none;stroke:#000000;stroke-linecap:square;stroke-width:1.5;"/>
      <g>
       <use style="stroke:#000000;" x="138.155075" xlink:href="#m22ad8b7ac8" y="312.12"/>
      </g>
     </g>
     <g id="text_22">
      <!-- 5 -->
      <g style="fill:#4d4d4d;" transform="translate(135.101075 324.8145)scale(0.096 -0.096)">
       <use xlink:href="#DejaVuSans-53"/>
      </g>
     </g>
    </g>
    <g id="xtick_37">
     <g id="line2d_39">
      <path d="M 156.271958 312.12 
" style="fill:none;stroke:#000000;stroke-linecap:square;stroke-width:1.5;"/>
      <g>
       <use style="stroke:#000000;" x="156.271958" xlink:href="#m22ad8b7ac8" y="312.12"/>
      </g>
     </g>
     <g id="text_23">
      <!-- 6 -->
      <defs>
       <path d="M 33.015625 40.375 
Q 26.375 40.375 22.484375 35.828125 
Q 18.609375 31.296875 18.609375 23.390625 
Q 18.609375 15.53125 22.484375 10.953125 
Q 26.375 6.390625 33.015625 6.390625 
Q 39.65625 6.390625 43.53125 10.953125 
Q 47.40625 15.53125 47.40625 23.390625 
Q 47.40625 31.296875 43.53125 35.828125 
Q 39.65625 40.375 33.015625 40.375 
z
M 52.59375 71.296875 
L 52.59375 62.3125 
Q 48.875 64.0625 45.09375 64.984375 
Q 41.3125 65.921875 37.59375 65.921875 
Q 27.828125 65.921875 22.671875 59.328125 
Q 17.53125 52.734375 16.796875 39.40625 
Q 19.671875 43.65625 24.015625 45.921875 
Q 28.375 48.1875 33.59375 48.1875 
Q 44.578125 48.1875 50.953125 41.515625 
Q 57.328125 34.859375 57.328125 23.390625 
Q 57.328125 12.15625 50.6875 5.359375 
Q 44.046875 -1.421875 33.015625 -1.421875 
Q 20.359375 -1.421875 13.671875 8.265625 
Q 6.984375 17.96875 6.984375 36.375 
Q 6.984375 53.65625 15.1875 63.9375 
Q 23.390625 74.21875 37.203125 74.21875 
Q 40.921875 74.21875 44.703125 73.484375 
Q 48.484375 72.75 52.59375 71.296875 
z
" id="DejaVuSans-54"/>
      </defs>
      <g style="fill:#4d4d4d;" transform="translate(153.217958 324.8145)scale(0.096 -0.096)">
       <use xlink:href="#DejaVuSans-54"/>
      </g>
     </g>
    </g>
    <g id="xtick_38">
     <g id="line2d_40">
      <path d="M 174.388841 312.12 
" style="fill:none;stroke:#000000;stroke-linecap:square;stroke-width:1.5;"/>
      <g>
       <use style="stroke:#000000;" x="174.388841" xlink:href="#m22ad8b7ac8" y="312.12"/>
      </g>
     </g>
     <g id="text_24">
      <!-- 7 -->
      <defs>
       <path d="M 8.203125 72.90625 
L 55.078125 72.90625 
L 55.078125 68.703125 
L 28.609375 0 
L 18.3125 0 
L 43.21875 64.59375 
L 8.203125 64.59375 
z
" id="DejaVuSans-55"/>
      </defs>
      <g style="fill:#4d4d4d;" transform="translate(171.334841 324.8145)scale(0.096 -0.096)">
       <use xlink:href="#DejaVuSans-55"/>
      </g>
     </g>
    </g>
    <g id="xtick_39"/>
    <g id="xtick_40"/>
    <g id="xtick_41"/>
    <g id="xtick_42"/>
    <g id="xtick_43"/>
    <g id="xtick_44"/>
    <g id="xtick_45"/>
    <g id="text_25">
     <!-- Age (days) -->
     <defs>
      <path d="M 31 75.875 
Q 24.46875 64.65625 21.28125 53.65625 
Q 18.109375 42.671875 18.109375 31.390625 
Q 18.109375 20.125 21.3125 9.0625 
Q 24.515625 -2 31 -13.1875 
L 23.1875 -13.1875 
Q 15.875 -1.703125 12.234375 9.375 
Q 8.59375 20.453125 8.59375 31.390625 
Q 8.59375 42.28125 12.203125 53.3125 
Q 15.828125 64.359375 23.1875 75.875 
z
" id="DejaVuSans-40"/>
      <path d="M 32.171875 -5.078125 
Q 28.375 -14.84375 24.75 -17.8125 
Q 21.140625 -20.796875 15.09375 -20.796875 
L 7.90625 -20.796875 
L 7.90625 -13.28125 
L 13.1875 -13.28125 
Q 16.890625 -13.28125 18.9375 -11.515625 
Q 21 -9.765625 23.484375 -3.21875 
L 25.09375 0.875 
L 2.984375 54.6875 
L 12.5 54.6875 
L 29.59375 11.921875 
L 46.6875 54.6875 
L 56.203125 54.6875 
z
" id="DejaVuSans-121"/>
      <path d="M 8.015625 75.875 
L 15.828125 75.875 
Q 23.140625 64.359375 26.78125 53.3125 
Q 30.421875 42.28125 30.421875 31.390625 
Q 30.421875 20.453125 26.78125 9.375 
Q 23.140625 -1.703125 15.828125 -13.1875 
L 8.015625 -13.1875 
Q 14.5 -2 17.703125 9.0625 
Q 20.90625 20.125 20.90625 31.390625 
Q 20.90625 42.671875 17.703125 53.65625 
Q 14.5 64.65625 8.015625 75.875 
z
" id="DejaVuSans-41"/>
     </defs>
     <g transform="translate(76.372875 340.729125)scale(0.12 -0.12)">
      <use xlink:href="#DejaVuSans-65"/>
      <use x="68.408203" xlink:href="#DejaVuSans-103"/>
      <use x="131.884766" xlink:href="#DejaVuSans-101"/>
      <use x="193.408203" xlink:href="#DejaVuSans-32"/>
      <use x="225.195312" xlink:href="#DejaVuSans-40"/>
      <use x="264.208984" xlink:href="#DejaVuSans-100"/>
      <use x="327.685547" xlink:href="#DejaVuSans-97"/>
      <use x="388.964844" xlink:href="#DejaVuSans-121"/>
      <use x="448.144531" xlink:href="#DejaVuSans-115"/>
      <use x="500.244141" xlink:href="#DejaVuSans-41"/>
     </g>
    </g>
   </g>
   <g id="matplotlib.axis_6">
    <g id="ytick_17">
     <g id="line2d_41">
      <path clip-path="url(#p98648bb04f)" d="M 41.22975 308.922771 
L 180.72975 308.922771 
" style="fill:none;stroke:#d3d3d3;stroke-linecap:square;stroke-opacity:0.5;stroke-width:0.8;"/>
     </g>
     <g id="line2d_42">
      <path d="M 41.22975 308.922771 
" style="fill:none;stroke:#000000;stroke-linecap:square;stroke-width:1.5;"/>
      <g>
       <use style="stroke:#000000;" x="41.22975" xlink:href="#mdcd7f64375" y="308.922771"/>
      </g>
     </g>
     <g id="text_26">
      <!-- 0 -->
      <g style="fill:#4d4d4d;" transform="translate(29.72175 311.571771)scale(0.096 -0.096)">
       <use xlink:href="#DejaVuSans-48"/>
      </g>
     </g>
    </g>
    <g id="ytick_18">
     <g id="line2d_43">
      <path clip-path="url(#p98648bb04f)" d="M 41.22975 284.463651 
L 180.72975 284.463651 
" style="fill:none;stroke:#d3d3d3;stroke-linecap:square;stroke-opacity:0.5;stroke-width:0.8;"/>
     </g>
     <g id="line2d_44">
      <path d="M 41.22975 284.463651 
" style="fill:none;stroke:#000000;stroke-linecap:square;stroke-width:1.5;"/>
      <g>
       <use style="stroke:#000000;" x="41.22975" xlink:href="#mdcd7f64375" y="284.463651"/>
      </g>
     </g>
     <g id="text_27">
      <!-- 5 -->
      <g style="fill:#4d4d4d;" transform="translate(29.72175 287.112651)scale(0.096 -0.096)">
       <use xlink:href="#DejaVuSans-53"/>
      </g>
     </g>
    </g>
    <g id="ytick_19">
     <g id="line2d_45">
      <path clip-path="url(#p98648bb04f)" d="M 41.22975 260.004532 
L 180.72975 260.004532 
" style="fill:none;stroke:#d3d3d3;stroke-linecap:square;stroke-opacity:0.5;stroke-width:0.8;"/>
     </g>
     <g id="line2d_46">
      <path d="M 41.22975 260.004532 
" style="fill:none;stroke:#000000;stroke-linecap:square;stroke-width:1.5;"/>
      <g>
       <use style="stroke:#000000;" x="41.22975" xlink:href="#mdcd7f64375" y="260.004532"/>
      </g>
     </g>
     <g id="text_28">
      <!-- 10 -->
      <g style="fill:#4d4d4d;" transform="translate(23.61375 262.653532)scale(0.096 -0.096)">
       <use xlink:href="#DejaVuSans-49"/>
       <use x="63.623047" xlink:href="#DejaVuSans-48"/>
      </g>
     </g>
    </g>
    <g id="ytick_20">
     <g id="line2d_47">
      <path clip-path="url(#p98648bb04f)" d="M 41.22975 235.545412 
L 180.72975 235.545412 
" style="fill:none;stroke:#d3d3d3;stroke-linecap:square;stroke-opacity:0.5;stroke-width:0.8;"/>
     </g>
     <g id="line2d_48">
      <path d="M 41.22975 235.545412 
" style="fill:none;stroke:#000000;stroke-linecap:square;stroke-width:1.5;"/>
      <g>
       <use style="stroke:#000000;" x="41.22975" xlink:href="#mdcd7f64375" y="235.545412"/>
      </g>
     </g>
     <g id="text_29">
      <!-- 15 -->
      <g style="fill:#4d4d4d;" transform="translate(23.61375 238.194412)scale(0.096 -0.096)">
       <use xlink:href="#DejaVuSans-49"/>
       <use x="63.623047" xlink:href="#DejaVuSans-53"/>
      </g>
     </g>
    </g>
    <g id="ytick_21">
     <g id="line2d_49">
      <path d="M 41.22975 296.693211 
" style="fill:none;stroke:#000000;stroke-linecap:square;stroke-width:1.5;"/>
      <g>
       <use style="stroke:#000000;" x="41.22975" xlink:href="#m24a6fd0417" y="296.693211"/>
      </g>
     </g>
    </g>
    <g id="ytick_22">
     <g id="line2d_50">
      <path d="M 41.22975 272.234091 
" style="fill:none;stroke:#000000;stroke-linecap:square;stroke-width:1.5;"/>
      <g>
       <use style="stroke:#000000;" x="41.22975" xlink:href="#m24a6fd0417" y="272.234091"/>
      </g>
     </g>
    </g>
    <g id="ytick_23">
     <g id="line2d_51">
      <path d="M 41.22975 247.774972 
" style="fill:none;stroke:#000000;stroke-linecap:square;stroke-width:1.5;"/>
      <g>
       <use style="stroke:#000000;" x="41.22975" xlink:href="#m24a6fd0417" y="247.774972"/>
      </g>
     </g>
    </g>
    <g id="ytick_24">
     <g id="line2d_52">
      <path d="M 41.22975 223.315852 
" style="fill:none;stroke:#000000;stroke-linecap:square;stroke-width:1.5;"/>
      <g>
       <use style="stroke:#000000;" x="41.22975" xlink:href="#m24a6fd0417" y="223.315852"/>
      </g>
     </g>
    </g>
   </g>
   <g id="line2d_53">
    <path clip-path="url(#p98648bb04f)" d="M 47.570659 307.652727 
L 65.687542 274.602926 
L 83.804425 256.341495 
L 101.921308 267.295808 
L 120.038192 244.012528 
L 138.155075 225.852804 
L 156.271958 249.411928 
L 174.388841 248.514911 
" style="fill:none;stroke:#ef8a62;stroke-width:2.658681;"/>
   </g>
   <g id="PathCollection_3">
    <path clip-path="url(#p98648bb04f)" d="M 65.687542 269.728678 
L 64.593205 273.096701 
L 61.051857 273.096701 
L 63.916868 275.178253 
L 62.822531 278.546276 
L 65.687542 276.464723 
L 68.552553 278.546276 
L 67.458216 275.178253 
L 70.323228 273.096701 
L 66.781879 273.096701 
z
" style="fill:#ef8a62;fill-opacity:0.698039;stroke:#000000;stroke-opacity:0.698039;stroke-width:0.886227;"/>
    <path clip-path="url(#p98648bb04f)" d="M 83.804425 251.467247 
L 82.710088 254.835269 
L 79.16874 254.835269 
L 82.033751 256.916822 
L 80.939414 260.284844 
L 83.804425 258.203292 
L 86.669436 260.284844 
L 85.5751 256.916822 
L 88.440111 254.835269 
L 84.898762 254.835269 
z
" style="fill:#ef8a62;fill-opacity:0.698039;stroke:#000000;stroke-opacity:0.698039;stroke-width:0.886227;"/>
    <path clip-path="url(#p98648bb04f)" d="M 101.921308 262.42156 
L 100.826972 265.789583 
L 97.285623 265.789583 
L 100.150634 267.871135 
L 99.056297 271.239158 
L 101.921308 269.157605 
L 104.78632 271.239158 
L 103.691983 267.871135 
L 106.556994 265.789583 
L 103.015645 265.789583 
z
" style="fill:#ef8a62;fill-opacity:0.698039;stroke:#000000;stroke-opacity:0.698039;stroke-width:0.886227;"/>
    <path clip-path="url(#p98648bb04f)" d="M 120.038192 239.13828 
L 118.943855 242.506302 
L 115.402506 242.506302 
L 118.267517 244.587855 
L 117.17318 247.955877 
L 120.038192 245.874325 
L 122.903203 247.955877 
L 121.808866 244.587855 
L 124.673877 242.506302 
L 121.132528 242.506302 
z
" style="fill:#ef8a62;fill-opacity:0.698039;stroke:#000000;stroke-opacity:0.698039;stroke-width:0.886227;"/>
    <path clip-path="url(#p98648bb04f)" d="M 138.155075 220.978556 
L 137.060738 224.346579 
L 133.519389 224.346579 
L 136.3844 226.428131 
L 135.290064 229.796154 
L 138.155075 227.714601 
L 141.020086 229.796154 
L 139.925749 226.428131 
L 142.79076 224.346579 
L 139.249412 224.346579 
z
" style="fill:#ef8a62;fill-opacity:0.698039;stroke:#000000;stroke-opacity:0.698039;stroke-width:0.886227;"/>
    <path clip-path="url(#p98648bb04f)" d="M 156.271958 244.53768 
L 155.177621 247.905702 
L 151.636272 247.905702 
L 154.501284 249.987255 
L 153.406947 253.355277 
L 156.271958 251.273725 
L 159.136969 253.355277 
L 158.042632 249.987255 
L 160.907643 247.905702 
L 157.366295 247.905702 
z
" style="fill:#ef8a62;fill-opacity:0.698039;stroke:#000000;stroke-opacity:0.698039;stroke-width:0.886227;"/>
    <path clip-path="url(#p98648bb04f)" d="M 174.388841 243.640663 
L 173.294504 247.008686 
L 169.753156 247.008686 
L 172.618167 249.090238 
L 171.52383 252.458261 
L 174.388841 250.376708 
L 177.253852 252.458261 
L 176.159515 249.090238 
L 179.024526 247.008686 
L 175.483178 247.008686 
z
" style="fill:#ef8a62;fill-opacity:0.698039;stroke:#000000;stroke-opacity:0.698039;stroke-width:0.886227;"/>
   </g>
   <g id="PathCollection_4">
    <defs>
     <path d="M 0 2.215567 
C 0.587575 2.215567 1.151164 1.982121 1.566643 1.566643 
C 1.982121 1.151164 2.215567 0.587575 2.215567 0 
C 2.215567 -0.587575 1.982121 -1.151164 1.566643 -1.566643 
C 1.151164 -1.982121 0.587575 -2.215567 0 -2.215567 
C -0.587575 -2.215567 -1.151164 -1.982121 -1.566643 -1.566643 
C -1.982121 -1.151164 -2.215567 -0.587575 -2.215567 0 
C -2.215567 0.587575 -1.982121 1.151164 -1.566643 1.566643 
C -1.151164 1.982121 -0.587575 2.215567 0 2.215567 
z
" id="m40ff166e61" style="stroke:#000000;stroke-opacity:0.698039;stroke-width:0.886227;"/>
    </defs>
    <g clip-path="url(#p98648bb04f)">
     <use style="fill:#ef8a62;fill-opacity:0.698039;stroke:#000000;stroke-opacity:0.698039;stroke-width:0.886227;" x="47.570659" xlink:href="#m40ff166e61" y="307.652727"/>
    </g>
   </g>
   <g id="patch_16">
    <path d="M 180.72975 312.12 
L 196.32975 312.12 
L 196.32975 213.84 
L 180.72975 213.84 
z
" style="fill:none;stroke:#000000;stroke-linejoin:miter;"/>
   </g>
   <g id="patch_17">
    <path d="M 41.22975 312.12 
L 41.22975 213.84 
" style="fill:none;stroke:#000000;stroke-linecap:square;stroke-linejoin:miter;"/>
   </g>
   <g id="patch_18">
    <path d="M 41.22975 312.12 
L 180.72975 312.12 
" style="fill:none;stroke:#000000;stroke-linecap:square;stroke-linejoin:miter;"/>
   </g>
   <g id="text_30">
    <!-- VLBW-C-section -->
    <defs>
     <path d="M 19.671875 34.8125 
L 19.671875 8.109375 
L 35.5 8.109375 
Q 43.453125 8.109375 47.28125 11.40625 
Q 51.125 14.703125 51.125 21.484375 
Q 51.125 28.328125 47.28125 31.5625 
Q 43.453125 34.8125 35.5 34.8125 
z
M 19.671875 64.796875 
L 19.671875 42.828125 
L 34.28125 42.828125 
Q 41.5 42.828125 45.03125 45.53125 
Q 48.578125 48.25 48.578125 53.8125 
Q 48.578125 59.328125 45.03125 62.0625 
Q 41.5 64.796875 34.28125 64.796875 
z
M 9.8125 72.90625 
L 35.015625 72.90625 
Q 46.296875 72.90625 52.390625 68.21875 
Q 58.5 63.53125 58.5 54.890625 
Q 58.5 48.1875 55.375 44.234375 
Q 52.25 40.28125 46.1875 39.3125 
Q 53.46875 37.75 57.5 32.78125 
Q 61.53125 27.828125 61.53125 20.40625 
Q 61.53125 10.640625 54.890625 5.3125 
Q 48.25 0 35.984375 0 
L 9.8125 0 
z
" id="DejaVuSans-66"/>
     <path d="M 3.328125 72.90625 
L 13.28125 72.90625 
L 28.609375 11.28125 
L 43.890625 72.90625 
L 54.984375 72.90625 
L 70.3125 11.28125 
L 85.59375 72.90625 
L 95.609375 72.90625 
L 77.296875 0 
L 64.890625 0 
L 49.515625 63.28125 
L 33.984375 0 
L 21.578125 0 
z
" id="DejaVuSans-87"/>
    </defs>
    <g style="fill:#1a1a1a;" transform="translate(185.88075 224.88525)rotate(-270)scale(0.096 -0.096)">
     <use xlink:href="#DejaVuSans-86"/>
     <use x="68.408203" xlink:href="#DejaVuSans-76"/>
     <use x="124.121094" xlink:href="#DejaVuSans-66"/>
     <use x="192.677734" xlink:href="#DejaVuSans-87"/>
     <use x="291.492188" xlink:href="#DejaVuSans-45"/>
     <use x="327.576172" xlink:href="#DejaVuSans-67"/>
     <use x="397.400391" xlink:href="#DejaVuSans-45"/>
     <use x="433.484375" xlink:href="#DejaVuSans-115"/>
     <use x="485.583984" xlink:href="#DejaVuSans-101"/>
     <use x="547.107422" xlink:href="#DejaVuSans-99"/>
     <use x="602.087891" xlink:href="#DejaVuSans-116"/>
     <use x="641.296875" xlink:href="#DejaVuSans-105"/>
     <use x="669.080078" xlink:href="#DejaVuSans-111"/>
     <use x="730.261719" xlink:href="#DejaVuSans-110"/>
    </g>
   </g>
  </g>
 </g>
 <defs>
  <clipPath id="pf7d52706d2">
   <rect height="98.28" width="139.5" x="41.22975" y="7.2"/>
  </clipPath>
  <clipPath id="p0df92e2901">
   <path d="M 215.92975 138.528699 
L 215.92975 121.248699 
L 233.20975 121.248699 
L 233.20975 138.528699 
"/>
  </clipPath>
  <clipPath id="pd44c7913b3">
   <path d="M 215.92975 157.808699 
L 215.92975 140.528699 
L 233.20975 140.528699 
L 233.20975 157.808699 
"/>
  </clipPath>
  <clipPath id="p71ab2d4402">
   <path d="M 215.92975 201.724719 
L 215.92975 184.222449 
L 233.432019 184.222449 
L 233.432019 201.724719 
"/>
  </clipPath>
  <clipPath id="p7ab7f0f263">
   <path d="M 215.92975 221.226988 
L 215.92975 203.724719 
L 233.432019 203.724719 
L 233.432019 221.226988 
"/>
  </clipPath>
  <clipPath id="p541d894293">
   <rect height="98.28" width="139.5" x="41.22975" y="110.52"/>
  </clipPath>
  <clipPath id="p98648bb04f">
   <rect height="98.28" width="139.5" x="41.22975" y="213.84"/>
  </clipPath>
 </defs>
</svg>
