<?xml version="1.0" encoding="utf-8" standalone="no"?>
<!DOCTYPE svg PUBLIC "-//W3C//DTD SVG 1.1//EN"
  "http://www.w3.org/Graphics/SVG/1.1/DTD/svg11.dtd">
<!-- Created with matplotlib (https://matplotlib.org/) -->
<svg height="175.454063pt" version="1.1" viewBox="0 0 534.1475 175.454063" width="534.1475pt" xmlns="http://www.w3.org/2000/svg" xmlns:xlink="http://www.w3.org/1999/xlink">
 <defs>
  <style type="text/css">
*{stroke-linecap:butt;stroke-linejoin:round;}
  </style>
 </defs>
 <g id="figure_1">
  <g id="patch_1">
   <path d="M 0 175.454063 
L 534.1475 175.454063 
L 534.1475 0 
L 0 0 
z
" style="fill:#ffffff;stroke:#ffffff;stroke-linejoin:miter;"/>
  </g>
  <g id="axes_1">
   <g id="patch_2">
    <path d="M 49.461563 138.58 
L 157.701562 138.58 
L 157.701562 27.7 
L 49.461563 27.7 
z
" style="fill:#ffffff;stroke:#000000;stroke-linejoin:miter;"/>
   </g>
   <g id="matplotlib.axis_1">
    <g id="xtick_1">
     <g id="line2d_1">
      <path d="M 54.381563 138.58 
" style="fill:none;stroke:#333333;stroke-width:1.5;"/>
      <defs>
       <path d="M 0 0 
L 0 2.75 
" id="mbda469ff27" style="stroke:#333333;"/>
      </defs>
      <g>
       <use style="fill:#333333;stroke:#333333;" x="54.381563" xlink:href="#mbda469ff27" y="138.58"/>
      </g>
     </g>
     <g id="text_1">
      <!-- 0 -->
      <defs>
       <path d="M 31.78125 66.40625 
Q 24.171875 66.40625 20.328125 58.90625 
Q 16.5 51.421875 16.5 36.375 
Q 16.5 21.390625 20.328125 13.890625 
Q 24.171875 6.390625 31.78125 6.390625 
Q 39.453125 6.390625 43.28125 13.890625 
Q 47.125 21.390625 47.125 36.375 
Q 47.125 51.421875 43.28125 58.90625 
Q 39.453125 66.40625 31.78125 66.40625 
z
M 31.78125 74.21875 
Q 44.046875 74.21875 50.515625 64.515625 
Q 56.984375 54.828125 56.984375 36.375 
Q 56.984375 17.96875 50.515625 8.265625 
Q 44.046875 -1.421875 31.78125 -1.421875 
Q 19.53125 -1.421875 13.0625 8.265625 
Q 6.59375 17.96875 6.59375 36.375 
Q 6.59375 54.828125 13.0625 64.515625 
Q 19.53125 74.21875 31.78125 74.21875 
z
" id="DejaVuSans-48"/>
      </defs>
      <g transform="translate(51.200313 151.128438)scale(0.1 -0.1)">
       <use xlink:href="#DejaVuSans-48"/>
      </g>
     </g>
    </g>
    <g id="xtick_2">
     <g id="line2d_2">
      <path d="M 68.438705 138.58 
" style="fill:none;stroke:#333333;stroke-width:1.5;"/>
      <g>
       <use style="fill:#333333;stroke:#333333;" x="68.438705" xlink:href="#mbda469ff27" y="138.58"/>
      </g>
     </g>
     <g id="text_2">
      <!-- 1 -->
      <defs>
       <path d="M 12.40625 8.296875 
L 28.515625 8.296875 
L 28.515625 63.921875 
L 10.984375 60.40625 
L 10.984375 69.390625 
L 28.421875 72.90625 
L 38.28125 72.90625 
L 38.28125 8.296875 
L 54.390625 8.296875 
L 54.390625 0 
L 12.40625 0 
z
" id="DejaVuSans-49"/>
      </defs>
      <g transform="translate(65.257455 151.128438)scale(0.1 -0.1)">
       <use xlink:href="#DejaVuSans-49"/>
      </g>
     </g>
    </g>
    <g id="xtick_3">
     <g id="line2d_3">
      <path d="M 82.495848 138.58 
" style="fill:none;stroke:#333333;stroke-width:1.5;"/>
      <g>
       <use style="fill:#333333;stroke:#333333;" x="82.495848" xlink:href="#mbda469ff27" y="138.58"/>
      </g>
     </g>
     <g id="text_3">
      <!-- 2 -->
      <defs>
       <path d="M 19.1875 8.296875 
L 53.609375 8.296875 
L 53.609375 0 
L 7.328125 0 
L 7.328125 8.296875 
Q 12.9375 14.109375 22.625 23.890625 
Q 32.328125 33.6875 34.8125 36.53125 
Q 39.546875 41.84375 41.421875 45.53125 
Q 43.3125 49.21875 43.3125 52.78125 
Q 43.3125 58.59375 39.234375 62.25 
Q 35.15625 65.921875 28.609375 65.921875 
Q 23.96875 65.921875 18.8125 64.3125 
Q 13.671875 62.703125 7.8125 59.421875 
L 7.8125 69.390625 
Q 13.765625 71.78125 18.9375 73 
Q 24.125 74.21875 28.421875 74.21875 
Q 39.75 74.21875 46.484375 68.546875 
Q 53.21875 62.890625 53.21875 53.421875 
Q 53.21875 48.921875 51.53125 44.890625 
Q 49.859375 40.875 45.40625 35.40625 
Q 44.1875 33.984375 37.640625 27.21875 
Q 31.109375 20.453125 19.1875 8.296875 
z
" id="DejaVuSans-50"/>
      </defs>
      <g transform="translate(79.314598 151.128438)scale(0.1 -0.1)">
       <use xlink:href="#DejaVuSans-50"/>
      </g>
     </g>
    </g>
    <g id="xtick_4">
     <g id="line2d_4">
      <path d="M 96.552991 138.58 
" style="fill:none;stroke:#333333;stroke-width:1.5;"/>
      <g>
       <use style="fill:#333333;stroke:#333333;" x="96.552991" xlink:href="#mbda469ff27" y="138.58"/>
      </g>
     </g>
     <g id="text_4">
      <!-- 3 -->
      <defs>
       <path d="M 40.578125 39.3125 
Q 47.65625 37.796875 51.625 33 
Q 55.609375 28.21875 55.609375 21.1875 
Q 55.609375 10.40625 48.1875 4.484375 
Q 40.765625 -1.421875 27.09375 -1.421875 
Q 22.515625 -1.421875 17.65625 -0.515625 
Q 12.796875 0.390625 7.625 2.203125 
L 7.625 11.71875 
Q 11.71875 9.328125 16.59375 8.109375 
Q 21.484375 6.890625 26.8125 6.890625 
Q 36.078125 6.890625 40.9375 10.546875 
Q 45.796875 14.203125 45.796875 21.1875 
Q 45.796875 27.640625 41.28125 31.265625 
Q 36.765625 34.90625 28.71875 34.90625 
L 20.21875 34.90625 
L 20.21875 43.015625 
L 29.109375 43.015625 
Q 36.375 43.015625 40.234375 45.921875 
Q 44.09375 48.828125 44.09375 54.296875 
Q 44.09375 59.90625 40.109375 62.90625 
Q 36.140625 65.921875 28.71875 65.921875 
Q 24.65625 65.921875 20.015625 65.03125 
Q 15.375 64.15625 9.8125 62.3125 
L 9.8125 71.09375 
Q 15.4375 72.65625 20.34375 73.4375 
Q 25.25 74.21875 29.59375 74.21875 
Q 40.828125 74.21875 47.359375 69.109375 
Q 53.90625 64.015625 53.90625 55.328125 
Q 53.90625 49.265625 50.4375 45.09375 
Q 46.96875 40.921875 40.578125 39.3125 
z
" id="DejaVuSans-51"/>
      </defs>
      <g transform="translate(93.371741 151.128438)scale(0.1 -0.1)">
       <use xlink:href="#DejaVuSans-51"/>
      </g>
     </g>
    </g>
    <g id="xtick_5">
     <g id="line2d_5">
      <path d="M 110.610134 138.58 
" style="fill:none;stroke:#333333;stroke-width:1.5;"/>
      <g>
       <use style="fill:#333333;stroke:#333333;" x="110.610134" xlink:href="#mbda469ff27" y="138.58"/>
      </g>
     </g>
     <g id="text_5">
      <!-- 4 -->
      <defs>
       <path d="M 37.796875 64.3125 
L 12.890625 25.390625 
L 37.796875 25.390625 
z
M 35.203125 72.90625 
L 47.609375 72.90625 
L 47.609375 25.390625 
L 58.015625 25.390625 
L 58.015625 17.1875 
L 47.609375 17.1875 
L 47.609375 0 
L 37.796875 0 
L 37.796875 17.1875 
L 4.890625 17.1875 
L 4.890625 26.703125 
z
" id="DejaVuSans-52"/>
      </defs>
      <g transform="translate(107.428884 151.128438)scale(0.1 -0.1)">
       <use xlink:href="#DejaVuSans-52"/>
      </g>
     </g>
    </g>
    <g id="xtick_6">
     <g id="line2d_6">
      <path d="M 124.667277 138.58 
" style="fill:none;stroke:#333333;stroke-width:1.5;"/>
      <g>
       <use style="fill:#333333;stroke:#333333;" x="124.667277" xlink:href="#mbda469ff27" y="138.58"/>
      </g>
     </g>
     <g id="text_6">
      <!-- 5 -->
      <defs>
       <path d="M 10.796875 72.90625 
L 49.515625 72.90625 
L 49.515625 64.59375 
L 19.828125 64.59375 
L 19.828125 46.734375 
Q 21.96875 47.46875 24.109375 47.828125 
Q 26.265625 48.1875 28.421875 48.1875 
Q 40.625 48.1875 47.75 41.5 
Q 54.890625 34.8125 54.890625 23.390625 
Q 54.890625 11.625 47.5625 5.09375 
Q 40.234375 -1.421875 26.90625 -1.421875 
Q 22.3125 -1.421875 17.546875 -0.640625 
Q 12.796875 0.140625 7.71875 1.703125 
L 7.71875 11.625 
Q 12.109375 9.234375 16.796875 8.0625 
Q 21.484375 6.890625 26.703125 6.890625 
Q 35.15625 6.890625 40.078125 11.328125 
Q 45.015625 15.765625 45.015625 23.390625 
Q 45.015625 31 40.078125 35.4375 
Q 35.15625 39.890625 26.703125 39.890625 
Q 22.75 39.890625 18.8125 39.015625 
Q 14.890625 38.140625 10.796875 36.28125 
z
" id="DejaVuSans-53"/>
      </defs>
      <g transform="translate(121.486027 151.128438)scale(0.1 -0.1)">
       <use xlink:href="#DejaVuSans-53"/>
      </g>
     </g>
    </g>
    <g id="xtick_7">
     <g id="line2d_7">
      <path d="M 138.72442 138.58 
" style="fill:none;stroke:#333333;stroke-width:1.5;"/>
      <g>
       <use style="fill:#333333;stroke:#333333;" x="138.72442" xlink:href="#mbda469ff27" y="138.58"/>
      </g>
     </g>
     <g id="text_7">
      <!-- 6 -->
      <defs>
       <path d="M 33.015625 40.375 
Q 26.375 40.375 22.484375 35.828125 
Q 18.609375 31.296875 18.609375 23.390625 
Q 18.609375 15.53125 22.484375 10.953125 
Q 26.375 6.390625 33.015625 6.390625 
Q 39.65625 6.390625 43.53125 10.953125 
Q 47.40625 15.53125 47.40625 23.390625 
Q 47.40625 31.296875 43.53125 35.828125 
Q 39.65625 40.375 33.015625 40.375 
z
M 52.59375 71.296875 
L 52.59375 62.3125 
Q 48.875 64.0625 45.09375 64.984375 
Q 41.3125 65.921875 37.59375 65.921875 
Q 27.828125 65.921875 22.671875 59.328125 
Q 17.53125 52.734375 16.796875 39.40625 
Q 19.671875 43.65625 24.015625 45.921875 
Q 28.375 48.1875 33.59375 48.1875 
Q 44.578125 48.1875 50.953125 41.515625 
Q 57.328125 34.859375 57.328125 23.390625 
Q 57.328125 12.15625 50.6875 5.359375 
Q 44.046875 -1.421875 33.015625 -1.421875 
Q 20.359375 -1.421875 13.671875 8.265625 
Q 6.984375 17.96875 6.984375 36.375 
Q 6.984375 53.65625 15.1875 63.9375 
Q 23.390625 74.21875 37.203125 74.21875 
Q 40.921875 74.21875 44.703125 73.484375 
Q 48.484375 72.75 52.59375 71.296875 
z
" id="DejaVuSans-54"/>
      </defs>
      <g transform="translate(135.54317 151.128438)scale(0.1 -0.1)">
       <use xlink:href="#DejaVuSans-54"/>
      </g>
     </g>
    </g>
    <g id="xtick_8">
     <g id="line2d_8">
      <path d="M 152.781563 138.58 
" style="fill:none;stroke:#333333;stroke-width:1.5;"/>
      <g>
       <use style="fill:#333333;stroke:#333333;" x="152.781563" xlink:href="#mbda469ff27" y="138.58"/>
      </g>
     </g>
     <g id="text_8">
      <!-- 7 -->
      <defs>
       <path d="M 8.203125 72.90625 
L 55.078125 72.90625 
L 55.078125 68.703125 
L 28.609375 0 
L 18.3125 0 
L 43.21875 64.59375 
L 8.203125 64.59375 
z
" id="DejaVuSans-55"/>
      </defs>
      <g transform="translate(149.600313 151.128438)scale(0.1 -0.1)">
       <use xlink:href="#DejaVuSans-55"/>
      </g>
     </g>
    </g>
    <g id="xtick_9">
     <g id="line2d_9">
      <path clip-path="url(#p6b713bcd80)" d="M 61.410134 138.58 
L 61.410134 27.7 
" style="fill:none;stroke:#ffffff;stroke-width:0.5;"/>
     </g>
    </g>
    <g id="xtick_10">
     <g id="line2d_10">
      <path clip-path="url(#p6b713bcd80)" d="M 75.467277 138.58 
L 75.467277 27.7 
" style="fill:none;stroke:#ffffff;stroke-width:0.5;"/>
     </g>
    </g>
    <g id="xtick_11">
     <g id="line2d_11">
      <path clip-path="url(#p6b713bcd80)" d="M 89.52442 138.58 
L 89.52442 27.7 
" style="fill:none;stroke:#ffffff;stroke-width:0.5;"/>
     </g>
    </g>
    <g id="xtick_12">
     <g id="line2d_12">
      <path clip-path="url(#p6b713bcd80)" d="M 103.581563 138.58 
L 103.581563 27.7 
" style="fill:none;stroke:#ffffff;stroke-width:0.5;"/>
     </g>
    </g>
    <g id="xtick_13">
     <g id="line2d_13">
      <path clip-path="url(#p6b713bcd80)" d="M 117.638705 138.58 
L 117.638705 27.7 
" style="fill:none;stroke:#ffffff;stroke-width:0.5;"/>
     </g>
    </g>
    <g id="xtick_14">
     <g id="line2d_14">
      <path clip-path="url(#p6b713bcd80)" d="M 131.695848 138.58 
L 131.695848 27.7 
" style="fill:none;stroke:#ffffff;stroke-width:0.5;"/>
     </g>
    </g>
    <g id="xtick_15">
     <g id="line2d_15">
      <path clip-path="url(#p6b713bcd80)" d="M 145.752991 138.58 
L 145.752991 27.7 
" style="fill:none;stroke:#ffffff;stroke-width:0.5;"/>
     </g>
    </g>
   </g>
   <g id="matplotlib.axis_2">
    <g id="ytick_1">
     <g id="line2d_16">
      <path clip-path="url(#p6b713bcd80)" d="M 49.461563 133.54 
L 157.701562 133.54 
" style="fill:none;stroke:#d3d3d3;stroke-opacity:0.4;"/>
     </g>
     <g id="line2d_17">
      <path d="M 49.461563 133.54 
" style="fill:none;stroke:#333333;stroke-width:1.5;"/>
      <defs>
       <path d="M 0 0 
L -2.75 0 
" id="mb0df86ebd5" style="stroke:#333333;"/>
      </defs>
      <g>
       <use style="fill:#333333;stroke:#333333;" x="49.461563" xlink:href="#mb0df86ebd5" y="133.54"/>
      </g>
     </g>
     <g id="text_9">
      <!-- 0 -->
      <g transform="translate(38.149062 136.299375)scale(0.1 -0.1)">
       <use xlink:href="#DejaVuSans-48"/>
      </g>
     </g>
    </g>
    <g id="ytick_2">
     <g id="line2d_18">
      <path clip-path="url(#p6b713bcd80)" d="M 49.461563 107.92902 
L 157.701562 107.92902 
" style="fill:none;stroke:#d3d3d3;stroke-opacity:0.4;"/>
     </g>
     <g id="line2d_19">
      <path d="M 49.461563 107.92902 
" style="fill:none;stroke:#333333;stroke-width:1.5;"/>
      <g>
       <use style="fill:#333333;stroke:#333333;" x="49.461563" xlink:href="#mb0df86ebd5" y="107.92902"/>
      </g>
     </g>
     <g id="text_10">
      <!-- 0.25 -->
      <defs>
       <path d="M 10.6875 12.40625 
L 21 12.40625 
L 21 0 
L 10.6875 0 
z
" id="DejaVuSans-46"/>
      </defs>
      <g transform="translate(22.245938 110.688395)scale(0.1 -0.1)">
       <use xlink:href="#DejaVuSans-48"/>
       <use x="63.623047" xlink:href="#DejaVuSans-46"/>
       <use x="95.410156" xlink:href="#DejaVuSans-50"/>
       <use x="159.033203" xlink:href="#DejaVuSans-53"/>
      </g>
     </g>
    </g>
    <g id="ytick_3">
     <g id="line2d_20">
      <path clip-path="url(#p6b713bcd80)" d="M 49.461563 82.31804 
L 157.701562 82.31804 
" style="fill:none;stroke:#d3d3d3;stroke-opacity:0.4;"/>
     </g>
     <g id="line2d_21">
      <path d="M 49.461563 82.31804 
" style="fill:none;stroke:#333333;stroke-width:1.5;"/>
      <g>
       <use style="fill:#333333;stroke:#333333;" x="49.461563" xlink:href="#mb0df86ebd5" y="82.31804"/>
      </g>
     </g>
     <g id="text_11">
      <!-- 0.50 -->
      <g transform="translate(22.245938 85.077415)scale(0.1 -0.1)">
       <use xlink:href="#DejaVuSans-48"/>
       <use x="63.623047" xlink:href="#DejaVuSans-46"/>
       <use x="95.410156" xlink:href="#DejaVuSans-53"/>
       <use x="159.033203" xlink:href="#DejaVuSans-48"/>
      </g>
     </g>
    </g>
    <g id="ytick_4">
     <g id="line2d_22">
      <path clip-path="url(#p6b713bcd80)" d="M 49.461563 56.70706 
L 157.701562 56.70706 
" style="fill:none;stroke:#d3d3d3;stroke-opacity:0.4;"/>
     </g>
     <g id="line2d_23">
      <path d="M 49.461563 56.70706 
" style="fill:none;stroke:#333333;stroke-width:1.5;"/>
      <g>
       <use style="fill:#333333;stroke:#333333;" x="49.461563" xlink:href="#mb0df86ebd5" y="56.70706"/>
      </g>
     </g>
     <g id="text_12">
      <!-- 0.75 -->
      <g transform="translate(22.245938 59.466435)scale(0.1 -0.1)">
       <use xlink:href="#DejaVuSans-48"/>
       <use x="63.623047" xlink:href="#DejaVuSans-46"/>
       <use x="95.410156" xlink:href="#DejaVuSans-55"/>
       <use x="159.033203" xlink:href="#DejaVuSans-53"/>
      </g>
     </g>
    </g>
    <g id="ytick_5">
     <g id="line2d_24">
      <path clip-path="url(#p6b713bcd80)" d="M 49.461563 31.09608 
L 157.701562 31.09608 
" style="fill:none;stroke:#d3d3d3;stroke-opacity:0.4;"/>
     </g>
     <g id="line2d_25">
      <path d="M 49.461563 31.09608 
" style="fill:none;stroke:#333333;stroke-width:1.5;"/>
      <g>
       <use style="fill:#333333;stroke:#333333;" x="49.461563" xlink:href="#mb0df86ebd5" y="31.09608"/>
      </g>
     </g>
     <g id="text_13">
      <!-- 1 -->
      <g transform="translate(38.149062 33.855455)scale(0.1 -0.1)">
       <use xlink:href="#DejaVuSans-49"/>
      </g>
     </g>
    </g>
    <g id="ytick_6">
     <g id="line2d_26">
      <path clip-path="url(#p6b713bcd80)" d="M 49.461563 120.73451 
L 157.701562 120.73451 
" style="fill:none;stroke:#ffffff;stroke-width:0.5;"/>
     </g>
    </g>
    <g id="ytick_7">
     <g id="line2d_27">
      <path clip-path="url(#p6b713bcd80)" d="M 49.461563 95.12353 
L 157.701562 95.12353 
" style="fill:none;stroke:#ffffff;stroke-width:0.5;"/>
     </g>
    </g>
    <g id="ytick_8">
     <g id="line2d_28">
      <path clip-path="url(#p6b713bcd80)" d="M 49.461563 69.51255 
L 157.701562 69.51255 
" style="fill:none;stroke:#ffffff;stroke-width:0.5;"/>
     </g>
    </g>
    <g id="ytick_9">
     <g id="line2d_29">
      <path clip-path="url(#p6b713bcd80)" d="M 49.461563 43.90157 
L 157.701562 43.90157 
" style="fill:none;stroke:#ffffff;stroke-width:0.5;"/>
     </g>
    </g>
    <g id="text_14">
     <!-- Source Proportion -->
     <defs>
      <path d="M 53.515625 70.515625 
L 53.515625 60.890625 
Q 47.90625 63.578125 42.921875 64.890625 
Q 37.9375 66.21875 33.296875 66.21875 
Q 25.25 66.21875 20.875 63.09375 
Q 16.5 59.96875 16.5 54.203125 
Q 16.5 49.359375 19.40625 46.890625 
Q 22.3125 44.4375 30.421875 42.921875 
L 36.375 41.703125 
Q 47.40625 39.59375 52.65625 34.296875 
Q 57.90625 29 57.90625 20.125 
Q 57.90625 9.515625 50.796875 4.046875 
Q 43.703125 -1.421875 29.984375 -1.421875 
Q 24.8125 -1.421875 18.96875 -0.25 
Q 13.140625 0.921875 6.890625 3.21875 
L 6.890625 13.375 
Q 12.890625 10.015625 18.65625 8.296875 
Q 24.421875 6.59375 29.984375 6.59375 
Q 38.421875 6.59375 43.015625 9.90625 
Q 47.609375 13.234375 47.609375 19.390625 
Q 47.609375 24.75 44.3125 27.78125 
Q 41.015625 30.8125 33.5 32.328125 
L 27.484375 33.5 
Q 16.453125 35.6875 11.515625 40.375 
Q 6.59375 45.0625 6.59375 53.421875 
Q 6.59375 63.09375 13.40625 68.65625 
Q 20.21875 74.21875 32.171875 74.21875 
Q 37.3125 74.21875 42.625 73.28125 
Q 47.953125 72.359375 53.515625 70.515625 
z
" id="DejaVuSans-83"/>
      <path d="M 30.609375 48.390625 
Q 23.390625 48.390625 19.1875 42.75 
Q 14.984375 37.109375 14.984375 27.296875 
Q 14.984375 17.484375 19.15625 11.84375 
Q 23.34375 6.203125 30.609375 6.203125 
Q 37.796875 6.203125 41.984375 11.859375 
Q 46.1875 17.53125 46.1875 27.296875 
Q 46.1875 37.015625 41.984375 42.703125 
Q 37.796875 48.390625 30.609375 48.390625 
z
M 30.609375 56 
Q 42.328125 56 49.015625 48.375 
Q 55.71875 40.765625 55.71875 27.296875 
Q 55.71875 13.875 49.015625 6.21875 
Q 42.328125 -1.421875 30.609375 -1.421875 
Q 18.84375 -1.421875 12.171875 6.21875 
Q 5.515625 13.875 5.515625 27.296875 
Q 5.515625 40.765625 12.171875 48.375 
Q 18.84375 56 30.609375 56 
z
" id="DejaVuSans-111"/>
      <path d="M 8.5 21.578125 
L 8.5 54.6875 
L 17.484375 54.6875 
L 17.484375 21.921875 
Q 17.484375 14.15625 20.5 10.265625 
Q 23.53125 6.390625 29.59375 6.390625 
Q 36.859375 6.390625 41.078125 11.03125 
Q 45.3125 15.671875 45.3125 23.6875 
L 45.3125 54.6875 
L 54.296875 54.6875 
L 54.296875 0 
L 45.3125 0 
L 45.3125 8.40625 
Q 42.046875 3.421875 37.71875 1 
Q 33.40625 -1.421875 27.6875 -1.421875 
Q 18.265625 -1.421875 13.375 4.4375 
Q 8.5 10.296875 8.5 21.578125 
z
M 31.109375 56 
z
" id="DejaVuSans-117"/>
      <path d="M 41.109375 46.296875 
Q 39.59375 47.171875 37.8125 47.578125 
Q 36.03125 48 33.890625 48 
Q 26.265625 48 22.1875 43.046875 
Q 18.109375 38.09375 18.109375 28.8125 
L 18.109375 0 
L 9.078125 0 
L 9.078125 54.6875 
L 18.109375 54.6875 
L 18.109375 46.1875 
Q 20.953125 51.171875 25.484375 53.578125 
Q 30.03125 56 36.53125 56 
Q 37.453125 56 38.578125 55.875 
Q 39.703125 55.765625 41.0625 55.515625 
z
" id="DejaVuSans-114"/>
      <path d="M 48.78125 52.59375 
L 48.78125 44.1875 
Q 44.96875 46.296875 41.140625 47.34375 
Q 37.3125 48.390625 33.40625 48.390625 
Q 24.65625 48.390625 19.8125 42.84375 
Q 14.984375 37.3125 14.984375 27.296875 
Q 14.984375 17.28125 19.8125 11.734375 
Q 24.65625 6.203125 33.40625 6.203125 
Q 37.3125 6.203125 41.140625 7.25 
Q 44.96875 8.296875 48.78125 10.40625 
L 48.78125 2.09375 
Q 45.015625 0.34375 40.984375 -0.53125 
Q 36.96875 -1.421875 32.421875 -1.421875 
Q 20.0625 -1.421875 12.78125 6.34375 
Q 5.515625 14.109375 5.515625 27.296875 
Q 5.515625 40.671875 12.859375 48.328125 
Q 20.21875 56 33.015625 56 
Q 37.15625 56 41.109375 55.140625 
Q 45.0625 54.296875 48.78125 52.59375 
z
" id="DejaVuSans-99"/>
      <path d="M 56.203125 29.59375 
L 56.203125 25.203125 
L 14.890625 25.203125 
Q 15.484375 15.921875 20.484375 11.0625 
Q 25.484375 6.203125 34.421875 6.203125 
Q 39.59375 6.203125 44.453125 7.46875 
Q 49.3125 8.734375 54.109375 11.28125 
L 54.109375 2.78125 
Q 49.265625 0.734375 44.1875 -0.34375 
Q 39.109375 -1.421875 33.890625 -1.421875 
Q 20.796875 -1.421875 13.15625 6.1875 
Q 5.515625 13.8125 5.515625 26.8125 
Q 5.515625 40.234375 12.765625 48.109375 
Q 20.015625 56 32.328125 56 
Q 43.359375 56 49.78125 48.890625 
Q 56.203125 41.796875 56.203125 29.59375 
z
M 47.21875 32.234375 
Q 47.125 39.59375 43.09375 43.984375 
Q 39.0625 48.390625 32.421875 48.390625 
Q 24.90625 48.390625 20.390625 44.140625 
Q 15.875 39.890625 15.1875 32.171875 
z
" id="DejaVuSans-101"/>
      <path id="DejaVuSans-32"/>
      <path d="M 19.671875 64.796875 
L 19.671875 37.40625 
L 32.078125 37.40625 
Q 38.96875 37.40625 42.71875 40.96875 
Q 46.484375 44.53125 46.484375 51.125 
Q 46.484375 57.671875 42.71875 61.234375 
Q 38.96875 64.796875 32.078125 64.796875 
z
M 9.8125 72.90625 
L 32.078125 72.90625 
Q 44.34375 72.90625 50.609375 67.359375 
Q 56.890625 61.8125 56.890625 51.125 
Q 56.890625 40.328125 50.609375 34.8125 
Q 44.34375 29.296875 32.078125 29.296875 
L 19.671875 29.296875 
L 19.671875 0 
L 9.8125 0 
z
" id="DejaVuSans-80"/>
      <path d="M 18.109375 8.203125 
L 18.109375 -20.796875 
L 9.078125 -20.796875 
L 9.078125 54.6875 
L 18.109375 54.6875 
L 18.109375 46.390625 
Q 20.953125 51.265625 25.265625 53.625 
Q 29.59375 56 35.59375 56 
Q 45.5625 56 51.78125 48.09375 
Q 58.015625 40.1875 58.015625 27.296875 
Q 58.015625 14.40625 51.78125 6.484375 
Q 45.5625 -1.421875 35.59375 -1.421875 
Q 29.59375 -1.421875 25.265625 0.953125 
Q 20.953125 3.328125 18.109375 8.203125 
z
M 48.6875 27.296875 
Q 48.6875 37.203125 44.609375 42.84375 
Q 40.53125 48.484375 33.40625 48.484375 
Q 26.265625 48.484375 22.1875 42.84375 
Q 18.109375 37.203125 18.109375 27.296875 
Q 18.109375 17.390625 22.1875 11.75 
Q 26.265625 6.109375 33.40625 6.109375 
Q 40.53125 6.109375 44.609375 11.75 
Q 48.6875 17.390625 48.6875 27.296875 
z
" id="DejaVuSans-112"/>
      <path d="M 18.3125 70.21875 
L 18.3125 54.6875 
L 36.8125 54.6875 
L 36.8125 47.703125 
L 18.3125 47.703125 
L 18.3125 18.015625 
Q 18.3125 11.328125 20.140625 9.421875 
Q 21.96875 7.515625 27.59375 7.515625 
L 36.8125 7.515625 
L 36.8125 0 
L 27.59375 0 
Q 17.1875 0 13.234375 3.875 
Q 9.28125 7.765625 9.28125 18.015625 
L 9.28125 47.703125 
L 2.6875 47.703125 
L 2.6875 54.6875 
L 9.28125 54.6875 
L 9.28125 70.21875 
z
" id="DejaVuSans-116"/>
      <path d="M 9.421875 54.6875 
L 18.40625 54.6875 
L 18.40625 0 
L 9.421875 0 
z
M 9.421875 75.984375 
L 18.40625 75.984375 
L 18.40625 64.59375 
L 9.421875 64.59375 
z
" id="DejaVuSans-105"/>
      <path d="M 54.890625 33.015625 
L 54.890625 0 
L 45.90625 0 
L 45.90625 32.71875 
Q 45.90625 40.484375 42.875 44.328125 
Q 39.84375 48.1875 33.796875 48.1875 
Q 26.515625 48.1875 22.3125 43.546875 
Q 18.109375 38.921875 18.109375 30.90625 
L 18.109375 0 
L 9.078125 0 
L 9.078125 54.6875 
L 18.109375 54.6875 
L 18.109375 46.1875 
Q 21.34375 51.125 25.703125 53.5625 
Q 30.078125 56 35.796875 56 
Q 45.21875 56 50.046875 50.171875 
Q 54.890625 44.34375 54.890625 33.015625 
z
" id="DejaVuSans-110"/>
     </defs>
     <g transform="translate(15.558281 131.771328)rotate(-90)scale(0.11 -0.11)">
      <use xlink:href="#DejaVuSans-83"/>
      <use x="63.476562" xlink:href="#DejaVuSans-111"/>
      <use x="124.658203" xlink:href="#DejaVuSans-117"/>
      <use x="188.037109" xlink:href="#DejaVuSans-114"/>
      <use x="229.119141" xlink:href="#DejaVuSans-99"/>
      <use x="284.099609" xlink:href="#DejaVuSans-101"/>
      <use x="345.623047" xlink:href="#DejaVuSans-32"/>
      <use x="377.410156" xlink:href="#DejaVuSans-80"/>
      <use x="437.697266" xlink:href="#DejaVuSans-114"/>
      <use x="478.779297" xlink:href="#DejaVuSans-111"/>
      <use x="539.960938" xlink:href="#DejaVuSans-112"/>
      <use x="603.4375" xlink:href="#DejaVuSans-111"/>
      <use x="664.619141" xlink:href="#DejaVuSans-114"/>
      <use x="705.732422" xlink:href="#DejaVuSans-116"/>
      <use x="744.941406" xlink:href="#DejaVuSans-105"/>
      <use x="772.724609" xlink:href="#DejaVuSans-111"/>
      <use x="833.90625" xlink:href="#DejaVuSans-110"/>
     </g>
    </g>
   </g>
   <g id="line2d_30">
    <path clip-path="url(#p6b713bcd80)" d="M 54.381563 98.590232 
L 68.438705 64.690856 
L 82.495848 57.536856 
L 96.552991 78.777578 
L 110.610134 61.59705 
L 124.667277 52.045862 
L 138.72442 45.925862 
L 152.781563 49.582086 
" style="fill:none;stroke:#377eb8;stroke-width:2.658681;"/>
   </g>
   <g id="line2d_31">
    <path clip-path="url(#p6b713bcd80)" d="M 54.381563 133.433458 
L 68.438705 126.652354 
L 82.495848 107.908531 
L 96.552991 101.770092 
L 110.610134 113.252689 
L 124.667277 119.836418 
L 138.72442 124.44298 
L 152.781563 121.815293 
" style="fill:none;stroke:#984ea3;stroke-width:2.658681;"/>
   </g>
   <g id="line2d_32">
    <path clip-path="url(#p6b713bcd80)" d="M 54.381563 130.724841 
L 68.438705 131.876994 
L 82.495848 133.475119 
L 96.552991 133.474436 
L 110.610134 133.294135 
L 124.667277 133.184861 
L 138.72442 132.978607 
L 152.781563 133.427312 
" style="fill:none;stroke:#4daf4a;stroke-width:2.658681;"/>
   </g>
   <g id="line2d_33">
    <path clip-path="url(#p6b713bcd80)" d="M 54.381563 113.292984 
L 68.438705 129.83153 
L 82.495848 133.174617 
L 96.552991 133.318721 
L 110.610134 133.092662 
L 124.667277 133.020951 
L 138.72442 133.191691 
L 152.781563 132.997047 
" style="fill:none;stroke:#ff7f00;stroke-width:2.658681;"/>
   </g>
   <g id="line2d_34">
    <path clip-path="url(#p6b713bcd80)" d="M 54.381563 131.138715 
L 68.438705 130.692059 
L 82.495848 133.406823 
L 96.552991 133.392481 
L 110.610134 133.338527 
L 124.667277 133.160957 
L 138.72442 133.191691 
L 152.781563 133.109736 
" style="fill:none;stroke:#f781bf;stroke-width:2.658681;"/>
   </g>
   <g id="line2d_35">
    <path clip-path="url(#p6b713bcd80)" d="M 54.381563 91.61585 
L 68.438705 115.052287 
L 82.495848 133.294135 
L 96.552991 118.062773 
L 110.610134 124.221018 
L 124.667277 127.547031 
L 138.72442 129.06525 
L 152.781563 127.864607 
" style="fill:none;stroke:#999999;stroke-width:2.658681;"/>
   </g>
   <g id="PolyCollection_1">
    <path clip-path="url(#p6b713bcd80)" d="M 54.381563 81.379299 
L 54.381563 115.801166 
L 68.438705 80.886853 
L 82.495848 70.999606 
L 96.552991 97.433473 
L 110.610134 78.47916 
L 124.667277 68.175392 
L 138.72442 51.262746 
L 152.781563 55.75004 
L 152.781563 43.414132 
L 152.781563 43.414132 
L 138.72442 40.588979 
L 124.667277 35.916332 
L 110.610134 44.714941 
L 96.552991 60.121683 
L 82.495848 44.074106 
L 68.438705 48.49486 
L 54.381563 81.379299 
z
" style="fill:#377eb8;fill-opacity:0.2;"/>
   </g>
   <g id="PolyCollection_2">
    <path clip-path="url(#p6b713bcd80)" d="M 54.381563 133.402117 
L 54.381563 133.4648 
L 68.438705 133.462287 
L 82.495848 121.332505 
L 96.552991 114.29837 
L 110.610134 123.834318 
L 124.667277 131.578004 
L 138.72442 129.859813 
L 152.781563 129.067037 
L 152.781563 114.56355 
L 152.781563 114.56355 
L 138.72442 119.026147 
L 124.667277 108.094832 
L 110.610134 102.67106 
L 96.552991 89.241813 
L 82.495848 94.484558 
L 68.438705 119.84242 
L 54.381563 133.402117 
z
" style="fill:#984ea3;fill-opacity:0.2;"/>
   </g>
   <g id="PolyCollection_3">
    <path clip-path="url(#p6b713bcd80)" d="M 54.381563 129.320506 
L 54.381563 132.129176 
L 68.438705 133.401993 
L 82.495848 133.507043 
L 96.552991 133.511881 
L 110.610134 133.437263 
L 124.667277 133.460442 
L 138.72442 133.371949 
L 152.781563 133.473506 
L 152.781563 133.381117 
L 152.781563 133.381117 
L 138.72442 132.585265 
L 124.667277 132.90928 
L 110.610134 133.151006 
L 96.552991 133.436991 
L 82.495848 133.443195 
L 68.438705 130.351995 
L 54.381563 129.320506 
z
" style="fill:#4daf4a;fill-opacity:0.2;"/>
   </g>
   <g id="PolyCollection_4">
    <path clip-path="url(#p6b713bcd80)" d="M 54.381563 109.680268 
L 54.381563 116.9057 
L 68.438705 131.620761 
L 82.495848 133.269754 
L 96.552991 133.384605 
L 110.610134 133.194202 
L 124.667277 133.208037 
L 138.72442 133.284004 
L 152.781563 133.214926 
L 152.781563 132.779168 
L 152.781563 132.779168 
L 138.72442 133.099377 
L 124.667277 132.833865 
L 110.610134 132.991121 
L 96.552991 133.252838 
L 82.495848 133.079479 
L 68.438705 128.042299 
L 54.381563 109.680268 
z
" style="fill:#ff7f00;fill-opacity:0.2;"/>
   </g>
   <g id="PolyCollection_5">
    <path clip-path="url(#p6b713bcd80)" d="M 54.381563 130.391916 
L 54.381563 131.885513 
L 68.438705 132.341637 
L 82.495848 133.435677 
L 96.552991 133.43103 
L 110.610134 133.410368 
L 124.667277 133.332929 
L 138.72442 133.373684 
L 152.781563 133.308909 
L 152.781563 132.910562 
L 152.781563 132.910562 
L 138.72442 133.009698 
L 124.667277 132.988986 
L 110.610134 133.266686 
L 96.552991 133.353931 
L 82.495848 133.377968 
L 68.438705 129.042481 
L 54.381563 130.391916 
z
" style="fill:#f781bf;fill-opacity:0.2;"/>
   </g>
   <g id="PolyCollection_6">
    <path clip-path="url(#p6b713bcd80)" d="M 54.381563 75.258329 
L 54.381563 107.973371 
L 68.438705 125.786889 
L 82.495848 133.462342 
L 96.552991 131.044065 
L 110.610134 131.102481 
L 124.667277 132.29193 
L 138.72442 133.514433 
L 152.781563 133.410997 
L 152.781563 122.318217 
L 152.781563 122.318217 
L 138.72442 124.616066 
L 124.667277 122.802131 
L 110.610134 117.339555 
L 96.552991 105.08148 
L 82.495848 133.125927 
L 68.438705 104.317686 
L 54.381563 75.258329 
z
" style="fill:#999999;fill-opacity:0.2;"/>
   </g>
   <g id="patch_3">
    <path d="M 49.461563 27.7 
L 157.701562 27.7 
L 157.701562 7.2 
L 49.461563 7.2 
z
" style="fill:#ffffff;stroke:#000000;stroke-linejoin:miter;"/>
   </g>
   <g id="text_15">
    <!-- Stool -->
    <defs>
     <path d="M 9.421875 75.984375 
L 18.40625 75.984375 
L 18.40625 0 
L 9.421875 0 
z
" id="DejaVuSans-108"/>
    </defs>
    <g style="fill:#1a1a1a;" transform="translate(84.618281 21.589063)scale(0.15 -0.15)">
     <use xlink:href="#DejaVuSans-83"/>
     <use x="63.476562" xlink:href="#DejaVuSans-116"/>
     <use x="102.685547" xlink:href="#DejaVuSans-111"/>
     <use x="163.867188" xlink:href="#DejaVuSans-111"/>
     <use x="225.048828" xlink:href="#DejaVuSans-108"/>
    </g>
   </g>
   <g id="patch_4">
    <path d="M 408.961563 154.662969 
L 526.9475 154.662969 
L 526.9475 10.177031 
L 408.961563 10.177031 
z
" style="fill:#ffffff;"/>
   </g>
   <g id="text_16">
    <!-- Predicted Source -->
    <defs>
     <path d="M 45.40625 46.390625 
L 45.40625 75.984375 
L 54.390625 75.984375 
L 54.390625 0 
L 45.40625 0 
L 45.40625 8.203125 
Q 42.578125 3.328125 38.25 0.953125 
Q 33.9375 -1.421875 27.875 -1.421875 
Q 17.96875 -1.421875 11.734375 6.484375 
Q 5.515625 14.40625 5.515625 27.296875 
Q 5.515625 40.1875 11.734375 48.09375 
Q 17.96875 56 27.875 56 
Q 33.9375 56 38.25 53.625 
Q 42.578125 51.265625 45.40625 46.390625 
z
M 14.796875 27.296875 
Q 14.796875 17.390625 18.875 11.75 
Q 22.953125 6.109375 30.078125 6.109375 
Q 37.203125 6.109375 41.296875 11.75 
Q 45.40625 17.390625 45.40625 27.296875 
Q 45.40625 37.203125 41.296875 42.84375 
Q 37.203125 48.484375 30.078125 48.484375 
Q 22.953125 48.484375 18.875 42.84375 
Q 14.796875 37.203125 14.796875 27.296875 
z
" id="DejaVuSans-100"/>
    </defs>
    <g transform="translate(421.161563 33.770625)scale(0.11 -0.11)">
     <use xlink:href="#DejaVuSans-80"/>
     <use x="60.287109" xlink:href="#DejaVuSans-114"/>
     <use x="101.369141" xlink:href="#DejaVuSans-101"/>
     <use x="162.892578" xlink:href="#DejaVuSans-100"/>
     <use x="226.369141" xlink:href="#DejaVuSans-105"/>
     <use x="254.152344" xlink:href="#DejaVuSans-99"/>
     <use x="309.132812" xlink:href="#DejaVuSans-116"/>
     <use x="348.341797" xlink:href="#DejaVuSans-101"/>
     <use x="409.865234" xlink:href="#DejaVuSans-100"/>
     <use x="473.341797" xlink:href="#DejaVuSans-32"/>
     <use x="505.128906" xlink:href="#DejaVuSans-83"/>
     <use x="568.605469" xlink:href="#DejaVuSans-111"/>
     <use x="629.787109" xlink:href="#DejaVuSans-117"/>
     <use x="693.166016" xlink:href="#DejaVuSans-114"/>
     <use x="734.248047" xlink:href="#DejaVuSans-99"/>
     <use x="789.228516" xlink:href="#DejaVuSans-101"/>
    </g>
   </g>
   <g id="patch_5">
    <path clip-path="url(#pfffb5ceaec)" d="M 421.161563 53.262969 
L 437.001562 53.262969 
L 437.001562 37.422969 
L 421.161563 37.422969 
z
" style="fill:#ffffff;"/>
   </g>
   <g id="line2d_36">
    <path clip-path="url(#pfffb5ceaec)" d="M 421.161563 45.342969 
L 437.001562 45.342969 
" style="fill:none;stroke:#377eb8;stroke-width:2.658681;"/>
   </g>
   <g id="text_17">
    <!-- FT Infant Stool -->
    <defs>
     <path d="M 9.8125 72.90625 
L 51.703125 72.90625 
L 51.703125 64.59375 
L 19.671875 64.59375 
L 19.671875 43.109375 
L 48.578125 43.109375 
L 48.578125 34.8125 
L 19.671875 34.8125 
L 19.671875 0 
L 9.8125 0 
z
" id="DejaVuSans-70"/>
     <path d="M -0.296875 72.90625 
L 61.375 72.90625 
L 61.375 64.59375 
L 35.5 64.59375 
L 35.5 0 
L 25.59375 0 
L 25.59375 64.59375 
L -0.296875 64.59375 
z
" id="DejaVuSans-84"/>
     <path d="M 9.8125 72.90625 
L 19.671875 72.90625 
L 19.671875 0 
L 9.8125 0 
z
" id="DejaVuSans-73"/>
     <path d="M 37.109375 75.984375 
L 37.109375 68.5 
L 28.515625 68.5 
Q 23.6875 68.5 21.796875 66.546875 
Q 19.921875 64.59375 19.921875 59.515625 
L 19.921875 54.6875 
L 34.71875 54.6875 
L 34.71875 47.703125 
L 19.921875 47.703125 
L 19.921875 0 
L 10.890625 0 
L 10.890625 47.703125 
L 2.296875 47.703125 
L 2.296875 54.6875 
L 10.890625 54.6875 
L 10.890625 58.5 
Q 10.890625 67.625 15.140625 71.796875 
Q 19.390625 75.984375 28.609375 75.984375 
z
" id="DejaVuSans-102"/>
     <path d="M 34.28125 27.484375 
Q 23.390625 27.484375 19.1875 25 
Q 14.984375 22.515625 14.984375 16.5 
Q 14.984375 11.71875 18.140625 8.90625 
Q 21.296875 6.109375 26.703125 6.109375 
Q 34.1875 6.109375 38.703125 11.40625 
Q 43.21875 16.703125 43.21875 25.484375 
L 43.21875 27.484375 
z
M 52.203125 31.203125 
L 52.203125 0 
L 43.21875 0 
L 43.21875 8.296875 
Q 40.140625 3.328125 35.546875 0.953125 
Q 30.953125 -1.421875 24.3125 -1.421875 
Q 15.921875 -1.421875 10.953125 3.296875 
Q 6 8.015625 6 15.921875 
Q 6 25.140625 12.171875 29.828125 
Q 18.359375 34.515625 30.609375 34.515625 
L 43.21875 34.515625 
L 43.21875 35.40625 
Q 43.21875 41.609375 39.140625 45 
Q 35.0625 48.390625 27.6875 48.390625 
Q 23 48.390625 18.546875 47.265625 
Q 14.109375 46.140625 10.015625 43.890625 
L 10.015625 52.203125 
Q 14.9375 54.109375 19.578125 55.046875 
Q 24.21875 56 28.609375 56 
Q 40.484375 56 46.34375 49.84375 
Q 52.203125 43.703125 52.203125 31.203125 
z
" id="DejaVuSans-97"/>
    </defs>
    <g transform="translate(440.001562 47.771219)scale(0.088 -0.088)">
     <use xlink:href="#DejaVuSans-70"/>
     <use x="57.503906" xlink:href="#DejaVuSans-84"/>
     <use x="118.587891" xlink:href="#DejaVuSans-32"/>
     <use x="150.375" xlink:href="#DejaVuSans-73"/>
     <use x="179.867188" xlink:href="#DejaVuSans-110"/>
     <use x="243.246094" xlink:href="#DejaVuSans-102"/>
     <use x="278.451172" xlink:href="#DejaVuSans-97"/>
     <use x="339.730469" xlink:href="#DejaVuSans-110"/>
     <use x="403.109375" xlink:href="#DejaVuSans-116"/>
     <use x="442.318359" xlink:href="#DejaVuSans-32"/>
     <use x="474.105469" xlink:href="#DejaVuSans-83"/>
     <use x="537.582031" xlink:href="#DejaVuSans-116"/>
     <use x="576.791016" xlink:href="#DejaVuSans-111"/>
     <use x="637.972656" xlink:href="#DejaVuSans-111"/>
     <use x="699.154297" xlink:href="#DejaVuSans-108"/>
    </g>
   </g>
   <g id="patch_6">
    <path clip-path="url(#p1fb2ffc089)" d="M 421.161563 71.102969 
L 437.001562 71.102969 
L 437.001562 55.262969 
L 421.161563 55.262969 
z
" style="fill:#ffffff;"/>
   </g>
   <g id="line2d_37">
    <path clip-path="url(#p1fb2ffc089)" d="M 421.161563 63.182969 
L 437.001562 63.182969 
" style="fill:none;stroke:#984ea3;stroke-width:2.658681;"/>
   </g>
   <g id="text_18">
    <!-- Adult Stool -->
    <defs>
     <path d="M 34.1875 63.1875 
L 20.796875 26.90625 
L 47.609375 26.90625 
z
M 28.609375 72.90625 
L 39.796875 72.90625 
L 67.578125 0 
L 57.328125 0 
L 50.6875 18.703125 
L 17.828125 18.703125 
L 11.1875 0 
L 0.78125 0 
z
" id="DejaVuSans-65"/>
    </defs>
    <g transform="translate(440.001562 65.611219)scale(0.088 -0.088)">
     <use xlink:href="#DejaVuSans-65"/>
     <use x="68.392578" xlink:href="#DejaVuSans-100"/>
     <use x="131.869141" xlink:href="#DejaVuSans-117"/>
     <use x="195.248047" xlink:href="#DejaVuSans-108"/>
     <use x="223.03125" xlink:href="#DejaVuSans-116"/>
     <use x="262.240234" xlink:href="#DejaVuSans-32"/>
     <use x="294.027344" xlink:href="#DejaVuSans-83"/>
     <use x="357.503906" xlink:href="#DejaVuSans-116"/>
     <use x="396.712891" xlink:href="#DejaVuSans-111"/>
     <use x="457.894531" xlink:href="#DejaVuSans-111"/>
     <use x="519.076172" xlink:href="#DejaVuSans-108"/>
    </g>
   </g>
   <g id="patch_7">
    <path clip-path="url(#pc03420af42)" d="M 421.161563 88.942969 
L 437.001562 88.942969 
L 437.001562 73.102969 
L 421.161563 73.102969 
z
" style="fill:#ffffff;"/>
   </g>
   <g id="line2d_38">
    <path clip-path="url(#pc03420af42)" d="M 421.161563 81.022969 
L 437.001562 81.022969 
" style="fill:none;stroke:#4daf4a;stroke-width:2.658681;"/>
   </g>
   <g id="text_19">
    <!-- Adult Oral -->
    <defs>
     <path d="M 39.40625 66.21875 
Q 28.65625 66.21875 22.328125 58.203125 
Q 16.015625 50.203125 16.015625 36.375 
Q 16.015625 22.609375 22.328125 14.59375 
Q 28.65625 6.59375 39.40625 6.59375 
Q 50.140625 6.59375 56.421875 14.59375 
Q 62.703125 22.609375 62.703125 36.375 
Q 62.703125 50.203125 56.421875 58.203125 
Q 50.140625 66.21875 39.40625 66.21875 
z
M 39.40625 74.21875 
Q 54.734375 74.21875 63.90625 63.9375 
Q 73.09375 53.65625 73.09375 36.375 
Q 73.09375 19.140625 63.90625 8.859375 
Q 54.734375 -1.421875 39.40625 -1.421875 
Q 24.03125 -1.421875 14.8125 8.828125 
Q 5.609375 19.09375 5.609375 36.375 
Q 5.609375 53.65625 14.8125 63.9375 
Q 24.03125 74.21875 39.40625 74.21875 
z
" id="DejaVuSans-79"/>
    </defs>
    <g transform="translate(440.001562 83.451219)scale(0.088 -0.088)">
     <use xlink:href="#DejaVuSans-65"/>
     <use x="68.392578" xlink:href="#DejaVuSans-100"/>
     <use x="131.869141" xlink:href="#DejaVuSans-117"/>
     <use x="195.248047" xlink:href="#DejaVuSans-108"/>
     <use x="223.03125" xlink:href="#DejaVuSans-116"/>
     <use x="262.240234" xlink:href="#DejaVuSans-32"/>
     <use x="294.027344" xlink:href="#DejaVuSans-79"/>
     <use x="372.738281" xlink:href="#DejaVuSans-114"/>
     <use x="413.851562" xlink:href="#DejaVuSans-97"/>
     <use x="475.130859" xlink:href="#DejaVuSans-108"/>
    </g>
   </g>
   <g id="patch_8">
    <path clip-path="url(#p5e6bb46501)" d="M 421.161563 106.782969 
L 437.001562 106.782969 
L 437.001562 90.942969 
L 421.161563 90.942969 
z
" style="fill:#ffffff;"/>
   </g>
   <g id="line2d_39">
    <path clip-path="url(#p5e6bb46501)" d="M 421.161563 98.862969 
L 437.001562 98.862969 
" style="fill:none;stroke:#ff7f00;stroke-width:2.658681;"/>
   </g>
   <g id="text_20">
    <!-- Adult Skin -->
    <defs>
     <path d="M 9.078125 75.984375 
L 18.109375 75.984375 
L 18.109375 31.109375 
L 44.921875 54.6875 
L 56.390625 54.6875 
L 27.390625 29.109375 
L 57.625 0 
L 45.90625 0 
L 18.109375 26.703125 
L 18.109375 0 
L 9.078125 0 
z
" id="DejaVuSans-107"/>
    </defs>
    <g transform="translate(440.001562 101.291219)scale(0.088 -0.088)">
     <use xlink:href="#DejaVuSans-65"/>
     <use x="68.392578" xlink:href="#DejaVuSans-100"/>
     <use x="131.869141" xlink:href="#DejaVuSans-117"/>
     <use x="195.248047" xlink:href="#DejaVuSans-108"/>
     <use x="223.03125" xlink:href="#DejaVuSans-116"/>
     <use x="262.240234" xlink:href="#DejaVuSans-32"/>
     <use x="294.027344" xlink:href="#DejaVuSans-83"/>
     <use x="357.503906" xlink:href="#DejaVuSans-107"/>
     <use x="415.414062" xlink:href="#DejaVuSans-105"/>
     <use x="443.197266" xlink:href="#DejaVuSans-110"/>
    </g>
   </g>
   <g id="patch_9">
    <path clip-path="url(#p94dec9ad84)" d="M 421.161563 124.622969 
L 437.001562 124.622969 
L 437.001562 108.782969 
L 421.161563 108.782969 
z
" style="fill:#ffffff;"/>
   </g>
   <g id="line2d_40">
    <path clip-path="url(#p94dec9ad84)" d="M 421.161563 116.702969 
L 437.001562 116.702969 
" style="fill:none;stroke:#f781bf;stroke-width:2.658681;"/>
   </g>
   <g id="text_21">
    <!-- Adult Vaginal -->
    <defs>
     <path d="M 28.609375 0 
L 0.78125 72.90625 
L 11.078125 72.90625 
L 34.1875 11.53125 
L 57.328125 72.90625 
L 67.578125 72.90625 
L 39.796875 0 
z
" id="DejaVuSans-86"/>
     <path d="M 45.40625 27.984375 
Q 45.40625 37.75 41.375 43.109375 
Q 37.359375 48.484375 30.078125 48.484375 
Q 22.859375 48.484375 18.828125 43.109375 
Q 14.796875 37.75 14.796875 27.984375 
Q 14.796875 18.265625 18.828125 12.890625 
Q 22.859375 7.515625 30.078125 7.515625 
Q 37.359375 7.515625 41.375 12.890625 
Q 45.40625 18.265625 45.40625 27.984375 
z
M 54.390625 6.78125 
Q 54.390625 -7.171875 48.1875 -13.984375 
Q 42 -20.796875 29.203125 -20.796875 
Q 24.46875 -20.796875 20.265625 -20.09375 
Q 16.0625 -19.390625 12.109375 -17.921875 
L 12.109375 -9.1875 
Q 16.0625 -11.328125 19.921875 -12.34375 
Q 23.78125 -13.375 27.78125 -13.375 
Q 36.625 -13.375 41.015625 -8.765625 
Q 45.40625 -4.15625 45.40625 5.171875 
L 45.40625 9.625 
Q 42.625 4.78125 38.28125 2.390625 
Q 33.9375 0 27.875 0 
Q 17.828125 0 11.671875 7.65625 
Q 5.515625 15.328125 5.515625 27.984375 
Q 5.515625 40.671875 11.671875 48.328125 
Q 17.828125 56 27.875 56 
Q 33.9375 56 38.28125 53.609375 
Q 42.625 51.21875 45.40625 46.390625 
L 45.40625 54.6875 
L 54.390625 54.6875 
z
" id="DejaVuSans-103"/>
    </defs>
    <g transform="translate(440.001562 119.131219)scale(0.088 -0.088)">
     <use xlink:href="#DejaVuSans-65"/>
     <use x="68.392578" xlink:href="#DejaVuSans-100"/>
     <use x="131.869141" xlink:href="#DejaVuSans-117"/>
     <use x="195.248047" xlink:href="#DejaVuSans-108"/>
     <use x="223.03125" xlink:href="#DejaVuSans-116"/>
     <use x="262.240234" xlink:href="#DejaVuSans-32"/>
     <use x="294.027344" xlink:href="#DejaVuSans-86"/>
     <use x="362.326172" xlink:href="#DejaVuSans-97"/>
     <use x="423.605469" xlink:href="#DejaVuSans-103"/>
     <use x="487.082031" xlink:href="#DejaVuSans-105"/>
     <use x="514.865234" xlink:href="#DejaVuSans-110"/>
     <use x="578.244141" xlink:href="#DejaVuSans-97"/>
     <use x="639.523438" xlink:href="#DejaVuSans-108"/>
    </g>
   </g>
   <g id="patch_10">
    <path clip-path="url(#pa151847daa)" d="M 421.161563 142.462969 
L 437.001562 142.462969 
L 437.001562 126.622969 
L 421.161563 126.622969 
z
" style="fill:#ffffff;"/>
   </g>
   <g id="line2d_41">
    <path clip-path="url(#pa151847daa)" d="M 421.161563 134.542969 
L 437.001562 134.542969 
" style="fill:none;stroke:#999999;stroke-width:2.658681;"/>
   </g>
   <g id="text_22">
    <!-- Unknown -->
    <defs>
     <path d="M 8.6875 72.90625 
L 18.609375 72.90625 
L 18.609375 28.609375 
Q 18.609375 16.890625 22.84375 11.734375 
Q 27.09375 6.59375 36.625 6.59375 
Q 46.09375 6.59375 50.34375 11.734375 
Q 54.59375 16.890625 54.59375 28.609375 
L 54.59375 72.90625 
L 64.5 72.90625 
L 64.5 27.390625 
Q 64.5 13.140625 57.4375 5.859375 
Q 50.390625 -1.421875 36.625 -1.421875 
Q 22.796875 -1.421875 15.734375 5.859375 
Q 8.6875 13.140625 8.6875 27.390625 
z
" id="DejaVuSans-85"/>
     <path d="M 4.203125 54.6875 
L 13.1875 54.6875 
L 24.421875 12.015625 
L 35.59375 54.6875 
L 46.1875 54.6875 
L 57.421875 12.015625 
L 68.609375 54.6875 
L 77.59375 54.6875 
L 63.28125 0 
L 52.6875 0 
L 40.921875 44.828125 
L 29.109375 0 
L 18.5 0 
z
" id="DejaVuSans-119"/>
    </defs>
    <g transform="translate(440.001562 136.971219)scale(0.088 -0.088)">
     <use xlink:href="#DejaVuSans-85"/>
     <use x="73.193359" xlink:href="#DejaVuSans-110"/>
     <use x="136.572266" xlink:href="#DejaVuSans-107"/>
     <use x="194.482422" xlink:href="#DejaVuSans-110"/>
     <use x="257.861328" xlink:href="#DejaVuSans-111"/>
     <use x="319.042969" xlink:href="#DejaVuSans-119"/>
     <use x="400.830078" xlink:href="#DejaVuSans-110"/>
    </g>
   </g>
  </g>
  <g id="axes_2">
   <g id="patch_11">
    <path d="M 162.741562 138.58 
L 270.981562 138.58 
L 270.981562 27.7 
L 162.741562 27.7 
z
" style="fill:#ffffff;stroke:#000000;stroke-linejoin:miter;"/>
   </g>
   <g id="matplotlib.axis_3">
    <g id="xtick_16">
     <g id="line2d_42">
      <path d="M 167.661563 138.58 
" style="fill:none;stroke:#333333;stroke-linecap:square;stroke-width:1.5;"/>
      <g>
       <use style="fill:#333333;stroke:#333333;" x="167.661563" xlink:href="#mbda469ff27" y="138.58"/>
      </g>
     </g>
     <g id="text_23">
      <!-- 0 -->
      <g transform="translate(164.480312 151.128438)scale(0.1 -0.1)">
       <use xlink:href="#DejaVuSans-48"/>
      </g>
     </g>
    </g>
    <g id="xtick_17">
     <g id="line2d_43">
      <path d="M 181.718705 138.58 
" style="fill:none;stroke:#333333;stroke-linecap:square;stroke-width:1.5;"/>
      <g>
       <use style="fill:#333333;stroke:#333333;" x="181.718705" xlink:href="#mbda469ff27" y="138.58"/>
      </g>
     </g>
     <g id="text_24">
      <!-- 1 -->
      <g transform="translate(178.537455 151.128438)scale(0.1 -0.1)">
       <use xlink:href="#DejaVuSans-49"/>
      </g>
     </g>
    </g>
    <g id="xtick_18">
     <g id="line2d_44">
      <path d="M 195.775848 138.58 
" style="fill:none;stroke:#333333;stroke-linecap:square;stroke-width:1.5;"/>
      <g>
       <use style="fill:#333333;stroke:#333333;" x="195.775848" xlink:href="#mbda469ff27" y="138.58"/>
      </g>
     </g>
     <g id="text_25">
      <!-- 2 -->
      <g transform="translate(192.594598 151.128438)scale(0.1 -0.1)">
       <use xlink:href="#DejaVuSans-50"/>
      </g>
     </g>
    </g>
    <g id="xtick_19">
     <g id="line2d_45">
      <path d="M 209.832991 138.58 
" style="fill:none;stroke:#333333;stroke-linecap:square;stroke-width:1.5;"/>
      <g>
       <use style="fill:#333333;stroke:#333333;" x="209.832991" xlink:href="#mbda469ff27" y="138.58"/>
      </g>
     </g>
     <g id="text_26">
      <!-- 3 -->
      <g transform="translate(206.651741 151.128438)scale(0.1 -0.1)">
       <use xlink:href="#DejaVuSans-51"/>
      </g>
     </g>
    </g>
    <g id="xtick_20">
     <g id="line2d_46">
      <path d="M 223.890134 138.58 
" style="fill:none;stroke:#333333;stroke-linecap:square;stroke-width:1.5;"/>
      <g>
       <use style="fill:#333333;stroke:#333333;" x="223.890134" xlink:href="#mbda469ff27" y="138.58"/>
      </g>
     </g>
     <g id="text_27">
      <!-- 4 -->
      <g transform="translate(220.708884 151.128438)scale(0.1 -0.1)">
       <use xlink:href="#DejaVuSans-52"/>
      </g>
     </g>
    </g>
    <g id="xtick_21">
     <g id="line2d_47">
      <path d="M 237.947277 138.58 
" style="fill:none;stroke:#333333;stroke-linecap:square;stroke-width:1.5;"/>
      <g>
       <use style="fill:#333333;stroke:#333333;" x="237.947277" xlink:href="#mbda469ff27" y="138.58"/>
      </g>
     </g>
     <g id="text_28">
      <!-- 5 -->
      <g transform="translate(234.766027 151.128438)scale(0.1 -0.1)">
       <use xlink:href="#DejaVuSans-53"/>
      </g>
     </g>
    </g>
    <g id="xtick_22">
     <g id="line2d_48">
      <path d="M 252.00442 138.58 
" style="fill:none;stroke:#333333;stroke-linecap:square;stroke-width:1.5;"/>
      <g>
       <use style="fill:#333333;stroke:#333333;" x="252.00442" xlink:href="#mbda469ff27" y="138.58"/>
      </g>
     </g>
     <g id="text_29">
      <!-- 6 -->
      <g transform="translate(248.82317 151.128438)scale(0.1 -0.1)">
       <use xlink:href="#DejaVuSans-54"/>
      </g>
     </g>
    </g>
    <g id="xtick_23">
     <g id="line2d_49">
      <path d="M 266.061563 138.58 
" style="fill:none;stroke:#333333;stroke-linecap:square;stroke-width:1.5;"/>
      <g>
       <use style="fill:#333333;stroke:#333333;" x="266.061563" xlink:href="#mbda469ff27" y="138.58"/>
      </g>
     </g>
     <g id="text_30">
      <!-- 7 -->
      <g transform="translate(262.880313 151.128438)scale(0.1 -0.1)">
       <use xlink:href="#DejaVuSans-55"/>
      </g>
     </g>
    </g>
    <g id="xtick_24">
     <g id="line2d_50">
      <path clip-path="url(#pf0057f2a2a)" d="M 174.690134 138.58 
L 174.690134 27.7 
" style="fill:none;stroke:#ffffff;stroke-linecap:square;stroke-width:0.5;"/>
     </g>
    </g>
    <g id="xtick_25">
     <g id="line2d_51">
      <path clip-path="url(#pf0057f2a2a)" d="M 188.747277 138.58 
L 188.747277 27.7 
" style="fill:none;stroke:#ffffff;stroke-linecap:square;stroke-width:0.5;"/>
     </g>
    </g>
    <g id="xtick_26">
     <g id="line2d_52">
      <path clip-path="url(#pf0057f2a2a)" d="M 202.80442 138.58 
L 202.80442 27.7 
" style="fill:none;stroke:#ffffff;stroke-linecap:square;stroke-width:0.5;"/>
     </g>
    </g>
    <g id="xtick_27">
     <g id="line2d_53">
      <path clip-path="url(#pf0057f2a2a)" d="M 216.861563 138.58 
L 216.861563 27.7 
" style="fill:none;stroke:#ffffff;stroke-linecap:square;stroke-width:0.5;"/>
     </g>
    </g>
    <g id="xtick_28">
     <g id="line2d_54">
      <path clip-path="url(#pf0057f2a2a)" d="M 230.918705 138.58 
L 230.918705 27.7 
" style="fill:none;stroke:#ffffff;stroke-linecap:square;stroke-width:0.5;"/>
     </g>
    </g>
    <g id="xtick_29">
     <g id="line2d_55">
      <path clip-path="url(#pf0057f2a2a)" d="M 244.975848 138.58 
L 244.975848 27.7 
" style="fill:none;stroke:#ffffff;stroke-linecap:square;stroke-width:0.5;"/>
     </g>
    </g>
    <g id="xtick_30">
     <g id="line2d_56">
      <path clip-path="url(#pf0057f2a2a)" d="M 259.032991 138.58 
L 259.032991 27.7 
" style="fill:none;stroke:#ffffff;stroke-linecap:square;stroke-width:0.5;"/>
     </g>
    </g>
   </g>
   <g id="matplotlib.axis_4">
    <g id="ytick_10">
     <g id="line2d_57">
      <path clip-path="url(#pf0057f2a2a)" d="M 162.741562 133.54 
L 270.981562 133.54 
" style="fill:none;stroke:#d3d3d3;stroke-linecap:square;stroke-opacity:0.4;"/>
     </g>
    </g>
    <g id="ytick_11">
     <g id="line2d_58">
      <path clip-path="url(#pf0057f2a2a)" d="M 162.741562 107.92902 
L 270.981562 107.92902 
" style="fill:none;stroke:#d3d3d3;stroke-linecap:square;stroke-opacity:0.4;"/>
     </g>
    </g>
    <g id="ytick_12">
     <g id="line2d_59">
      <path clip-path="url(#pf0057f2a2a)" d="M 162.741562 82.31804 
L 270.981562 82.31804 
" style="fill:none;stroke:#d3d3d3;stroke-linecap:square;stroke-opacity:0.4;"/>
     </g>
    </g>
    <g id="ytick_13">
     <g id="line2d_60">
      <path clip-path="url(#pf0057f2a2a)" d="M 162.741562 56.70706 
L 270.981562 56.70706 
" style="fill:none;stroke:#d3d3d3;stroke-linecap:square;stroke-opacity:0.4;"/>
     </g>
    </g>
    <g id="ytick_14">
     <g id="line2d_61">
      <path clip-path="url(#pf0057f2a2a)" d="M 162.741562 31.09608 
L 270.981562 31.09608 
" style="fill:none;stroke:#d3d3d3;stroke-linecap:square;stroke-opacity:0.4;"/>
     </g>
    </g>
    <g id="ytick_15">
     <g id="line2d_62">
      <path clip-path="url(#pf0057f2a2a)" d="M 162.741562 120.73451 
L 270.981562 120.73451 
" style="fill:none;stroke:#ffffff;stroke-linecap:square;stroke-width:0.5;"/>
     </g>
    </g>
    <g id="ytick_16">
     <g id="line2d_63">
      <path clip-path="url(#pf0057f2a2a)" d="M 162.741562 95.12353 
L 270.981562 95.12353 
" style="fill:none;stroke:#ffffff;stroke-linecap:square;stroke-width:0.5;"/>
     </g>
    </g>
    <g id="ytick_17">
     <g id="line2d_64">
      <path clip-path="url(#pf0057f2a2a)" d="M 162.741562 69.51255 
L 270.981562 69.51255 
" style="fill:none;stroke:#ffffff;stroke-linecap:square;stroke-width:0.5;"/>
     </g>
    </g>
    <g id="ytick_18">
     <g id="line2d_65">
      <path clip-path="url(#pf0057f2a2a)" d="M 162.741562 43.90157 
L 270.981562 43.90157 
" style="fill:none;stroke:#ffffff;stroke-linecap:square;stroke-width:0.5;"/>
     </g>
    </g>
   </g>
   <g id="line2d_66">
    <path clip-path="url(#pf0057f2a2a)" d="M 167.661563 129.998001 
L 181.718705 125.682551 
L 195.775848 102.086302 
L 209.832991 124.438882 
L 223.890134 124.067352 
L 237.947277 133.117931 
L 252.00442 133.384285 
L 266.061563 133.386334 
" style="fill:none;stroke:#377eb8;stroke-width:2.658681;"/>
   </g>
   <g id="line2d_67">
    <path clip-path="url(#pf0057f2a2a)" d="M 167.661563 126.087205 
L 181.718705 121.263804 
L 195.775848 133.232668 
L 209.832991 133.523609 
L 223.890134 133.481948 
L 237.947277 133.253157 
L 252.00442 133.499022 
L 266.061563 133.483656 
" style="fill:none;stroke:#984ea3;stroke-width:2.658681;"/>
   </g>
   <g id="line2d_68">
    <path clip-path="url(#pf0057f2a2a)" d="M 167.661563 106.55371 
L 181.718705 108.888578 
L 195.775848 85.292329 
L 209.832991 63.509337 
L 223.890134 81.324334 
L 237.947277 57.227475 
L 252.00442 40.025092 
L 266.061563 35.962167 
" style="fill:none;stroke:#4daf4a;stroke-width:2.658681;"/>
   </g>
   <g id="line2d_69">
    <path clip-path="url(#pf0057f2a2a)" d="M 167.661563 108.523195 
L 181.718705 112.614122 
L 195.775848 111.620416 
L 209.832991 110.535193 
L 223.890134 99.651551 
L 237.947277 113.977309 
L 252.00442 125.201065 
L 266.061563 129.585665 
" style="fill:none;stroke:#ff7f00;stroke-width:2.658681;"/>
   </g>
   <g id="line2d_70">
    <path clip-path="url(#pf0057f2a2a)" d="M 167.661563 120.327295 
L 181.718705 132.635079 
L 195.775848 133.109736 
L 209.832991 133.298232 
L 223.890134 132.006756 
L 237.947277 133.400676 
L 252.00442 133.462143 
L 266.061563 133.28389 
" style="fill:none;stroke:#f781bf;stroke-width:2.658681;"/>
   </g>
   <g id="line2d_71">
    <path clip-path="url(#pf0057f2a2a)" d="M 167.661563 107.306673 
L 181.718705 97.711947 
L 195.775848 133.45463 
L 209.832991 133.490827 
L 223.890134 128.264138 
L 237.947277 127.819532 
L 252.00442 133.224473 
L 266.061563 133.094369 
" style="fill:none;stroke:#999999;stroke-width:2.658681;"/>
   </g>
   <g id="PolyCollection_7">
    <path clip-path="url(#pf0057f2a2a)" d="M 167.661563 128.284756 
L 167.661563 131.711247 
L 181.718705 131.104339 
L 195.775848 121.973681 
L 209.832991 130.692452 
L 223.890134 133.437608 
L 237.947277 133.386764 
L 252.00442 133.460011 
L 266.061563 133.440864 
L 266.061563 133.331804 
L 266.061563 133.331804 
L 252.00442 133.30856 
L 237.947277 132.849098 
L 223.890134 114.697096 
L 209.832991 118.185313 
L 195.775848 82.198923 
L 181.718705 120.260764 
L 167.661563 128.284756 
z
" style="fill:#377eb8;fill-opacity:0.2;"/>
   </g>
   <g id="PolyCollection_8">
    <path clip-path="url(#pf0057f2a2a)" d="M 167.661563 122.242831 
L 167.661563 129.931578 
L 181.718705 132.167687 
L 195.775848 133.51573 
L 209.832991 133.54 
L 223.890134 133.515162 
L 237.947277 133.46687 
L 252.00442 133.520511 
L 266.061563 133.507862 
L 266.061563 133.459449 
L 266.061563 133.459449 
L 252.00442 133.477534 
L 237.947277 133.039444 
L 223.890134 133.448735 
L 209.832991 133.507218 
L 195.775848 132.949606 
L 181.718705 110.359921 
L 167.661563 122.242831 
z
" style="fill:#984ea3;fill-opacity:0.2;"/>
   </g>
   <g id="PolyCollection_9">
    <path clip-path="url(#pf0057f2a2a)" d="M 167.661563 98.08506 
L 167.661563 115.022361 
L 181.718705 122.358746 
L 195.775848 106.78304 
L 209.832991 82.502664 
L 223.890134 102.660541 
L 237.947277 76.30989 
L 252.00442 44.88282 
L 266.061563 39.184333 
L 266.061563 32.74 
L 266.061563 32.74 
L 252.00442 35.167365 
L 237.947277 38.145061 
L 223.890134 59.988127 
L 209.832991 44.51601 
L 195.775848 63.801617 
L 181.718705 95.41841 
L 167.661563 98.08506 
z
" style="fill:#4daf4a;fill-opacity:0.2;"/>
   </g>
   <g id="PolyCollection_10">
    <path clip-path="url(#pf0057f2a2a)" d="M 167.661563 102.255245 
L 167.661563 114.791145 
L 181.718705 126.58147 
L 195.775848 127.796048 
L 209.832991 127.169703 
L 223.890134 114.501299 
L 237.947277 127.16489 
L 252.00442 129.95562 
L 266.061563 132.163984 
L 266.061563 127.007346 
L 266.061563 127.007346 
L 252.00442 120.44651 
L 237.947277 100.789729 
L 223.890134 84.801803 
L 209.832991 93.900684 
L 195.775848 95.444784 
L 181.718705 98.646774 
L 167.661563 102.255245 
z
" style="fill:#ff7f00;fill-opacity:0.2;"/>
   </g>
   <g id="PolyCollection_11">
    <path clip-path="url(#pf0057f2a2a)" d="M 167.661563 112.536919 
L 167.661563 128.117672 
L 181.718705 133.182233 
L 195.775848 133.339417 
L 209.832991 133.44632 
L 223.890134 133.446263 
L 237.947277 133.479338 
L 252.00442 133.506277 
L 266.061563 133.493921 
L 266.061563 133.073859 
L 266.061563 133.073859 
L 252.00442 133.418008 
L 237.947277 133.322014 
L 223.890134 130.567249 
L 209.832991 133.150145 
L 195.775848 132.880054 
L 181.718705 132.087924 
L 167.661563 112.536919 
z
" style="fill:#f781bf;fill-opacity:0.2;"/>
   </g>
   <g id="PolyCollection_12">
    <path clip-path="url(#pf0057f2a2a)" d="M 167.661563 101.988251 
L 167.661563 112.625096 
L 181.718705 109.313035 
L 195.775848 133.48475 
L 209.832991 133.530024 
L 223.890134 131.706119 
L 237.947277 133.34122 
L 252.00442 133.515067 
L 266.061563 133.526449 
L 266.061563 132.662289 
L 266.061563 132.662289 
L 252.00442 132.933878 
L 237.947277 122.297843 
L 223.890134 124.822158 
L 209.832991 133.45163 
L 195.775848 133.42451 
L 181.718705 86.110858 
L 167.661563 101.988251 
z
" style="fill:#999999;fill-opacity:0.2;"/>
   </g>
   <g id="patch_12">
    <path d="M 162.741562 27.7 
L 270.981562 27.7 
L 270.981562 7.2 
L 162.741562 7.2 
z
" style="fill:#ffffff;stroke:#000000;stroke-linejoin:miter;"/>
   </g>
   <g id="text_31">
    <!-- Oral -->
    <g style="fill:#1a1a1a;" transform="translate(201.194766 21.589063)scale(0.15 -0.15)">
     <use xlink:href="#DejaVuSans-79"/>
     <use x="78.710938" xlink:href="#DejaVuSans-114"/>
     <use x="119.824219" xlink:href="#DejaVuSans-97"/>
     <use x="181.103516" xlink:href="#DejaVuSans-108"/>
    </g>
   </g>
  </g>
  <g id="axes_3">
   <g id="patch_13">
    <path d="M 276.021563 138.58 
L 384.261563 138.58 
L 384.261563 27.7 
L 276.021563 27.7 
z
" style="fill:#ffffff;stroke:#000000;stroke-linejoin:miter;"/>
   </g>
   <g id="matplotlib.axis_5">
    <g id="xtick_31">
     <g id="line2d_72">
      <path d="M 280.941563 138.58 
" style="fill:none;stroke:#333333;stroke-linecap:square;stroke-width:1.5;"/>
      <g>
       <use style="fill:#333333;stroke:#333333;" x="280.941563" xlink:href="#mbda469ff27" y="138.58"/>
      </g>
     </g>
     <g id="text_32">
      <!-- 0 -->
      <g transform="translate(277.760313 151.128438)scale(0.1 -0.1)">
       <use xlink:href="#DejaVuSans-48"/>
      </g>
     </g>
    </g>
    <g id="xtick_32">
     <g id="line2d_73">
      <path d="M 294.998705 138.58 
" style="fill:none;stroke:#333333;stroke-linecap:square;stroke-width:1.5;"/>
      <g>
       <use style="fill:#333333;stroke:#333333;" x="294.998705" xlink:href="#mbda469ff27" y="138.58"/>
      </g>
     </g>
     <g id="text_33">
      <!-- 1 -->
      <g transform="translate(291.817455 151.128438)scale(0.1 -0.1)">
       <use xlink:href="#DejaVuSans-49"/>
      </g>
     </g>
    </g>
    <g id="xtick_33">
     <g id="line2d_74">
      <path d="M 309.055848 138.58 
" style="fill:none;stroke:#333333;stroke-linecap:square;stroke-width:1.5;"/>
      <g>
       <use style="fill:#333333;stroke:#333333;" x="309.055848" xlink:href="#mbda469ff27" y="138.58"/>
      </g>
     </g>
     <g id="text_34">
      <!-- 2 -->
      <g transform="translate(305.874598 151.128438)scale(0.1 -0.1)">
       <use xlink:href="#DejaVuSans-50"/>
      </g>
     </g>
    </g>
    <g id="xtick_34">
     <g id="line2d_75">
      <path d="M 323.112991 138.58 
" style="fill:none;stroke:#333333;stroke-linecap:square;stroke-width:1.5;"/>
      <g>
       <use style="fill:#333333;stroke:#333333;" x="323.112991" xlink:href="#mbda469ff27" y="138.58"/>
      </g>
     </g>
     <g id="text_35">
      <!-- 3 -->
      <g transform="translate(319.931741 151.128438)scale(0.1 -0.1)">
       <use xlink:href="#DejaVuSans-51"/>
      </g>
     </g>
    </g>
    <g id="xtick_35">
     <g id="line2d_76">
      <path d="M 337.170134 138.58 
" style="fill:none;stroke:#333333;stroke-linecap:square;stroke-width:1.5;"/>
      <g>
       <use style="fill:#333333;stroke:#333333;" x="337.170134" xlink:href="#mbda469ff27" y="138.58"/>
      </g>
     </g>
     <g id="text_36">
      <!-- 4 -->
      <g transform="translate(333.988884 151.128438)scale(0.1 -0.1)">
       <use xlink:href="#DejaVuSans-52"/>
      </g>
     </g>
    </g>
    <g id="xtick_36">
     <g id="line2d_77">
      <path d="M 351.227277 138.58 
" style="fill:none;stroke:#333333;stroke-linecap:square;stroke-width:1.5;"/>
      <g>
       <use style="fill:#333333;stroke:#333333;" x="351.227277" xlink:href="#mbda469ff27" y="138.58"/>
      </g>
     </g>
     <g id="text_37">
      <!-- 5 -->
      <g transform="translate(348.046027 151.128438)scale(0.1 -0.1)">
       <use xlink:href="#DejaVuSans-53"/>
      </g>
     </g>
    </g>
    <g id="xtick_37">
     <g id="line2d_78">
      <path d="M 365.28442 138.58 
" style="fill:none;stroke:#333333;stroke-linecap:square;stroke-width:1.5;"/>
      <g>
       <use style="fill:#333333;stroke:#333333;" x="365.28442" xlink:href="#mbda469ff27" y="138.58"/>
      </g>
     </g>
     <g id="text_38">
      <!-- 6 -->
      <g transform="translate(362.10317 151.128438)scale(0.1 -0.1)">
       <use xlink:href="#DejaVuSans-54"/>
      </g>
     </g>
    </g>
    <g id="xtick_38">
     <g id="line2d_79">
      <path d="M 379.341563 138.58 
" style="fill:none;stroke:#333333;stroke-linecap:square;stroke-width:1.5;"/>
      <g>
       <use style="fill:#333333;stroke:#333333;" x="379.341563" xlink:href="#mbda469ff27" y="138.58"/>
      </g>
     </g>
     <g id="text_39">
      <!-- 7 -->
      <g transform="translate(376.160313 151.128438)scale(0.1 -0.1)">
       <use xlink:href="#DejaVuSans-55"/>
      </g>
     </g>
    </g>
    <g id="xtick_39">
     <g id="line2d_80">
      <path clip-path="url(#p05a0d69dc7)" d="M 287.970134 138.58 
L 287.970134 27.7 
" style="fill:none;stroke:#ffffff;stroke-linecap:square;stroke-width:0.5;"/>
     </g>
    </g>
    <g id="xtick_40">
     <g id="line2d_81">
      <path clip-path="url(#p05a0d69dc7)" d="M 302.027277 138.58 
L 302.027277 27.7 
" style="fill:none;stroke:#ffffff;stroke-linecap:square;stroke-width:0.5;"/>
     </g>
    </g>
    <g id="xtick_41">
     <g id="line2d_82">
      <path clip-path="url(#p05a0d69dc7)" d="M 316.08442 138.58 
L 316.08442 27.7 
" style="fill:none;stroke:#ffffff;stroke-linecap:square;stroke-width:0.5;"/>
     </g>
    </g>
    <g id="xtick_42">
     <g id="line2d_83">
      <path clip-path="url(#p05a0d69dc7)" d="M 330.141563 138.58 
L 330.141563 27.7 
" style="fill:none;stroke:#ffffff;stroke-linecap:square;stroke-width:0.5;"/>
     </g>
    </g>
    <g id="xtick_43">
     <g id="line2d_84">
      <path clip-path="url(#p05a0d69dc7)" d="M 344.198705 138.58 
L 344.198705 27.7 
" style="fill:none;stroke:#ffffff;stroke-linecap:square;stroke-width:0.5;"/>
     </g>
    </g>
    <g id="xtick_44">
     <g id="line2d_85">
      <path clip-path="url(#p05a0d69dc7)" d="M 358.255848 138.58 
L 358.255848 27.7 
" style="fill:none;stroke:#ffffff;stroke-linecap:square;stroke-width:0.5;"/>
     </g>
    </g>
    <g id="xtick_45">
     <g id="line2d_86">
      <path clip-path="url(#p05a0d69dc7)" d="M 372.312991 138.58 
L 372.312991 27.7 
" style="fill:none;stroke:#ffffff;stroke-linecap:square;stroke-width:0.5;"/>
     </g>
    </g>
    <g id="text_40">
     <!-- Age (days) -->
     <defs>
      <path d="M 31 75.875 
Q 24.46875 64.65625 21.28125 53.65625 
Q 18.109375 42.671875 18.109375 31.390625 
Q 18.109375 20.125 21.3125 9.0625 
Q 24.515625 -2 31 -13.1875 
L 23.1875 -13.1875 
Q 15.875 -1.703125 12.234375 9.375 
Q 8.59375 20.453125 8.59375 31.390625 
Q 8.59375 42.28125 12.203125 53.3125 
Q 15.828125 64.359375 23.1875 75.875 
z
" id="DejaVuSans-40"/>
      <path d="M 32.171875 -5.078125 
Q 28.375 -14.84375 24.75 -17.8125 
Q 21.140625 -20.796875 15.09375 -20.796875 
L 7.90625 -20.796875 
L 7.90625 -13.28125 
L 13.1875 -13.28125 
Q 16.890625 -13.28125 18.9375 -11.515625 
Q 21 -9.765625 23.484375 -3.21875 
L 25.09375 0.875 
L 2.984375 54.6875 
L 12.5 54.6875 
L 29.59375 11.921875 
L 46.6875 54.6875 
L 56.203125 54.6875 
z
" id="DejaVuSans-121"/>
      <path d="M 44.28125 53.078125 
L 44.28125 44.578125 
Q 40.484375 46.53125 36.375 47.5 
Q 32.28125 48.484375 27.875 48.484375 
Q 21.1875 48.484375 17.84375 46.4375 
Q 14.5 44.390625 14.5 40.28125 
Q 14.5 37.15625 16.890625 35.375 
Q 19.28125 33.59375 26.515625 31.984375 
L 29.59375 31.296875 
Q 39.15625 29.25 43.1875 25.515625 
Q 47.21875 21.78125 47.21875 15.09375 
Q 47.21875 7.46875 41.1875 3.015625 
Q 35.15625 -1.421875 24.609375 -1.421875 
Q 20.21875 -1.421875 15.453125 -0.5625 
Q 10.6875 0.296875 5.421875 2 
L 5.421875 11.28125 
Q 10.40625 8.6875 15.234375 7.390625 
Q 20.0625 6.109375 24.8125 6.109375 
Q 31.15625 6.109375 34.5625 8.28125 
Q 37.984375 10.453125 37.984375 14.40625 
Q 37.984375 18.0625 35.515625 20.015625 
Q 33.0625 21.96875 24.703125 23.78125 
L 21.578125 24.515625 
Q 13.234375 26.265625 9.515625 29.90625 
Q 5.8125 33.546875 5.8125 39.890625 
Q 5.8125 47.609375 11.28125 51.796875 
Q 16.75 56 26.8125 56 
Q 31.78125 56 36.171875 55.265625 
Q 40.578125 54.546875 44.28125 53.078125 
z
" id="DejaVuSans-115"/>
      <path d="M 8.015625 75.875 
L 15.828125 75.875 
Q 23.140625 64.359375 26.78125 53.3125 
Q 30.421875 42.28125 30.421875 31.390625 
Q 30.421875 20.453125 26.78125 9.375 
Q 23.140625 -1.703125 15.828125 -13.1875 
L 8.015625 -13.1875 
Q 14.5 -2 17.703125 9.0625 
Q 20.90625 20.125 20.90625 31.390625 
Q 20.90625 42.671875 17.703125 53.65625 
Q 14.5 64.65625 8.015625 75.875 
z
" id="DejaVuSans-41"/>
     </defs>
     <g transform="translate(181.801094 165.966406)scale(0.11 -0.11)">
      <use xlink:href="#DejaVuSans-65"/>
      <use x="68.408203" xlink:href="#DejaVuSans-103"/>
      <use x="131.884766" xlink:href="#DejaVuSans-101"/>
      <use x="193.408203" xlink:href="#DejaVuSans-32"/>
      <use x="225.195312" xlink:href="#DejaVuSans-40"/>
      <use x="264.208984" xlink:href="#DejaVuSans-100"/>
      <use x="327.685547" xlink:href="#DejaVuSans-97"/>
      <use x="388.964844" xlink:href="#DejaVuSans-121"/>
      <use x="448.144531" xlink:href="#DejaVuSans-115"/>
      <use x="500.244141" xlink:href="#DejaVuSans-41"/>
     </g>
    </g>
   </g>
   <g id="matplotlib.axis_6">
    <g id="ytick_19">
     <g id="line2d_87">
      <path clip-path="url(#p05a0d69dc7)" d="M 276.021563 133.54 
L 384.261563 133.54 
" style="fill:none;stroke:#d3d3d3;stroke-linecap:square;stroke-opacity:0.4;"/>
     </g>
    </g>
    <g id="ytick_20">
     <g id="line2d_88">
      <path clip-path="url(#p05a0d69dc7)" d="M 276.021563 107.92902 
L 384.261563 107.92902 
" style="fill:none;stroke:#d3d3d3;stroke-linecap:square;stroke-opacity:0.4;"/>
     </g>
    </g>
    <g id="ytick_21">
     <g id="line2d_89">
      <path clip-path="url(#p05a0d69dc7)" d="M 276.021563 82.31804 
L 384.261563 82.31804 
" style="fill:none;stroke:#d3d3d3;stroke-linecap:square;stroke-opacity:0.4;"/>
     </g>
    </g>
    <g id="ytick_22">
     <g id="line2d_90">
      <path clip-path="url(#p05a0d69dc7)" d="M 276.021563 56.70706 
L 384.261563 56.70706 
" style="fill:none;stroke:#d3d3d3;stroke-linecap:square;stroke-opacity:0.4;"/>
     </g>
    </g>
    <g id="ytick_23">
     <g id="line2d_91">
      <path clip-path="url(#p05a0d69dc7)" d="M 276.021563 31.09608 
L 384.261563 31.09608 
" style="fill:none;stroke:#d3d3d3;stroke-linecap:square;stroke-opacity:0.4;"/>
     </g>
    </g>
    <g id="ytick_24">
     <g id="line2d_92">
      <path clip-path="url(#p05a0d69dc7)" d="M 276.021563 120.73451 
L 384.261563 120.73451 
" style="fill:none;stroke:#ffffff;stroke-linecap:square;stroke-width:0.5;"/>
     </g>
    </g>
    <g id="ytick_25">
     <g id="line2d_93">
      <path clip-path="url(#p05a0d69dc7)" d="M 276.021563 95.12353 
L 384.261563 95.12353 
" style="fill:none;stroke:#ffffff;stroke-linecap:square;stroke-width:0.5;"/>
     </g>
    </g>
    <g id="ytick_26">
     <g id="line2d_94">
      <path clip-path="url(#p05a0d69dc7)" d="M 276.021563 69.51255 
L 384.261563 69.51255 
" style="fill:none;stroke:#ffffff;stroke-linecap:square;stroke-width:0.5;"/>
     </g>
    </g>
    <g id="ytick_27">
     <g id="line2d_95">
      <path clip-path="url(#p05a0d69dc7)" d="M 276.021563 43.90157 
L 384.261563 43.90157 
" style="fill:none;stroke:#ffffff;stroke-linecap:square;stroke-width:0.5;"/>
     </g>
    </g>
   </g>
   <g id="line2d_96">
    <path clip-path="url(#p05a0d69dc7)" d="M 280.941563 130.92768 
L 294.998705 131.643324 
L 309.055848 126.254774 
L 323.112991 133.04144 
L 337.170134 133.259987 
L 351.227277 133.434141 
L 365.28442 133.142518 
L 379.341563 133.370968 
" style="fill:none;stroke:#377eb8;stroke-width:2.658681;"/>
   </g>
   <g id="line2d_97">
    <path clip-path="url(#p05a0d69dc7)" d="M 280.941563 125.021788 
L 294.998705 129.66762 
L 309.055848 133.44341 
L 323.112991 133.471704 
L 337.170134 133.266816 
L 351.227277 133.440971 
L 365.28442 133.417067 
L 379.341563 133.458045 
" style="fill:none;stroke:#984ea3;stroke-width:2.658681;"/>
   </g>
   <g id="line2d_98">
    <path clip-path="url(#p05a0d69dc7)" d="M 280.941563 127.216649 
L 294.998705 126.263555 
L 309.055848 131.83065 
L 323.112991 131.822357 
L 337.170134 131.822357 
L 351.227277 133.36926 
L 365.28442 127.979344 
L 379.341563 133.355601 
" style="fill:none;stroke:#4daf4a;stroke-width:2.658681;"/>
   </g>
   <g id="line2d_99">
    <path clip-path="url(#p05a0d69dc7)" d="M 280.941563 103.290872 
L 294.998705 74.813291 
L 309.055848 45.968011 
L 323.112991 35.484095 
L 337.170134 35.624102 
L 351.227277 39.817473 
L 365.28442 43.97533 
L 379.341563 38.384965 
" style="fill:none;stroke:#ff7f00;stroke-width:2.658681;"/>
   </g>
   <g id="line2d_100">
    <path clip-path="url(#p05a0d69dc7)" d="M 280.941563 95.679288 
L 294.998705 114.824959 
L 309.055848 131.359408 
L 323.112991 131.61064 
L 337.170134 132.638494 
L 351.227277 127.506053 
L 365.28442 131.241158 
L 379.341563 130.968658 
" style="fill:none;stroke:#f781bf;stroke-width:2.658681;"/>
   </g>
   <g id="line2d_101">
    <path clip-path="url(#p05a0d69dc7)" d="M 280.941563 116.659803 
L 294.998705 121.583331 
L 309.055848 129.939828 
L 323.112991 133.365845 
L 337.170134 132.184325 
L 351.227277 131.228182 
L 365.28442 129.040663 
L 379.341563 129.257844 
" style="fill:none;stroke:#999999;stroke-width:2.658681;"/>
   </g>
   <g id="PolyCollection_13">
    <path clip-path="url(#p05a0d69dc7)" d="M 280.941563 129.030202 
L 280.941563 132.825158 
L 294.998705 132.644971 
L 309.055848 130.883727 
L 323.112991 133.31447 
L 337.170134 133.387464 
L 351.227277 133.469793 
L 365.28442 133.42026 
L 379.341563 133.468648 
L 379.341563 133.273287 
L 379.341563 133.273287 
L 365.28442 132.864776 
L 351.227277 133.39849 
L 337.170134 133.132509 
L 323.112991 132.76841 
L 309.055848 121.62582 
L 294.998705 130.641677 
L 280.941563 129.030202 
z
" style="fill:#377eb8;fill-opacity:0.2;"/>
   </g>
   <g id="PolyCollection_14">
    <path clip-path="url(#p05a0d69dc7)" d="M 280.941563 118.172455 
L 280.941563 131.871121 
L 294.998705 131.954755 
L 309.055848 133.478534 
L 323.112991 133.498505 
L 337.170134 133.511464 
L 351.227277 133.535961 
L 365.28442 133.509381 
L 379.341563 133.512895 
L 379.341563 133.403195 
L 379.341563 133.403195 
L 365.28442 133.324754 
L 351.227277 133.345981 
L 337.170134 133.022168 
L 323.112991 133.444903 
L 309.055848 133.408286 
L 294.998705 127.380485 
L 280.941563 118.172455 
z
" style="fill:#984ea3;fill-opacity:0.2;"/>
   </g>
   <g id="PolyCollection_15">
    <path clip-path="url(#p05a0d69dc7)" d="M 280.941563 124.578183 
L 280.941563 129.855115 
L 294.998705 129.16288 
L 309.055848 132.637119 
L 323.112991 132.980223 
L 337.170134 132.764446 
L 351.227277 133.444757 
L 365.28442 133.320223 
L 379.341563 133.425583 
L 379.341563 133.285618 
L 379.341563 133.285618 
L 365.28442 122.638465 
L 351.227277 133.293763 
L 337.170134 130.880268 
L 323.112991 130.664491 
L 309.055848 131.024181 
L 294.998705 123.364229 
L 280.941563 124.578183 
z
" style="fill:#4daf4a;fill-opacity:0.2;"/>
   </g>
   <g id="PolyCollection_16">
    <path clip-path="url(#p05a0d69dc7)" d="M 280.941563 97.30745 
L 280.941563 109.274293 
L 294.998705 83.950046 
L 309.055848 51.942024 
L 323.112991 37.25261 
L 337.170134 36.950081 
L 351.227277 44.982794 
L 365.28442 50.990414 
L 379.341563 41.493351 
L 379.341563 35.27658 
L 379.341563 35.27658 
L 365.28442 36.960246 
L 351.227277 34.652151 
L 337.170134 34.298122 
L 323.112991 33.71558 
L 309.055848 39.993997 
L 294.998705 65.676537 
L 280.941563 97.30745 
z
" style="fill:#ff7f00;fill-opacity:0.2;"/>
   </g>
   <g id="PolyCollection_17">
    <path clip-path="url(#p05a0d69dc7)" d="M 280.941563 86.228915 
L 280.941563 105.129662 
L 294.998705 122.762755 
L 309.055848 132.357326 
L 323.112991 133.040226 
L 337.170134 133.209931 
L 351.227277 132.57554 
L 365.28442 132.416175 
L 379.341563 132.139166 
L 379.341563 129.798149 
L 379.341563 129.798149 
L 365.28442 130.066141 
L 351.227277 122.436567 
L 337.170134 132.067056 
L 323.112991 130.181053 
L 309.055848 130.36149 
L 294.998705 106.887164 
L 280.941563 86.228915 
z
" style="fill:#f781bf;fill-opacity:0.2;"/>
   </g>
   <g id="PolyCollection_18">
    <path clip-path="url(#p05a0d69dc7)" d="M 280.941563 111.931273 
L 280.941563 121.388333 
L 294.998705 124.500447 
L 309.055848 132.63869 
L 323.112991 133.425872 
L 337.170134 133.090251 
L 351.227277 133.296145 
L 365.28442 132.827291 
L 379.341563 132.335791 
L 379.341563 126.179897 
L 379.341563 126.179897 
L 365.28442 125.254035 
L 351.227277 129.160219 
L 337.170134 131.2784 
L 323.112991 133.305819 
L 309.055848 127.240966 
L 294.998705 118.666215 
L 280.941563 111.931273 
z
" style="fill:#999999;fill-opacity:0.2;"/>
   </g>
   <g id="patch_14">
    <path d="M 276.021563 27.7 
L 384.261563 27.7 
L 384.261563 7.2 
L 276.021563 7.2 
z
" style="fill:#ffffff;stroke:#000000;stroke-linejoin:miter;"/>
   </g>
   <g id="patch_15">
    <path d="M 384.261563 138.58 
L 401.761563 138.58 
L 401.761563 27.7 
L 384.261563 27.7 
z
" style="fill:#ffffff;stroke:#000000;stroke-linejoin:miter;"/>
   </g>
   <g id="text_41">
    <!-- Skin -->
    <g style="fill:#1a1a1a;" transform="translate(314.200547 21.589063)scale(0.15 -0.15)">
     <use xlink:href="#DejaVuSans-83"/>
     <use x="63.476562" xlink:href="#DejaVuSans-107"/>
     <use x="121.386719" xlink:href="#DejaVuSans-105"/>
     <use x="149.169922" xlink:href="#DejaVuSans-110"/>
    </g>
   </g>
   <g id="text_42">
    <!-- LP-Vaginal -->
    <defs>
     <path d="M 9.8125 72.90625 
L 19.671875 72.90625 
L 19.671875 8.296875 
L 55.171875 8.296875 
L 55.171875 0 
L 9.8125 0 
z
" id="DejaVuSans-76"/>
     <path d="M 4.890625 31.390625 
L 31.203125 31.390625 
L 31.203125 23.390625 
L 4.890625 23.390625 
z
" id="DejaVuSans-45"/>
    </defs>
    <g style="fill:#1a1a1a;" transform="translate(389.700313 51.624063)rotate(-270)scale(0.12 -0.12)">
     <use xlink:href="#DejaVuSans-76"/>
     <use x="55.712891" xlink:href="#DejaVuSans-80"/>
     <use x="115.984375" xlink:href="#DejaVuSans-45"/>
     <use x="151.990234" xlink:href="#DejaVuSans-86"/>
     <use x="220.289062" xlink:href="#DejaVuSans-97"/>
     <use x="281.568359" xlink:href="#DejaVuSans-103"/>
     <use x="345.044922" xlink:href="#DejaVuSans-105"/>
     <use x="372.828125" xlink:href="#DejaVuSans-110"/>
     <use x="436.207031" xlink:href="#DejaVuSans-97"/>
     <use x="497.486328" xlink:href="#DejaVuSans-108"/>
    </g>
   </g>
  </g>
 </g>
 <defs>
  <clipPath id="p6b713bcd80">
   <rect height="110.88" width="108.24" x="49.461563" y="27.7"/>
  </clipPath>
  <clipPath id="pfffb5ceaec">
   <path d="M 421.161563 53.262969 
L 421.161563 37.422969 
L 437.001562 37.422969 
L 437.001562 53.262969 
"/>
  </clipPath>
  <clipPath id="p1fb2ffc089">
   <path d="M 421.161563 71.102969 
L 421.161563 55.262969 
L 437.001562 55.262969 
L 437.001562 71.102969 
"/>
  </clipPath>
  <clipPath id="pc03420af42">
   <path d="M 421.161563 88.942969 
L 421.161563 73.102969 
L 437.001562 73.102969 
L 437.001562 88.942969 
"/>
  </clipPath>
  <clipPath id="p5e6bb46501">
   <path d="M 421.161563 106.782969 
L 421.161563 90.942969 
L 437.001562 90.942969 
L 437.001562 106.782969 
"/>
  </clipPath>
  <clipPath id="p94dec9ad84">
   <path d="M 421.161563 124.622969 
L 421.161563 108.782969 
L 437.001562 108.782969 
L 437.001562 124.622969 
"/>
  </clipPath>
  <clipPath id="pa151847daa">
   <path d="M 421.161563 142.462969 
L 421.161563 126.622969 
L 437.001562 126.622969 
L 437.001562 142.462969 
"/>
  </clipPath>
  <clipPath id="pf0057f2a2a">
   <rect height="110.88" width="108.24" x="162.741562" y="27.7"/>
  </clipPath>
  <clipPath id="p05a0d69dc7">
   <rect height="110.88" width="108.24" x="276.021563" y="27.7"/>
  </clipPath>
 </defs>
</svg>
